<?xml version="1.0" encoding="UTF-8" standalone="no"?>
<!-- Created with Inkscape (http://www.inkscape.org/) -->

<svg
   xmlns:dc="http://purl.org/dc/elements/1.1/"
   xmlns:cc="http://creativecommons.org/ns#"
   xmlns:rdf="http://www.w3.org/1999/02/22-rdf-syntax-ns#"
   xmlns:svg="http://www.w3.org/2000/svg"
   xmlns="http://www.w3.org/2000/svg"
   xmlns:sodipodi="http://sodipodi.sourceforge.net/DTD/sodipodi-0.dtd"
   xmlns:inkscape="http://www.inkscape.org/namespaces/inkscape"
   sodipodi:docname="matrix-pills.svg"
   width="100.0mm"
   height="100.0mm"
   viewBox="0 0 100.0 100.0"
   version="1.1"
   id="svg5812"
   inkscape:version="0.92.4 (5da689c313, 2019-01-14)">
  <defs
     id="defs5806" />
  <sodipodi:namedview
     id="base"
     pagecolor="#ffffff"
     bordercolor="#666666"
     borderopacity="1.0"
     inkscape:pageopacity="0.0"
     inkscape:pageshadow="2"
     inkscape:zoom="5.6568543"
     inkscape:cx="274.68325"
     inkscape:cy="301.3339"
     inkscape:document-units="mm"
     inkscape:current-layer="g6368"
     showgrid="true"
     inkscape:window-width="1920"
     inkscape:window-height="1017"
     inkscape:window-x="1672"
     inkscape:window-y="-8"
     inkscape:window-maximized="1"
     inkscape:snap-global="false"
     borderlayer="true">
    <inkscape:grid
       id="grid6358"
       units="mm"
       type="xygrid"
       empspacing="1"
       spacingy="2.54"
       spacingx="2.54" />
  </sodipodi:namedview>
  <metadata
     id="metadata5809">
    <rdf:RDF>
      <cc:Work
         rdf:about="">
        <dc:format>image/svg+xml</dc:format>
        <dc:type
           rdf:resource="http://purl.org/dc/dcmitype/StillImage" />
      </cc:Work>
    </rdf:RDF>
  </metadata>
  <g
     id="g6364"
     sodipodi:insensitive="true"
     inkscape:groupmode="layer"
     inkscape:label="[fixed] BG">
    <rect
       id="rect6362"
       style="stroke:none;fill-opacity:1;fill:#FFFFFF"
       height="100.0"
       width="100.0"
       y="0"
       x="0" />
  </g>
  <g
     id="g6366"
     inkscape:groupmode="layer"
     inkscape:label="Edge.Cuts"
     style="display:none">
    <path
       style="display:inline;fill:none;stroke:#000000;stroke-width:0.32499999;stroke-miterlimit:4;stroke-dasharray:none;stroke-opacity:1"
       d="M35.186701 99.358613L34.952219 99.232577L34.718215 99.089282L34.253935 98.753455L33.798443 98.356201L33.356323 97.902591L32.932157 97.397697L32.530527 96.846588L32.156016 96.254334L31.813208 95.626008L31.534863 95.108329L31.436943 94.950849L31.385253 94.893009L31.343613 94.930529L31.273073 95.03269L31.084723 95.368521L30.944885 95.606197L30.769846 95.841981L30.562332 96.07348L30.325068 96.298298L30.06078 96.514042L29.772194 96.718318L29.462035 96.90873L29.13303 97.082885L28.70145 97.273897L28.501807 97.339667L28.292815 97.389567L28.059392 97.426557L27.786453 97.453597L27.061689 97.489697L26.5538 97.494497L26.069207 97.473097L25.607632 97.425337L25.168798 97.351047L24.752417 97.250086L24.358231 97.122271L23.985952 96.967453L23.635303 96.785472L23.306006 96.576168L22.997783 96.339382L22.710357 96.074954L22.44345 95.782725L22.196784 95.462533L21.970082 95.11422L21.763065 94.737625L21.575457 94.33259L21.17908 93.308024L20.5252 91.520292L19.704208 89.219944L18.806498 86.657533L18.628408 86.181599L18.411321 85.658191L17.92716 84.605717L17.693589 84.145035L17.488025 83.773644L17.327222 83.525735L17.268842 83.458775L17.227932 83.435505L17.138442 83.461765L16.999596 83.533275L16.649734 83.768359L16.415831 83.933663L16.180713 84.072021L15.938984 84.185039L15.68525 84.274329L15.414115 84.341499L15.120184 84.388149L14.798063 84.415889L14.442356 84.426339L13.8828 84.406009L13.34295 84.339729L12.830027 84.230179L12.351257 84.080019L11.913863 83.891916L11.525068 83.668537L11.351153 83.544452L11.192096 83.412547L11.048801 83.273156L10.922171 83.126612L10.766548 82.879958L10.633923 82.557516L10.522291 82.145641L10.429651 81.630687L10.354001 80.999008L10.293331 80.236959L10.245651 79.330894L10.208951 78.267168L10.168001 77.040592L10.115791 76.019321L10.046471 75.166274L9.954171 74.444371L9.8330225 73.816533L9.677174 73.245679L9.4807558 72.694728L9.2379044 72.1266L8.80179 71.127695L8.5245534 70.421265L8.4674644 70.153404L8.4215354 69.756085L8.3878124 69.271146L8.3673424 68.740425L8.3611724 68.205759L8.3703424 67.708985L8.3959074 67.291942L8.4389104 66.996466L8.7101974 65.813352L9.0900275 64.173998L9.4218374 62.886707L9.4925964 62.588676L9.5538744 62.263343L9.6479944 61.542865L9.7042154 60.749462L9.7225544 59.907326L9.7030306 59.040648L9.6456577 58.173617L9.5504552 57.330424L9.4174404 56.53526L9.2945567 55.814057L9.1937876 55.015242L9.1168585 54.17648L9.0654945 53.335438L9.0414215 52.529781L9.0463615 51.797176L9.0820475 51.175288L9.1502005 50.701784L9.290852 50.194236L9.5062515 49.621486L9.8017057 48.973829L10.182521 48.241557L10.654005 47.414964L11.221464 46.484345L11.890205 45.439993L12.665535 44.272202L14.912434 40.926786L15.065738 40.652595L15.267491 40.246022L15.772693 39.135429L16.340751 37.794405L16.884373 36.422349L17.063633 35.979445L17.274831 35.504126L17.746724 34.544783L17.984262 34.105026L18.207422 33.721392L18.404626 33.416013L18.564294 33.211025L18.886827 32.86408L18.571662 32.027913L18.162763 30.852041L17.622255 29.199136L16.913058 27.0291L16.585585 26.08229L16.269286 25.214287L15.958982 24.415093L15.649491 23.674708L15.335632 22.983136L15.012226 22.330376L14.674089 21.706431L14.316043 21.101301L13.932906 20.504989L13.519497 19.907496L13.070635 19.298823L12.58114 18.668973L11.459524 17.305742L10.25346 15.861901L9.2746174 14.655447L8.5505042 13.720961L8.1086274 13.093025L7.9039217 12.740427L7.7086091 12.351146L7.5268046 11.936702L7.3626234 11.508612L7.2201806 11.078397L7.1035912 10.657575L7.0169705 10.257665L6.9644334 9.8901873L6.9217929 9.5416873L6.868582 9.2331482L6.8115891 8.9980488L6.7576024 8.8698682L6.7028864 8.7791632L6.6803364 8.6889382L6.6885164 8.6014042L6.7259864 8.5187742L6.7913094 8.4432592L6.8830484 8.3770712L6.9997656 8.3224222L7.1400236 8.2815242L7.3287656 8.2211582L7.5701859 8.1166391L7.8332191 7.9826561L8.0867994 7.8338971L8.5129104 7.5749372L8.7254814 7.4672283L8.8547628 7.4220504L9.1274579 7.3011622L9.9242544 6.9201278L10.758201 6.4998714L11.271628 6.216139L11.62245 6.0262435L12.028707 5.8628851L12.265385 5.7652435L12.580306 5.6061616L12.932393 5.4076634L13.28057 5.1917731L13.939453 4.7753876L14.391562 4.5138471L14.819474 4.3341378L15.42804 4.11291L16.046033 3.9094494L16.50223 3.7830421L16.711561 3.7192581L17.051365 3.5948479L17.934419 3.2359606L18.818526 2.8694854L19.18597 2.7366564L19.558426 2.622023L19.976957 2.5140276L20.482628 2.4011126L21.919639 2.1142936L23.528128 1.7865386L24.597209 1.5426516L25.5563 1.2980726L26.016918 1.1501065L26.739412 0.87919955L27.17725 0.73610383L27.721916 0.60506907L28.345956 0.4895072L29.021916 0.3928302L29.722343 0.31845L30.419782 0.2697785L31.08678 0.2502277L31.695884 0.2632096L32.124794 0.2941187L32.370076 0.3418448L32.439486 0.37773L32.481746 0.4246785L32.503106 0.4849766L32.509806 0.5609106L32.532226 0.68882099L32.589916 0.84886073L32.674146 1.0205984L32.776198 1.1836026L32.929131 1.4151193L33.097921 1.7015421L33.476896 2.4265482L33.900767 3.3335053L34.35718 4.3972976L34.60388 4.9693837L34.867442 5.5394075L35.116309 6.0413529L35.318924 6.4092041L35.775564 7.1012726L36.444559 8.0547741L37.124087 8.9874235L37.612325 9.616936L37.743631 9.7884636L37.798241 9.8928223L37.904629 10.100493L38.160411 10.520426L38.335861 10.820171L38.517157 11.177467L38.707592 11.600742L38.910463 12.098425L39.366686 13.350723L39.912182 15.001787L40.212778 15.883576L40.560197 16.811483L40.911414 17.675174L41.223407 18.364318L41.58098 19.065899L41.930652 19.684324L42.304356 20.259326L42.734023 20.830642L43.251587 21.438005L43.888979 22.121151L44.678133 22.919815L45.65098 23.873732L46.125511 24.349408L46.531105 24.789745L46.874417 25.204787L47.162105 25.604579L47.400824 25.999165L47.597231 26.39859L47.757981 26.812898L47.889731 27.252134L48.082807 27.88883L48.319546 28.485151L48.608736 29.060675L48.959164 29.634984L49.085305 29.840555L49.207373 30.069773L49.439019 30.59809L49.653572 31.217806L49.850498 31.926792L50.029269 32.722918L50.18935 33.604056L50.330212 34.568077L50.451322 35.612852L50.629809 37.274226L50.692419 37.745428L50.742389 37.992847L50.763829 38.036357L50.783549 38.028357L50.819729 37.863921L50.892489 36.982742L50.947509 36.310391L51.024839 35.60253L51.120679 34.881883L51.231233 34.171174L51.352704 33.493126L51.481296 32.870464L51.613213 32.325911L51.744657 31.882191L51.875822 31.53884L52.045869 31.159332L52.232812 30.789796L52.414667 30.476362L52.671814 30.051921L52.866824 29.637384L53.074335 29.046274L53.368986 28.092115L53.516103 27.6548L53.689798 27.245903L53.905985 26.843035L54.180579 26.423805L54.529496 25.965825L54.968648 25.446703L55.513951 24.844049L56.181319 24.135475L57.042877 23.199551L57.422067 22.757646L57.770673 22.326171L58.091553 21.899918L58.387564 21.47368L58.661561 21.042251L58.916401 20.600423L59.154943 20.14299L59.380042 19.664744L59.594555 19.160479L59.801339 18.624987L60.003252 18.053062L60.203149 17.439497L60.608324 16.066617L61.037493 14.603915L61.356918 13.631839L61.691792 12.86404L62.131011 11.978345L62.579965 11.156629L62.778528 10.826599L62.944047 10.580766L63.429281 9.9313207L63.94705 9.2802626L64.193061 8.9465527L64.451987 8.5449301L64.717993 8.0868417L64.985247 7.5837342L65.247913 7.0470547L65.500159 6.4882498L65.73615 5.9187665L65.950052 5.3500516L66.163154 4.7924032L66.432103 4.148648L66.722454 3.4984711L66.999762 2.9215576L67.246377 2.4425015L67.451349 2.0858082L67.635824 1.8408301L67.726984 1.7569071L67.820954 1.6969201L67.920374 1.6595381L68.027881 1.6434301L68.146125 1.6472601L68.277748 1.6697071L68.591705 1.7651141L68.990899 1.9189983L69.631699 2.1667727L70.243268 2.3847694L70.835873 2.5757253L71.41978 2.7423772L72.005254 2.8874618L72.602562 3.013716L73.221971 3.1238765L73.873746 3.2206805L75.062268 3.4059875L75.570111 3.5060596L76.027987 3.6130275L76.44163 3.728354L76.816775 3.8535017L77.159156 3.9899333L77.474507 4.1391115L77.717768 4.2481275L78.011176 4.3525109L78.346973 4.4505429L78.717402 4.5405049L79.531126 4.689341L79.958906 4.744777L80.390289 4.785267L80.875018 4.835215L81.412284 4.912261L81.936707 5.005892L82.382904 5.105596L83.516756 5.3843047L84.575508 5.6214525L85.41358 5.7861946L85.704366 5.8317746L85.885389 5.8476866L86.089954 5.8615486L86.379728 5.9016516L87.165799 6.0483198L88.145385 6.263164L89.22027 6.5216567L90.292238 6.7992706L91.263073 7.0714783L92.034559 7.3137525L92.314853 7.4159998L92.508479 7.5015658L92.700875 7.6104402L92.85369 7.7229377L92.973034 7.8528419L93.065014 8.0139365L93.135734 8.2200051L93.191314 8.4848312L93.281464 9.2458909L93.317194 9.7407025L93.312594 10.101986L93.263124 10.384284L93.164234 10.642142L93.074394 10.811689L92.983014 10.950533L92.900764 11.044343L92.838334 11.078803L92.792114 11.091093L92.754034 11.124543L92.728064 11.174043L92.718164 11.234483L92.678034 11.429616L92.568593 11.732946L92.402906 12.11798L92.194037 12.558225L91.699007 13.498375L91.438972 13.945295L91.188008 14.341454L90.785573 14.909963L90.201004 15.693574L89.51269 16.588892L88.799018 17.492524L87.416734 19.262134L86.853484 20.013985L86.477078 20.54371L86.005149 21.294971L85.558205 22.104112L85.12932 22.988317L84.711566 23.964774L84.298017 25.050669L83.881744 26.263188L83.455822 27.619516L83.013322 29.136841L82.20755 31.923549L82.025037 32.554814L81.975447 32.764053L81.952077 32.922678L81.953777 33.045923L81.979307 33.149025L82.027527 33.247215L82.097267 33.355736L82.443757 33.891318L83.021095 34.868526L83.494299 35.726818L83.939948 36.611457L84.434622 37.66771L85.221672 39.333856L85.571788 40.022253L85.913039 40.649787L86.260481 41.243149L86.62917 41.82903L87.034162 42.434121L87.490514 43.085113L89.008136 45.249216L90.222385 47.056277L90.699641 47.801235L91.081729 48.427316L91.362207 48.924647L91.534634 49.283355L91.644163 49.573264L91.740823 49.873126L91.824663 50.184441L91.895743 50.508711L91.999834 51.202115L92.053514 51.965343L92.057214 52.8104L92.011374 53.74929L91.916414 54.794018L91.772756 55.956589L91.649747 57.018224L91.581897 58.019583L91.570367 58.97491L91.616337 59.898448L91.661247 60.352747L91.720977 60.80444L91.88546 61.707131L92.110958 62.620764L92.398643 63.559582L92.586554 64.153396L92.744742 64.722565L92.874491 65.274855L92.977084 65.818035L93.053804 66.359872L93.105944 66.908136L93.134774 67.470593L93.141574 68.055011L93.134974 68.593971L93.115314 69.036591L93.071324 69.426323L92.991744 69.80662L92.865281 70.220935L92.680661 70.712718L92.091833 72.102502L91.686823 73.036538L91.592423 76.95949L91.514523 79.414595L91.465833 80.282409L91.405833 80.952307L91.330903 81.455717L91.237433 81.824072L91.121801 82.088802L90.98039 82.281338L90.848791 82.410698L90.698964 82.536636L90.35166 82.77553L89.952542 82.992585L89.515675 83.182363L89.055123 83.339431L88.58495 83.458352L88.119221 83.533692L87.672 83.560012L87.34233 83.548812L87.024748 83.515292L86.719591 83.459562L86.427194 83.381712L86.147893 83.281862L85.882025 83.160103L85.629925 83.016545L85.39193 82.851293L84.95899 82.521077L84.66622 82.884871L84.506237 83.118819L84.335691 83.438711L84.152025 83.851483L83.952688 84.364068L83.735124 84.983402L83.496779 85.71642L82.94753 87.551247L82.339076 89.579727L82.051188 90.472886L81.774403 91.284725L81.508878 92.014793L81.254773 92.66264L81.012244 93.227816L80.781449 93.709871L80.547624 94.117787L80.264201 94.530419L79.943487 94.934947L79.59779 95.318549L79.239417 95.668404L78.880676 95.971691L78.533875 96.215589L78.21132 96.387277L77.747681 96.560913L77.272145 96.691349L76.788796 96.779699L76.301716 96.827069L75.814989 96.834569L75.332697 96.803309L74.858923 96.734399L74.397751 96.628955L73.953263 96.488084L73.529542 96.312896L73.130671 96.104503L72.760734 95.864014L72.423812 95.59254L72.123989 95.291191L71.865349 94.961078L71.651973 94.603312L71.400872 94.111121L70.773891 95.280418L70.222661 96.270235L69.986662 96.656498L69.765071 96.987297L69.548885 97.275359L69.329101 97.533411L69.096717 97.774177L68.842731 98.010385L68.494741 98.300119L68.150242 98.544729L67.801761 98.74715L67.441823 98.910316L67.062955 99.03716L66.657682 99.13062L66.218529 99.19362L65.738024 99.2291L65.100874 99.24824L64.871426 99.24184L64.680594 99.22145L64.512776 99.18459L64.352369 99.12877L63.991382 98.95028L63.720452 98.789674L63.431273 98.596488L63.158455 98.395025L62.936608 98.209588L62.488549 97.799112L61.881147 98.120663L61.52578 98.288133L61.359074 98.344313L61.183605 98.385073L60.758141 98.429203L60.152904 98.438303L59.543101 98.423643L59.304077 98.403523L59.091628 98.371573L58.892745 98.325323L58.69442 98.262303L58.24741 98.076058L58.000172 97.952489L57.761426 97.811693L57.531564 97.654206L57.310975 97.480566L57.10005 97.29131L56.899179 97.086977L56.708752 96.868104L56.529159 96.635227L56.360792 96.388886L56.20404 96.129617L56.059293 95.857957L55.926943 95.574446L55.807378 95.279619L55.70099 94.974015L55.60817 94.65817L55.52931 94.332624L55.47282 94.033083L55.42805 93.711211L55.37281 93.013489L55.36184 92.265473L55.39339 91.493183L55.46571 90.722634L55.577046 89.979845L55.725647 89.290833L55.813377 88.974624L55.909767 88.681615L56.051706 88.26744L56.079716 88.140281L56.075216 88.054311L56.035406 88.000461L55.957376 87.969651L55.675181 87.940851L55.422159 87.915611L55.178271 87.874541L54.943479 87.817541L54.717746 87.744531L54.501034 87.655411L54.293307 87.55009L54.094526 87.428479L53.904654 87.290488L53.723653 87.136024L53.551487 86.964996L53.388117 86.777315L53.233506 86.572888L53.087617 86.351625L52.950412 86.113434L52.821853 85.858225L52.701903 85.585907L52.487682 84.989577L52.307447 84.323717L52.160899 83.587598L52.047738 82.780491L51.967668 81.901669L51.920378 80.950404L51.905578 79.925966L51.922968 78.827627L52.006398 76.087787L51.986418 75.873542L51.923138 75.52036L51.706088 74.593329L51.45837 73.611424L51.301412 72.912064L51.244792 72.657861L51.218912 72.619331L51.190282 72.649161L51.111672 72.941882L50.982769 73.591932L50.7699 74.556458L50.66387 74.953023L50.57591 75.221177L50.48717 75.501328L50.46526 75.648503L50.45836 75.81756L50.48989 76.272756L50.5821 76.9698L50.6689 77.800683L50.72041 78.792902L50.73825 79.884653L50.72405 81.014132L50.67944 82.119535L50.60605 83.139059L50.505496 84.010899L50.445546 84.372124L50.379416 84.673252L50.152735 85.460399L50.037342 85.785214L49.916918 86.072171L49.78872 86.327257L49.65 86.556458L49.498014 86.76576L49.330015 86.961148L49.161629 87.118925L48.958487 87.269591L48.726429 87.41047L48.471295 87.538886L48.198925 87.652163L47.91516 87.747623L47.625839 87.822593L47.336804 87.874403L47.108231 87.917343L46.927178 87.974373L46.808011 88.039653L46.776121 88.073553L46.765091 88.107323L46.796491 88.264353L46.881991 88.577664L47.163048 89.491449L47.382828 90.215538L47.453428 90.516363L47.502978 90.815735L47.535328 91.143173L47.554348 91.528198L47.567798 92.589085L47.564298 93.259732L47.546578 93.832408L47.511798 94.324542L47.457138 94.753564L47.379768 95.136903L47.276861 95.491987L47.145585 95.836246L46.983108 96.187109L46.814819 96.516158L46.662085 96.762771L46.442896 97.04315L46.075244 97.473499L45.900897 97.658605L45.707862 97.832234L45.497835 97.993853L45.272514 98.142926L45.033598 98.278919L44.782783 98.401297L44.521768 98.509526L44.252251 98.603076L43.975928 98.681406L43.694498 98.743976L43.409659 98.790266L43.123108 98.819726L42.836543 98.831836L42.551662 98.826036L42.270163 98.801826L41.993742 98.758656L41.672769 98.686856L41.368483 98.601456L41.115221 98.513156L40.947317 98.432646L40.723787 98.307979L40.573702 98.256899L40.486602 98.302929L40.321728 98.427271L39.853228 98.835014L39.552078 99.102672L39.279983 99.313507L39.018051 99.474031L38.747388 99.590761L38.449099 99.670211L38.104292 99.718891L37.694074 99.743321L37.199549 99.750021L36.509794 99.739421L36.256116 99.720971L36.039474 99.689141L35.842046 99.640451L35.646011 99.571451L35.186826 99.358634L35.186713 99.358634"
       id="path6546"
       inkscape:connector-curvature="0"
       sodipodi:nodetypes="cssccccssccccsccsscsscscccsssccccsccccccsccssccsscscscsccsccsssscsccccsccsccccsccccsccccccscccccssccsccccccccscccccsscccccccccccssccsccccscc" />
  </g>
  <g
     id="g6368"
     inkscape:groupmode="layer"
     inkscape:label="B.Cu"
     style="display:inline">
    <path
       style="display:inline;stroke:#000000;stroke-width:0.0557127;stroke-miterlimit:4;stroke-dasharray:none;stroke-opacity:1"
       inkscape:connector-curvature="0"
       id="path6622"
       d="m 83.862677,17.728764 c 0.02087,-0.02008 0.038,-0.179483 0.038,-0.354246 0,-0.252554 0.01667,-0.311582 0.08121,-0.287778 0.04737,0.01748 0.120024,-0.02697 0.174326,-0.106644 0.136519,-0.200277 0.251091,-0.223087 0.314562,-0.06261 0.08487,0.214569 0.196241,0.159917 0.309037,-0.15164 0.135647,-0.374648 0.478791,-0.862512 0.60667,-0.862512 0.06144,0 0.287213,-0.246654 0.588988,-0.643461 0.269139,-0.353903 0.582613,-0.750263 0.696587,-0.880786 l 0.207224,-0.237327 -0.03292,-0.488276 c -0.03215,-0.477137 -0.03,-0.488279 0.09332,-0.488279 0.08534,0 0.145474,-0.04879 0.185615,-0.150595 0.03992,-0.101193 0.291628,-0.306807 0.767337,-0.626758 1.51034,-1.015829 1.622907,-1.101344 1.863955,-1.416024 0.37144,-0.485008 0.487834,-0.779306 0.449488,-1.1364595 -0.06102,-0.56835 -0.387446,-0.737994 -1.434515,-0.74549 -0.638395,-0.0046 -0.769087,-0.03347 -0.769087,-0.170078 0,-0.08701 -0.169503,-0.187443 -0.377576,-0.223706 -0.07684,-0.0134 -0.271513,0.01327 -0.43261,0.05926 -0.397716,0.113535 -0.771022,0.105704 -1.01282,-0.02125 -0.510945,-0.268268 -0.566576,-0.282849 -0.743587,-0.194852 -0.0905,0.04498 -0.193145,0.133147 -0.228075,0.195913 -0.04018,0.07214 -0.09842,0.102851 -0.158356,0.08349 -0.770809,-0.249033 -1.106034,-0.300048 -1.847041,-0.281087 -1.09386,0.02799 -1.754452,0.180614 -2.179248,0.503457 -0.387281,0.294365 -0.520073,0.681007 -0.357621,1.0412075 0.132286,0.293304 0.608821,0.920969 0.824576,1.086112 0.804491,0.615719 1.176108,0.799977 1.684181,0.835027 0.352976,0.02437 0.384541,0.03666 0.384541,0.150103 0,0.06796 -0.08882,0.243317 -0.197396,0.389669 -0.108567,0.146356 -0.274185,0.390594 -0.368024,0.542748 -0.09384,0.152155 -0.286053,0.356333 -0.427161,0.453743 -0.306333,0.211468 -0.39451,0.323203 -0.167326,0.212052 0.08961,-0.04386 0.220609,-0.09683 0.291113,-0.117743 0.121071,-0.0359 0.127901,-0.02338 0.123198,0.22581 -0.0028,0.145097 -0.03598,0.473288 -0.07384,0.729304 -0.05541,0.374625 -0.05436,0.51285 0.0053,0.708181 0.04083,0.133484 0.09072,0.484649 0.110882,0.780366 0.02014,0.29572 0.05331,0.537664 0.07367,0.537664 0.02037,0 0.06778,-0.02958 0.105375,-0.06572 0.05317,-0.05111 0.06894,-0.01156 0.07093,0.177977 0.0032,0.313143 0.08313,0.477034 0.383153,0.786664 0.242222,0.249994 0.301597,0.284064 0.373877,0.214584 z m -0.376353,-0.399323 c -0.273098,-0.291983 -0.360667,-0.564325 -0.292999,-0.911126 0.0401,-0.205445 -0.0059,-0.237361 -0.130582,-0.09056 -0.07167,0.0844 -0.07789,0.04682 -0.05222,-0.314886 0.02617,-0.368499 0.02119,-0.396649 -0.04849,-0.273812 -0.07277,0.12829 -0.07748,0.116711 -0.07468,-0.18395 0.0018,-0.203496 -0.02357,-0.33662 -0.06958,-0.363966 -0.08976,-0.05333 -0.03242,-0.639388 0.0901,-0.92133 0.09403,-0.216327 0.107229,-0.414568 0.02434,-0.365318 -0.03439,0.02044 -0.05697,-0.05419 -0.05697,-0.188433 0,-0.173596 0.02183,-0.223191 0.0997,-0.226475 0.128934,-0.0054 0.218115,-0.02239 0.6524,-0.124265 0.197346,-0.04628 0.408698,-0.09176 0.469676,-0.101065 0.06097,-0.0093 0.196205,-0.09553 0.300474,-0.191621 0.230797,-0.212664 0.372878,-0.26137 0.528637,-0.181247 0.158283,0.08143 0.336833,0.01974 0.399177,-0.137892 0.04142,-0.104684 0.08829,-0.126664 0.252835,-0.118528 0.111106,0.0055 0.202132,0.02848 0.20226,0.05106 1.23e-4,0.02257 0.05794,0.03912 0.128436,0.03675 0.0705,-0.0025 0.09613,-0.01677 0.05697,-0.03193 -0.03918,-0.01519 -0.07121,-0.06517 -0.07121,-0.111063 0,-0.05456 -0.03206,-0.07161 -0.09267,-0.04926 -0.05097,0.01879 -0.1256,0.0079 -0.165833,-0.02418 -0.05087,-0.04058 -0.08441,-0.04087 -0.110083,-0.0011 -0.04873,0.07579 -0.27548,0.07355 -0.355648,-0.0036 -0.07191,-0.06913 -0.206565,-0.01339 -0.156346,0.06473 0.01804,0.02804 0.08254,0.05098 0.14335,0.05098 0.138995,0 0.143369,0.0888 0.0078,0.158537 -0.0628,0.0323 -0.134806,0.0334 -0.185149,0.0029 -0.143314,-0.08716 -0.324439,-0.05627 -0.499263,0.08512 -0.09309,0.0753 -0.19446,0.136909 -0.225276,0.136909 -0.03082,0 -0.08898,0.03819 -0.129276,0.08485 -0.09727,0.112667 -0.505365,0.08565 -0.586477,-0.03882 -0.04566,-0.07005 -0.02534,-0.133536 0.08848,-0.277032 0.142853,-0.180029 0.655214,-0.480917 0.818931,-0.480917 0.04411,0 0.0802,-0.02084 0.0802,-0.0463 0,-0.06282 -0.455968,0.05294 -0.629363,0.159777 -0.07685,0.04736 -0.166133,0.100904 -0.198401,0.118998 -0.03877,0.02173 -0.05498,-0.13614 -0.04779,-0.465516 0.0089,-0.407929 0.02726,-0.500718 0.101215,-0.511157 0.06878,-0.0097 0.0821,0.01875 0.05585,0.11929 -0.05585,0.2139 0.01973,0.386556 0.200835,0.458652 0.313366,0.124779 0.542345,-0.05769 0.528143,-0.420884 -0.0036,-0.09875 0.01786,-0.179534 0.04821,-0.179534 0.03042,0 0.05697,-0.04313 0.05909,-0.09584 0.0028,-0.0763 0.01644,-0.07072 0.06568,0.02738 0.03398,0.06777 0.109663,0.123216 0.168134,0.123216 0.08496,0 0.09914,0.02751 0.07058,0.136906 -0.05814,0.22266 0.01694,0.390797 0.208525,0.46709 0.236335,0.0941 0.584842,0.01534 0.612899,-0.138513 0.01986,-0.108927 0.0195,-0.108934 -0.06507,-0.0011 -0.07865,0.100148 -0.08297,0.08986 -0.05762,-0.136909 0.04147,-0.370946 -0.05334,-0.458257 -0.481545,-0.443403 -0.306068,0.01062 -0.349328,-0.001 -0.382975,-0.10289 -0.0474,-0.143555 0.05492,-0.267153 0.304037,-0.367249 0.133532,-0.05366 0.211406,-0.05942 0.261594,-0.01938 0.03932,0.03137 0.08835,0.04081 0.108959,0.02099 0.02064,-0.01981 0.03749,0.0051 0.03749,0.05524 0,0.08074 0.188729,0.118293 0.435134,0.08659 0.02,-0.0025 0.05706,0.02752 0.08236,0.06687 0.0253,0.03935 0.06278,0.05542 0.08329,0.03571 0.07353,-0.07068 -0.04156,-0.152969 -0.26117,-0.186723 -0.122942,-0.01889 -0.25278,-0.06825 -0.288545,-0.109669 -0.143684,-0.166424 -0.72933,-0.03545 -0.817315,0.182787 -0.03512,0.0871 -0.04684,0.08855 -0.106594,0.0132 -0.179317,-0.226084 -0.622977,-0.366036 -0.675959,-0.213232 -0.0111,0.03194 -0.102937,0.06033 -0.204146,0.0631 -0.101201,0.0028 -0.184012,0.02592 -0.184012,0.05146 0,0.02554 -0.05768,0.04677 -0.12818,0.04718 -0.238981,0.0014 -0.359544,0.06013 -0.427833,0.20844 -0.08347,0.181264 -0.02119,0.46555 0.0878,0.40069 0.05138,-0.03058 0.05788,-0.08271 0.02196,-0.176061 -0.04014,-0.104307 -0.02648,-0.153074 0.0639,-0.228445 0.06322,-0.05271 0.168705,-0.09959 0.234414,-0.104176 0.0657,-0.0046 0.148036,-0.01112 0.182961,-0.01452 0.03489,-0.0034 0.105083,-0.03936 0.155927,-0.07992 0.054,-0.04308 0.15,-0.05986 0.230884,-0.04034 0.08444,0.02037 0.147292,0.0079 0.161124,-0.03199 0.03598,-0.103888 0.442505,0.163248 0.442505,0.290806 0,0.05873 -0.03379,0.11924 -0.07509,0.134473 -0.06479,0.0239 -0.762885,0.06966 -1.168651,0.0766 -0.08083,0.0014 -0.123002,0.02898 -0.107713,0.07048 0.01384,0.03751 0.09052,0.06388 0.170454,0.05857 0.112211,-0.0075 0.153616,0.02211 0.181696,0.129678 0.02,0.07662 0.02494,0.150276 0.01105,0.163675 -0.01393,0.0134 -0.187679,-0.004 -0.386075,-0.03852 -1.094284,-0.190748 -2.408721,-1.314562 -2.483673,-2.1234225 -0.02046,-0.220624 -0.0023,-0.279271 0.126591,-0.409845 0.240077,-0.243147 0.53829,-0.405227 0.996943,-0.541808 0.379079,-0.112893 0.53971,-0.127128 1.424231,-0.126212 0.943582,10e-4 1.022858,0.0094 1.480784,0.157181 0.836143,0.269859 1.502718,0.68626 2.366174,1.4781095 0.367503,0.337029 0.488349,0.41664 0.632905,0.416931 0.167229,3.2e-4 0.180752,-0.01457 0.211092,-0.232381 0.01786,-0.128009 0.04903,-0.468032 0.06935,-0.7556035 l 0.03694,-0.522863 0.720443,0.0054 c 1.075967,0.0081 1.358499,0.170872 1.307509,0.7534815 -0.0437,0.499281 -0.627439,1.232843 -1.311194,1.64772 -0.356429,0.216278 -0.415608,0.250488 -0.500702,0.289557 -0.047,0.02158 -0.09827,0.05392 -0.113937,0.07187 -0.01567,0.01794 -0.09801,0.07515 -0.18298,0.127109 l -0.154502,0.09447 -0.05912,-0.205258 c -0.09578,-0.332529 -0.132372,-0.361826 -0.407611,-0.326351 -0.265745,0.03426 -0.757351,-0.125005 -0.886777,-0.287297 -0.05129,-0.06431 -0.08343,-0.06928 -0.13461,-0.0208 -0.09414,0.08916 -0.02334,0.173204 0.190542,0.226186 0.125394,0.03107 0.188034,0.08265 0.200547,0.165155 0.01005,0.06599 -0.0076,0.11998 -0.03914,0.11998 -0.03406,0 -0.04379,0.08034 -0.02393,0.19795 0.03096,0.183435 0.02443,0.195209 -0.08903,0.160596 -0.08974,-0.02738 -0.12245,-0.01442 -0.12245,0.04848 0,0.04721 -0.03845,0.08583 -0.08545,0.08583 -0.0594,0 -0.08545,0.05745 -0.08545,0.188434 0,0.103639 -0.02571,0.203717 -0.05712,0.222368 -0.038,0.02257 -0.03731,0.06952 0.0018,0.140142 0.09372,0.168329 0.140149,0.125175 0.145922,-0.135609 0.0053,-0.240029 0.139163,-0.454407 0.24461,-0.391772 0.06253,0.03715 0.12034,-0.09471 0.12034,-0.274481 0,-0.07284 0.02886,-0.132427 0.06409,-0.132427 0.04032,0 0.05186,-0.05882 0.03115,-0.158499 -0.02854,-0.137233 -0.01809,-0.154748 0.07833,-0.130522 0.132619,0.03334 0.144365,0.139715 0.0259,0.234262 -0.047,0.0375 -0.08546,0.138175 -0.08546,0.223723 0,0.08555 -0.05128,0.280591 -0.113938,0.433431 -0.06352,0.154896 -0.110955,0.392081 -0.107201,0.535951 0.0059,0.223485 0.01201,0.236063 0.04586,0.09381 0.03014,-0.126565 0.04918,-0.05976 0.08293,0.290909 0.03631,0.376988 0.02799,0.478436 -0.04836,0.590442 -0.0507,0.07438 -0.116394,0.120851 -0.145995,0.103267 -0.02959,-0.01758 -0.03863,0.006 -0.02009,0.05255 0.02009,0.05035 -0.0041,0.09857 -0.06037,0.119248 -0.05177,0.01909 -0.124924,0.104038 -0.162575,0.188761 -0.09302,0.209309 -0.918219,1.212799 -0.941984,1.14551 -0.0264,-0.07472 -0.123436,-0.0676 -0.123436,0.009 0,0.03454 -0.09044,0.168908 -0.200971,0.298576 -0.110535,0.12967 -0.260421,0.387771 -0.333076,0.57357 -0.09402,0.240425 -0.142835,0.310932 -0.169321,0.244565 -0.06996,-0.175258 -0.03904,-0.31312 0.07672,-0.342214 0.07374,-0.01854 0.113937,-0.0747 0.113937,-0.159161 0,-0.189358 -0.06339,-0.15735 -0.25636,0.129407 -0.206458,0.306808 -0.297091,0.345447 -0.329176,0.140347 -0.02046,-0.130621 -0.02534,-0.123519 -0.03261,0.04704 -0.0047,0.110488 -0.02438,0.24058 -0.04375,0.289114 -0.03164,0.07924 -0.04279,0.07832 -0.109283,-0.0091 -0.112266,-0.147591 -0.168828,-0.04114 -0.168828,0.31776 0,0.178202 -0.01685,0.324006 -0.03745,0.324006 -0.0206,0 -0.15174,-0.122198 -0.291433,-0.271555 z m 0.550661,-0.965085 c 0.019,-0.04765 0.03375,-0.127733 0.03279,-0.177977 -0.0013,-0.07881 -0.01329,-0.07675 -0.08545,0.01494 -0.09338,0.118672 -0.110571,0.249649 -0.03279,0.249649 0.02795,0 0.06644,-0.03898 0.08546,-0.08662 z m -0.535121,-0.560445 c 0,-0.118488 0.01498,-0.298609 0.03329,-0.400262 0.02626,-0.145981 0.01954,-0.167558 -0.03192,-0.10268 -0.05113,0.0644 -0.05703,0.04073 -0.02726,-0.109526 0.02909,-0.146748 0.02215,-0.177173 -0.0295,-0.129846 -0.08815,0.08078 -0.156151,0.543827 -0.07257,0.49418 0.04014,-0.02382 0.05035,0.03498 0.03064,0.176184 -0.01767,0.126665 -0.0041,0.227142 0.03393,0.249681 0.04256,0.02529 0.06348,-0.03332 0.06348,-0.177721 z m 1.479528,-0.305539 c 0.03904,-0.134111 0.0596,-0.276518 0.04562,-0.31646 -0.01393,-0.03994 -0.05809,0.05809 -0.09806,0.217836 -0.08904,0.355852 -0.04605,0.436713 0.05243,0.09861 z m 0.935093,-0.909933 c 0.05546,-0.120815 0.120723,-0.207838 0.145053,-0.193378 0.07925,0.04707 0.175011,-0.243164 0.167221,-0.506795 l -0.0076,-0.25754 -0.03891,0.270477 c -0.02137,0.14876 -0.06979,0.280368 -0.107521,0.29245 -0.06928,0.0222 -0.194159,0.224937 -0.293926,0.477188 -0.08921,0.225554 0.02667,0.155208 0.135716,-0.08239 z m -2.819972,-0.224732 c 0.0036,-0.04864 0.05833,-0.151655 0.121549,-0.228905 0.06322,-0.07726 0.09126,-0.154536 0.06232,-0.171735 -0.02895,-0.01717 -0.03818,-0.08438 -0.0205,-0.149298 0.02196,-0.08086 0.01132,-0.105694 -0.03384,-0.07886 -0.03626,0.02154 -0.06595,0.100952 -0.06595,0.176454 0,0.0755 -0.02726,0.186229 -0.06057,0.246074 -0.03333,0.05984 -0.04911,0.150627 -0.03507,0.201767 0.02201,0.08042 0.02635,0.08103 0.03211,0.0045 z m 3.366874,-0.691922 c -9.52e-4,-0.117354 -0.01306,-0.132464 -0.0561,-0.06845 -0.07203,0.107147 -0.07203,0.21905 0,0.21905 0.03133,0 0.05657,-0.06777 0.0561,-0.150594 z m -1.48084,0.100588 c 0.194297,-0.02441 0.260988,-0.05807 0.277172,-0.139918 0.01772,-0.08971 0.0071,-0.09649 -0.0631,-0.04044 -0.05221,0.04164 -0.223157,0.06188 -0.448076,0.05302 -0.292876,-0.01153 -0.377134,-0.03564 -0.432856,-0.123853 -0.06863,-0.10863 -0.06921,-0.108593 -0.07122,0.0044 -0.0032,0.191995 0.318174,0.299501 0.738074,0.246757 z m 0.484752,-0.41895 c 0.12533,-0.04448 0.311479,-0.118627 0.413648,-0.164772 0.102178,-0.04615 0.214453,-0.06687 0.249506,-0.04604 0.0385,0.02287 0.05297,0.0078 0.03654,-0.03821 -0.02064,-0.05784 -0.128231,-0.07207 -0.448898,-0.05936 -0.231952,0.0092 -0.601186,0.02151 -0.820516,0.02738 -0.435422,0.01164 -0.675544,0.128874 -0.553505,0.270216 0.0897,0.103895 0.840526,0.1111 1.1232,0.01079 z m -0.48424,0.008 c 0,-0.01259 -0.0163,-0.06369 -0.03616,-0.113547 -0.02991,-0.07495 -0.0036,-0.08757 0.152279,-0.07293 0.207561,0.01949 0.291468,0.130607 0.12918,0.171048 -0.144451,0.03601 -0.245273,0.04234 -0.245273,0.01545 z M 84.449743,13.24742 c 0.01804,-0.04518 0.06851,-0.08214 0.112151,-0.08214 0.04366,0 0.07935,0.03696 0.07935,0.08214 0,0.0452 -0.05044,0.08214 -0.112147,0.08214 -0.07629,0 -0.101662,-0.02628 -0.07936,-0.08214 z m 1.704265,-0.415496 c 0.02105,-0.03274 0.0098,-0.08696 -0.02512,-0.120477 -0.04656,-0.04475 -0.0634,-0.02892 -0.0634,0.05953 0,0.132225 0.02959,0.152598 0.08852,0.06094 z m -0.249077,-0.549048 c 0.0395,-0.02346 0.05525,-0.05857 0.03502,-0.07802 -0.04578,-0.04401 -0.273239,0.02154 -0.273239,0.07873 0,0.05444 0.146123,0.05401 0.238218,-7.3e-4 z m -1.206696,-0.183798 c 0,-0.04885 -0.03343,-0.0681 -0.08513,-0.04903 -0.04681,0.01729 -0.07094,0.05347 -0.05361,0.08043 0.04971,0.07732 0.138734,0.05717 0.138734,-0.03141 z m 1.479721,-0.521084 c 0.07364,-0.04375 0.07361,-0.05292 -1.33e-4,-0.07609 -0.04612,-0.01449 -0.160763,-0.02144 -0.254753,-0.01545 -0.094,0.006 -0.202954,-0.01113 -0.242118,-0.03806 -0.04425,-0.03043 -0.07122,-0.02693 -0.07122,0.0093 0,0.03203 0.02498,0.07305 0.05543,0.09117 0.102425,0.06085 0.428262,0.07938 0.512791,0.02917 z m 0.134395,-0.201664 c 0.07736,-0.07436 0.03977,-0.23452 -0.04748,-0.202347 -0.047,0.01734 -0.08545,0.07817 -0.08545,0.135188 0,0.104028 0.06199,0.135348 0.13293,0.06716 z m -4.090737,-1.024641 c 0.09482,-0.09405 0.247797,-0.22646 0.339947,-0.294229 0.146598,-0.1078135 0.153028,-0.1232155 0.05143,-0.1232155 -0.119001,0 -0.649217,0.4465035 -0.649217,0.5467015 0,0.09009 0.07422,0.05289 0.257853,-0.129262 z m -0.21513,-0.09191 c 0.185648,-0.167243 0.234661,-0.2707655 0.128181,-0.2707655 -0.03133,0 -0.05697,0.027509 -0.05697,0.061139 0,0.03569 -0.05929,0.05026 -0.142424,0.03498 -0.07833,-0.01439 -0.142424,-0.0049 -0.142424,0.021 0,0.02594 0.02567,0.04717 0.05697,0.04717 0.03133,0 0.05697,0.02751 0.05697,0.06115 0,0.03477 -0.0506,0.04843 -0.117253,0.03168 -0.08582,-0.02158 -0.112553,-0.0062 -0.0997,0.05753 0.02913,0.144461 0.121837,0.131619 0.31664,-0.04387 z m 0.925749,3.119755 c 0,-0.03274 0.127422,-0.246122 0.283171,-0.474175 0.294406,-0.431083 0.411101,-0.449431 0.262558,-0.04128 -0.05835,0.160302 -0.06299,0.238524 -0.01731,0.291679 0.07539,0.0877 -0.03429,0.17168 -0.22597,0.172965 -0.06865,3.67e-4 -0.140665,0.02548 -0.160027,0.0556 -0.04701,0.07312 -0.142424,0.06991 -0.142424,-0.0048 z m 3.806781,-0.477137 c 0.01005,-0.06928 0.06719,-0.229455 0.126929,-0.355955 0.05974,-0.126496 0.109183,-0.296076 0.109868,-0.376872 9.52e-4,-0.142332 0.174988,-0.307317 0.408735,-0.388076 0.149977,-0.05182 0.281162,0.08249 0.314599,0.322106 0.03,0.214977 0.02251,0.227198 -0.257735,0.420729 -0.158745,0.109632 -0.329637,0.275578 -0.379769,0.368761 -0.06668,0.123933 -0.124687,0.164845 -0.216038,0.152348 -0.09394,-0.01285 -0.120352,-0.0483 -0.106584,-0.143048 z m 0.462411,-0.308056 c 0.03831,-0.04439 0.06136,-0.156877 0.05121,-0.249975 -0.01908,-0.174758 0.08053,-0.286662 0.211977,-0.238164 0.03881,0.01431 0.08754,-2.72e-4 0.108225,-0.03245 0.0594,-0.09238 -0.239894,-0.06989 -0.398392,0.02995 -0.157922,0.09947 -0.183385,0.185374 -0.05496,0.185374 0.10094,0 0.108795,0.07479 0.02383,0.22733 -0.07575,0.13605 -0.03699,0.188041 0.05806,0.07794 z M 85.04016,12.009393 c 0,-0.0269 0.03694,-0.0489 0.08209,-0.0489 0.107817,0 0.149401,-0.07006 0.09334,-0.157258 -0.03521,-0.05473 -0.06525,-0.05036 -0.138661,0.02022 -0.113247,0.108861 -0.129875,-0.0048 -0.02069,-0.14158 0.10527,-0.131894 0.224011,-0.15236 0.396967,-0.06842 0.168617,0.08184 0.2139,0.288428 0.08545,0.389842 -0.140711,0.111085 -0.498482,0.11546 -0.498482,0.0061 z m -0.994522,0.0097 c -0.01804,-0.02804 -0.0078,-0.06579 0.02265,-0.0839 0.07653,-0.04547 0.0091,-0.193705 -0.08813,-0.193705 -0.04366,0 -0.08138,0.0308 -0.08386,0.06845 -0.0032,0.0515 -0.01187,0.05071 -0.03429,-0.0032 -0.0164,-0.03939 0.01375,-0.117948 0.06708,-0.174573 0.07884,-0.08374 0.125097,-0.09265 0.247958,-0.04774 0.08308,0.03036 0.162932,0.05015 0.177458,0.04397 0.01453,-0.0062 0.0518,0.02745 0.08282,0.07473 0.08338,0.127059 -0.0666,0.366908 -0.22944,0.366908 -0.0712,0 -0.144186,-0.02294 -0.162211,-0.05098 z m 3.197745,-1.709086 C 86.659573,9.7514845 86.160615,9.3764805 85.647323,9.1104375 l -0.446778,-0.23156 0.1452,-0.129422 c 0.191916,-0.171056 0.336737,-0.163245 0.674205,0.03636 0.359922,0.21289 0.664264,0.251549 1.107802,0.140726 0.715177,-0.178679 0.817826,-0.09978 0.817826,0.628607 0,0.25995 -0.01649,0.6241205 -0.03658,0.8092525 -0.04914,0.451928 -0.144506,0.444142 -0.665598,-0.05439 z m -5.251123,3.702975 c 0.22291,-0.184687 0.236742,-0.242803 0.03279,-0.137889 -0.08344,0.04292 -0.329527,0.33578 -0.276243,0.328748 0.0085,-0.0011 0.118097,-0.08701 0.243432,-0.190848 z" />
  </g>
  <g
     id="g6370"
     inkscape:groupmode="layer"
     inkscape:label="B.Mask"
     style="display:inline">
    <path
       sodipodi:nodetypes="scsscssccsccsccccccscccccccccccsccccccccccccc"
       inkscape:connector-curvature="0"
       id="path6572"
       d="m 37.860492,60.138401 c -0.68496,-0.208243 -1.861845,-0.542716 -2.615301,-0.743275 -0.753455,-0.200557 -1.874299,-0.508616 -2.490763,-0.684575 -0.616463,-0.175959 -1.336888,-0.374714 -1.600942,-0.441678 -0.749318,-0.190026 -1.140105,-0.437565 -1.592482,-1.008734 -0.402188,-0.507807 -0.418182,-0.569518 -0.418182,-1.613613 0,-1.210018 0.107966,-1.446125 0.985575,-2.155245 0.452557,-0.365672 0.516647,-0.380294 1.610939,-0.367556 0.925752,0.01074 1.408414,0.09577 2.571819,0.452885 0.787704,0.241789 2.188759,0.646768 3.113454,0.899951 3.136713,0.858837 3.533656,1.00156 4.0525,1.457109 0.90214,0.792091 1.075587,2.436613 0.362348,3.4356 -0.822756,1.152385 -1.981573,1.376383 -3.978965,0.769131 z M 31.19252,53.954673 c 0.544792,-0.07308 0.793904,-0.350061 0.490347,-0.545217 -0.590907,-0.379891 -2.28467,0.732237 -2.049309,1.345581 0.06443,0.167877 0.161876,0.121749 0.556114,-0.263209 0.34813,-0.339941 0.620605,-0.485886 1.002848,-0.537155 z m 1.375101,-0.159254 c 0,-0.136987 -0.08075,-0.249077 -0.179457,-0.249077 -0.220007,0 -0.36067,0.204945 -0.256426,0.373614 0.135428,0.219138 0.435883,0.133295 0.435883,-0.124543 z m 29.266467,7.55275 c -1.675936,-0.855694 -1.850066,-3.251187 -0.323612,-4.451896 0.172629,-0.135795 1.002578,-0.492821 1.844333,-0.793404 0.841755,-0.300584 2.315046,-0.834766 3.274,-1.187076 2.447851,-0.899322 3.922231,-1.369565 4.291521,-1.368753 0.664401,0.0015 1.321654,0.286842 1.82896,0.794146 0.822291,0.822284 1.005038,2.004158 0.480757,3.109009 -0.415536,0.875666 -0.693893,1.013412 -5.480395,2.71199 -1.164441,0.413219 -2.549669,0.91507 -3.078304,1.115224 -1.19986,0.454296 -2.044809,0.475369 -2.83726,0.07077 z m -0.540372,-2.563607 c 0.107436,-0.48377 0.251037,-0.744796 0.544596,-0.989871 0.358417,-0.299219 0.378405,-0.349682 0.197858,-0.499524 -0.169326,-0.140532 -0.25142,-0.13353 -0.523241,0.04457 -0.693405,0.454336 -1.134189,2.358211 -0.496781,2.145742 0.07241,-0.02414 0.197322,-0.339551 0.277568,-0.700917 z m 1.474408,-1.690586 c 0,-0.348465 -0.364769,-0.309849 -0.414864,0.04392 -0.03199,0.225889 0.01,0.28143 0.186807,0.247371 0.129765,-0.02499 0.228057,-0.150535 0.228057,-0.291293 z"
       style="display:inline;fill:#000000;stroke-width:0.12453815" />
    <path
       d="m 83.862677,17.728764 c 0.02087,-0.02008 0.038,-0.179483 0.038,-0.354246 0,-0.252554 0.01667,-0.311582 0.08121,-0.287778 0.04737,0.01748 0.120024,-0.02697 0.174326,-0.106644 0.136519,-0.200277 0.251091,-0.223087 0.314562,-0.06261 0.08487,0.214569 0.196241,0.159917 0.309037,-0.15164 0.135647,-0.374648 0.478791,-0.862512 0.60667,-0.862512 0.06144,0 0.287213,-0.246654 0.588988,-0.643461 0.269139,-0.353903 0.582613,-0.750263 0.696587,-0.880786 l 0.207224,-0.237327 -0.03292,-0.488276 c -0.03215,-0.477137 -0.03,-0.488279 0.09332,-0.488279 0.08534,0 0.145474,-0.04879 0.185615,-0.150595 0.03992,-0.101193 0.291628,-0.306807 0.767337,-0.626758 1.51034,-1.015829 1.622907,-1.101344 1.863955,-1.416024 0.37144,-0.485008 0.487834,-0.779306 0.449488,-1.1364595 -0.06102,-0.56835 -0.387446,-0.737994 -1.434515,-0.74549 -0.638395,-0.0046 -0.769087,-0.03347 -0.769087,-0.170078 0,-0.08701 -0.169503,-0.187443 -0.377576,-0.223706 -0.07684,-0.0134 -0.271513,0.01327 -0.43261,0.05926 -0.397716,0.113535 -0.771022,0.105704 -1.01282,-0.02125 -0.510945,-0.268268 -0.566576,-0.282849 -0.743587,-0.194852 -0.0905,0.04498 -0.193145,0.133147 -0.228075,0.195913 -0.04018,0.07214 -0.09842,0.102851 -0.158356,0.08349 -0.770809,-0.249033 -1.106034,-0.300048 -1.847041,-0.281087 -1.09386,0.02799 -1.754452,0.180614 -2.179248,0.503457 -0.387281,0.294365 -0.520073,0.681007 -0.357621,1.0412075 0.132286,0.293304 0.608821,0.920969 0.824576,1.086112 0.804491,0.615719 1.176108,0.799977 1.684181,0.835027 0.352976,0.02437 0.384541,0.03666 0.384541,0.150103 0,0.06796 -0.08882,0.243317 -0.197396,0.389669 -0.108567,0.146356 -0.274185,0.390594 -0.368024,0.542748 -0.09384,0.152155 -0.286053,0.356333 -0.427161,0.453743 -0.306333,0.211468 -0.39451,0.323203 -0.167326,0.212052 0.08961,-0.04386 0.220609,-0.09683 0.291113,-0.117743 0.121071,-0.0359 0.127901,-0.02338 0.123198,0.22581 -0.0028,0.145097 -0.03598,0.473288 -0.07384,0.729304 -0.05541,0.374625 -0.05436,0.51285 0.0053,0.708181 0.04083,0.133484 0.09072,0.484649 0.110882,0.780366 0.02014,0.29572 0.05331,0.537664 0.07367,0.537664 0.02037,0 0.06778,-0.02958 0.105375,-0.06572 0.05317,-0.05111 0.06894,-0.01156 0.07093,0.177977 0.0032,0.313143 0.08313,0.477034 0.383153,0.786664 0.242222,0.249994 0.301597,0.284064 0.373877,0.214584 z m -0.376353,-0.399323 c -0.273098,-0.291983 -0.360667,-0.564325 -0.292999,-0.911126 0.0401,-0.205445 -0.0059,-0.237361 -0.130582,-0.09056 -0.07167,0.0844 -0.07789,0.04682 -0.05222,-0.314886 0.02617,-0.368499 0.02119,-0.396649 -0.04849,-0.273812 -0.07277,0.12829 -0.07748,0.116711 -0.07468,-0.18395 0.0018,-0.203496 -0.02357,-0.33662 -0.06958,-0.363966 -0.08976,-0.05333 -0.03242,-0.639388 0.0901,-0.92133 0.09403,-0.216327 0.107229,-0.414568 0.02434,-0.365318 -0.03439,0.02044 -0.05697,-0.05419 -0.05697,-0.188433 0,-0.173596 0.02183,-0.223191 0.0997,-0.226475 0.128934,-0.0054 0.218115,-0.02239 0.6524,-0.124265 0.197346,-0.04628 0.408698,-0.09176 0.469676,-0.101065 0.06097,-0.0093 0.196205,-0.09553 0.300474,-0.191621 0.230797,-0.212664 0.372878,-0.26137 0.528637,-0.181247 0.158283,0.08143 0.336833,0.01974 0.399177,-0.137892 0.04142,-0.104684 0.08829,-0.126664 0.252835,-0.118528 0.111106,0.0055 0.202132,0.02848 0.20226,0.05106 1.23e-4,0.02257 0.05794,0.03912 0.128436,0.03675 0.0705,-0.0025 0.09613,-0.01677 0.05697,-0.03193 -0.03918,-0.01519 -0.07121,-0.06517 -0.07121,-0.111063 0,-0.05456 -0.03206,-0.07161 -0.09267,-0.04926 -0.05097,0.01879 -0.1256,0.0079 -0.165833,-0.02418 -0.05087,-0.04058 -0.08441,-0.04087 -0.110083,-0.0011 -0.04873,0.07579 -0.27548,0.07355 -0.355648,-0.0036 -0.07191,-0.06913 -0.206565,-0.01339 -0.156346,0.06473 0.01804,0.02804 0.08254,0.05098 0.14335,0.05098 0.138995,0 0.143369,0.0888 0.0078,0.158537 -0.0628,0.0323 -0.134806,0.0334 -0.185149,0.0029 -0.143314,-0.08716 -0.324439,-0.05627 -0.499263,0.08512 -0.09309,0.0753 -0.19446,0.136909 -0.225276,0.136909 -0.03082,0 -0.08898,0.03819 -0.129276,0.08485 -0.09727,0.112667 -0.505365,0.08565 -0.586477,-0.03882 -0.04566,-0.07005 -0.02534,-0.133536 0.08848,-0.277032 0.142853,-0.180029 0.655214,-0.480917 0.818931,-0.480917 0.04411,0 0.0802,-0.02084 0.0802,-0.0463 0,-0.06282 -0.455968,0.05294 -0.629363,0.159777 -0.07685,0.04736 -0.166133,0.100904 -0.198401,0.118998 -0.03877,0.02173 -0.05498,-0.13614 -0.04779,-0.465516 0.0089,-0.407929 0.02726,-0.500718 0.101215,-0.511157 0.06878,-0.0097 0.0821,0.01875 0.05585,0.11929 -0.05585,0.2139 0.01973,0.386556 0.200835,0.458652 0.313366,0.124779 0.542345,-0.05769 0.528143,-0.420884 -0.0036,-0.09875 0.01786,-0.179534 0.04821,-0.179534 0.03042,0 0.05697,-0.04313 0.05909,-0.09584 0.0028,-0.0763 0.01644,-0.07072 0.06568,0.02738 0.03398,0.06777 0.109663,0.123216 0.168134,0.123216 0.08496,0 0.09914,0.02751 0.07058,0.136906 -0.05814,0.22266 0.01694,0.390797 0.208525,0.46709 0.236335,0.0941 0.584842,0.01534 0.612899,-0.138513 0.01986,-0.108927 0.0195,-0.108934 -0.06507,-0.0011 -0.07865,0.100148 -0.08297,0.08986 -0.05762,-0.136909 0.04147,-0.370946 -0.05334,-0.458257 -0.481545,-0.443403 -0.306068,0.01062 -0.349328,-0.001 -0.382975,-0.10289 -0.0474,-0.143555 0.05492,-0.267153 0.304037,-0.367249 0.133532,-0.05366 0.211406,-0.05942 0.261594,-0.01938 0.03932,0.03137 0.08835,0.04081 0.108959,0.02099 0.02064,-0.01981 0.03749,0.0051 0.03749,0.05524 0,0.08074 0.188729,0.118293 0.435134,0.08659 0.02,-0.0025 0.05706,0.02752 0.08236,0.06687 0.0253,0.03935 0.06278,0.05542 0.08329,0.03571 0.07353,-0.07068 -0.04156,-0.152969 -0.26117,-0.186723 -0.122942,-0.01889 -0.25278,-0.06825 -0.288545,-0.109669 -0.143684,-0.166424 -0.72933,-0.03545 -0.817315,0.182787 -0.03512,0.0871 -0.04684,0.08855 -0.106594,0.0132 -0.179317,-0.226084 -0.622977,-0.366036 -0.675959,-0.213232 -0.0111,0.03194 -0.102937,0.06033 -0.204146,0.0631 -0.101201,0.0028 -0.184012,0.02592 -0.184012,0.05146 0,0.02554 -0.05768,0.04677 -0.12818,0.04718 -0.238981,0.0014 -0.359544,0.06013 -0.427833,0.20844 -0.08347,0.181264 -0.02119,0.46555 0.0878,0.40069 0.05138,-0.03058 0.05788,-0.08271 0.02196,-0.176061 -0.04014,-0.104307 -0.02648,-0.153074 0.0639,-0.228445 0.06322,-0.05271 0.168705,-0.09959 0.234414,-0.104176 0.0657,-0.0046 0.148036,-0.01112 0.182961,-0.01452 0.03489,-0.0034 0.105083,-0.03936 0.155927,-0.07992 0.054,-0.04308 0.15,-0.05986 0.230884,-0.04034 0.08444,0.02037 0.147292,0.0079 0.161124,-0.03199 0.03598,-0.103888 0.442505,0.163248 0.442505,0.290806 0,0.05873 -0.03379,0.11924 -0.07509,0.134473 -0.06479,0.0239 -0.762885,0.06966 -1.168651,0.0766 -0.08083,0.0014 -0.123002,0.02898 -0.107713,0.07048 0.01384,0.03751 0.09052,0.06388 0.170454,0.05857 0.112211,-0.0075 0.153616,0.02211 0.181696,0.129678 0.02,0.07662 0.02494,0.150276 0.01105,0.163675 -0.01393,0.0134 -0.187679,-0.004 -0.386075,-0.03852 -1.094284,-0.190748 -2.408721,-1.314562 -2.483673,-2.1234225 -0.02046,-0.220624 -0.0023,-0.279271 0.126591,-0.409845 0.240077,-0.243147 0.53829,-0.405227 0.996943,-0.541808 0.379079,-0.112893 0.53971,-0.127128 1.424231,-0.126212 0.943582,10e-4 1.022858,0.0094 1.480784,0.157181 0.836143,0.269859 1.502718,0.68626 2.366174,1.4781095 0.367503,0.337029 0.488349,0.41664 0.632905,0.416931 0.167229,3.2e-4 0.180752,-0.01457 0.211092,-0.232381 0.01786,-0.128009 0.04903,-0.468032 0.06935,-0.7556035 l 0.03694,-0.522863 0.720443,0.0054 c 1.075967,0.0081 1.358499,0.170872 1.307509,0.7534815 -0.0437,0.499281 -0.627439,1.232843 -1.311194,1.64772 -0.356429,0.216278 -0.415608,0.250488 -0.500702,0.289557 -0.047,0.02158 -0.09827,0.05392 -0.113937,0.07187 -0.01567,0.01794 -0.09801,0.07515 -0.18298,0.127109 l -0.154502,0.09447 -0.05912,-0.205258 c -0.09578,-0.332529 -0.132372,-0.361826 -0.407611,-0.326351 -0.265745,0.03426 -0.757351,-0.125005 -0.886777,-0.287297 -0.05129,-0.06431 -0.08343,-0.06928 -0.13461,-0.0208 -0.09414,0.08916 -0.02334,0.173204 0.190542,0.226186 0.125394,0.03107 0.188034,0.08265 0.200547,0.165155 0.01005,0.06599 -0.0076,0.11998 -0.03914,0.11998 -0.03406,0 -0.04379,0.08034 -0.02393,0.19795 0.03096,0.183435 0.02443,0.195209 -0.08903,0.160596 -0.08974,-0.02738 -0.12245,-0.01442 -0.12245,0.04848 0,0.04721 -0.03845,0.08583 -0.08545,0.08583 -0.0594,0 -0.08545,0.05745 -0.08545,0.188434 0,0.103639 -0.02571,0.203717 -0.05712,0.222368 -0.038,0.02257 -0.03731,0.06952 0.0018,0.140142 0.09372,0.168329 0.140149,0.125175 0.145922,-0.135609 0.0053,-0.240029 0.139163,-0.454407 0.24461,-0.391772 0.06253,0.03715 0.12034,-0.09471 0.12034,-0.274481 0,-0.07284 0.02886,-0.132427 0.06409,-0.132427 0.04032,0 0.05186,-0.05882 0.03115,-0.158499 -0.02854,-0.137233 -0.01809,-0.154748 0.07833,-0.130522 0.132619,0.03334 0.144365,0.139715 0.0259,0.234262 -0.047,0.0375 -0.08546,0.138175 -0.08546,0.223723 0,0.08555 -0.05128,0.280591 -0.113938,0.433431 -0.06352,0.154896 -0.110955,0.392081 -0.107201,0.535951 0.0059,0.223485 0.01201,0.236063 0.04586,0.09381 0.03014,-0.126565 0.04918,-0.05976 0.08293,0.290909 0.03631,0.376988 0.02799,0.478436 -0.04836,0.590442 -0.0507,0.07438 -0.116394,0.120851 -0.145995,0.103267 -0.02959,-0.01758 -0.03863,0.006 -0.02009,0.05255 0.02009,0.05035 -0.0041,0.09857 -0.06037,0.119248 -0.05177,0.01909 -0.124924,0.104038 -0.162575,0.188761 -0.09302,0.209309 -0.918219,1.212799 -0.941984,1.14551 -0.0264,-0.07472 -0.123436,-0.0676 -0.123436,0.009 0,0.03454 -0.09044,0.168908 -0.200971,0.298576 -0.110535,0.12967 -0.260421,0.387771 -0.333076,0.57357 -0.09402,0.240425 -0.142835,0.310932 -0.169321,0.244565 -0.06996,-0.175258 -0.03904,-0.31312 0.07672,-0.342214 0.07374,-0.01854 0.113937,-0.0747 0.113937,-0.159161 0,-0.189358 -0.06339,-0.15735 -0.25636,0.129407 -0.206458,0.306808 -0.297091,0.345447 -0.329176,0.140347 -0.02046,-0.130621 -0.02534,-0.123519 -0.03261,0.04704 -0.0047,0.110488 -0.02438,0.24058 -0.04375,0.289114 -0.03164,0.07924 -0.04279,0.07832 -0.109283,-0.0091 -0.112266,-0.147591 -0.168828,-0.04114 -0.168828,0.31776 0,0.178202 -0.01685,0.324006 -0.03745,0.324006 -0.0206,0 -0.15174,-0.122198 -0.291433,-0.271555 z m 0.550661,-0.965085 c 0.019,-0.04765 0.03375,-0.127733 0.03279,-0.177977 -0.0013,-0.07881 -0.01329,-0.07675 -0.08545,0.01494 -0.09338,0.118672 -0.110571,0.249649 -0.03279,0.249649 0.02795,0 0.06644,-0.03898 0.08546,-0.08662 z m -0.535121,-0.560445 c 0,-0.118488 0.01498,-0.298609 0.03329,-0.400262 0.02626,-0.145981 0.01954,-0.167558 -0.03192,-0.10268 -0.05113,0.0644 -0.05703,0.04073 -0.02726,-0.109526 0.02909,-0.146748 0.02215,-0.177173 -0.0295,-0.129846 -0.08815,0.08078 -0.156151,0.543827 -0.07257,0.49418 0.04014,-0.02382 0.05035,0.03498 0.03064,0.176184 -0.01767,0.126665 -0.0041,0.227142 0.03393,0.249681 0.04256,0.02529 0.06348,-0.03332 0.06348,-0.177721 z m 1.479528,-0.305539 c 0.03904,-0.134111 0.0596,-0.276518 0.04562,-0.31646 -0.01393,-0.03994 -0.05809,0.05809 -0.09806,0.217836 -0.08904,0.355852 -0.04605,0.436713 0.05243,0.09861 z m 0.935093,-0.909933 c 0.05546,-0.120815 0.120723,-0.207838 0.145053,-0.193378 0.07925,0.04707 0.175011,-0.243164 0.167221,-0.506795 l -0.0076,-0.25754 -0.03891,0.270477 c -0.02137,0.14876 -0.06979,0.280368 -0.107521,0.29245 -0.06928,0.0222 -0.194159,0.224937 -0.293926,0.477188 -0.08921,0.225554 0.02667,0.155208 0.135716,-0.08239 z m -2.819972,-0.224732 c 0.0036,-0.04864 0.05833,-0.151655 0.121549,-0.228905 0.06322,-0.07726 0.09126,-0.154536 0.06232,-0.171735 -0.02895,-0.01717 -0.03818,-0.08438 -0.0205,-0.149298 0.02196,-0.08086 0.01132,-0.105694 -0.03384,-0.07886 -0.03626,0.02154 -0.06595,0.100952 -0.06595,0.176454 0,0.0755 -0.02726,0.186229 -0.06057,0.246074 -0.03333,0.05984 -0.04911,0.150627 -0.03507,0.201767 0.02201,0.08042 0.02635,0.08103 0.03211,0.0045 z m 3.366874,-0.691922 c -9.52e-4,-0.117354 -0.01306,-0.132464 -0.0561,-0.06845 -0.07203,0.107147 -0.07203,0.21905 0,0.21905 0.03133,0 0.05657,-0.06777 0.0561,-0.150594 z m -1.48084,0.100588 c 0.194297,-0.02441 0.260988,-0.05807 0.277172,-0.139918 0.01772,-0.08971 0.0071,-0.09649 -0.0631,-0.04044 -0.05221,0.04164 -0.223157,0.06188 -0.448076,0.05302 -0.292876,-0.01153 -0.377134,-0.03564 -0.432856,-0.123853 -0.06863,-0.10863 -0.06921,-0.108593 -0.07122,0.0044 -0.0032,0.191995 0.318174,0.299501 0.738074,0.246757 z m 0.484752,-0.41895 c 0.12533,-0.04448 0.311479,-0.118627 0.413648,-0.164772 0.102178,-0.04615 0.214453,-0.06687 0.249506,-0.04604 0.0385,0.02287 0.05297,0.0078 0.03654,-0.03821 -0.02064,-0.05784 -0.128231,-0.07207 -0.448898,-0.05936 -0.231952,0.0092 -0.601186,0.02151 -0.820516,0.02738 -0.435422,0.01164 -0.675544,0.128874 -0.553505,0.270216 0.0897,0.103895 0.840526,0.1111 1.1232,0.01079 z m -0.48424,0.008 c 0,-0.01259 -0.0163,-0.06369 -0.03616,-0.113547 -0.02991,-0.07495 -0.0036,-0.08757 0.152279,-0.07293 0.207561,0.01949 0.291468,0.130607 0.12918,0.171048 -0.144451,0.03601 -0.245273,0.04234 -0.245273,0.01545 z M 84.449743,13.24742 c 0.01804,-0.04518 0.06851,-0.08214 0.112151,-0.08214 0.04366,0 0.07935,0.03696 0.07935,0.08214 0,0.0452 -0.05044,0.08214 -0.112147,0.08214 -0.07629,0 -0.101662,-0.02628 -0.07936,-0.08214 z m 1.704265,-0.415496 c 0.02105,-0.03274 0.0098,-0.08696 -0.02512,-0.120477 -0.04656,-0.04475 -0.0634,-0.02892 -0.0634,0.05953 0,0.132225 0.02959,0.152598 0.08852,0.06094 z m -0.249077,-0.549048 c 0.0395,-0.02346 0.05525,-0.05857 0.03502,-0.07802 -0.04578,-0.04401 -0.273239,0.02154 -0.273239,0.07873 0,0.05444 0.146123,0.05401 0.238218,-7.3e-4 z m -1.206696,-0.183798 c 0,-0.04885 -0.03343,-0.0681 -0.08513,-0.04903 -0.04681,0.01729 -0.07094,0.05347 -0.05361,0.08043 0.04971,0.07732 0.138734,0.05717 0.138734,-0.03141 z m 1.479721,-0.521084 c 0.07364,-0.04375 0.07361,-0.05292 -1.33e-4,-0.07609 -0.04612,-0.01449 -0.160763,-0.02144 -0.254753,-0.01545 -0.094,0.006 -0.202954,-0.01113 -0.242118,-0.03806 -0.04425,-0.03043 -0.07122,-0.02693 -0.07122,0.0093 0,0.03203 0.02498,0.07305 0.05543,0.09117 0.102425,0.06085 0.428262,0.07938 0.512791,0.02917 z m 0.134395,-0.201664 c 0.07736,-0.07436 0.03977,-0.23452 -0.04748,-0.202347 -0.047,0.01734 -0.08545,0.07817 -0.08545,0.135188 0,0.104028 0.06199,0.135348 0.13293,0.06716 z m -4.090737,-1.024641 c 0.09482,-0.09405 0.247797,-0.22646 0.339947,-0.294229 0.146598,-0.1078135 0.153028,-0.1232155 0.05143,-0.1232155 -0.119001,0 -0.649217,0.4465035 -0.649217,0.5467015 0,0.09009 0.07422,0.05289 0.257853,-0.129262 z m -0.21513,-0.09191 c 0.185648,-0.167243 0.234661,-0.2707655 0.128181,-0.2707655 -0.03133,0 -0.05697,0.027509 -0.05697,0.061139 0,0.03569 -0.05929,0.05026 -0.142424,0.03498 -0.07833,-0.01439 -0.142424,-0.0049 -0.142424,0.021 0,0.02594 0.02567,0.04717 0.05697,0.04717 0.03133,0 0.05697,0.02751 0.05697,0.06115 0,0.03477 -0.0506,0.04843 -0.117253,0.03168 -0.08582,-0.02158 -0.112553,-0.0062 -0.0997,0.05753 0.02913,0.144461 0.121837,0.131619 0.31664,-0.04387 z m 0.925749,3.119755 c 0,-0.03274 0.127422,-0.246122 0.283171,-0.474175 0.294406,-0.431083 0.411101,-0.449431 0.262558,-0.04128 -0.05835,0.160302 -0.06299,0.238524 -0.01731,0.291679 0.07539,0.0877 -0.03429,0.17168 -0.22597,0.172965 -0.06865,3.67e-4 -0.140665,0.02548 -0.160027,0.0556 -0.04701,0.07312 -0.142424,0.06991 -0.142424,-0.0048 z m 3.806781,-0.477137 c 0.01005,-0.06928 0.06719,-0.229455 0.126929,-0.355955 0.05974,-0.126496 0.109183,-0.296076 0.109868,-0.376872 9.52e-4,-0.142332 0.174988,-0.307317 0.408735,-0.388076 0.149977,-0.05182 0.281162,0.08249 0.314599,0.322106 0.03,0.214977 0.02251,0.227198 -0.257735,0.420729 -0.158745,0.109632 -0.329637,0.275578 -0.379769,0.368761 -0.06668,0.123933 -0.124687,0.164845 -0.216038,0.152348 -0.09394,-0.01285 -0.120352,-0.0483 -0.106584,-0.143048 z m 0.462411,-0.308056 c 0.03831,-0.04439 0.06136,-0.156877 0.05121,-0.249975 -0.01908,-0.174758 0.08053,-0.286662 0.211977,-0.238164 0.03881,0.01431 0.08754,-2.72e-4 0.108225,-0.03245 0.0594,-0.09238 -0.239894,-0.06989 -0.398392,0.02995 -0.157922,0.09947 -0.183385,0.185374 -0.05496,0.185374 0.10094,0 0.108795,0.07479 0.02383,0.22733 -0.07575,0.13605 -0.03699,0.188041 0.05806,0.07794 z M 85.04016,12.009393 c 0,-0.0269 0.03694,-0.0489 0.08209,-0.0489 0.107817,0 0.149401,-0.07006 0.09334,-0.157258 -0.03521,-0.05473 -0.06525,-0.05036 -0.138661,0.02022 -0.113247,0.108861 -0.129875,-0.0048 -0.02069,-0.14158 0.10527,-0.131894 0.224011,-0.15236 0.396967,-0.06842 0.168617,0.08184 0.2139,0.288428 0.08545,0.389842 -0.140711,0.111085 -0.498482,0.11546 -0.498482,0.0061 z m -0.994522,0.0097 c -0.01804,-0.02804 -0.0078,-0.06579 0.02265,-0.0839 0.07653,-0.04547 0.0091,-0.193705 -0.08813,-0.193705 -0.04366,0 -0.08138,0.0308 -0.08386,0.06845 -0.0032,0.0515 -0.01187,0.05071 -0.03429,-0.0032 -0.0164,-0.03939 0.01375,-0.117948 0.06708,-0.174573 0.07884,-0.08374 0.125097,-0.09265 0.247958,-0.04774 0.08308,0.03036 0.162932,0.05015 0.177458,0.04397 0.01453,-0.0062 0.0518,0.02745 0.08282,0.07473 0.08338,0.127059 -0.0666,0.366908 -0.22944,0.366908 -0.0712,0 -0.144186,-0.02294 -0.162211,-0.05098 z m 3.197745,-1.709086 C 86.659573,9.7514845 86.160615,9.3764805 85.647323,9.1104375 l -0.446778,-0.23156 0.1452,-0.129422 c 0.191916,-0.171056 0.336737,-0.163245 0.674205,0.03636 0.359922,0.21289 0.664264,0.251549 1.107802,0.140726 0.715177,-0.178679 0.817826,-0.09978 0.817826,0.628607 0,0.25995 -0.01649,0.6241205 -0.03658,0.8092525 -0.04914,0.451928 -0.144506,0.444142 -0.665598,-0.05439 z m -5.251123,3.702975 c 0.22291,-0.184687 0.236742,-0.242803 0.03279,-0.137889 -0.08344,0.04292 -0.329527,0.33578 -0.276243,0.328748 0.0085,-0.0011 0.118097,-0.08701 0.243432,-0.190848 z"
       id="path12"
       inkscape:connector-curvature="0"
       style="display:inline;stroke:#000000;stroke-width:0.0557127;stroke-miterlimit:4;stroke-dasharray:none;stroke-opacity:1" />
  </g>
  <g
     id="g6372"
     inkscape:groupmode="layer"
     inkscape:label="B.Silk-disabled"
     style="display:inline" />
  <g
     id="g6374"
     inkscape:groupmode="layer"
     inkscape:label="F.Cu"
     style="display:inline" />
  <g
     id="g6376"
     inkscape:groupmode="layer"
     inkscape:label="F.Mask"
     style="display:inline">
    <path
       style="display:inline;fill:#000000;stroke-width:0.12453815"
       d="m 37.860492,60.138401 c -0.68496,-0.208243 -1.861845,-0.542716 -2.615301,-0.743275 -0.753455,-0.200557 -1.874299,-0.508616 -2.490763,-0.684575 -0.616463,-0.175959 -1.336888,-0.374714 -1.600942,-0.441678 -0.749318,-0.190026 -1.140105,-0.437565 -1.592482,-1.008734 -0.402188,-0.507807 -0.418182,-0.569518 -0.418182,-1.613613 0,-1.210018 0.107966,-1.446125 0.985575,-2.155245 0.452557,-0.365672 0.516647,-0.380294 1.610939,-0.367556 0.925752,0.01074 1.408414,0.09577 2.571819,0.452885 0.787704,0.241789 2.188759,0.646768 3.113454,0.899951 3.136713,0.858837 3.533656,1.00156 4.0525,1.457109 0.90214,0.792091 1.075587,2.436613 0.362348,3.4356 -0.822756,1.152385 -1.981573,1.376383 -3.978965,0.769131 z M 31.19252,53.954673 c 0.544792,-0.07308 0.793904,-0.350061 0.490347,-0.545217 -0.590907,-0.379891 -2.28467,0.732237 -2.049309,1.345581 0.06443,0.167877 0.161876,0.121749 0.556114,-0.263209 0.34813,-0.339941 0.620605,-0.485886 1.002848,-0.537155 z m 1.375101,-0.159254 c 0,-0.136987 -0.08075,-0.249077 -0.179457,-0.249077 -0.220007,0 -0.36067,0.204945 -0.256426,0.373614 0.135428,0.219138 0.435883,0.133295 0.435883,-0.124543 z m 29.266467,7.55275 c -1.675936,-0.855694 -1.850066,-3.251187 -0.323612,-4.451896 0.172629,-0.135795 1.002578,-0.492821 1.844333,-0.793404 0.841755,-0.300584 2.315046,-0.834766 3.274,-1.187076 2.447851,-0.899322 3.922231,-1.369565 4.291521,-1.368753 0.664401,0.0015 1.321654,0.286842 1.82896,0.794146 0.822291,0.822284 1.005038,2.004158 0.480757,3.109009 -0.415536,0.875666 -0.693893,1.013412 -5.480395,2.71199 -1.164441,0.413219 -2.549669,0.91507 -3.078304,1.115224 -1.19986,0.454296 -2.044809,0.475369 -2.83726,0.07077 z m -0.540372,-2.563607 c 0.107436,-0.48377 0.251037,-0.744796 0.544596,-0.989871 0.358417,-0.299219 0.378405,-0.349682 0.197858,-0.499524 -0.169326,-0.140532 -0.25142,-0.13353 -0.523241,0.04457 -0.693405,0.454336 -1.134189,2.358211 -0.496781,2.145742 0.07241,-0.02414 0.197322,-0.339551 0.277568,-0.700917 z m 1.474408,-1.690586 c 0,-0.348465 -0.364769,-0.309849 -0.414864,0.04392 -0.03199,0.225889 0.01,0.28143 0.186807,0.247371 0.129765,-0.02499 0.228057,-0.150535 0.228057,-0.291293 z"
       id="path6569"
       inkscape:connector-curvature="0"
       sodipodi:nodetypes="scsscssccsccsccccccscccccccccccsccccccccccccc" />
  </g>
  <g
     id="g6378"
     inkscape:groupmode="layer"
     inkscape:label="F.Silk"
     style="display:inline">
    <path
       inkscape:connector-curvature="0"
       id="path6542"
       d="m 35.186701,99.358613 c -1.25083,-0.625046 -2.50568,-2.013477 -3.373493,-3.732605 -0.203508,-0.403148 -0.396091,-0.732997 -0.42796,-0.732997 -0.03187,0 -0.167111,0.213982 -0.300535,0.475513 -0.323543,0.634196 -1.051639,1.273755 -1.951693,1.714364 -0.64437,0.315441 -0.905755,0.366779 -2.071341,0.406821 -2.771357,0.09521 -4.536906,-0.920803 -5.486222,-3.157119 -0.316659,-0.745955 -1.56104,-4.195155 -2.768959,-7.675057 -0.408019,-1.175466 -1.410693,-3.222032 -1.578569,-3.222032 -0.07799,0 -0.338179,0.149789 -0.578201,0.332863 -0.626916,0.47817 -1.209249,0.651754 -2.207378,0.657976 -1.512001,0.0094 -2.890867,-0.499678 -3.520185,-1.299727 -0.447437,-0.568823 -0.628209,-1.800496 -0.71322,-4.859444 -0.09942,-3.577569 -0.2563136,-4.5697 -0.9710406,-6.140569 -0.30209,-0.66395 -0.623098,-1.431351 -0.713351,-1.705335 -0.166188,-0.504498 -0.224494,-2.836143 -0.08564,-3.424799 0.04039,-0.171241 0.162471,-0.703641 0.271287,-1.183114 0.35084,-1.545891 0.424827,-1.85017 0.71164,-2.926645 0.402669,-1.511315 0.400707,-4.316551 -0.0044,-6.351447 -0.355642,-1.786243 -0.493801,-4.802124 -0.267235,-5.833476 0.280124,-1.275154 1.3009536,-3.142258 3.5153346,-6.429582 1.18549,-1.759898 2.196594,-3.265334 2.246899,-3.345416 0.334515,-0.532512 1.302197,-2.742961 1.971939,-4.504437 0.425151,-1.118184 1.314479,-2.818217 1.679921,-3.211324 L 18.886827,32.86408 18.571662,32.027913 C 18.398313,31.568021 17.971083,30.295071 17.622255,29.199136 15.60699,22.867643 14.731685,21.1784 11.459524,17.305742 9.7121824,15.237733 8.4974134,13.710536 8.1086274,13.093025 7.5538794,12.211914 7.0554294,10.816648 6.9644334,9.8901873 6.9176434,9.4137597 6.8245634,8.9546169 6.7576024,8.8698682 6.5675284,8.6293135 6.7358924,8.3702854 7.1400234,8.281524 c 0.20273,-0.044525 0.628778,-0.245959 0.946776,-0.4476269 0.317997,-0.201668 0.605405,-0.3666688 0.638682,-0.3666688 0.113791,0 2.2342216,-1.0419049 2.5461466,-1.2510893 0.171239,-0.1148349 0.511926,-0.2738019 0.757079,-0.3532539 0.245153,-0.07944 0.808491,-0.381452 1.251863,-0.671112 0.443371,-0.28966 0.943319,-0.594726 1.110992,-0.677926 0.374013,-0.185584 1.686371,-0.63998 2.110668,-0.730805 0.17124,-0.03665 0.815725,-0.282842 1.432189,-0.547082 1.42095,-0.609069 1.581328,-0.654209 3.98522,-1.121667 1.095937,-0.213114 2.300843,-0.470352 2.67757,-0.571642 0.376729,-0.101287 0.80832,-0.211348 0.959091,-0.244579 0.150771,-0.03323 0.683172,-0.221722 1.183112,-0.41887305 1.000728,-0.394637 3.433792,-0.697018 4.956472,-0.61599 0.716527,0.03813 0.810008,0.07233 0.813934,0.297701 0.0025,0.140047 0.122322,0.420256 0.266392,0.62269205 0.385305,0.541379 0.956229,1.701911 1.580982,3.213695 0.303666,0.734816 0.736451,1.6401748 0.961744,2.0119065 0.377584,0.6230095 1.859642,2.6959329 2.293401,3.2077318 0.102259,0.1206451 0.185918,0.2447998 0.185918,0.2758863 0,0.031081 0.162977,0.3135063 0.36217,0.6276033 0.463001,0.730078 0.953213,1.984131 1.751771,4.481361 0.350457,1.095937 0.940507,2.609075 1.311225,3.362531 0.992448,2.01708 1.560004,2.723312 4.427573,5.509414 1.363249,1.324518 1.920168,2.16494 2.238751,3.378402 0.232231,0.884548 0.557464,1.609213 1.069433,2.38285 0.683501,1.032842 1.196005,3.086023 1.492158,5.977868 0.295554,2.885994 0.333561,3.004019 0.441162,1.369919 0.113614,-1.725391 0.505659,-4.07194 0.852173,-5.100551 0.139194,-0.413195 0.440701,-1.04582 0.67001,-1.405829 0.417461,-0.655403 0.470184,-0.787123 0.954319,-2.384247 0.37102,-1.223968 0.855785,-1.905978 2.812333,-3.95664 2.496151,-2.616219 3.321734,-4.120966 4.427005,-8.068858 0.279027,-0.996648 0.615893,-2.092298 0.748594,-2.434778 0.334888,-0.864303 1.200317,-2.52799 1.587129,-3.051073 0.485716,-0.6568299 0.473908,-0.641522 1.003003,-1.3005029 0.633624,-0.7891679 1.467233,-2.4248374 2.003002,-3.930211 0.231597,-0.650711 0.703969,-1.743534 1.04971,-2.428494 0.73196,-1.450098 0.794166,-1.481418 1.991129,-1.002555 1.7569,0.702868 3.092499,1.058915 4.882847,1.301682 1.75362,0.237788 2.790768,0.502327 3.600761,0.918431 0.57494,0.295358 1.76752,0.559638 2.915782,0.646156 0.582221,0.04386 1.478895,0.188016 1.992615,0.32033 1.497165,0.38561 3.182285,0.742644 3.502485,0.74209 0.84196,-0.0015 5.84336,1.2474602 6.62309,1.6538792 0.57126,0.2977531 0.65517,0.4871271 0.77298,1.7443251 0.0725,0.7730096 0.0496,1.0444926 -0.11723,1.3962506 -0.114,0.240163 -0.26062,0.436659 -0.3259,0.436659 -0.0653,0 -0.11944,0.07006 -0.12017,0.155674 -0.003,0.352544 -0.88463,2.141777 -1.53016,3.106971 -0.38032,0.568657 -1.45536,1.986639 -2.38899,3.15107 -0.93362,1.164433 -1.97849,2.537466 -2.32194,3.051186 -1.29795,1.941468 -2.255496,4.316993 -3.463756,8.593131 -0.261281,0.924696 -0.623878,2.178716 -0.805772,2.786708 -0.320558,1.071459 -0.323942,1.115488 -0.110319,1.43219 0.121204,0.17971 0.277166,0.420722 0.34649,0.535582 0.873243,1.446784 1.264582,2.189084 1.990865,3.776392 1.166722,2.549906 1.757092,3.596498 3.055892,5.417403 2.20284,3.088398 3.73411,5.435292 4.04412,6.198242 0.61857,1.522308 0.68576,3.405249 0.23813,6.673234 -0.40052,2.924055 -0.22524,5.053237 0.62588,7.602993 0.54187,1.623271 0.75299,2.900793 0.74295,4.495429 -0.0103,1.604304 -0.0394,1.717491 -1.04977,4.047491 l -0.40501,0.934036 -0.0944,3.922952 c -0.0962,3.996822 -0.19734,4.87674 -0.61202,5.321848 -0.65013,0.697836 -2.15298,1.278674 -3.30839,1.278674 -0.89494,0 -1.66452,-0.239213 -2.28007,-0.708719 l -0.43294,-0.330216 -0.29277,0.363794 c -0.414805,0.515433 -0.915051,1.873634 -1.71869,4.666376 -0.839897,2.918693 -1.566415,4.984373 -2.166081,6.158624 -0.546463,1.070091 -1.753252,2.327249 -2.570129,2.677406 -2.43376,1.043231 -5.549308,0.195887 -6.559347,-1.78397 l -0.251101,-0.492191 -0.626981,1.169297 c -0.829409,1.546842 -1.217057,2.094846 -1.93116,2.729967 -0.939273,0.835395 -1.761578,1.158181 -3.104707,1.218717 -1.049588,0.0473 -1.18801,0.02521 -1.746642,-0.278837 -0.333692,-0.181619 -0.808341,-0.514929 -1.054774,-0.740692 l -0.448059,-0.410476 -0.607402,0.321551 c -0.5255,0.278197 -0.75853,0.32102 -1.728243,0.317601 -0.964876,-0.0034 -1.230029,-0.05381 -1.905494,-0.362248 -1.340557,-0.612135 -2.33541,-1.982269 -2.718105,-3.743434 -0.332948,-1.532227 -0.156303,-4.155947 0.38046,-5.651009 0.257967,-0.718525 0.261501,-0.707362 -0.234548,-0.74077 -2.747751,-0.185051 -3.93025,-3.057052 -3.752217,-9.113221 0.03926,-1.335671 0.07681,-2.568599 0.08343,-2.73984 0.0066,-0.17124 -0.128529,-0.843746 -0.300312,-1.494458 -0.171792,-0.650711 -0.353897,-1.40728 -0.404676,-1.681265 -0.08855,-0.47776 -0.101597,-0.44993 -0.318645,0.679871 -0.124469,0.647914 -0.307561,1.381074 -0.406859,1.629245 -0.158131,0.395207 -0.157369,0.612272 0.0062,1.748623 0.279954,1.945637 0.166131,6.271431 -0.2027,7.703452 -0.305913,1.18773 -0.577614,1.78009 -1.049401,2.287896 -0.397496,0.427842 -1.228021,0.808374 -1.993211,0.913255 -0.330059,0.04525 -0.571708,0.143695 -0.571708,0.232925 0,0.085 0.17908,0.707866 0.397956,1.384126 0.373177,1.153005 0.398378,1.345878 0.404748,3.097636 0.0071,1.934511 -0.107303,2.638092 -0.584689,3.598024 -0.271205,0.545336 -0.282236,0.560966 -0.907864,1.28639 -0.876993,1.016885 -2.623822,1.566918 -4.081502,1.285164 -0.423829,-0.08192 -0.89472,-0.22863 -1.046425,-0.32602 -0.151707,-0.09739 -0.319834,-0.176475 -0.373615,-0.175744 -0.05378,7.47e-4 -0.377996,0.260884 -0.720476,0.57812 -0.858603,0.795312 -1.205745,0.91501 -2.653679,0.91501 -1.129332,0 -1.293294,-0.03189 -2.012723,-0.391387 z m 3.424434,-0.83823 c 0.711245,-0.32309 1.488635,-1.166936 1.955151,-2.122291 0.390726,-0.800144 0.400474,-0.861075 0.400242,-2.501385 -2.49e-4,-1.871788 -0.134399,-2.603912 -0.924042,-5.043796 -0.569816,-1.76064 -1.304455,-3.165322 -2.113016,-4.040231 -0.555191,-0.60075 -0.582494,-0.664315 -0.578271,-1.346329 0.0029,-0.481165 -0.104407,-1.004368 -0.32761,-1.596097 -0.238581,-0.632513 -0.368806,-1.303694 -0.462659,-2.384556 -0.07184,-0.827346 -0.162019,-1.586098 -0.200398,-1.686115 -0.0907,-0.236367 -0.870304,-0.466451 -1.580494,-0.466451 -0.761313,0 -2.59329,0.328705 -3.212246,0.576363 -0.634706,0.253957 -0.763021,0.155807 -0.217268,-0.166196 0.903711,-0.533203 1.986324,-0.809769 3.427649,-0.875636 0.77058,-0.03521 1.401054,-0.07509 1.401054,-0.08859 0,-0.01353 -0.142503,-0.749024 -0.316675,-1.634459 -0.373221,-1.897347 -0.895667,-3.111041 -1.671349,-3.882708 -0.465017,-0.46261 -0.498005,-0.529287 -0.261853,-0.529287 0.148605,0 0.488056,0.125382 0.754335,0.278637 l 0.484144,0.27864 0.70508,-0.779137 c 0.387794,-0.428529 0.816307,-0.838666 0.952249,-0.911421 0.488822,-0.26161 0.386293,0.03068 -0.234784,0.669343 -0.348059,0.35791 -0.704643,0.856329 -0.79241,1.1076 -0.141973,0.406464 -0.128632,0.536954 0.120969,1.183112 0.395247,1.023196 1.087846,3.704673 1.393845,5.396439 0.394824,2.182836 0.8244,3.997981 1.184548,5.005226 0.375147,1.049195 0.776037,1.96891 0.858217,1.96891 0.03115,0 0.267927,-0.08142 0.526174,-0.180929 0.76113,-0.293288 2.843982,-0.595274 2.630026,-0.381318 -0.03324,0.03324 -0.588995,0.172029 -1.235004,0.308413 -1.692764,0.357369 -1.764153,0.383236 -1.693051,0.613464 0.05504,0.178219 0.688536,1.669142 1.143648,2.691554 1.201149,2.698388 1.558964,6.333373 0.815888,8.288446 -0.141797,0.373066 -0.257836,0.743356 -0.257869,0.822864 -1.06e-4,0.245878 1.03846,0.664935 1.647928,0.664935 0.880059,0 2.085507,-0.591199 2.793243,-1.369919 0.155633,-0.17124 0.436476,-0.619578 0.624098,-0.996305 0.625882,-1.256709 0.422359,-3.323711 -0.606988,-6.164638 -0.77316,-2.133864 -1.51781,-3.55432 -2.3297,-4.444002 -0.65752,-0.720523 -0.708833,-0.817986 -0.610843,-1.160216 0.362869,-1.267307 0.463995,-2.344517 0.48173,-5.131433 0.01761,-2.767327 0.0044,-2.95693 -0.212013,-3.042058 -0.391339,-0.153944 -1.32635,-0.117468 -2.090421,0.08155 -0.400867,0.104406 -0.757555,0.161133 -0.792641,0.126043 -0.164326,-0.164327 1.174717,-0.578869 2.100443,-0.650254 l 1.015465,-0.07831 -0.08331,-0.758834 C 43.077033,72.845491 42.5504,69.951134 42.313839,69.175888 l -0.228012,-0.747229 -0.805016,-0.06602 -0.805014,-0.066 0.577836,-0.266165 c 0.31781,-0.146386 0.618146,-0.331389 0.667414,-0.411104 0.04926,-0.07971 0.251894,-0.243651 0.45028,-0.364296 0.198388,-0.120645 0.598579,-0.441205 0.889314,-0.712352 1.031851,-0.96233 1.122231,-0.796211 0.278695,0.512246 -0.315003,0.488618 -0.559584,1.016828 -0.559584,1.20851 0,0.187283 0.170839,0.861483 0.379641,1.498225 0.895932,2.73214 1.220335,5.991611 0.999648,10.044068 -0.168276,3.090045 -0.110466,3.50864 0.705486,5.107994 0.702257,1.376507 1.501374,2.027003 2.523029,2.053792 0.974608,0.02555 2.073088,-1.396107 2.352096,-3.044103 0.201357,-1.189347 0.171624,-4.243543 -0.06271,-6.440405 -0.200441,-1.879208 -0.199636,-1.916252 0.05951,-2.739839 0.412322,-1.310375 0.819789,-3.899553 0.631952,-4.015643 -0.08437,-0.05214 -0.583585,-0.161725 -1.109373,-0.243518 -0.962894,-0.14979 -2.169175,-0.05594 -3.409545,0.265273 -0.640731,0.165928 -0.696946,0.06765 -0.118351,-0.206917 0.769681,-0.365238 1.257813,-0.450063 3.088701,-0.536746 l 1.743535,-0.08255 0.07958,-0.622691 c 0.178504,-1.396896 0.261596,-5.109376 0.125484,-5.606794 -0.313676,-1.146362 -1.550125,-1.223131 -3.795989,-0.235683 -0.542978,0.238734 -1.010373,0.410923 -1.038653,0.382642 -0.06759,-0.06759 1.000012,-1.007681 1.670434,-1.47094 0.636773,-0.440009 1.413945,-0.728322 1.963251,-0.728322 0.222737,0 0.466406,-0.07402 0.541487,-0.164484 0.0808,-0.09736 0.145062,-0.821589 0.157457,-1.774669 0.01703,-1.309152 -0.02175,-1.714956 -0.207436,-2.170606 -0.125617,-0.308232 -0.310417,-0.622093 -0.410681,-0.69747 -0.100258,-0.07539 -0.154757,-0.243504 -0.121101,-0.373615 0.05539,-0.214177 -0.01643,-0.237199 -0.75897,-0.243271 -0.478139,-0.004 -1.1058,-0.107731 -1.50512,-0.248953 -0.837144,-0.296064 -2.587522,-0.325716 -4.022581,-0.06813 -0.690329,0.123911 -1.009977,0.135766 -1.104734,0.04102 -0.09476,-0.09476 0.04217,-0.156624 0.473245,-0.213816 0.333618,-0.04426 0.914059,-0.139502 1.289868,-0.211638 1.007772,-0.193441 2.691068,-0.162084 3.613277,0.06731 0.991866,0.24672 1.853417,0.255387 2.161863,0.02174 0.386463,-0.292733 0.566841,-2.462254 0.569784,-6.853112 0.0062,-9.213873 -0.972915,-16.008421 -2.810795,-19.505912 -0.581862,-1.107284 -1.653934,-2.20524 -2.609974,-2.672988 -0.835858,-0.408946 -0.661533,-0.549553 0.323384,-0.260831 0.342213,0.100317 0.622205,0.132648 0.622205,0.07185 0,-0.194582 -0.916279,-1.132538 -1.412176,-1.445585 -1.570475,-0.991392 -4.064488,-2.008318 -5.635228,-2.297738 -0.439174,-0.08092 -0.798498,-0.181924 -0.798498,-0.224451 0,-0.19384 1.653773,-0.435906 2.841623,-0.415933 1.454227,0.02445 1.410514,0.136531 0.414018,-1.061541 -0.303669,-0.365097 -0.69422,-0.717837 -0.867889,-0.783865 -0.173669,-0.06603 -0.753939,-0.121013 -1.289489,-0.122189 -0.535548,-0.0012 -0.973725,-0.04729 -0.973725,-0.10248 0,-0.182304 1.012759,-0.774466 1.444326,-0.844499 0.233061,-0.03782 0.423747,-0.11588 0.423747,-0.173457 0,-0.05759 -0.135516,-0.411122 -0.301151,-0.785648 -0.26583,-0.601089 -0.353469,-0.690769 -0.747229,-0.764639 -0.245343,-0.04603 -0.642226,-0.04689 -0.881961,-0.0019 -0.775474,0.145474 -0.447258,-0.324237 0.483961,-0.692608 0.281788,-0.111467 0.530279,-0.292646 0.552198,-0.402614 0.06915,-0.346876 -0.579063,-0.826903 -1.116614,-0.826903 -0.487998,0 -0.640651,-0.160767 -0.282974,-0.29802 0.108349,-0.04158 0.393011,-0.07559 0.632586,-0.07559 0.425308,0 0.433648,-0.0096 0.353226,-0.40475 C 38.248329,12.89485 37.150538,10.645632 35.876033,9.0631335 34.470378,7.317792 33.969336,6.2175783 33.107507,2.9838791 33.007102,2.6071521 32.774502,1.9906881 32.590612,1.6139591 32.266744,0.95045805 32.238711,0.92765005 31.695846,0.88594405 c -0.699763,-0.05376 -3.399959,0.20292705 -3.98522,0.37884805 -0.239736,0.07206 -0.740089,0.267974 -1.111896,0.43536 -0.689263,0.310308 -1.041736,0.396077 -3.994168,0.97192 -2.734742,0.533386 -3.24378,0.676894 -4.421106,1.246403 -0.616463,0.298203 -1.613851,0.665791 -2.216414,0.816863 -0.844722,0.211783 -1.329481,0.42776 -2.117149,0.943257 C 13.288026,6.0463158 12.632169,6.4113827 12.392434,6.489855 12.152697,6.568329 11.761403,6.7643043 11.522891,6.9253556 11.284378,7.086407 11.032189,7.218312 10.96247,7.2184783 10.847973,7.2187519 9.7684464,7.7547106 8.1058944,8.6366938 c -0.336963,0.1787584 -0.687227,0.3250167 -0.778362,0.3250167 -0.09114,0 -0.165701,0.054762 -0.165701,0.1216894 0,0.2630614 0.656554,1.8454571 1.08504,2.6151091 0.767996,1.37949 1.108133,1.808639 4.4569066,5.623262 2.564362,2.921092 4.099489,5.47977 5.295444,8.826198 0.35495,0.993192 0.808674,2.115022 1.008279,2.492954 0.413455,0.782837 1.409666,2.095818 1.664326,2.193542 0.09374,0.03596 0.693039,-0.294398 1.33179,-0.734146 0.638752,-0.439749 1.497619,-0.951496 1.908595,-1.137215 l 0.747229,-0.337673 -0.7394,0.660476 c -0.406671,0.363262 -0.865945,0.760199 -1.020611,0.882084 -0.462793,0.364708 -1.760037,1.752074 -2.462402,2.633472 -0.867604,1.088758 -1.43813,2.231846 -2.21125,4.430401 -1.133185,3.222481 -1.608438,4.086615 -3.630149,6.600524 -1.163793,1.447123 -1.111287,1.379683 -1.454369,1.868071 -0.168409,0.239737 -0.351792,0.491926 -0.407515,0.560421 -0.283326,0.348262 -1.110148,1.724708 -1.321058,2.199217 -0.793341,1.784882 -0.905599,2.924016 -0.863282,8.760142 0.02698,3.719838 -0.0072,5.29044 -0.13506,6.201212 l -0.171183,1.219688 0.514767,0.440621 c 0.68131,0.583175 1.671148,1.877377 1.511384,1.976117 -0.06893,0.0426 -0.376036,-0.157537 -0.682466,-0.444747 -1.155155,-1.082697 -1.491863,-1.126709 -1.8310386,-0.239338 -0.225179,0.589133 -0.299908,2.303175 -0.148554,3.407419 0.09504,0.693394 0.347313,0.757 1.0069356,0.253881 0.233576,-0.178158 0.456616,-0.29199 0.495643,-0.252964 0.127323,0.127324 -0.344738,0.714747 -0.781444,0.97241 -0.4875976,0.287689 -0.4950126,0.325596 -0.234979,1.201228 0.129559,0.436251 0.300951,0.716222 0.528472,0.863236 0.59013,0.381317 0.890334,0.81745 1.178445,1.71204 0.434447,1.348962 0.368598,3.349183 -0.216548,6.577898 -0.109466,0.60402 -0.162893,1.212083 -0.118718,1.351249 0.10342,0.325846 1.013467,0.727428 1.842319,0.812974 0.874449,0.09026 2.109911,-0.238435 2.751199,-0.731937 1.32272,-1.017898 2.424737,-3.008266 3.262825,-5.893036 0.545125,-1.876365 0.794072,-5.201741 0.500198,-6.681552 -0.316621,-1.594358 -0.792115,-2.310245 -2.018845,-3.039507 -0.195208,-0.116041 -0.156307,-0.17006 0.328724,-0.456439 1.551882,-0.916281 2.185305,-1.888825 2.313577,-3.55221 0.101303,-1.313652 -0.112599,-2.641516 -0.6639,-4.121397 -0.494975,-1.328692 -0.488295,-1.353297 0.529486,-1.949756 0.777803,-0.455823 0.823692,-0.75392 0.200195,-1.300459 -0.465542,-0.40808 -0.521157,-0.525352 -0.691345,-1.457791 -0.184894,-1.013001 -0.462885,-1.673559 -0.9744,-2.315346 -0.370064,-0.464313 -0.206916,-0.569561 0.208853,-0.134737 0.41552,0.434568 0.765373,1.190961 1.11262,2.405514 0.218633,0.764708 0.329007,0.963797 0.608831,1.0982 0.751474,0.36094 1.737106,-0.434383 1.917732,-1.547448 0.03771,-0.232385 0.114732,-0.42252 0.171166,-0.42252 0.261509,0 0.295492,1.631793 0.04732,2.272337 -0.07302,0.188456 -0.02852,0.207246 0.333637,0.1409 0.748367,-0.137105 2.265357,-0.695657 3.094242,-1.139298 2.060406,-1.102783 3.934802,-2.894165 5.770374,-5.51481 0.111614,-0.159357 0.238208,-0.254477 0.281309,-0.211376 0.07016,0.07016 -0.580741,1.098977 -1.252956,1.980398 -0.138532,0.181641 -0.391975,0.516494 -0.563215,0.744118 -0.394308,0.524138 -1.917609,2.02713 -2.490763,2.457553 -0.239735,0.180036 -0.463904,0.359884 -0.498153,0.399664 -0.03424,0.03977 -0.398522,0.298626 -0.809498,0.575219 -1.031754,0.694384 -2.176616,1.256027 -3.41378,1.674722 -0.986458,0.333848 -1.505476,0.634954 -1.505476,0.873393 0,0.182917 1.017487,0.849349 1.491725,0.977049 0.6159,0.165845 1.735453,-0.127853 2.557224,-0.670836 0.606375,-0.400665 2.177958,-1.892702 2.177958,-2.06772 0,-0.04783 0.112084,-0.216209 0.249076,-0.374163 0.433544,-0.499878 0.288216,0.02549 -0.227196,0.821325 -0.539424,0.832912 -1.598489,1.848577 -2.444633,2.34445 -1.219311,0.714564 -2.701771,0.692948 -3.757076,-0.05479 -0.496604,-0.351864 -0.520142,-0.356216 -0.721757,-0.133427 -0.1951,0.215584 -0.192981,0.289211 0.0332,1.152757 0.132883,0.507355 0.282127,1.354768 0.331638,1.883143 0.05788,0.617717 0.14371,0.960682 0.240388,0.960682 0.32109,0 1.998027,-0.63658 3.105277,-1.178792 1.288726,-0.631077 2.929116,-1.738372 3.866479,-2.609947 0.337221,-0.313554 0.659463,-0.570098 0.716094,-0.570098 0.233891,0 0.07408,0.354625 -0.367753,0.816055 -0.867587,0.906065 -0.869546,0.917808 -0.122925,0.736259 0.360748,-0.08773 0.992158,-0.278924 1.403134,-0.4249 0.743553,-0.264101 1.681265,-0.260581 1.681265,0.0063 0,0.119351 -1.637636,0.959851 -2.362618,1.212582 -0.225756,0.07869 -0.949395,0.229554 -1.60809,0.335233 -1.28129,0.205567 -1.860621,0.435789 -2.983507,1.185623 -0.726454,0.485108 -1.602062,0.888624 -2.977702,1.372247 -0.734791,0.258325 -0.778364,0.295869 -0.778364,0.670654 0,0.729653 -0.584615,2.12671 -1.160468,2.77317 -0.246046,0.276217 -0.245996,0.278941 0.02064,1.091146 0.39643,1.207607 0.641684,2.805677 0.641684,4.181196 0,3.065762 -0.936791,7.005755 -2.240315,9.422405 l -0.498603,0.924372 0.384214,1.143273 c 0.532067,1.583228 0.673757,1.847563 1.17216,2.186764 0.41362,0.281499 0.435315,0.332397 0.435315,1.02131 0,0.944433 0.182989,1.826154 0.618247,2.978992 1.251768,3.315465 1.561785,4.039943 2.022094,4.725452 0.282864,0.421255 0.73163,0.938046 0.997255,1.148425 1.037801,0.821954 3.04728,1.095701 4.380762,0.59678 1.556894,-0.582508 2.437565,-2.380026 2.254977,-4.602585 -0.09768,-1.189071 -0.343236,-2.58927 -0.633362,-3.611606 -0.250231,-0.881751 -1.167423,-2.988916 -1.300996,-2.988916 -0.05638,0 -0.232374,-0.182137 -0.39111,-0.404749 -0.257607,-0.361271 -0.289825,-0.551904 -0.299923,-1.774669 -0.01441,-1.738053 -0.679443,-5.189983 -1.04329,-5.414855 -0.586529,-0.362496 -2.971331,-0.220681 -4.407613,0.262104 -1.039494,0.349409 -1.158912,0.210443 -0.204431,-0.237897 1.23904,-0.582008 1.692439,-0.691475 3.175723,-0.766744 l 1.369919,-0.06952 -0.03857,-0.498151 c -0.06073,-0.784554 -0.360711,-2.162478 -0.67781,-3.113455 -0.548147,-1.643892 -1.467366,-2.731066 -2.649811,-3.133963 -0.306222,-0.104348 -0.556768,-0.218831 -0.556768,-0.254419 0,-0.128382 1.196121,0.116086 1.770155,0.361792 0.551614,0.236102 1.499962,1.1048 1.810078,1.658051 0.135869,0.24239 0.146357,0.240887 0.489856,-0.07021 0.945124,-0.855958 2.147846,-1.422006 3.293504,-1.550054 0.368015,-0.04113 0.851254,-0.102553 1.073867,-0.136502 0.701879,-0.107024 0.439338,0.166963 -0.435883,0.45488 -1.726052,0.567809 -2.753592,1.273505 -3.161404,2.171195 -0.363859,0.800941 -0.321644,1.805889 0.217158,5.169402 0.576017,3.595829 1.632268,6.731232 2.6641,7.908172 0.174024,0.1985 0.231755,0.565188 0.284298,1.805804 0.173167,4.088616 1.894581,8.666997 3.944191,10.490214 1.171781,1.042349 2.762748,1.389716 3.932108,0.858523 z M 21.181963,85.786222 c 0.0476,-0.07702 0.715523,-0.442488 1.484266,-0.812142 1.3067,-0.628335 2.744673,-1.040426 3.630522,-1.040426 0.448272,0 0.248993,0.206411 -0.297141,0.307775 -0.916365,0.170081 -2.477934,0.678285 -3.619213,1.177856 -1.26686,0.554541 -1.325472,0.572487 -1.198434,0.366937 z m 10.389353,-0.04358 c 0,-0.142429 1.679317,-0.834256 2.604087,-1.072795 0.507553,-0.130927 1.264122,-0.231475 1.681266,-0.223451 l 0.758441,0.01456 -1.071702,0.215762 c -0.589438,0.118674 -1.598197,0.385941 -2.241687,0.593935 -1.667234,0.538897 -1.730405,0.556127 -1.730405,0.471962 z m 13.45012,-10.006309 c 0.501413,-0.317925 3.736145,-0.432007 3.736145,-0.131765 0,0.06026 -0.52418,0.109569 -1.164845,0.109569 -0.640663,0 -1.523327,0.03164 -1.961474,0.07032 -0.526395,0.04647 -0.733263,0.03014 -0.609826,-0.04813 z M 30.326785,63.540529 c 4.98e-4,-0.05138 0.210627,-0.232103 0.467018,-0.401624 0.851845,-0.563221 1.766981,-1.394644 2.040377,-1.853729 0.586656,-0.985108 1.121453,-1.761003 1.2138,-1.761003 0.297081,0 0.143504,0.287058 -0.86205,1.611347 -0.780796,1.028284 -1.328462,1.614728 -1.848837,1.97975 -0.709833,0.49792 -1.012129,0.625162 -1.010308,0.425259 z m 7.595976,-9.421789 c 0,-0.02767 0.342001,-0.321884 0.760001,-0.653826 0.418001,-0.331943 1.048476,-0.846167 1.401054,-1.142722 1.410276,-1.186184 4.603484,-3.10077 4.968587,-2.979069 0.07371,0.02456 -0.33744,0.288872 -0.913652,0.587341 -1.354042,0.701377 -3.902207,2.611072 -5.446522,4.081838 -0.148938,0.141841 -0.769468,0.227681 -0.769468,0.106438 z m -4.856987,-1.398514 c 0,-0.111879 0.187674,-0.574234 0.417053,-1.02744 0.229378,-0.453208 0.607663,-1.356415 0.840632,-2.007126 0.241979,-0.675878 0.43923,-1.073754 0.460083,-0.928035 0.04239,0.296214 -0.56965,2.108178 -1.123243,3.325394 -0.370741,0.815169 -0.594525,1.055018 -0.594525,0.637207 z m 2.864378,-0.625422 c 0,-0.07537 0.09467,-0.354043 0.210374,-0.619268 0.115703,-0.265223 0.216145,-0.510247 0.223195,-0.544496 0.0071,-0.03424 0.135148,-0.332422 0.284662,-0.662612 0.502246,-1.109175 1.250355,-3.497173 1.567608,-5.003873 0.591291,-2.808169 0.556012,-5.088758 -0.112231,-7.254604 -0.320032,-1.037265 -0.316658,-1.342154 0.0063,-0.573627 0.349232,0.83093 0.664204,2.186705 0.748141,3.22032 0.2156,2.654978 -0.656893,6.774271 -2.130169,10.057163 -0.477291,1.063535 -0.797936,1.61848 -0.797936,1.380997 z M 26.593577,29.124418 c -0.01103,-0.576871 1.615559,-2.164965 2.780814,-2.715112 1.802743,-0.851121 3.650503,-0.943917 7.863411,-0.394908 1.230079,0.160298 2.363257,0.244512 2.704529,0.20099 0.323061,-0.0412 1.060562,-0.301955 1.638894,-0.57946 0.620381,-0.297679 1.171011,-0.483648 1.34296,-0.453569 0.257684,0.04507 0.233736,0.07513 -0.206704,0.259522 -1.390607,0.582147 -1.712187,0.883534 -1.098556,1.029574 1.000795,0.238184 3.239905,1.624149 3.004391,1.859663 -0.03452,0.03452 -0.393404,-0.13631 -0.797501,-0.379648 -0.850408,-0.512092 -2.227702,-0.972882 -3.47456,-1.162453 -1.175993,-0.178796 -6.038601,-0.4578 -7.659095,-0.439457 -1.517862,0.01718 -2.588109,0.256729 -3.709309,0.830237 -0.771611,0.39469 -1.973942,1.409018 -2.245997,1.894801 -0.108172,0.193148 -0.140341,0.204335 -0.143283,0.04982 z M 66.775386,97.98752 c 1.501313,-0.561713 3.129492,-2.736203 3.948914,-5.273925 0.540152,-1.672875 0.963558,-4.084369 1.038604,-5.915563 0.03795,-0.924696 0.110025,-1.709287 0.160242,-1.743534 0.209945,-0.143136 1.048151,-1.999129 1.431826,-3.170413 0.731652,-2.233504 1.431341,-6.419015 1.427017,-8.536173 -0.0015,-0.820812 -0.302055,-1.527833 -0.883628,-2.079938 -0.45,-0.427192 -2.008148,-1.196714 -2.723914,-1.345258 -0.946716,-0.196474 -0.803713,-0.322081 0.31135,-0.273473 0.696526,0.03036 1.381991,0.143327 1.810677,0.298386 0.703513,0.254464 1.923953,1.048517 2.028565,1.319825 0.03604,0.09345 0.143709,0.0326 0.285241,-0.161229 0.941376,-1.289043 1.789878,-1.858195 2.896674,-1.943004 l 0.700204,-0.05366 -0.498158,0.18732 c -1.346718,0.506407 -1.951356,1.154303 -2.532238,2.713406 -0.241217,0.64742 -0.768013,3.189926 -0.768013,3.706699 0,0.17611 0.197618,0.220594 1.276511,0.287343 0.702086,0.04344 1.612764,0.165788 2.02374,0.271891 0.765219,0.197563 2.081754,0.697931 2.01418,0.765516 -0.02074,0.02071 -0.610463,-0.07339 -1.310549,-0.209092 -1.284881,-0.249076 -3.790407,-0.339027 -4.092682,-0.146931 -0.241672,0.153577 -0.689289,3.175835 -0.738433,4.985762 -0.04383,1.61533 -0.05634,1.680086 -0.455294,2.366226 -1.34541,2.31375 -2.038788,4.993348 -1.931705,7.465202 0.09899,2.28335 1.045238,3.49373 3.051077,3.902456 1.751178,0.356838 3.83021,-0.549203 4.70032,-2.048401 0.165626,-0.285356 0.702454,-1.695717 1.192948,-3.134133 0.798035,-2.340289 0.899014,-2.743429 0.960234,-3.833765 0.06001,-1.068795 0.10267,-1.245424 0.347417,-1.437932 0.350227,-0.275487 0.745979,-1.044012 1.197331,-2.32513 l 0.351007,-0.996304 -0.736491,-1.494458 c -0.889497,-1.804916 -1.509418,-3.620534 -1.892225,-5.541949 -0.380513,-1.909919 -0.412535,-5.209051 -0.06325,-6.522461 0.125176,-0.470787 0.285389,-0.982817 0.356037,-1.137846 0.108701,-0.238528 0.0428,-0.413309 -0.428627,-1.136636 -0.306379,-0.47012 -0.69076,-1.274652 -0.854195,-1.787846 l -0.297111,-0.93308 -0.993079,-0.342861 c -1.135097,-0.391888 -2.608771,-1.070863 -3.428031,-1.579408 -0.392854,-0.243864 -0.926108,-0.41082 -1.783479,-0.558396 -1.131067,-0.194686 -2.876994,-0.722747 -3.111459,-0.941075 -0.05516,-0.05132 0.14621,-0.162303 0.447323,-0.246619 0.458119,-0.128265 0.656178,-0.121042 1.21254,0.04417 0.929138,0.275926 1.072024,0.24756 0.629335,-0.124941 -0.403857,-0.339814 -0.505262,-0.67389 -0.204576,-0.67389 0.09826,0 0.572483,0.296324 1.053916,0.658494 0.481433,0.362171 1.318962,0.894876 1.861203,1.18379 0.920092,0.490249 3.15691,1.38833 3.894387,1.563601 l 0.325324,0.07731 0.06605,-1.087772 c 0.03633,-0.598276 0.163963,-1.47021 0.283697,-1.937634 0.188395,-0.735515 0.193823,-0.873737 0.0403,-1.027311 -0.153579,-0.153574 -0.29417,-0.114629 -1.0449,0.289438 -0.782266,0.421039 -0.959174,0.466858 -1.801483,0.466576 -0.747833,-2.49e-4 -1.054564,-0.06181 -1.538616,-0.30879 -0.802462,-0.409439 -1.948458,-1.515361 -1.948458,-1.880313 0,-0.262875 0.02692,-0.253726 0.426362,0.144915 1.009377,1.007383 2.670652,1.697513 3.589332,1.491099 0.586957,-0.131883 1.312755,-0.608143 1.416514,-0.929502 0.103111,-0.319378 -0.326987,-0.64237 -1.197906,-0.899575 -1.108472,-0.327364 -2.94389,-1.235733 -4.239053,-2.097962 -1.748957,-1.164322 -4.224374,-3.698707 -5.160984,-5.283912 -0.16592,-0.280819 0.206018,-0.01309 0.494407,0.355865 0.802124,1.026255 2.626716,2.901152 3.485896,3.581995 1.532364,1.214296 3.215071,2.056261 4.890849,2.447193 l 0.746612,0.174176 -0.06428,-1.355219 c -0.0353,-0.745371 -0.0328,-1.355219 0.0059,-1.355219 0.03839,0 0.165802,0.294222 0.283005,0.653826 0.316293,0.970418 0.559951,1.321386 1.023616,1.474409 0.310526,0.102479 0.507704,0.100008 0.772543,-0.0097 0.41155,-0.170468 0.583045,-0.52346 0.747921,-1.539517 0.122822,-0.756574 0.53396,-1.590375 0.986077,-1.99953 0.373762,-0.338251 0.325295,-0.152252 -0.170524,0.654506 -0.315116,0.512729 -0.453353,0.906541 -0.509322,1.45096 -0.118556,1.152596 -0.267605,1.510913 -0.74639,1.793405 -0.711339,0.419696 -0.491612,0.916923 0.660782,1.495334 0.291096,0.146121 0.529283,0.324694 0.529283,0.396844 0,0.07215 -0.13812,0.542631 -0.306938,1.04551 -0.381498,1.136492 -0.562672,2.225275 -0.563893,3.388893 -0.0029,2.183139 0.62426,3.393889 2.156579,4.167401 l 0.746906,0.377041 -0.491318,0.315858 c -1.183314,0.760724 -1.611779,1.979904 -1.587567,4.517324 0.0331,3.467705 0.883171,6.439914 2.606196,9.11243 1.047227,1.624305 2.601787,2.412044 4.211637,2.134155 0.41963,-0.07243 0.97312,-0.256293 1.22997,-0.408571 0.55563,-0.329406 0.561,-0.384357 0.2252,-2.307149 -0.43963,-2.517247 -0.55214,-3.942667 -0.40265,-5.100769 0.16207,-1.255446 0.3331,-1.623589 1.05183,-2.263858 0.44151,-0.393323 0.57129,-0.613001 0.71014,-1.20206 0.16551,-0.702078 0.16253,-0.725963 -0.11502,-0.920323 -0.43229,-0.302787 -1.12707,-0.960367 -1.12707,-1.066731 0,-0.181512 0.33702,-0.09205 0.55322,0.146842 0.12002,0.132604 0.37901,0.297169 0.57557,0.365688 0.34359,0.119777 0.3611,0.106892 0.45444,-0.334513 0.15723,-0.743567 0.0849,-2.513776 -0.13827,-3.379043 -0.11385,-0.441543 -0.22992,-0.825763 -0.25797,-0.853822 -0.0281,-0.02807 -0.30848,0.0473 -0.62314,0.167476 -0.39652,0.151431 -0.72375,0.408937 -1.06614,0.838957 -0.29954,0.376203 -0.49402,0.53808 -0.49402,0.4112 0,-0.390161 0.39722,-1.003801 1.1437,-1.766847 l 0.74395,-0.760457 -0.12915,-0.734001 c -0.071,-0.403699 -0.16027,-0.902126 -0.19835,-1.107614 -0.0381,-0.205488 -0.1218,-2.503217 -0.18587,-5.106065 -0.0794,-3.220119 -0.17757,-5.075381 -0.30733,-5.805562 -0.38722,-2.178959 -1.45272,-4.325179 -3.23871,-6.523714 -0.27821,-0.34248 -0.53605,-0.650712 -0.57296,-0.684961 -0.0369,-0.03424 -0.34515,-0.426543 -0.68496,-0.871766 -0.33981,-0.445225 -0.65008,-0.83752 -0.68945,-0.871768 -0.0394,-0.03424 -0.307,-0.411514 -0.594668,-0.838368 -0.654194,-0.970695 -1.352205,-2.364147 -1.945355,-3.883558 -1.376225,-3.525287 -2.702998,-5.267091 -5.826753,-7.649359 -0.46312,-0.353196 -0.780943,-0.662541 -0.706264,-0.687436 0.183851,-0.06128 1.718318,0.75238 2.820613,1.495637 l 0.89919,0.606303 0.221653,-0.339677 c 0.480654,-0.736575 0.03133,-3.147329 -1.014113,-5.441488 -0.237231,-0.520559 -0.382764,-0.946471 -0.323427,-0.946471 0.111349,0 0.743037,0.495739 1.190213,0.934036 0.53571,0.525059 1.285572,1.660944 1.505769,2.28093 0.126352,0.355767 0.28655,0.628513 0.355978,0.606102 0.06943,-0.02242 0.221624,-0.232825 0.338195,-0.467586 0.45778,-0.921837 0.192279,-2.922196 -0.556215,-4.190799 -0.310159,-0.525683 -0.230067,-0.609986 0.327942,-0.345192 0.420816,0.199687 0.966176,0.786678 1.098662,1.182509 0.04472,0.133442 0.141356,0.06229 0.338621,-0.249076 0.232918,-0.367751 0.267808,-0.56599 0.223136,-1.268175 -0.03501,-0.549593 -0.143415,-0.985592 -0.319249,-1.283635 -0.146504,-0.24824 -0.266296,-0.505325 -0.266296,-0.571298 0,-0.183281 0.976958,0.355653 1.151571,0.635264 0.08458,0.135384 0.188631,0.246153 0.231288,0.246153 0.04266,0 0.148534,-0.334432 0.235274,-0.743179 0.135175,-0.636919 0.128705,-0.858709 -0.0453,-1.551187 -0.111648,-0.444406 -0.202962,-0.842298 -0.202962,-0.884209 0,-0.132236 0.541487,0.07712 1.052457,0.406903 0.32036,0.206751 0.50893,0.266936 0.54041,0.172475 0.0266,-0.0798 0.12738,-0.22415 0.22405,-0.320778 0.0966,-0.09663 0.17568,-0.212117 0.17568,-0.256642 0,-0.12066 1.32884,-1.721616 2.42845,-2.925753 2.44784,-2.680497 3.78944,-5.124913 3.79351,-6.9118679 0.001,-0.5819854 -0.0549,-0.6781897 -0.55546,-0.9503972 C 91.386185,7.720839 88.085195,6.8853649 86.119215,6.576321 85.673995,6.506334 84.44107,6.250691 83.379373,6.008227 82.31769,5.7657611 80.916635,5.5184581 80.265928,5.4586621 78.856372,5.3291331 77.680707,5.0603891 76.996405,4.7112901 76.192795,4.3013181 75.456657,4.1160481 73.603132,3.8572811 71.62249,3.5807681 70.5948,3.3163201 69.00585,2.6742911 c -0.610624,-0.246723 -1.179107,-0.422156 -1.263302,-0.389849 -0.162949,0.06253 -0.655297,1.478121 -0.979606,2.816543 -0.492421,2.0321656 -0.861534,2.9408681 -1.629135,4.0106794 -2.041692,2.8454875 -2.316631,3.4418495 -3.247633,7.0443505 -0.695002,2.689311 -0.827604,3.087675 -1.435219,4.311729 -0.584979,1.178449 -1.343682,2.258357 -2.246736,3.197912 -1.211584,1.260558 -2.070654,2.298728 -2.523206,3.04925 -0.245638,0.407372 -0.44676,0.779691 -0.446935,0.827374 -1.25e-4,0.04769 0.316685,-0.02237 0.704136,-0.155672 0.805681,-0.277196 0.790001,-0.274295 0.790001,-0.146151 0,0.05292 -0.209516,0.207035 -0.465589,0.342481 -0.748666,0.395988 -1.936773,1.674359 -2.491951,2.681269 -1.551246,2.813451 -2.10609,6.663847 -2.233342,15.498486 -0.09173,6.368771 0.14949,10.064574 0.684831,10.492339 0.293664,0.234653 1.510985,0.187057 2.388903,-0.0934 0.869043,-0.277625 1.940238,-0.316625 3.446923,-0.125499 1.333137,0.169112 2.904523,0.517537 2.904523,0.644022 0,0.139414 -0.07468,0.134074 -1.138658,-0.08133 -1.73412,-0.351075 -3.36129,-0.436467 -4.363672,-0.229002 -0.499003,0.103274 -1.019698,0.247946 -1.157101,0.321482 -0.137399,0.07353 -0.649283,0.137208 -1.137512,0.141503 -0.807002,0.0071 -0.875542,0.02724 -0.754063,0.221764 0.102332,0.163865 0.08233,0.27065 -0.08545,0.456036 -0.684354,0.756203 -0.896198,2.625836 -0.501208,4.423425 l 0.202702,0.922494 0.970847,0.0562 c 0.848327,0.04911 1.117431,0.129779 2.132387,0.639239 l 1.161541,0.583039 -0.68496,-0.09463 c -2.125834,-0.293693 -3.38131,0.03548 -3.853197,1.010266 -0.299253,0.618176 -0.316021,1.13472 -0.108921,3.355181 0.141664,1.51893 0.161288,1.592759 0.405364,1.525424 0.969578,-0.267483 2.050404,-0.337637 3.109395,-0.201827 0.61839,0.0793 1.140886,0.160729 1.161101,0.180946 0.02021,0.02021 -0.576676,0.07185 -1.326423,0.114747 -0.749747,0.04289 -1.759242,0.168078 -2.243321,0.278179 -0.845217,0.192241 -0.880144,0.214697 -0.880144,0.565863 0,0.559509 0.583944,3.369488 0.828412,3.986365 0.232626,0.587 0.23195,0.564034 0.157519,5.341969 -0.04479,2.87559 0.04325,3.793814 0.477621,4.981525 0.425687,1.163955 1.164478,1.788441 2.099079,1.774312 1.033272,-0.01562 1.903696,-0.82615 2.547208,-2.371936 0.623155,-1.496886 0.68507,-2.262892 0.428001,-5.295175 -0.155698,-1.836541 -0.200242,-3.183389 -0.148755,-4.497872 0.08346,-2.130813 0.201948,-2.881077 0.718393,-4.548955 0.200646,-0.647989 0.36481,-1.364758 0.36481,-1.592823 0,-0.480748 -0.307938,-1.13125 -0.868183,-1.833993 -0.557076,-0.698766 -0.235143,-0.719593 0.475627,-0.03077 0.318651,0.308808 0.775511,0.659381 1.015248,0.779048 0.239735,0.119674 0.463904,0.258095 0.498151,0.307617 0.03424,0.04953 0.280465,0.201157 0.54715,0.336971 l 0.484878,0.246931 -0.715932,0.07388 c -0.393764,0.04064 -0.742013,0.09998 -0.773888,0.131854 -0.09445,0.09445 -0.776855,4.381887 -0.864272,5.430082 l -0.08056,0.966086 1.043795,0.07112 c 0.99479,0.06778 2.455196,0.450355 2.131299,0.558321 -0.08428,0.0281 -0.43627,-0.0096 -0.78218,-0.0838 -0.345911,-0.07418 -1.024587,-0.134884 -1.508169,-0.134884 h -0.879245 l 0.08299,2.459628 c 0.0903,2.676616 0.209474,3.843078 0.527039,5.158793 l 0.206372,0.855024 -0.322379,0.340054 c -0.459343,0.48453 -1.173753,1.576711 -1.64802,2.519473 -0.96012,1.908562 -1.776525,5.331096 -1.642996,6.887771 0.153963,1.794877 1.737509,3.494717 3.509173,3.766878 0.669779,0.102891 1.985956,-0.367425 1.884961,-0.673562 -0.03717,-0.112658 -0.188722,-0.541096 -0.33679,-0.952071 -0.336638,-0.934387 -0.454075,-2.944796 -0.257388,-4.406293 0.184019,-1.367363 0.752685,-3.310032 1.468189,-5.01561 0.469627,-1.119471 0.544869,-1.396234 0.403593,-1.484557 -0.180382,-0.112776 -1.092284,-0.322894 -2.166261,-0.499156 -0.502498,-0.08248 -0.406344,-0.09396 0.498153,-0.0595 0.700675,0.02668 1.257553,0.115423 1.485528,0.23672 0.441086,0.234677 0.518014,0.195252 0.76743,-0.393297 0.528417,-1.246921 0.92888,-2.823593 1.289558,-5.07716 0.590386,-3.688799 0.946334,-5.409026 1.30446,-6.304209 0.503129,-1.257625 0.450279,-1.468329 -0.657385,-2.620657 -0.428387,-0.445667 -0.51287,-0.591556 -0.34256,-0.591556 0.124337,0 0.586322,0.365616 1.026628,0.812478 l 0.800564,0.812478 0.562187,-0.329455 c 0.309188,-0.181203 0.594562,-0.297063 0.634159,-0.257469 0.03957,0.0396 -0.147578,0.321438 -0.415947,0.626319 -0.717546,0.81517 -1.513904,3.35819 -1.531026,4.888974 l -0.0044,0.388684 1.151983,0.08656 c 0.633585,0.0476 1.495046,0.164445 1.914347,0.25964 0.715737,0.16249 2.164272,0.728936 2.164272,0.846331 0,0.0293 -0.46234,-0.06148 -1.027439,-0.201742 -1.173032,-0.291148 -4.080959,-0.382109 -4.32853,-0.135398 -0.07634,0.07608 -0.182703,0.861956 -0.236363,1.746416 -0.07634,1.257028 -0.174613,1.834787 -0.450411,2.646391 -0.29674,0.873224 -0.333169,1.111937 -0.229155,1.501624 0.114732,0.429716 0.09311,0.498648 -0.296719,0.949671 -0.942434,1.090235 -2.05708,3.451689 -2.582597,5.471408 -0.474989,1.825518 -0.537686,4.393944 -0.138752,5.684316 0.501568,1.622375 1.927803,2.837236 3.338611,2.843812 0.32278,0.0015 0.909237,-0.11788 1.303238,-0.265287 z m 3.029146,-12.873745 c -1.105458,-0.389479 -1.759989,-0.543181 -3.300266,-0.774997 l -0.622686,-0.09371 0.934036,-0.03792 c 1.214203,-0.04929 2.037596,0.153127 3.580462,0.880197 0.708426,0.333835 0.934389,0.483709 0.684965,0.454292 -0.05134,-0.006 -0.625804,-0.198597 -1.276511,-0.427859 z m 9.900783,-0.450368 c -1.669644,-0.615159 -2.414182,-0.832886 -3.338539,-0.976304 -1.25989,-0.19548 -1.211497,-0.298143 0.100611,-0.213236 1.172473,0.07587 2.36976,0.417407 3.575138,1.019828 1.277687,0.638559 1.133037,0.711377 -0.337136,0.169712 z M 53.778033,75.785414 c 0.343707,-0.145754 2.866897,-0.123469 3.448142,0.03046 0.310849,0.08233 -0.160261,0.111084 -1.642338,0.100258 -1.402848,-0.0103 -1.989693,-0.05273 -1.805804,-0.130721 z M 70.297659,62.995353 c -0.305467,-0.214228 -0.890276,-0.798539 -1.299576,-1.298469 -0.789562,-0.964412 -0.91537,-1.176403 -0.698129,-1.176403 0.07428,0 0.390206,0.346436 0.70191,0.769856 0.601019,0.816426 1.14201,1.356383 1.817811,1.814312 0.227448,0.154116 0.328001,0.280211 0.223462,0.280211 -0.104582,0 -0.439997,-0.175278 -0.745478,-0.389507 z m -7.155921,-8.52059 c -1.10277,-1.02792 -3.956771,-3.009269 -5.593841,-3.883441 -1.463464,-0.781469 -1.15197,-0.760601 0.52607,0.03524 1.333056,0.632229 2.0812,1.102545 3.822389,2.402922 1.576734,1.177558 2.553031,1.998005 2.553031,2.145483 0,0.311728 -0.521761,0.03234 -1.307649,-0.700207 z m 4.758316,-2.080395 c -0.700748,-1.43013 -1.464024,-3.434004 -1.450595,-3.808338 0.0044,-0.114408 0.220403,0.329304 0.480668,0.986032 0.260251,0.656727 0.789298,1.822888 1.17565,2.591469 0.386338,0.768581 0.70244,1.450176 0.70244,1.514655 0,0.379307 -0.303437,-0.04966 -0.908163,-1.283818 z m -2.791911,-0.669051 c -0.435825,-0.819666 -0.931338,-2.044716 -1.511935,-3.73794 -1.344842,-3.922025 -1.490167,-7.831466 -0.378992,-10.195391 0.426028,-0.906335 0.414565,-0.559791 -0.02333,0.705106 -1.035993,2.992603 -0.410127,7.364515 1.748447,12.213529 0.698882,1.569972 0.804406,2.215721 0.165805,1.014696 z M 73.533145,29.16245 c -0.375556,-0.390799 -0.795298,-0.794606 -0.932771,-0.89735 -1.42,-1.061325 -3.588714,-1.45374 -6.158373,-1.114315 -0.513719,0.06785 -1.914777,0.206198 -3.113455,0.307426 -1.198681,0.101229 -2.487651,0.243705 -2.864379,0.316619 -1.287177,0.24912 -2.609257,0.753596 -3.263751,1.245373 -0.711416,0.534548 -0.900184,0.542309 -0.516172,0.02122 0.313073,-0.424826 1.374847,-1.07554 2.3166,-1.41974 0.393851,-0.143945 0.716094,-0.308819 0.716094,-0.366378 0,-0.129397 -0.643355,-0.470738 -1.307651,-0.693799 l -0.498151,-0.167273 0.62269,0.04636 c 0.342479,0.02549 0.958943,0.205542 1.369919,0.400098 0.927205,0.43894 1.407228,0.43467 4.047491,-0.03601 1.580529,-0.281761 2.280159,-0.342892 3.86068,-0.337338 2.095374,0.0074 2.867668,0.17576 4.10976,0.896123 0.946377,0.548857 2.561112,2.242718 2.344475,2.459358 -0.02765,0.02759 -0.35745,-0.269577 -0.733006,-0.660374 z M 11.512098,79.263473 c 0.112099,-1.612912 0.112746,-2.3987 0.0028,-3.29931 -0.133943,-1.096439 -0.438225,-1.993011 -0.739597,-2.179269 -0.27061,-0.167246 -0.05694,5.936092 0.259471,7.411442 0.208556,0.972462 0.301688,0.595403 0.477403,-1.932863 z m 79.554837,-2.708705 c 0.0378,-2.316302 0.0159,-3.705009 -0.0585,-3.705009 -0.17354,0 -0.51317,0.831017 -0.6559,1.604859 -0.0681,0.368953 -0.1237,1.147984 -0.1237,1.731178 0,1.029068 0.32025,4.257268 0.45975,4.634404 0.19597,0.529799 0.32352,-0.907864 0.3784,-4.265432 z M 50.999268,56.652449 c 0,-0.141032 -0.05604,-0.22179 -0.124543,-0.179457 -0.0685,0.04233 -0.124543,0.157724 -0.124543,0.256426 0,0.0987 0.05604,0.179457 0.124543,0.179457 0.0685,0 0.124543,-0.115394 0.124543,-0.256426 z"
       style="display:inline;fill:#000000;stroke-width:0.12453815"
       sodipodi:nodetypes="cssccccssccccsccsscsscscccsssccccsccccccsccssccsscscscsccsccsssscsccccsccsccccsccccsccccccscccccssccsccccccccscccccsscccccccccccssccsccccscccccccccssscscscssccccccccsscscssccscssccsccccccsccccccscsssccscccscccccccccscccccccsccssccsccsccscsccssscccccscscsccsccsccccccssscssscsccscsssccccccscccscccccscccsssccscssccccccsccscscccccssccscssccccscsscccscssssccsccscsscscccsccccccccscscccccsssccsccccscsccccccscccsscccccsscscssccccsscscsscsccscccccccsscccccscsscccccccccccsccccccccscccccccccccsccccccccccccsccccsccccccccccscccccccscccscccccccccsccccccccccccccsccccccsscccccsccccccccccccsccccccccccscsccscccscccscscsccccscssccscssscsssccsccsccscscccccccscccsssscsccccccccccsccsccscccssccsscccccsccsccccsccccsccccccsccccccccccccccsscccccccccsscsccscssccccccsccsscccccccscsccsccccsccccccsccccscscccscsss" />
  </g>
  <g
     id="g6380"
     inkscape:groupmode="layer"
     inkscape:label="Drill"
     style="display:inline" />
</svg>
