G04 #@! TF.GenerationSoftware,KiCad,Pcbnew,5.1.2*
G04 #@! TF.CreationDate,2019-07-03T09:18:27-05:00*
G04 #@! TF.ProjectId,matrix-pills,6d617472-6978-42d7-9069-6c6c732e6b69,rev?*
G04 #@! TF.SameCoordinates,Original*
G04 #@! TF.FileFunction,Copper,L2,Bot*
G04 #@! TF.FilePolarity,Positive*
%FSLAX46Y46*%
G04 Gerber Fmt 4.6, Leading zero omitted, Abs format (unit mm)*
G04 Created by KiCad (PCBNEW 5.1.2) date 2019-07-03 09:18:27*
%MOMM*%
%LPD*%
G04 APERTURE LIST*
%ADD10C,0.010000*%
%ADD11C,0.100000*%
%ADD12C,1.250000*%
%ADD13R,1.000000X3.150000*%
%ADD14C,0.975000*%
%ADD15R,0.900000X0.800000*%
%ADD16R,1.250000X0.900000*%
%ADD17C,0.250000*%
G04 APERTURE END LIST*
D10*
G36*
X161330587Y-55179101D02*
G01*
X161147524Y-55271441D01*
X161011592Y-55405243D01*
X161004211Y-55416445D01*
X160965704Y-55486560D01*
X160944213Y-55561161D01*
X160937740Y-55661906D01*
X160944287Y-55810454D01*
X160955088Y-55949000D01*
X160968682Y-56157176D01*
X160979873Y-56415106D01*
X160987394Y-56687886D01*
X160989962Y-56909064D01*
X160989221Y-57141042D01*
X160984387Y-57305025D01*
X160973305Y-57417664D01*
X160953820Y-57495610D01*
X160923775Y-57555512D01*
X160902268Y-57586397D01*
X160816398Y-57671274D01*
X160702822Y-57711004D01*
X160629984Y-57719227D01*
X160382110Y-57700096D01*
X160154281Y-57602890D01*
X159940656Y-57424818D01*
X159885776Y-57363825D01*
X159781108Y-57250241D01*
X159690934Y-57168178D01*
X159633859Y-57134453D01*
X159631888Y-57134334D01*
X159576245Y-57167452D01*
X159502818Y-57251096D01*
X159470495Y-57298393D01*
X159323131Y-57489127D01*
X159173087Y-57603226D01*
X159025716Y-57639020D01*
X158886369Y-57594837D01*
X158792029Y-57510223D01*
X158711347Y-57401415D01*
X158641066Y-57273458D01*
X158573918Y-57109221D01*
X158502636Y-56891574D01*
X158444015Y-56689834D01*
X158384550Y-56479010D01*
X158322317Y-56259557D01*
X158268667Y-56071471D01*
X158257754Y-56033442D01*
X158178584Y-55758050D01*
X157750435Y-55594582D01*
X157532433Y-55515972D01*
X157384002Y-55473703D01*
X157298999Y-55466227D01*
X157277855Y-55475545D01*
X157247323Y-55534474D01*
X157280260Y-55594145D01*
X157382714Y-55659634D01*
X157560730Y-55736021D01*
X157610113Y-55754600D01*
X157769737Y-55816840D01*
X157900704Y-55873866D01*
X157980730Y-55915783D01*
X157991473Y-55923933D01*
X158019685Y-55980037D01*
X158063474Y-56101746D01*
X158117447Y-56272637D01*
X158176210Y-56476288D01*
X158192749Y-56536804D01*
X158303263Y-56918610D01*
X158409349Y-57223568D01*
X158515154Y-57459062D01*
X158624827Y-57632475D01*
X158742515Y-57751190D01*
X158872365Y-57822591D01*
X158923931Y-57838398D01*
X159097621Y-57841191D01*
X159281426Y-57774646D01*
X159453741Y-57647924D01*
X159507431Y-57590944D01*
X159658489Y-57414467D01*
X159828458Y-57591355D01*
X160012966Y-57757866D01*
X160196288Y-57860737D01*
X160409082Y-57914778D01*
X160523587Y-57927186D01*
X160681029Y-57933485D01*
X160790094Y-57917957D01*
X160885756Y-57873620D01*
X160927666Y-57846552D01*
X161055913Y-57718677D01*
X161147302Y-57531493D01*
X161202345Y-57281317D01*
X161221551Y-56964461D01*
X161205431Y-56577242D01*
X161160818Y-56163076D01*
X161132055Y-55911873D01*
X161124811Y-55728459D01*
X161142863Y-55597833D01*
X161189991Y-55504997D01*
X161269973Y-55434951D01*
X161356298Y-55387122D01*
X161501342Y-55342101D01*
X161639703Y-55360585D01*
X161787459Y-55447350D01*
X161903421Y-55549650D01*
X161998884Y-55635110D01*
X162061491Y-55665811D01*
X162113708Y-55651090D01*
X162126473Y-55642361D01*
X162173927Y-55597661D01*
X162167648Y-55548669D01*
X162129475Y-55489482D01*
X162020040Y-55376072D01*
X161867499Y-55269287D01*
X161702595Y-55186782D01*
X161556072Y-55146212D01*
X161529026Y-55144667D01*
X161330587Y-55179101D01*
X161330587Y-55179101D01*
G37*
X161330587Y-55179101D02*
X161147524Y-55271441D01*
X161011592Y-55405243D01*
X161004211Y-55416445D01*
X160965704Y-55486560D01*
X160944213Y-55561161D01*
X160937740Y-55661906D01*
X160944287Y-55810454D01*
X160955088Y-55949000D01*
X160968682Y-56157176D01*
X160979873Y-56415106D01*
X160987394Y-56687886D01*
X160989962Y-56909064D01*
X160989221Y-57141042D01*
X160984387Y-57305025D01*
X160973305Y-57417664D01*
X160953820Y-57495610D01*
X160923775Y-57555512D01*
X160902268Y-57586397D01*
X160816398Y-57671274D01*
X160702822Y-57711004D01*
X160629984Y-57719227D01*
X160382110Y-57700096D01*
X160154281Y-57602890D01*
X159940656Y-57424818D01*
X159885776Y-57363825D01*
X159781108Y-57250241D01*
X159690934Y-57168178D01*
X159633859Y-57134453D01*
X159631888Y-57134334D01*
X159576245Y-57167452D01*
X159502818Y-57251096D01*
X159470495Y-57298393D01*
X159323131Y-57489127D01*
X159173087Y-57603226D01*
X159025716Y-57639020D01*
X158886369Y-57594837D01*
X158792029Y-57510223D01*
X158711347Y-57401415D01*
X158641066Y-57273458D01*
X158573918Y-57109221D01*
X158502636Y-56891574D01*
X158444015Y-56689834D01*
X158384550Y-56479010D01*
X158322317Y-56259557D01*
X158268667Y-56071471D01*
X158257754Y-56033442D01*
X158178584Y-55758050D01*
X157750435Y-55594582D01*
X157532433Y-55515972D01*
X157384002Y-55473703D01*
X157298999Y-55466227D01*
X157277855Y-55475545D01*
X157247323Y-55534474D01*
X157280260Y-55594145D01*
X157382714Y-55659634D01*
X157560730Y-55736021D01*
X157610113Y-55754600D01*
X157769737Y-55816840D01*
X157900704Y-55873866D01*
X157980730Y-55915783D01*
X157991473Y-55923933D01*
X158019685Y-55980037D01*
X158063474Y-56101746D01*
X158117447Y-56272637D01*
X158176210Y-56476288D01*
X158192749Y-56536804D01*
X158303263Y-56918610D01*
X158409349Y-57223568D01*
X158515154Y-57459062D01*
X158624827Y-57632475D01*
X158742515Y-57751190D01*
X158872365Y-57822591D01*
X158923931Y-57838398D01*
X159097621Y-57841191D01*
X159281426Y-57774646D01*
X159453741Y-57647924D01*
X159507431Y-57590944D01*
X159658489Y-57414467D01*
X159828458Y-57591355D01*
X160012966Y-57757866D01*
X160196288Y-57860737D01*
X160409082Y-57914778D01*
X160523587Y-57927186D01*
X160681029Y-57933485D01*
X160790094Y-57917957D01*
X160885756Y-57873620D01*
X160927666Y-57846552D01*
X161055913Y-57718677D01*
X161147302Y-57531493D01*
X161202345Y-57281317D01*
X161221551Y-56964461D01*
X161205431Y-56577242D01*
X161160818Y-56163076D01*
X161132055Y-55911873D01*
X161124811Y-55728459D01*
X161142863Y-55597833D01*
X161189991Y-55504997D01*
X161269973Y-55434951D01*
X161356298Y-55387122D01*
X161501342Y-55342101D01*
X161639703Y-55360585D01*
X161787459Y-55447350D01*
X161903421Y-55549650D01*
X161998884Y-55635110D01*
X162061491Y-55665811D01*
X162113708Y-55651090D01*
X162126473Y-55642361D01*
X162173927Y-55597661D01*
X162167648Y-55548669D01*
X162129475Y-55489482D01*
X162020040Y-55376072D01*
X161867499Y-55269287D01*
X161702595Y-55186782D01*
X161556072Y-55146212D01*
X161529026Y-55144667D01*
X161330587Y-55179101D01*
G36*
X170166482Y-54074387D02*
G01*
X170232970Y-54093076D01*
X170311345Y-54123096D01*
X170404723Y-54165140D01*
X170516219Y-54219899D01*
X170527967Y-54225838D01*
X170626302Y-54275043D01*
X170707092Y-54313485D01*
X170775079Y-54342581D01*
X170835009Y-54363749D01*
X170891622Y-54378409D01*
X170949664Y-54387977D01*
X171013876Y-54393872D01*
X171089003Y-54397511D01*
X171103941Y-54398033D01*
X171200932Y-54399874D01*
X171287152Y-54397835D01*
X171369358Y-54391116D01*
X171454311Y-54378919D01*
X171548768Y-54360446D01*
X171659487Y-54334898D01*
X171679250Y-54330079D01*
X171755670Y-54312453D01*
X171835433Y-54295934D01*
X171909512Y-54282283D01*
X171968880Y-54273261D01*
X171973160Y-54272740D01*
X172033492Y-54266564D01*
X172079361Y-54265247D01*
X172121342Y-54269375D01*
X172170011Y-54279533D01*
X172191306Y-54284804D01*
X172251091Y-54302128D01*
X172312065Y-54323346D01*
X172361597Y-54344042D01*
X172364011Y-54345210D01*
X172408343Y-54370678D01*
X172451929Y-54401958D01*
X172489330Y-54434373D01*
X172515104Y-54463241D01*
X172523870Y-54482691D01*
X172527109Y-54503242D01*
X172534991Y-54536100D01*
X172536764Y-54542614D01*
X172543993Y-54563562D01*
X172554484Y-54581363D01*
X172570312Y-54596365D01*
X172593548Y-54608916D01*
X172626265Y-54619366D01*
X172670536Y-54628062D01*
X172728434Y-54635353D01*
X172802032Y-54641588D01*
X172893402Y-54647116D01*
X173004617Y-54652284D01*
X173137749Y-54657442D01*
X173241350Y-54661104D01*
X173422002Y-54667971D01*
X173579682Y-54675475D01*
X173716819Y-54683963D01*
X173835838Y-54693784D01*
X173939166Y-54705285D01*
X174029231Y-54718813D01*
X174108460Y-54734717D01*
X174179279Y-54753343D01*
X174244115Y-54775040D01*
X174305396Y-54800154D01*
X174346250Y-54819350D01*
X174441745Y-54872938D01*
X174517655Y-54931445D01*
X174579796Y-54999781D01*
X174608787Y-55041124D01*
X174662493Y-55144779D01*
X174702064Y-55264836D01*
X174727028Y-55396284D01*
X174736908Y-55534110D01*
X174731232Y-55673302D01*
X174709525Y-55808849D01*
X174688713Y-55886017D01*
X174641402Y-56009854D01*
X174574046Y-56145090D01*
X174486284Y-56292346D01*
X174377754Y-56452241D01*
X174288060Y-56573559D01*
X174246976Y-56626486D01*
X174206159Y-56676618D01*
X174164276Y-56724995D01*
X174119995Y-56772657D01*
X174071984Y-56820644D01*
X174018910Y-56869998D01*
X173959441Y-56921758D01*
X173892244Y-56976966D01*
X173815986Y-57036661D01*
X173729335Y-57101883D01*
X173630959Y-57173674D01*
X173519524Y-57253074D01*
X173393699Y-57341122D01*
X173252152Y-57438861D01*
X173093548Y-57547329D01*
X172916557Y-57667567D01*
X172719844Y-57800617D01*
X172695250Y-57817224D01*
X172522298Y-57934447D01*
X172369434Y-58039138D01*
X172235299Y-58132371D01*
X172118534Y-58215223D01*
X172017779Y-58288770D01*
X171931677Y-58354086D01*
X171858866Y-58412249D01*
X171797990Y-58464333D01*
X171747688Y-58511414D01*
X171706602Y-58554569D01*
X171673373Y-58594872D01*
X171646641Y-58633400D01*
X171631341Y-58659391D01*
X171583039Y-58726758D01*
X171524904Y-58771730D01*
X171458234Y-58793431D01*
X171429330Y-58795400D01*
X171408596Y-58795879D01*
X171391787Y-58798852D01*
X171378673Y-58806624D01*
X171369026Y-58821497D01*
X171362618Y-58845777D01*
X171359220Y-58881766D01*
X171358605Y-58931770D01*
X171360543Y-58998091D01*
X171364806Y-59083033D01*
X171371166Y-59188902D01*
X171378660Y-59306562D01*
X171386195Y-59424483D01*
X171392100Y-59519679D01*
X171396401Y-59594771D01*
X171399121Y-59652381D01*
X171400286Y-59695130D01*
X171399921Y-59725640D01*
X171398051Y-59746531D01*
X171394701Y-59760424D01*
X171389895Y-59769942D01*
X171383658Y-59777704D01*
X171383140Y-59778281D01*
X171299030Y-59874015D01*
X171201321Y-59989340D01*
X171090993Y-60123049D01*
X170969023Y-60273932D01*
X170836391Y-60440782D01*
X170694076Y-60622389D01*
X170574595Y-60776600D01*
X170464075Y-60919179D01*
X170367072Y-61042599D01*
X170282270Y-61148318D01*
X170208354Y-61237798D01*
X170144008Y-61312497D01*
X170087918Y-61373877D01*
X170038769Y-61423397D01*
X169995246Y-61462517D01*
X169956033Y-61492697D01*
X169919816Y-61515398D01*
X169900049Y-61525532D01*
X169838984Y-61560423D01*
X169779566Y-61607705D01*
X169718485Y-61670578D01*
X169652429Y-61752243D01*
X169620003Y-61796247D01*
X169568782Y-61871506D01*
X169514330Y-61958544D01*
X169460587Y-62050471D01*
X169411493Y-62140399D01*
X169370989Y-62221437D01*
X169350678Y-62267185D01*
X169326215Y-62326516D01*
X169298193Y-62394465D01*
X169273085Y-62455337D01*
X169246665Y-62510836D01*
X169214831Y-62565504D01*
X169184118Y-62608207D01*
X169181784Y-62610912D01*
X169149248Y-62644839D01*
X169123266Y-62662503D01*
X169096069Y-62668614D01*
X169086116Y-62668900D01*
X169040394Y-62656838D01*
X168998091Y-62623179D01*
X168963464Y-62571712D01*
X168954651Y-62551975D01*
X168925122Y-62492096D01*
X168893621Y-62454366D01*
X168861486Y-62440352D01*
X168859427Y-62440300D01*
X168824964Y-62451364D01*
X168781216Y-62483369D01*
X168730247Y-62534531D01*
X168680322Y-62594945D01*
X168631215Y-62649267D01*
X168579895Y-62689489D01*
X168530911Y-62712718D01*
X168489503Y-62716200D01*
X168462795Y-62716911D01*
X168450099Y-62724578D01*
X168446757Y-62740974D01*
X168442545Y-62778823D01*
X168437789Y-62834208D01*
X168432814Y-62903209D01*
X168427945Y-62981908D01*
X168426283Y-63011800D01*
X168421292Y-63094600D01*
X168415723Y-63170579D01*
X168409971Y-63235437D01*
X168404428Y-63284873D01*
X168399490Y-63314586D01*
X168398126Y-63319166D01*
X168378835Y-63346346D01*
X168347584Y-63372318D01*
X168314627Y-63389531D01*
X168298505Y-63392521D01*
X168281810Y-63387487D01*
X168250892Y-63375016D01*
X168232329Y-63366826D01*
X168195955Y-63343961D01*
X168144407Y-63301641D01*
X168078239Y-63240353D01*
X168009187Y-63171953D01*
X167904504Y-63062947D01*
X167818219Y-62965722D01*
X167748508Y-62876696D01*
X167693544Y-62792286D01*
X167651502Y-62708908D01*
X167620555Y-62622978D01*
X167598878Y-62530914D01*
X167584644Y-62429132D01*
X167576498Y-62322825D01*
X167572843Y-62264681D01*
X167568980Y-62217128D01*
X167565373Y-62185117D01*
X167562523Y-62173600D01*
X167549474Y-62180096D01*
X167523311Y-62196480D01*
X167510028Y-62205350D01*
X167462174Y-62230759D01*
X167424909Y-62235499D01*
X167399931Y-62219527D01*
X167394121Y-62208299D01*
X167385117Y-62177074D01*
X167375961Y-62129603D01*
X167366436Y-62064167D01*
X167356324Y-61979052D01*
X167345410Y-61872540D01*
X167333476Y-61742915D01*
X167329499Y-61697350D01*
X167310656Y-61501312D01*
X167289373Y-61320336D01*
X167266008Y-61156891D01*
X167240921Y-61013450D01*
X167214471Y-60892483D01*
X167209683Y-60873634D01*
X167186107Y-60745549D01*
X167176864Y-60599326D01*
X167182021Y-60437843D01*
X167196458Y-60300350D01*
X167220259Y-60118343D01*
X167240711Y-59950024D01*
X167257672Y-59796989D01*
X167271000Y-59660835D01*
X167280551Y-59543157D01*
X167286184Y-59445552D01*
X167287757Y-59369615D01*
X167285125Y-59316943D01*
X167284617Y-59312957D01*
X167278008Y-59276212D01*
X167268657Y-59258328D01*
X167252331Y-59252813D01*
X167245279Y-59252600D01*
X167217425Y-59257693D01*
X167170953Y-59271887D01*
X167110266Y-59293547D01*
X167039769Y-59321041D01*
X166963863Y-59352735D01*
X166904703Y-59378885D01*
X166838537Y-59404555D01*
X166789698Y-59413891D01*
X166758896Y-59406851D01*
X166747476Y-59388211D01*
X166750545Y-59370661D01*
X166766464Y-59346824D01*
X166796819Y-59315234D01*
X166843195Y-59274425D01*
X166907180Y-59222929D01*
X166990358Y-59159280D01*
X167015337Y-59140551D01*
X167085720Y-59087019D01*
X167147163Y-59037633D01*
X167197033Y-58994020D01*
X167463068Y-58994020D01*
X167464276Y-59000907D01*
X167483532Y-59010970D01*
X167514520Y-58999972D01*
X167548133Y-58975062D01*
X167585449Y-58945059D01*
X167619783Y-58925061D01*
X167659004Y-58912122D01*
X167710981Y-58903292D01*
X167751991Y-58898698D01*
X167833428Y-58887551D01*
X167891305Y-58872178D01*
X167927305Y-58851161D01*
X167943112Y-58823085D01*
X167940408Y-58786532D01*
X167926747Y-58751667D01*
X167911720Y-58714064D01*
X167904509Y-58675733D01*
X167905570Y-58631976D01*
X167915353Y-58578095D01*
X167934312Y-58509390D01*
X167956858Y-58439188D01*
X167976282Y-58378224D01*
X167993287Y-58320013D01*
X168005658Y-58272411D01*
X168010377Y-58249583D01*
X168019275Y-58193939D01*
X167979378Y-58222348D01*
X167950405Y-58248471D01*
X167912529Y-58290884D01*
X167867689Y-58346654D01*
X167817826Y-58412851D01*
X167764879Y-58486542D01*
X167710788Y-58564795D01*
X167657493Y-58644678D01*
X167606934Y-58723259D01*
X167561051Y-58797606D01*
X167521782Y-58864788D01*
X167491069Y-58921872D01*
X167470851Y-58965927D01*
X167463068Y-58994020D01*
X167197033Y-58994020D01*
X167202213Y-58989490D01*
X167253414Y-58939688D01*
X167303313Y-58885327D01*
X167354456Y-58823503D01*
X167409388Y-58751315D01*
X167470655Y-58665861D01*
X167540803Y-58564239D01*
X167607821Y-58465200D01*
X167663109Y-58383141D01*
X167717781Y-58302189D01*
X167769019Y-58226501D01*
X167814005Y-58160237D01*
X167849918Y-58107556D01*
X167870318Y-58077850D01*
X167934561Y-57979076D01*
X167980430Y-57894815D01*
X168008844Y-57823059D01*
X168020726Y-57761802D01*
X168021217Y-57749032D01*
X168020467Y-57710688D01*
X168014446Y-57689617D01*
X167998496Y-57677703D01*
X167975486Y-57669317D01*
X167947435Y-57663037D01*
X167899432Y-57655471D01*
X167836844Y-57647336D01*
X167765041Y-57639350D01*
X167713894Y-57634388D01*
X167562460Y-57618134D01*
X167430171Y-57597951D01*
X167310868Y-57572150D01*
X167198395Y-57539041D01*
X167086595Y-57496932D01*
X166969310Y-57444133D01*
X166904859Y-57412271D01*
X166808006Y-57360123D01*
X166699857Y-57296568D01*
X166583967Y-57224114D01*
X166463895Y-57145273D01*
X166343198Y-57062556D01*
X166225434Y-56978472D01*
X166114159Y-56895531D01*
X166012932Y-56816246D01*
X165925309Y-56743124D01*
X165854849Y-56678678D01*
X165830783Y-56654331D01*
X165738337Y-56552740D01*
X165644658Y-56442041D01*
X165551893Y-56325343D01*
X165462192Y-56205756D01*
X165377703Y-56086389D01*
X165300572Y-55970350D01*
X165232950Y-55860750D01*
X165176983Y-55760698D01*
X165134820Y-55673303D01*
X165112505Y-55614692D01*
X165080412Y-55475079D01*
X165073521Y-55337925D01*
X165078402Y-55301898D01*
X165246801Y-55301898D01*
X165257142Y-55399308D01*
X165259868Y-55417200D01*
X165295079Y-55566535D01*
X165353357Y-55719772D01*
X165432941Y-55875442D01*
X165532071Y-56032079D01*
X165648986Y-56188218D01*
X165781926Y-56342392D01*
X165929131Y-56493135D01*
X166088841Y-56638981D01*
X166259294Y-56778462D01*
X166438732Y-56910114D01*
X166625394Y-57032469D01*
X166817518Y-57144062D01*
X167013346Y-57243426D01*
X167211117Y-57329094D01*
X167409070Y-57399602D01*
X167605445Y-57453481D01*
X167735900Y-57479657D01*
X167815572Y-57492169D01*
X167891302Y-57502278D01*
X167959000Y-57509613D01*
X168014577Y-57513801D01*
X168053943Y-57514471D01*
X168073008Y-57511251D01*
X168073889Y-57510371D01*
X168076248Y-57488948D01*
X168071135Y-57451988D01*
X168060637Y-57407487D01*
X168046843Y-57363438D01*
X168031841Y-57327837D01*
X168022301Y-57312861D01*
X168005032Y-57296352D01*
X167983562Y-57286103D01*
X167950977Y-57280099D01*
X167900364Y-57276327D01*
X167896193Y-57276107D01*
X167817373Y-57266649D01*
X167757623Y-57248069D01*
X167718454Y-57221312D01*
X167701380Y-57187320D01*
X167704346Y-57156481D01*
X167711561Y-57140579D01*
X167723852Y-57127616D01*
X167743874Y-57117129D01*
X167774283Y-57108652D01*
X167817733Y-57101723D01*
X167876880Y-57095875D01*
X167954380Y-57090646D01*
X168052888Y-57085571D01*
X168129600Y-57082127D01*
X168276233Y-57075272D01*
X168415512Y-57067787D01*
X168545165Y-57059854D01*
X168662915Y-57051654D01*
X168766491Y-57043367D01*
X168853616Y-57035175D01*
X168922018Y-57027258D01*
X168969422Y-57019798D01*
X168992672Y-57013428D01*
X169030667Y-56982915D01*
X169051434Y-56940300D01*
X169051493Y-56895869D01*
X169034192Y-56861818D01*
X168999465Y-56819766D01*
X168952076Y-56774079D01*
X168896786Y-56729122D01*
X168838358Y-56689259D01*
X168805705Y-56670610D01*
X168760988Y-56648363D01*
X168723202Y-56631824D01*
X168699269Y-56623967D01*
X168696645Y-56623700D01*
X168675006Y-56632142D01*
X168647842Y-56652843D01*
X168643923Y-56656630D01*
X168628287Y-56671298D01*
X168613016Y-56680421D01*
X168592415Y-56684828D01*
X168560791Y-56685347D01*
X168512448Y-56682807D01*
X168479281Y-56680584D01*
X168417552Y-56676815D01*
X168372507Y-56676748D01*
X168336396Y-56682389D01*
X168301469Y-56695741D01*
X168259974Y-56718810D01*
X168209151Y-56750456D01*
X168174710Y-56770486D01*
X168142222Y-56784129D01*
X168104099Y-56793478D01*
X168052755Y-56800623D01*
X168012301Y-56804737D01*
X167912178Y-56817958D01*
X167831752Y-56837750D01*
X167765737Y-56866089D01*
X167708851Y-56904950D01*
X167683483Y-56927682D01*
X167644438Y-56970446D01*
X167624715Y-57009026D01*
X167622523Y-57051425D01*
X167636070Y-57105641D01*
X167640650Y-57118999D01*
X167657422Y-57188436D01*
X167655197Y-57245957D01*
X167639998Y-57281175D01*
X167603989Y-57317860D01*
X167566189Y-57331026D01*
X167529079Y-57322193D01*
X167495140Y-57292882D01*
X167466854Y-57244611D01*
X167446703Y-57178900D01*
X167443360Y-57160751D01*
X167438099Y-57061273D01*
X167453047Y-56962749D01*
X167486494Y-56871311D01*
X167536733Y-56793095D01*
X167549944Y-56778191D01*
X167590065Y-56740687D01*
X167633159Y-56712561D01*
X167684273Y-56692010D01*
X167748453Y-56677230D01*
X167830745Y-56666417D01*
X167873651Y-56662480D01*
X167935111Y-56656663D01*
X167977068Y-56650426D01*
X168005399Y-56642247D01*
X168025976Y-56630605D01*
X168038751Y-56619734D01*
X168087115Y-56588501D01*
X168151075Y-56567742D01*
X168221049Y-56560270D01*
X168311651Y-56551747D01*
X168385398Y-56526867D01*
X168440049Y-56486732D01*
X168466809Y-56460938D01*
X168491732Y-56446420D01*
X168524499Y-56439200D01*
X168563632Y-56435961D01*
X168656098Y-56441215D01*
X168756712Y-56466175D01*
X168860642Y-56508714D01*
X168963055Y-56566706D01*
X169059120Y-56638024D01*
X169094475Y-56669607D01*
X169180984Y-56751215D01*
X169214941Y-56693272D01*
X169266554Y-56628312D01*
X169339162Y-56570513D01*
X169428972Y-56521486D01*
X169532191Y-56482842D01*
X169645028Y-56456194D01*
X169763690Y-56443152D01*
X169806000Y-56442100D01*
X169884354Y-56444599D01*
X169945323Y-56453996D01*
X169996494Y-56472563D01*
X170045456Y-56502569D01*
X170069396Y-56520894D01*
X170109627Y-56548625D01*
X170157434Y-56571929D01*
X170217793Y-56592644D01*
X170295680Y-56612607D01*
X170349216Y-56624228D01*
X170451453Y-56649378D01*
X170532318Y-56677810D01*
X170590388Y-56708939D01*
X170619266Y-56735127D01*
X170640924Y-56778206D01*
X170640130Y-56819074D01*
X170618305Y-56852398D01*
X170582989Y-56871204D01*
X170562326Y-56872713D01*
X170540328Y-56861781D01*
X170510807Y-56834919D01*
X170501448Y-56825224D01*
X170449366Y-56770475D01*
X170283258Y-56769250D01*
X170205316Y-56767751D01*
X170147729Y-56764226D01*
X170105497Y-56758140D01*
X170073618Y-56748960D01*
X170066814Y-56746178D01*
X170012084Y-56717132D01*
X169980821Y-56687020D01*
X169971100Y-56654751D01*
X169966912Y-56635075D01*
X169949515Y-56627252D01*
X169928197Y-56626240D01*
X169890064Y-56619724D01*
X169846801Y-56603437D01*
X169834012Y-56596725D01*
X169801923Y-56580038D01*
X169775493Y-56573577D01*
X169743423Y-56575956D01*
X169712947Y-56581846D01*
X169648088Y-56600461D01*
X169573967Y-56629504D01*
X169499561Y-56664796D01*
X169433845Y-56702152D01*
X169393732Y-56730574D01*
X169343343Y-56783423D01*
X169312437Y-56841088D01*
X169301800Y-56899421D01*
X169312219Y-56954276D01*
X169342714Y-56999768D01*
X169354250Y-57010482D01*
X169366851Y-57018321D01*
X169384404Y-57023736D01*
X169410800Y-57027178D01*
X169449926Y-57029096D01*
X169505671Y-57029941D01*
X169581925Y-57030162D01*
X169605397Y-57030173D01*
X169720792Y-57031258D01*
X169814289Y-57034687D01*
X169889313Y-57040848D01*
X169949290Y-57050126D01*
X169997645Y-57062906D01*
X170035939Y-57078642D01*
X170084095Y-57102467D01*
X170087922Y-57056758D01*
X170093453Y-57025380D01*
X170107017Y-57011237D01*
X170125831Y-57007112D01*
X170160196Y-57010451D01*
X170198458Y-57023853D01*
X170202031Y-57025689D01*
X170224423Y-57034858D01*
X170255514Y-57041965D01*
X170299348Y-57047502D01*
X170359970Y-57051960D01*
X170441425Y-57055832D01*
X170453700Y-57056316D01*
X170548456Y-57060952D01*
X170620472Y-57066768D01*
X170672391Y-57074056D01*
X170706859Y-57083108D01*
X170710875Y-57084716D01*
X170747035Y-57106720D01*
X170758218Y-57131592D01*
X170744401Y-57159785D01*
X170705560Y-57191748D01*
X170705414Y-57191844D01*
X170683444Y-57205729D01*
X170663333Y-57215341D01*
X170639960Y-57221437D01*
X170608205Y-57224773D01*
X170562944Y-57226107D01*
X170499058Y-57226194D01*
X170473639Y-57226081D01*
X170395147Y-57225001D01*
X170336073Y-57222215D01*
X170290458Y-57217091D01*
X170252345Y-57208994D01*
X170221232Y-57199243D01*
X170180895Y-57185851D01*
X170159745Y-57181589D01*
X170153438Y-57186032D01*
X170154988Y-57192747D01*
X170173551Y-57264962D01*
X170182209Y-57356518D01*
X170180848Y-57463316D01*
X170169354Y-57581260D01*
X170166461Y-57601600D01*
X170159862Y-57646050D01*
X170208356Y-57591878D01*
X170248530Y-57553617D01*
X170279059Y-57538142D01*
X170298734Y-57544965D01*
X170306345Y-57573601D01*
X170300685Y-57623562D01*
X170299590Y-57628611D01*
X170281735Y-57686250D01*
X170254391Y-57728000D01*
X170210879Y-57762988D01*
X170193447Y-57773664D01*
X170124155Y-57807498D01*
X170049903Y-57829090D01*
X169964584Y-57839619D01*
X169862089Y-57840263D01*
X169850450Y-57839821D01*
X169780904Y-57835871D01*
X169729170Y-57829821D01*
X169687666Y-57820306D01*
X169648815Y-57805959D01*
X169639312Y-57801766D01*
X169549116Y-57749474D01*
X169480610Y-57684036D01*
X169433947Y-57605778D01*
X169409283Y-57515026D01*
X169407049Y-57423384D01*
X169516663Y-57423384D01*
X169531306Y-57420855D01*
X169562507Y-57399131D01*
X169567875Y-57394864D01*
X169613531Y-57360989D01*
X169647172Y-57343831D01*
X169674024Y-57341458D01*
X169693299Y-57348456D01*
X169723110Y-57374811D01*
X169749483Y-57414908D01*
X169765676Y-57457305D01*
X169767852Y-57474949D01*
X169762407Y-57511937D01*
X169743778Y-57540604D01*
X169708712Y-57563254D01*
X169653955Y-57582188D01*
X169597642Y-57595411D01*
X169573247Y-57602215D01*
X169570483Y-57611235D01*
X169580363Y-57622706D01*
X169615294Y-57642679D01*
X169668423Y-57654852D01*
X169733730Y-57659078D01*
X169805194Y-57655208D01*
X169876794Y-57643095D01*
X169919690Y-57631022D01*
X169993226Y-57596813D01*
X170045744Y-57551194D01*
X170076187Y-57495637D01*
X170083500Y-57431612D01*
X170080388Y-57407416D01*
X170059704Y-57355871D01*
X170020116Y-57304355D01*
X169967414Y-57258828D01*
X169907392Y-57225251D01*
X169900831Y-57222634D01*
X169813104Y-57199044D01*
X169734483Y-57199085D01*
X169664613Y-57222900D01*
X169603138Y-57270630D01*
X169549705Y-57342418D01*
X169534917Y-57369194D01*
X169518045Y-57406303D01*
X169516663Y-57423384D01*
X169407049Y-57423384D01*
X169406773Y-57412105D01*
X169417632Y-57336153D01*
X169426564Y-57287257D01*
X169431929Y-57247963D01*
X169432898Y-57224814D01*
X169432135Y-57221871D01*
X169416494Y-57213714D01*
X169385358Y-57206171D01*
X169373581Y-57204347D01*
X169312314Y-57185327D01*
X169254288Y-57148685D01*
X169209607Y-57101104D01*
X169203938Y-57092191D01*
X169187764Y-57067141D01*
X169177861Y-57062033D01*
X169168615Y-57074361D01*
X169167735Y-57076027D01*
X169150795Y-57099636D01*
X169123713Y-57129514D01*
X169114218Y-57138825D01*
X169096186Y-57156889D01*
X169084107Y-57174061D01*
X169076431Y-57196056D01*
X169071607Y-57228585D01*
X169068084Y-57277361D01*
X169065959Y-57316625D01*
X169061032Y-57381402D01*
X169053610Y-57444024D01*
X169044862Y-57495698D01*
X169039080Y-57519050D01*
X168998965Y-57612076D01*
X168942843Y-57686780D01*
X168872776Y-57741816D01*
X168790823Y-57775840D01*
X168699046Y-57787506D01*
X168635431Y-57782515D01*
X168528802Y-57756175D01*
X168437148Y-57713243D01*
X168362827Y-57655224D01*
X168308197Y-57583622D01*
X168300246Y-57568623D01*
X168287430Y-57535932D01*
X168279771Y-57496588D01*
X168276254Y-57443561D01*
X168275709Y-57398400D01*
X168276921Y-57339651D01*
X168400151Y-57339651D01*
X168416892Y-57335062D01*
X168435301Y-57326196D01*
X168465265Y-57314406D01*
X168492009Y-57315071D01*
X168520824Y-57324445D01*
X168570616Y-57354565D01*
X168604724Y-57397672D01*
X168621284Y-57447986D01*
X168618429Y-57499725D01*
X168594291Y-57547107D01*
X168593150Y-57548483D01*
X168572774Y-57574647D01*
X168561938Y-57592357D01*
X168561400Y-57594521D01*
X168572891Y-57608606D01*
X168602561Y-57621538D01*
X168643200Y-57631331D01*
X168687600Y-57635997D01*
X168710749Y-57635676D01*
X168763447Y-57627385D01*
X168805448Y-57607392D01*
X168824554Y-57593195D01*
X168874572Y-57541868D01*
X168908246Y-57484832D01*
X168925647Y-57426159D01*
X168926846Y-57369920D01*
X168911913Y-57320185D01*
X168880919Y-57281025D01*
X168833934Y-57256511D01*
X168818646Y-57252955D01*
X168783474Y-57244980D01*
X168733854Y-57231712D01*
X168679477Y-57215767D01*
X168669730Y-57212752D01*
X168619265Y-57198826D01*
X168575171Y-57189922D01*
X168545204Y-57187513D01*
X168540534Y-57188170D01*
X168503455Y-57206040D01*
X168463037Y-57238101D01*
X168428397Y-57276410D01*
X168414893Y-57297682D01*
X168400216Y-57328212D01*
X168400151Y-57339651D01*
X168276921Y-57339651D01*
X168276955Y-57338023D01*
X168280230Y-57280452D01*
X168284924Y-57235118D01*
X168287037Y-57222655D01*
X168293140Y-57188784D01*
X168291399Y-57173481D01*
X168279486Y-57170520D01*
X168268046Y-57171855D01*
X168245389Y-57180593D01*
X168227697Y-57201630D01*
X168213894Y-57238054D01*
X168202904Y-57292955D01*
X168193649Y-57369421D01*
X168191564Y-57391353D01*
X168188122Y-57442192D01*
X168185516Y-57507403D01*
X168183723Y-57582969D01*
X168182720Y-57664875D01*
X168182484Y-57749105D01*
X168182992Y-57831643D01*
X168184221Y-57908475D01*
X168186149Y-57975584D01*
X168188752Y-58028955D01*
X168192008Y-58064572D01*
X168195486Y-58078139D01*
X168209326Y-58075690D01*
X168239589Y-58062087D01*
X168281241Y-58039765D01*
X168312012Y-58021749D01*
X168367856Y-57989216D01*
X168424792Y-57958024D01*
X168473449Y-57933244D01*
X168488792Y-57926130D01*
X168559215Y-57897993D01*
X168638786Y-57871135D01*
X168722383Y-57846792D01*
X168804887Y-57826197D01*
X168881175Y-57810585D01*
X168946126Y-57801189D01*
X168994619Y-57799243D01*
X169008557Y-57800886D01*
X169040455Y-57815341D01*
X169052748Y-57838392D01*
X169047223Y-57864942D01*
X169025671Y-57889897D01*
X168989879Y-57908161D01*
X168969231Y-57912896D01*
X168880631Y-57933812D01*
X168779150Y-57970248D01*
X168669668Y-58019565D01*
X168557063Y-58079122D01*
X168446215Y-58146281D01*
X168342001Y-58218400D01*
X168249300Y-58292842D01*
X168222814Y-58316768D01*
X168148519Y-58392901D01*
X168094853Y-58462931D01*
X168062273Y-58525764D01*
X168051237Y-58580307D01*
X168062202Y-58625465D01*
X168083033Y-58650751D01*
X168134779Y-58682051D01*
X168205932Y-58705715D01*
X168291292Y-58720405D01*
X168370900Y-58724834D01*
X168451986Y-58721799D01*
X168515802Y-58710137D01*
X168569677Y-58687544D01*
X168620939Y-58651718D01*
X168631180Y-58643060D01*
X168675060Y-58611116D01*
X168724294Y-58583872D01*
X168748064Y-58574137D01*
X168784180Y-58557862D01*
X168832979Y-58530341D01*
X168887096Y-58495922D01*
X168923350Y-58470668D01*
X169002756Y-58415037D01*
X169068666Y-58373830D01*
X169126284Y-58344278D01*
X169180814Y-58323616D01*
X169219844Y-58312979D01*
X169290221Y-58303152D01*
X169360784Y-58308583D01*
X169438969Y-58330200D01*
X169478289Y-58345321D01*
X169524635Y-58363063D01*
X169557215Y-58370993D01*
X169585080Y-58370462D01*
X169609729Y-58364943D01*
X169653966Y-58347919D01*
X169692069Y-58324636D01*
X169718493Y-58299488D01*
X169727695Y-58276868D01*
X169726708Y-58272260D01*
X169708369Y-58257981D01*
X169666953Y-58247334D01*
X169647276Y-58244590D01*
X169599766Y-58236393D01*
X169556926Y-58224671D01*
X169538582Y-58217179D01*
X169498170Y-58186342D01*
X169478468Y-58149251D01*
X169480464Y-58110784D01*
X169505147Y-58075822D01*
X169509262Y-58072421D01*
X169557286Y-58049855D01*
X169612324Y-58048923D01*
X169668364Y-58069453D01*
X169680903Y-58077289D01*
X169750527Y-58112880D01*
X169824511Y-58130528D01*
X169897074Y-58130111D01*
X169962434Y-58111503D01*
X170004739Y-58084244D01*
X170038556Y-58058182D01*
X170067263Y-58048484D01*
X170099083Y-58054856D01*
X170142238Y-58077005D01*
X170146016Y-58079210D01*
X170178221Y-58096526D01*
X170205967Y-58105471D01*
X170238689Y-58107609D01*
X170285822Y-58104501D01*
X170294080Y-58103740D01*
X170348204Y-58100171D01*
X170382798Y-58103872D01*
X170403392Y-58117977D01*
X170415519Y-58145620D01*
X170422240Y-58176346D01*
X170443244Y-58227052D01*
X170467826Y-58254901D01*
X170491908Y-58279970D01*
X170504122Y-58302086D01*
X170504500Y-58305183D01*
X170493352Y-58327442D01*
X170463997Y-58342418D01*
X170422568Y-58350088D01*
X170375200Y-58350430D01*
X170328023Y-58343420D01*
X170287173Y-58329037D01*
X170258782Y-58307258D01*
X170257884Y-58306089D01*
X170234087Y-58290883D01*
X170191509Y-58278420D01*
X170136676Y-58269240D01*
X170076111Y-58263883D01*
X170016339Y-58262888D01*
X169963884Y-58266795D01*
X169925271Y-58276144D01*
X169920762Y-58278206D01*
X169898567Y-58297231D01*
X169871306Y-58331382D01*
X169846763Y-58370094D01*
X169814797Y-58424547D01*
X169788001Y-58462003D01*
X169760638Y-58488402D01*
X169726967Y-58509684D01*
X169698050Y-58524025D01*
X169624353Y-58548500D01*
X169548798Y-58551956D01*
X169466403Y-58534319D01*
X169427166Y-58520046D01*
X169357786Y-58497302D01*
X169293061Y-58488355D01*
X169229585Y-58494296D01*
X169163954Y-58516217D01*
X169092765Y-58555208D01*
X169012613Y-58612361D01*
X168931552Y-58678898D01*
X168875245Y-58726957D01*
X168827405Y-58766326D01*
X168784512Y-58798520D01*
X168743045Y-58825054D01*
X168699484Y-58847443D01*
X168650310Y-58867203D01*
X168592001Y-58885850D01*
X168521037Y-58904899D01*
X168433899Y-58925864D01*
X168327065Y-58950262D01*
X168272670Y-58962529D01*
X168116479Y-58997571D01*
X167983063Y-59027119D01*
X167870485Y-59051560D01*
X167776811Y-59071277D01*
X167700104Y-59086658D01*
X167638430Y-59098088D01*
X167589852Y-59105952D01*
X167552435Y-59110635D01*
X167524243Y-59112524D01*
X167519252Y-59112603D01*
X167475996Y-59114922D01*
X167446197Y-59124045D01*
X167427111Y-59144003D01*
X167415996Y-59178830D01*
X167410109Y-59232555D01*
X167407916Y-59276262D01*
X167405892Y-59351503D01*
X167407314Y-59404881D01*
X167412904Y-59439787D01*
X167423383Y-59459613D01*
X167439474Y-59467749D01*
X167448836Y-59468500D01*
X167482686Y-59479210D01*
X167503730Y-59510357D01*
X167512010Y-59560466D01*
X167507563Y-59628060D01*
X167490432Y-59711664D01*
X167460654Y-59809802D01*
X167437973Y-59871845D01*
X167384967Y-60031837D01*
X167343880Y-60203177D01*
X167316468Y-60376619D01*
X167304490Y-60542915D01*
X167304100Y-60576309D01*
X167306348Y-60646963D01*
X167312611Y-60705895D01*
X167322167Y-60749241D01*
X167334295Y-60773140D01*
X167341513Y-60776600D01*
X167354942Y-60788263D01*
X167370016Y-60819592D01*
X167384888Y-60865092D01*
X167397713Y-60919269D01*
X167405508Y-60967100D01*
X167410690Y-61021386D01*
X167414850Y-61090489D01*
X167417436Y-61163828D01*
X167418007Y-61207130D01*
X167418400Y-61351910D01*
X167457161Y-61298401D01*
X167489314Y-61262109D01*
X167515341Y-61250103D01*
X167534839Y-61262396D01*
X167546647Y-61295090D01*
X167548422Y-61320065D01*
X167548491Y-61365957D01*
X167546975Y-61428349D01*
X167543994Y-61502826D01*
X167539669Y-61584971D01*
X167537998Y-61612514D01*
X167532902Y-61694378D01*
X167528368Y-61768274D01*
X167524635Y-61830231D01*
X167521941Y-61876274D01*
X167520524Y-61902431D01*
X167520370Y-61906302D01*
X167527933Y-61909764D01*
X167549122Y-61895768D01*
X167567625Y-61879228D01*
X167614459Y-61838293D01*
X167650597Y-61816465D01*
X167679805Y-61811969D01*
X167697650Y-61817919D01*
X167716214Y-61833148D01*
X167727541Y-61857396D01*
X167731933Y-61894282D01*
X167729689Y-61947424D01*
X167721110Y-62020439D01*
X167716897Y-62049795D01*
X167703553Y-62167011D01*
X167701521Y-62268964D01*
X167711239Y-62363344D01*
X167733148Y-62457843D01*
X167741832Y-62486329D01*
X167769476Y-62563064D01*
X167802708Y-62634673D01*
X167844080Y-62704803D01*
X167896144Y-62777104D01*
X167961451Y-62855223D01*
X168042554Y-62942811D01*
X168107352Y-63008961D01*
X168163670Y-63065153D01*
X168204845Y-63105061D01*
X168233397Y-63130648D01*
X168251849Y-63143881D01*
X168262723Y-63146724D01*
X168268539Y-63141144D01*
X168270299Y-63135961D01*
X168273268Y-63114201D01*
X168276747Y-63071788D01*
X168280433Y-63013455D01*
X168284022Y-62943937D01*
X168286739Y-62880337D01*
X168291785Y-62771982D01*
X168297930Y-62686003D01*
X168305690Y-62619382D01*
X168315585Y-62569101D01*
X168328132Y-62532145D01*
X168343847Y-62505494D01*
X168352770Y-62495375D01*
X168379692Y-62473794D01*
X168405078Y-62468533D01*
X168433876Y-62480799D01*
X168471031Y-62511798D01*
X168488006Y-62528377D01*
X168550683Y-62591054D01*
X168567479Y-62550602D01*
X168577641Y-62515630D01*
X168587993Y-62462435D01*
X168597576Y-62398166D01*
X168605430Y-62329975D01*
X168610599Y-62265012D01*
X168612164Y-62217302D01*
X168616243Y-62170658D01*
X168626927Y-62135406D01*
X168631250Y-62128402D01*
X168646670Y-62111535D01*
X168658213Y-62114837D01*
X168667993Y-62126547D01*
X168680676Y-62152847D01*
X168691581Y-62191926D01*
X168694474Y-62207937D01*
X168706188Y-62268289D01*
X168720411Y-62305986D01*
X168738416Y-62323744D01*
X168749847Y-62326000D01*
X168775661Y-62314925D01*
X168812973Y-62282117D01*
X168861229Y-62228199D01*
X168919871Y-62153795D01*
X168988343Y-62059527D01*
X168990664Y-62056227D01*
X169051561Y-61971748D01*
X169101527Y-61907599D01*
X169142200Y-61862037D01*
X169175217Y-61833316D01*
X169202215Y-61819695D01*
X169214318Y-61818000D01*
X169244299Y-61824845D01*
X169264409Y-61847742D01*
X169276911Y-61890233D01*
X169281330Y-61922905D01*
X169280232Y-61999658D01*
X169258942Y-62061519D01*
X169216688Y-62109965D01*
X169168120Y-62139657D01*
X169118010Y-62165765D01*
X169086909Y-62190260D01*
X169069689Y-62219437D01*
X169061220Y-62259588D01*
X169059825Y-62272538D01*
X169059269Y-62314135D01*
X169063867Y-62358866D01*
X169072166Y-62399575D01*
X169082711Y-62429104D01*
X169093890Y-62440300D01*
X169102147Y-62434262D01*
X169114768Y-62414724D01*
X169132801Y-62379546D01*
X169157293Y-62326588D01*
X169189290Y-62253712D01*
X169218161Y-62186300D01*
X169294588Y-62023884D01*
X169383311Y-61865038D01*
X169479205Y-61718601D01*
X169525217Y-61656676D01*
X169587412Y-61576146D01*
X169635730Y-61512245D01*
X169672281Y-61461863D01*
X169699175Y-61421892D01*
X169718521Y-61389221D01*
X169732429Y-61360744D01*
X169741289Y-61338248D01*
X169767077Y-61288795D01*
X169800289Y-61263538D01*
X169840727Y-61262569D01*
X169872612Y-61276038D01*
X169911759Y-61298506D01*
X169968024Y-61243928D01*
X170028885Y-61181697D01*
X170100191Y-61103455D01*
X170179356Y-61012477D01*
X170263795Y-60912036D01*
X170350920Y-60805406D01*
X170438147Y-60695862D01*
X170522889Y-60586675D01*
X170602560Y-60481122D01*
X170674576Y-60382475D01*
X170736349Y-60294009D01*
X170785293Y-60218997D01*
X170808615Y-60179700D01*
X170850912Y-60109322D01*
X170890454Y-60056309D01*
X170932880Y-60014054D01*
X170980750Y-59978023D01*
X171010117Y-59956545D01*
X171025218Y-59937193D01*
X171030783Y-59910312D01*
X171031550Y-59874353D01*
X171031550Y-59805050D01*
X171073429Y-59803780D01*
X171118039Y-59790541D01*
X171162883Y-59755876D01*
X171204131Y-59703432D01*
X171230616Y-59654151D01*
X171242674Y-59624962D01*
X171250810Y-59596724D01*
X171255696Y-59563648D01*
X171258002Y-59519945D01*
X171258402Y-59459828D01*
X171258052Y-59417700D01*
X171256395Y-59358163D01*
X171252846Y-59288396D01*
X171247816Y-59212837D01*
X171241710Y-59135923D01*
X171234937Y-59062094D01*
X171227904Y-58995789D01*
X171221020Y-58941446D01*
X171214692Y-58903502D01*
X171209327Y-58886398D01*
X171209237Y-58886303D01*
X171203856Y-58890719D01*
X171203000Y-58899826D01*
X171195312Y-58923989D01*
X171180775Y-58946319D01*
X171159440Y-58965558D01*
X171143066Y-58964615D01*
X171131000Y-58942230D01*
X171122588Y-58897144D01*
X171117177Y-58828097D01*
X171116939Y-58823287D01*
X171118071Y-58676584D01*
X171135412Y-58532662D01*
X171266500Y-58532662D01*
X171277013Y-58574102D01*
X171304845Y-58602973D01*
X171344432Y-58617730D01*
X171390208Y-58616830D01*
X171436610Y-58598729D01*
X171455547Y-58585123D01*
X171483014Y-58556559D01*
X171514832Y-58515650D01*
X171538363Y-58480348D01*
X171575529Y-58428775D01*
X171628748Y-58367295D01*
X171693280Y-58300587D01*
X171764385Y-58233332D01*
X171837321Y-58170209D01*
X171907351Y-58115900D01*
X171907850Y-58115540D01*
X171990276Y-58055767D01*
X172054230Y-58007944D01*
X172102043Y-57969448D01*
X172136046Y-57937655D01*
X172158571Y-57909944D01*
X172171948Y-57883691D01*
X172178510Y-57856274D01*
X172180588Y-57825069D01*
X172180679Y-57808605D01*
X172173068Y-57713364D01*
X172152267Y-57622641D01*
X172120280Y-57541493D01*
X172079113Y-57474976D01*
X172030772Y-57428148D01*
X172029401Y-57427214D01*
X171989382Y-57406644D01*
X171947567Y-57400389D01*
X171898506Y-57408863D01*
X171836750Y-57432486D01*
X171812346Y-57443825D01*
X171712300Y-57497277D01*
X171634796Y-57552155D01*
X171577038Y-57611619D01*
X171536225Y-57678834D01*
X171509561Y-57756961D01*
X171501706Y-57794943D01*
X171460951Y-57970578D01*
X171400568Y-58137286D01*
X171386355Y-58169375D01*
X171353641Y-58245467D01*
X171323751Y-58322998D01*
X171298431Y-58396680D01*
X171279424Y-58461226D01*
X171268476Y-58511346D01*
X171266500Y-58532662D01*
X171135412Y-58532662D01*
X171136110Y-58526869D01*
X171171839Y-58369856D01*
X171226039Y-58201259D01*
X171234728Y-58177605D01*
X171275425Y-58057236D01*
X171307652Y-57939060D01*
X171329397Y-57830912D01*
X171335425Y-57785750D01*
X171345593Y-57712107D01*
X171360075Y-57655813D01*
X171382038Y-57608842D01*
X171414646Y-57563169D01*
X171430644Y-57544305D01*
X171461999Y-57506123D01*
X171486357Y-57472105D01*
X171498741Y-57449241D01*
X171499020Y-57448279D01*
X171495419Y-57416542D01*
X171472465Y-57385920D01*
X171435812Y-57361999D01*
X171401169Y-57351558D01*
X171369570Y-57347443D01*
X171356946Y-57351682D01*
X171357202Y-57368540D01*
X171359717Y-57380562D01*
X171373487Y-57460352D01*
X171378086Y-57528414D01*
X171373446Y-57580485D01*
X171363246Y-57607447D01*
X171342711Y-57630489D01*
X171324106Y-57639700D01*
X171309136Y-57643046D01*
X171298240Y-57655873D01*
X171290005Y-57682359D01*
X171283015Y-57726687D01*
X171277368Y-57777829D01*
X171263832Y-57876253D01*
X171244906Y-57951242D01*
X171219611Y-58004375D01*
X171186972Y-58037230D01*
X171146013Y-58051388D01*
X171108663Y-58050606D01*
X171075005Y-58047728D01*
X171052388Y-58053751D01*
X171030622Y-58073149D01*
X171014730Y-58091858D01*
X170974313Y-58156326D01*
X170943384Y-58240772D01*
X170921512Y-58346652D01*
X170910615Y-58443163D01*
X170904771Y-58504726D01*
X170898051Y-58559701D01*
X170891351Y-58601497D01*
X170886364Y-58621677D01*
X170863890Y-58656152D01*
X170832835Y-58673582D01*
X170800125Y-58670232D01*
X170798179Y-58669245D01*
X170774219Y-58647978D01*
X170746005Y-58611099D01*
X170718575Y-58566638D01*
X170696966Y-58522622D01*
X170687057Y-58492160D01*
X170678837Y-58451064D01*
X170643660Y-58484766D01*
X170610215Y-58508674D01*
X170583263Y-58510463D01*
X170563861Y-58498197D01*
X170551451Y-58473382D01*
X170544824Y-58431808D01*
X170542773Y-58369315D01*
X170546322Y-58313479D01*
X170558177Y-58279214D01*
X170579691Y-58263660D01*
X170593563Y-58262000D01*
X170618500Y-58272366D01*
X170647462Y-58298693D01*
X170673957Y-58333819D01*
X170691212Y-58369690D01*
X170703293Y-58407531D01*
X170726160Y-58372632D01*
X170740326Y-58338631D01*
X170752674Y-58285163D01*
X170760900Y-58226842D01*
X170769145Y-58152426D01*
X170776120Y-58098828D01*
X170782911Y-58061574D01*
X170790605Y-58036191D01*
X170800286Y-58018205D01*
X170813041Y-58003143D01*
X170815914Y-58000231D01*
X170845714Y-57978997D01*
X170875470Y-57969905D01*
X170876032Y-57969900D01*
X170913023Y-57960054D01*
X170933140Y-57931543D01*
X170936494Y-57907034D01*
X170945017Y-57863159D01*
X170970511Y-57836725D01*
X171013815Y-57827327D01*
X171075768Y-57834561D01*
X171083345Y-57836259D01*
X171123651Y-57844714D01*
X171152755Y-57849103D01*
X171163238Y-57848795D01*
X171163833Y-57834813D01*
X171160973Y-57802232D01*
X171155260Y-57757526D01*
X171153817Y-57747629D01*
X171146552Y-57689850D01*
X171141399Y-57631826D01*
X171139500Y-57587235D01*
X171141773Y-57545504D01*
X171151436Y-57518066D01*
X171172750Y-57494005D01*
X171177600Y-57489675D01*
X171206066Y-57455779D01*
X171214509Y-57418020D01*
X171203843Y-57370200D01*
X171197610Y-57354290D01*
X171175509Y-57320313D01*
X171137924Y-57291113D01*
X171081517Y-57264695D01*
X171006317Y-57240031D01*
X170914645Y-57207898D01*
X170846900Y-57171285D01*
X170803456Y-57130474D01*
X170784691Y-57085745D01*
X170783900Y-57073935D01*
X170781575Y-57046488D01*
X170770657Y-57037731D01*
X170752908Y-57039546D01*
X170719681Y-57035491D01*
X170689408Y-57012962D01*
X170664622Y-56973910D01*
X170656025Y-56927173D01*
X170661329Y-56877454D01*
X170678244Y-56829454D01*
X170704482Y-56787875D01*
X170737753Y-56757417D01*
X170775768Y-56742784D01*
X170816240Y-56748675D01*
X170817749Y-56749345D01*
X170848047Y-56775361D01*
X170870463Y-56817209D01*
X170881172Y-56865647D01*
X170879602Y-56898803D01*
X170875970Y-56927425D01*
X170883518Y-56939000D01*
X170907572Y-56941198D01*
X170909038Y-56941200D01*
X170938188Y-56947567D01*
X170971689Y-56968833D01*
X171008779Y-57002253D01*
X171091327Y-57068860D01*
X171193799Y-57128759D01*
X171311261Y-57180457D01*
X171438777Y-57222459D01*
X171571414Y-57253274D01*
X171704236Y-57271407D01*
X171832309Y-57275365D01*
X171897288Y-57271131D01*
X171980460Y-57265168D01*
X172048926Y-57267706D01*
X172105224Y-57280986D01*
X172151891Y-57307250D01*
X172191463Y-57348739D01*
X172226476Y-57407696D01*
X172259467Y-57486362D01*
X172292972Y-57586979D01*
X172306858Y-57633100D01*
X172353891Y-57792511D01*
X172486470Y-57708720D01*
X172541012Y-57673475D01*
X172590381Y-57640165D01*
X172629012Y-57612634D01*
X172650800Y-57595238D01*
X172674195Y-57577778D01*
X172714526Y-57552099D01*
X172766159Y-57521636D01*
X172823462Y-57489827D01*
X172824288Y-57489383D01*
X172917966Y-57437636D01*
X173023118Y-57377201D01*
X173132427Y-57312452D01*
X173238572Y-57247766D01*
X173334234Y-57187517D01*
X173387400Y-57152759D01*
X173511206Y-57065800D01*
X173630221Y-56972579D01*
X173750758Y-56867903D01*
X173868337Y-56757103D01*
X174033036Y-56587183D01*
X174176832Y-56418450D01*
X174299292Y-56251748D01*
X174399980Y-56087923D01*
X174478465Y-55927822D01*
X174534313Y-55772290D01*
X174567090Y-55622172D01*
X174576363Y-55478316D01*
X174569595Y-55388670D01*
X174546051Y-55278710D01*
X174506627Y-55187327D01*
X174449657Y-55112049D01*
X174373475Y-55050403D01*
X174321840Y-55020933D01*
X174249700Y-54990506D01*
X174158901Y-54961780D01*
X174056183Y-54936535D01*
X173948286Y-54916552D01*
X173901750Y-54909991D01*
X173847851Y-54904625D01*
X173772357Y-54899222D01*
X173679072Y-54893924D01*
X173571800Y-54888869D01*
X173454347Y-54884198D01*
X173330516Y-54880052D01*
X173204111Y-54876570D01*
X173078936Y-54873893D01*
X172958797Y-54872161D01*
X172857953Y-54871526D01*
X172601556Y-54871100D01*
X172594667Y-54925075D01*
X172591816Y-54953308D01*
X172587653Y-55002429D01*
X172582524Y-55067978D01*
X172576771Y-55145496D01*
X172570740Y-55230525D01*
X172567953Y-55271150D01*
X172552483Y-55487445D01*
X172537079Y-55679616D01*
X172521761Y-55847490D01*
X172506549Y-55990893D01*
X172491465Y-56109653D01*
X172476529Y-56203596D01*
X172461761Y-56272549D01*
X172447183Y-56316339D01*
X172441961Y-56325946D01*
X172406773Y-56356836D01*
X172350564Y-56375290D01*
X172274655Y-56380956D01*
X172239486Y-56379591D01*
X172195573Y-56374968D01*
X172153241Y-56366105D01*
X172110355Y-56351576D01*
X172064778Y-56329954D01*
X172014375Y-56299811D01*
X171957012Y-56259722D01*
X171890552Y-56208259D01*
X171812860Y-56143995D01*
X171721800Y-56065504D01*
X171615238Y-55971358D01*
X171575718Y-55936085D01*
X171376297Y-55760174D01*
X171190831Y-55601857D01*
X171016855Y-55459347D01*
X170851902Y-55330861D01*
X170693507Y-55214612D01*
X170539205Y-55108816D01*
X170386530Y-55011687D01*
X170233016Y-54921440D01*
X170076198Y-54836290D01*
X170009200Y-54801842D01*
X169843166Y-54721852D01*
X169669220Y-54645533D01*
X169491946Y-54574525D01*
X169315928Y-54510467D01*
X169201368Y-54473127D01*
X169750157Y-54473127D01*
X170003503Y-54604451D01*
X170196238Y-54706975D01*
X170375929Y-54808421D01*
X170545837Y-54911151D01*
X170709223Y-55017526D01*
X170869347Y-55129908D01*
X171029470Y-55250660D01*
X171192851Y-55382141D01*
X171362751Y-55526716D01*
X171542431Y-55686744D01*
X171707504Y-55838752D01*
X171814786Y-55938141D01*
X171905851Y-56020959D01*
X171982400Y-56088641D01*
X172046131Y-56142619D01*
X172098745Y-56184328D01*
X172141942Y-56215200D01*
X172177422Y-56236670D01*
X172182534Y-56239348D01*
X172225267Y-56259306D01*
X172254831Y-56266711D01*
X172279425Y-56262744D01*
X172294974Y-56255520D01*
X172318027Y-56230075D01*
X172338801Y-56180153D01*
X172357206Y-56106584D01*
X172373149Y-56010196D01*
X172386537Y-55891820D01*
X172397279Y-55752284D01*
X172405282Y-55592417D01*
X172410455Y-55413049D01*
X172412705Y-55215009D01*
X172412764Y-55194950D01*
X172412750Y-55083078D01*
X172412043Y-54992967D01*
X172410472Y-54920983D01*
X172407866Y-54863492D01*
X172404057Y-54816859D01*
X172398874Y-54777452D01*
X172392147Y-54741635D01*
X172391407Y-54738220D01*
X172378709Y-54685825D01*
X172365275Y-54639242D01*
X172353671Y-54607217D01*
X172351926Y-54603580D01*
X172319969Y-54559881D01*
X172274963Y-54520090D01*
X172226132Y-54491479D01*
X172198436Y-54482628D01*
X172145767Y-54477952D01*
X172074868Y-54479084D01*
X171992088Y-54485443D01*
X171903779Y-54496449D01*
X171816295Y-54511520D01*
X171768150Y-54521963D01*
X171631567Y-54553292D01*
X171515468Y-54577576D01*
X171416086Y-54595323D01*
X171329655Y-54607042D01*
X171252407Y-54613241D01*
X171180576Y-54614427D01*
X171110395Y-54611110D01*
X171108481Y-54610962D01*
X170998001Y-54598089D01*
X170893346Y-54576194D01*
X170788986Y-54543415D01*
X170679392Y-54497894D01*
X170559034Y-54437768D01*
X170503358Y-54407387D01*
X170388515Y-54346470D01*
X170289900Y-54301873D01*
X170204310Y-54273556D01*
X170128543Y-54261478D01*
X170059398Y-54265600D01*
X169993670Y-54285883D01*
X169928159Y-54322286D01*
X169859662Y-54374769D01*
X169832053Y-54399039D01*
X169750157Y-54473127D01*
X169201368Y-54473127D01*
X169145750Y-54454999D01*
X168985998Y-54409760D01*
X168841255Y-54376391D01*
X168796350Y-54368053D01*
X168743771Y-54361456D01*
X168668670Y-54355587D01*
X168573914Y-54350454D01*
X168462371Y-54346065D01*
X168336908Y-54342425D01*
X168200394Y-54339543D01*
X168055695Y-54337426D01*
X167905678Y-54336080D01*
X167753213Y-54335512D01*
X167601165Y-54335730D01*
X167452403Y-54336742D01*
X167309794Y-54338553D01*
X167176205Y-54341171D01*
X167054505Y-54344603D01*
X166947561Y-54348857D01*
X166858239Y-54353939D01*
X166789409Y-54359856D01*
X166764350Y-54363016D01*
X166587257Y-54396400D01*
X166391889Y-54447311D01*
X166313431Y-54471071D01*
X166113795Y-54539051D01*
X165936581Y-54611193D01*
X165778946Y-54689015D01*
X165638052Y-54774033D01*
X165511056Y-54867764D01*
X165418969Y-54948705D01*
X165348151Y-55020738D01*
X165297486Y-55086301D01*
X165265013Y-55151167D01*
X165248771Y-55221109D01*
X165246801Y-55301898D01*
X165078402Y-55301898D01*
X165091722Y-55203593D01*
X165134904Y-55072444D01*
X165202958Y-54944840D01*
X165295772Y-54821143D01*
X165382914Y-54729862D01*
X165500702Y-54628173D01*
X165630840Y-54536784D01*
X165774618Y-54455306D01*
X165933332Y-54383346D01*
X166108273Y-54320515D01*
X166300735Y-54266421D01*
X166512010Y-54220673D01*
X166743392Y-54182880D01*
X166996173Y-54152652D01*
X167271646Y-54129597D01*
X167393000Y-54122039D01*
X167500130Y-54117071D01*
X167619699Y-54113397D01*
X167746776Y-54111017D01*
X167876433Y-54109931D01*
X168003739Y-54110139D01*
X168123766Y-54111642D01*
X168231582Y-54114440D01*
X168322259Y-54118533D01*
X168370900Y-54121994D01*
X168573351Y-54145572D01*
X168785417Y-54182247D01*
X169010040Y-54232650D01*
X169250162Y-54297413D01*
X169403943Y-54343752D01*
X169480715Y-54367439D01*
X169537708Y-54383063D01*
X169579422Y-54390025D01*
X169610358Y-54387725D01*
X169635013Y-54375565D01*
X169657890Y-54352945D01*
X169683486Y-54319268D01*
X169693605Y-54305196D01*
X169740881Y-54251351D01*
X169804463Y-54195600D01*
X169876552Y-54144043D01*
X169949347Y-54102781D01*
X169957086Y-54099122D01*
X170007183Y-54079398D01*
X170056704Y-54068240D01*
X170108765Y-54066339D01*
X170166482Y-54074387D01*
X170166482Y-54074387D01*
G37*
X170166482Y-54074387D02*
X170232970Y-54093076D01*
X170311345Y-54123096D01*
X170404723Y-54165140D01*
X170516219Y-54219899D01*
X170527967Y-54225838D01*
X170626302Y-54275043D01*
X170707092Y-54313485D01*
X170775079Y-54342581D01*
X170835009Y-54363749D01*
X170891622Y-54378409D01*
X170949664Y-54387977D01*
X171013876Y-54393872D01*
X171089003Y-54397511D01*
X171103941Y-54398033D01*
X171200932Y-54399874D01*
X171287152Y-54397835D01*
X171369358Y-54391116D01*
X171454311Y-54378919D01*
X171548768Y-54360446D01*
X171659487Y-54334898D01*
X171679250Y-54330079D01*
X171755670Y-54312453D01*
X171835433Y-54295934D01*
X171909512Y-54282283D01*
X171968880Y-54273261D01*
X171973160Y-54272740D01*
X172033492Y-54266564D01*
X172079361Y-54265247D01*
X172121342Y-54269375D01*
X172170011Y-54279533D01*
X172191306Y-54284804D01*
X172251091Y-54302128D01*
X172312065Y-54323346D01*
X172361597Y-54344042D01*
X172364011Y-54345210D01*
X172408343Y-54370678D01*
X172451929Y-54401958D01*
X172489330Y-54434373D01*
X172515104Y-54463241D01*
X172523870Y-54482691D01*
X172527109Y-54503242D01*
X172534991Y-54536100D01*
X172536764Y-54542614D01*
X172543993Y-54563562D01*
X172554484Y-54581363D01*
X172570312Y-54596365D01*
X172593548Y-54608916D01*
X172626265Y-54619366D01*
X172670536Y-54628062D01*
X172728434Y-54635353D01*
X172802032Y-54641588D01*
X172893402Y-54647116D01*
X173004617Y-54652284D01*
X173137749Y-54657442D01*
X173241350Y-54661104D01*
X173422002Y-54667971D01*
X173579682Y-54675475D01*
X173716819Y-54683963D01*
X173835838Y-54693784D01*
X173939166Y-54705285D01*
X174029231Y-54718813D01*
X174108460Y-54734717D01*
X174179279Y-54753343D01*
X174244115Y-54775040D01*
X174305396Y-54800154D01*
X174346250Y-54819350D01*
X174441745Y-54872938D01*
X174517655Y-54931445D01*
X174579796Y-54999781D01*
X174608787Y-55041124D01*
X174662493Y-55144779D01*
X174702064Y-55264836D01*
X174727028Y-55396284D01*
X174736908Y-55534110D01*
X174731232Y-55673302D01*
X174709525Y-55808849D01*
X174688713Y-55886017D01*
X174641402Y-56009854D01*
X174574046Y-56145090D01*
X174486284Y-56292346D01*
X174377754Y-56452241D01*
X174288060Y-56573559D01*
X174246976Y-56626486D01*
X174206159Y-56676618D01*
X174164276Y-56724995D01*
X174119995Y-56772657D01*
X174071984Y-56820644D01*
X174018910Y-56869998D01*
X173959441Y-56921758D01*
X173892244Y-56976966D01*
X173815986Y-57036661D01*
X173729335Y-57101883D01*
X173630959Y-57173674D01*
X173519524Y-57253074D01*
X173393699Y-57341122D01*
X173252152Y-57438861D01*
X173093548Y-57547329D01*
X172916557Y-57667567D01*
X172719844Y-57800617D01*
X172695250Y-57817224D01*
X172522298Y-57934447D01*
X172369434Y-58039138D01*
X172235299Y-58132371D01*
X172118534Y-58215223D01*
X172017779Y-58288770D01*
X171931677Y-58354086D01*
X171858866Y-58412249D01*
X171797990Y-58464333D01*
X171747688Y-58511414D01*
X171706602Y-58554569D01*
X171673373Y-58594872D01*
X171646641Y-58633400D01*
X171631341Y-58659391D01*
X171583039Y-58726758D01*
X171524904Y-58771730D01*
X171458234Y-58793431D01*
X171429330Y-58795400D01*
X171408596Y-58795879D01*
X171391787Y-58798852D01*
X171378673Y-58806624D01*
X171369026Y-58821497D01*
X171362618Y-58845777D01*
X171359220Y-58881766D01*
X171358605Y-58931770D01*
X171360543Y-58998091D01*
X171364806Y-59083033D01*
X171371166Y-59188902D01*
X171378660Y-59306562D01*
X171386195Y-59424483D01*
X171392100Y-59519679D01*
X171396401Y-59594771D01*
X171399121Y-59652381D01*
X171400286Y-59695130D01*
X171399921Y-59725640D01*
X171398051Y-59746531D01*
X171394701Y-59760424D01*
X171389895Y-59769942D01*
X171383658Y-59777704D01*
X171383140Y-59778281D01*
X171299030Y-59874015D01*
X171201321Y-59989340D01*
X171090993Y-60123049D01*
X170969023Y-60273932D01*
X170836391Y-60440782D01*
X170694076Y-60622389D01*
X170574595Y-60776600D01*
X170464075Y-60919179D01*
X170367072Y-61042599D01*
X170282270Y-61148318D01*
X170208354Y-61237798D01*
X170144008Y-61312497D01*
X170087918Y-61373877D01*
X170038769Y-61423397D01*
X169995246Y-61462517D01*
X169956033Y-61492697D01*
X169919816Y-61515398D01*
X169900049Y-61525532D01*
X169838984Y-61560423D01*
X169779566Y-61607705D01*
X169718485Y-61670578D01*
X169652429Y-61752243D01*
X169620003Y-61796247D01*
X169568782Y-61871506D01*
X169514330Y-61958544D01*
X169460587Y-62050471D01*
X169411493Y-62140399D01*
X169370989Y-62221437D01*
X169350678Y-62267185D01*
X169326215Y-62326516D01*
X169298193Y-62394465D01*
X169273085Y-62455337D01*
X169246665Y-62510836D01*
X169214831Y-62565504D01*
X169184118Y-62608207D01*
X169181784Y-62610912D01*
X169149248Y-62644839D01*
X169123266Y-62662503D01*
X169096069Y-62668614D01*
X169086116Y-62668900D01*
X169040394Y-62656838D01*
X168998091Y-62623179D01*
X168963464Y-62571712D01*
X168954651Y-62551975D01*
X168925122Y-62492096D01*
X168893621Y-62454366D01*
X168861486Y-62440352D01*
X168859427Y-62440300D01*
X168824964Y-62451364D01*
X168781216Y-62483369D01*
X168730247Y-62534531D01*
X168680322Y-62594945D01*
X168631215Y-62649267D01*
X168579895Y-62689489D01*
X168530911Y-62712718D01*
X168489503Y-62716200D01*
X168462795Y-62716911D01*
X168450099Y-62724578D01*
X168446757Y-62740974D01*
X168442545Y-62778823D01*
X168437789Y-62834208D01*
X168432814Y-62903209D01*
X168427945Y-62981908D01*
X168426283Y-63011800D01*
X168421292Y-63094600D01*
X168415723Y-63170579D01*
X168409971Y-63235437D01*
X168404428Y-63284873D01*
X168399490Y-63314586D01*
X168398126Y-63319166D01*
X168378835Y-63346346D01*
X168347584Y-63372318D01*
X168314627Y-63389531D01*
X168298505Y-63392521D01*
X168281810Y-63387487D01*
X168250892Y-63375016D01*
X168232329Y-63366826D01*
X168195955Y-63343961D01*
X168144407Y-63301641D01*
X168078239Y-63240353D01*
X168009187Y-63171953D01*
X167904504Y-63062947D01*
X167818219Y-62965722D01*
X167748508Y-62876696D01*
X167693544Y-62792286D01*
X167651502Y-62708908D01*
X167620555Y-62622978D01*
X167598878Y-62530914D01*
X167584644Y-62429132D01*
X167576498Y-62322825D01*
X167572843Y-62264681D01*
X167568980Y-62217128D01*
X167565373Y-62185117D01*
X167562523Y-62173600D01*
X167549474Y-62180096D01*
X167523311Y-62196480D01*
X167510028Y-62205350D01*
X167462174Y-62230759D01*
X167424909Y-62235499D01*
X167399931Y-62219527D01*
X167394121Y-62208299D01*
X167385117Y-62177074D01*
X167375961Y-62129603D01*
X167366436Y-62064167D01*
X167356324Y-61979052D01*
X167345410Y-61872540D01*
X167333476Y-61742915D01*
X167329499Y-61697350D01*
X167310656Y-61501312D01*
X167289373Y-61320336D01*
X167266008Y-61156891D01*
X167240921Y-61013450D01*
X167214471Y-60892483D01*
X167209683Y-60873634D01*
X167186107Y-60745549D01*
X167176864Y-60599326D01*
X167182021Y-60437843D01*
X167196458Y-60300350D01*
X167220259Y-60118343D01*
X167240711Y-59950024D01*
X167257672Y-59796989D01*
X167271000Y-59660835D01*
X167280551Y-59543157D01*
X167286184Y-59445552D01*
X167287757Y-59369615D01*
X167285125Y-59316943D01*
X167284617Y-59312957D01*
X167278008Y-59276212D01*
X167268657Y-59258328D01*
X167252331Y-59252813D01*
X167245279Y-59252600D01*
X167217425Y-59257693D01*
X167170953Y-59271887D01*
X167110266Y-59293547D01*
X167039769Y-59321041D01*
X166963863Y-59352735D01*
X166904703Y-59378885D01*
X166838537Y-59404555D01*
X166789698Y-59413891D01*
X166758896Y-59406851D01*
X166747476Y-59388211D01*
X166750545Y-59370661D01*
X166766464Y-59346824D01*
X166796819Y-59315234D01*
X166843195Y-59274425D01*
X166907180Y-59222929D01*
X166990358Y-59159280D01*
X167015337Y-59140551D01*
X167085720Y-59087019D01*
X167147163Y-59037633D01*
X167197033Y-58994020D01*
X167463068Y-58994020D01*
X167464276Y-59000907D01*
X167483532Y-59010970D01*
X167514520Y-58999972D01*
X167548133Y-58975062D01*
X167585449Y-58945059D01*
X167619783Y-58925061D01*
X167659004Y-58912122D01*
X167710981Y-58903292D01*
X167751991Y-58898698D01*
X167833428Y-58887551D01*
X167891305Y-58872178D01*
X167927305Y-58851161D01*
X167943112Y-58823085D01*
X167940408Y-58786532D01*
X167926747Y-58751667D01*
X167911720Y-58714064D01*
X167904509Y-58675733D01*
X167905570Y-58631976D01*
X167915353Y-58578095D01*
X167934312Y-58509390D01*
X167956858Y-58439188D01*
X167976282Y-58378224D01*
X167993287Y-58320013D01*
X168005658Y-58272411D01*
X168010377Y-58249583D01*
X168019275Y-58193939D01*
X167979378Y-58222348D01*
X167950405Y-58248471D01*
X167912529Y-58290884D01*
X167867689Y-58346654D01*
X167817826Y-58412851D01*
X167764879Y-58486542D01*
X167710788Y-58564795D01*
X167657493Y-58644678D01*
X167606934Y-58723259D01*
X167561051Y-58797606D01*
X167521782Y-58864788D01*
X167491069Y-58921872D01*
X167470851Y-58965927D01*
X167463068Y-58994020D01*
X167197033Y-58994020D01*
X167202213Y-58989490D01*
X167253414Y-58939688D01*
X167303313Y-58885327D01*
X167354456Y-58823503D01*
X167409388Y-58751315D01*
X167470655Y-58665861D01*
X167540803Y-58564239D01*
X167607821Y-58465200D01*
X167663109Y-58383141D01*
X167717781Y-58302189D01*
X167769019Y-58226501D01*
X167814005Y-58160237D01*
X167849918Y-58107556D01*
X167870318Y-58077850D01*
X167934561Y-57979076D01*
X167980430Y-57894815D01*
X168008844Y-57823059D01*
X168020726Y-57761802D01*
X168021217Y-57749032D01*
X168020467Y-57710688D01*
X168014446Y-57689617D01*
X167998496Y-57677703D01*
X167975486Y-57669317D01*
X167947435Y-57663037D01*
X167899432Y-57655471D01*
X167836844Y-57647336D01*
X167765041Y-57639350D01*
X167713894Y-57634388D01*
X167562460Y-57618134D01*
X167430171Y-57597951D01*
X167310868Y-57572150D01*
X167198395Y-57539041D01*
X167086595Y-57496932D01*
X166969310Y-57444133D01*
X166904859Y-57412271D01*
X166808006Y-57360123D01*
X166699857Y-57296568D01*
X166583967Y-57224114D01*
X166463895Y-57145273D01*
X166343198Y-57062556D01*
X166225434Y-56978472D01*
X166114159Y-56895531D01*
X166012932Y-56816246D01*
X165925309Y-56743124D01*
X165854849Y-56678678D01*
X165830783Y-56654331D01*
X165738337Y-56552740D01*
X165644658Y-56442041D01*
X165551893Y-56325343D01*
X165462192Y-56205756D01*
X165377703Y-56086389D01*
X165300572Y-55970350D01*
X165232950Y-55860750D01*
X165176983Y-55760698D01*
X165134820Y-55673303D01*
X165112505Y-55614692D01*
X165080412Y-55475079D01*
X165073521Y-55337925D01*
X165078402Y-55301898D01*
X165246801Y-55301898D01*
X165257142Y-55399308D01*
X165259868Y-55417200D01*
X165295079Y-55566535D01*
X165353357Y-55719772D01*
X165432941Y-55875442D01*
X165532071Y-56032079D01*
X165648986Y-56188218D01*
X165781926Y-56342392D01*
X165929131Y-56493135D01*
X166088841Y-56638981D01*
X166259294Y-56778462D01*
X166438732Y-56910114D01*
X166625394Y-57032469D01*
X166817518Y-57144062D01*
X167013346Y-57243426D01*
X167211117Y-57329094D01*
X167409070Y-57399602D01*
X167605445Y-57453481D01*
X167735900Y-57479657D01*
X167815572Y-57492169D01*
X167891302Y-57502278D01*
X167959000Y-57509613D01*
X168014577Y-57513801D01*
X168053943Y-57514471D01*
X168073008Y-57511251D01*
X168073889Y-57510371D01*
X168076248Y-57488948D01*
X168071135Y-57451988D01*
X168060637Y-57407487D01*
X168046843Y-57363438D01*
X168031841Y-57327837D01*
X168022301Y-57312861D01*
X168005032Y-57296352D01*
X167983562Y-57286103D01*
X167950977Y-57280099D01*
X167900364Y-57276327D01*
X167896193Y-57276107D01*
X167817373Y-57266649D01*
X167757623Y-57248069D01*
X167718454Y-57221312D01*
X167701380Y-57187320D01*
X167704346Y-57156481D01*
X167711561Y-57140579D01*
X167723852Y-57127616D01*
X167743874Y-57117129D01*
X167774283Y-57108652D01*
X167817733Y-57101723D01*
X167876880Y-57095875D01*
X167954380Y-57090646D01*
X168052888Y-57085571D01*
X168129600Y-57082127D01*
X168276233Y-57075272D01*
X168415512Y-57067787D01*
X168545165Y-57059854D01*
X168662915Y-57051654D01*
X168766491Y-57043367D01*
X168853616Y-57035175D01*
X168922018Y-57027258D01*
X168969422Y-57019798D01*
X168992672Y-57013428D01*
X169030667Y-56982915D01*
X169051434Y-56940300D01*
X169051493Y-56895869D01*
X169034192Y-56861818D01*
X168999465Y-56819766D01*
X168952076Y-56774079D01*
X168896786Y-56729122D01*
X168838358Y-56689259D01*
X168805705Y-56670610D01*
X168760988Y-56648363D01*
X168723202Y-56631824D01*
X168699269Y-56623967D01*
X168696645Y-56623700D01*
X168675006Y-56632142D01*
X168647842Y-56652843D01*
X168643923Y-56656630D01*
X168628287Y-56671298D01*
X168613016Y-56680421D01*
X168592415Y-56684828D01*
X168560791Y-56685347D01*
X168512448Y-56682807D01*
X168479281Y-56680584D01*
X168417552Y-56676815D01*
X168372507Y-56676748D01*
X168336396Y-56682389D01*
X168301469Y-56695741D01*
X168259974Y-56718810D01*
X168209151Y-56750456D01*
X168174710Y-56770486D01*
X168142222Y-56784129D01*
X168104099Y-56793478D01*
X168052755Y-56800623D01*
X168012301Y-56804737D01*
X167912178Y-56817958D01*
X167831752Y-56837750D01*
X167765737Y-56866089D01*
X167708851Y-56904950D01*
X167683483Y-56927682D01*
X167644438Y-56970446D01*
X167624715Y-57009026D01*
X167622523Y-57051425D01*
X167636070Y-57105641D01*
X167640650Y-57118999D01*
X167657422Y-57188436D01*
X167655197Y-57245957D01*
X167639998Y-57281175D01*
X167603989Y-57317860D01*
X167566189Y-57331026D01*
X167529079Y-57322193D01*
X167495140Y-57292882D01*
X167466854Y-57244611D01*
X167446703Y-57178900D01*
X167443360Y-57160751D01*
X167438099Y-57061273D01*
X167453047Y-56962749D01*
X167486494Y-56871311D01*
X167536733Y-56793095D01*
X167549944Y-56778191D01*
X167590065Y-56740687D01*
X167633159Y-56712561D01*
X167684273Y-56692010D01*
X167748453Y-56677230D01*
X167830745Y-56666417D01*
X167873651Y-56662480D01*
X167935111Y-56656663D01*
X167977068Y-56650426D01*
X168005399Y-56642247D01*
X168025976Y-56630605D01*
X168038751Y-56619734D01*
X168087115Y-56588501D01*
X168151075Y-56567742D01*
X168221049Y-56560270D01*
X168311651Y-56551747D01*
X168385398Y-56526867D01*
X168440049Y-56486732D01*
X168466809Y-56460938D01*
X168491732Y-56446420D01*
X168524499Y-56439200D01*
X168563632Y-56435961D01*
X168656098Y-56441215D01*
X168756712Y-56466175D01*
X168860642Y-56508714D01*
X168963055Y-56566706D01*
X169059120Y-56638024D01*
X169094475Y-56669607D01*
X169180984Y-56751215D01*
X169214941Y-56693272D01*
X169266554Y-56628312D01*
X169339162Y-56570513D01*
X169428972Y-56521486D01*
X169532191Y-56482842D01*
X169645028Y-56456194D01*
X169763690Y-56443152D01*
X169806000Y-56442100D01*
X169884354Y-56444599D01*
X169945323Y-56453996D01*
X169996494Y-56472563D01*
X170045456Y-56502569D01*
X170069396Y-56520894D01*
X170109627Y-56548625D01*
X170157434Y-56571929D01*
X170217793Y-56592644D01*
X170295680Y-56612607D01*
X170349216Y-56624228D01*
X170451453Y-56649378D01*
X170532318Y-56677810D01*
X170590388Y-56708939D01*
X170619266Y-56735127D01*
X170640924Y-56778206D01*
X170640130Y-56819074D01*
X170618305Y-56852398D01*
X170582989Y-56871204D01*
X170562326Y-56872713D01*
X170540328Y-56861781D01*
X170510807Y-56834919D01*
X170501448Y-56825224D01*
X170449366Y-56770475D01*
X170283258Y-56769250D01*
X170205316Y-56767751D01*
X170147729Y-56764226D01*
X170105497Y-56758140D01*
X170073618Y-56748960D01*
X170066814Y-56746178D01*
X170012084Y-56717132D01*
X169980821Y-56687020D01*
X169971100Y-56654751D01*
X169966912Y-56635075D01*
X169949515Y-56627252D01*
X169928197Y-56626240D01*
X169890064Y-56619724D01*
X169846801Y-56603437D01*
X169834012Y-56596725D01*
X169801923Y-56580038D01*
X169775493Y-56573577D01*
X169743423Y-56575956D01*
X169712947Y-56581846D01*
X169648088Y-56600461D01*
X169573967Y-56629504D01*
X169499561Y-56664796D01*
X169433845Y-56702152D01*
X169393732Y-56730574D01*
X169343343Y-56783423D01*
X169312437Y-56841088D01*
X169301800Y-56899421D01*
X169312219Y-56954276D01*
X169342714Y-56999768D01*
X169354250Y-57010482D01*
X169366851Y-57018321D01*
X169384404Y-57023736D01*
X169410800Y-57027178D01*
X169449926Y-57029096D01*
X169505671Y-57029941D01*
X169581925Y-57030162D01*
X169605397Y-57030173D01*
X169720792Y-57031258D01*
X169814289Y-57034687D01*
X169889313Y-57040848D01*
X169949290Y-57050126D01*
X169997645Y-57062906D01*
X170035939Y-57078642D01*
X170084095Y-57102467D01*
X170087922Y-57056758D01*
X170093453Y-57025380D01*
X170107017Y-57011237D01*
X170125831Y-57007112D01*
X170160196Y-57010451D01*
X170198458Y-57023853D01*
X170202031Y-57025689D01*
X170224423Y-57034858D01*
X170255514Y-57041965D01*
X170299348Y-57047502D01*
X170359970Y-57051960D01*
X170441425Y-57055832D01*
X170453700Y-57056316D01*
X170548456Y-57060952D01*
X170620472Y-57066768D01*
X170672391Y-57074056D01*
X170706859Y-57083108D01*
X170710875Y-57084716D01*
X170747035Y-57106720D01*
X170758218Y-57131592D01*
X170744401Y-57159785D01*
X170705560Y-57191748D01*
X170705414Y-57191844D01*
X170683444Y-57205729D01*
X170663333Y-57215341D01*
X170639960Y-57221437D01*
X170608205Y-57224773D01*
X170562944Y-57226107D01*
X170499058Y-57226194D01*
X170473639Y-57226081D01*
X170395147Y-57225001D01*
X170336073Y-57222215D01*
X170290458Y-57217091D01*
X170252345Y-57208994D01*
X170221232Y-57199243D01*
X170180895Y-57185851D01*
X170159745Y-57181589D01*
X170153438Y-57186032D01*
X170154988Y-57192747D01*
X170173551Y-57264962D01*
X170182209Y-57356518D01*
X170180848Y-57463316D01*
X170169354Y-57581260D01*
X170166461Y-57601600D01*
X170159862Y-57646050D01*
X170208356Y-57591878D01*
X170248530Y-57553617D01*
X170279059Y-57538142D01*
X170298734Y-57544965D01*
X170306345Y-57573601D01*
X170300685Y-57623562D01*
X170299590Y-57628611D01*
X170281735Y-57686250D01*
X170254391Y-57728000D01*
X170210879Y-57762988D01*
X170193447Y-57773664D01*
X170124155Y-57807498D01*
X170049903Y-57829090D01*
X169964584Y-57839619D01*
X169862089Y-57840263D01*
X169850450Y-57839821D01*
X169780904Y-57835871D01*
X169729170Y-57829821D01*
X169687666Y-57820306D01*
X169648815Y-57805959D01*
X169639312Y-57801766D01*
X169549116Y-57749474D01*
X169480610Y-57684036D01*
X169433947Y-57605778D01*
X169409283Y-57515026D01*
X169407049Y-57423384D01*
X169516663Y-57423384D01*
X169531306Y-57420855D01*
X169562507Y-57399131D01*
X169567875Y-57394864D01*
X169613531Y-57360989D01*
X169647172Y-57343831D01*
X169674024Y-57341458D01*
X169693299Y-57348456D01*
X169723110Y-57374811D01*
X169749483Y-57414908D01*
X169765676Y-57457305D01*
X169767852Y-57474949D01*
X169762407Y-57511937D01*
X169743778Y-57540604D01*
X169708712Y-57563254D01*
X169653955Y-57582188D01*
X169597642Y-57595411D01*
X169573247Y-57602215D01*
X169570483Y-57611235D01*
X169580363Y-57622706D01*
X169615294Y-57642679D01*
X169668423Y-57654852D01*
X169733730Y-57659078D01*
X169805194Y-57655208D01*
X169876794Y-57643095D01*
X169919690Y-57631022D01*
X169993226Y-57596813D01*
X170045744Y-57551194D01*
X170076187Y-57495637D01*
X170083500Y-57431612D01*
X170080388Y-57407416D01*
X170059704Y-57355871D01*
X170020116Y-57304355D01*
X169967414Y-57258828D01*
X169907392Y-57225251D01*
X169900831Y-57222634D01*
X169813104Y-57199044D01*
X169734483Y-57199085D01*
X169664613Y-57222900D01*
X169603138Y-57270630D01*
X169549705Y-57342418D01*
X169534917Y-57369194D01*
X169518045Y-57406303D01*
X169516663Y-57423384D01*
X169407049Y-57423384D01*
X169406773Y-57412105D01*
X169417632Y-57336153D01*
X169426564Y-57287257D01*
X169431929Y-57247963D01*
X169432898Y-57224814D01*
X169432135Y-57221871D01*
X169416494Y-57213714D01*
X169385358Y-57206171D01*
X169373581Y-57204347D01*
X169312314Y-57185327D01*
X169254288Y-57148685D01*
X169209607Y-57101104D01*
X169203938Y-57092191D01*
X169187764Y-57067141D01*
X169177861Y-57062033D01*
X169168615Y-57074361D01*
X169167735Y-57076027D01*
X169150795Y-57099636D01*
X169123713Y-57129514D01*
X169114218Y-57138825D01*
X169096186Y-57156889D01*
X169084107Y-57174061D01*
X169076431Y-57196056D01*
X169071607Y-57228585D01*
X169068084Y-57277361D01*
X169065959Y-57316625D01*
X169061032Y-57381402D01*
X169053610Y-57444024D01*
X169044862Y-57495698D01*
X169039080Y-57519050D01*
X168998965Y-57612076D01*
X168942843Y-57686780D01*
X168872776Y-57741816D01*
X168790823Y-57775840D01*
X168699046Y-57787506D01*
X168635431Y-57782515D01*
X168528802Y-57756175D01*
X168437148Y-57713243D01*
X168362827Y-57655224D01*
X168308197Y-57583622D01*
X168300246Y-57568623D01*
X168287430Y-57535932D01*
X168279771Y-57496588D01*
X168276254Y-57443561D01*
X168275709Y-57398400D01*
X168276921Y-57339651D01*
X168400151Y-57339651D01*
X168416892Y-57335062D01*
X168435301Y-57326196D01*
X168465265Y-57314406D01*
X168492009Y-57315071D01*
X168520824Y-57324445D01*
X168570616Y-57354565D01*
X168604724Y-57397672D01*
X168621284Y-57447986D01*
X168618429Y-57499725D01*
X168594291Y-57547107D01*
X168593150Y-57548483D01*
X168572774Y-57574647D01*
X168561938Y-57592357D01*
X168561400Y-57594521D01*
X168572891Y-57608606D01*
X168602561Y-57621538D01*
X168643200Y-57631331D01*
X168687600Y-57635997D01*
X168710749Y-57635676D01*
X168763447Y-57627385D01*
X168805448Y-57607392D01*
X168824554Y-57593195D01*
X168874572Y-57541868D01*
X168908246Y-57484832D01*
X168925647Y-57426159D01*
X168926846Y-57369920D01*
X168911913Y-57320185D01*
X168880919Y-57281025D01*
X168833934Y-57256511D01*
X168818646Y-57252955D01*
X168783474Y-57244980D01*
X168733854Y-57231712D01*
X168679477Y-57215767D01*
X168669730Y-57212752D01*
X168619265Y-57198826D01*
X168575171Y-57189922D01*
X168545204Y-57187513D01*
X168540534Y-57188170D01*
X168503455Y-57206040D01*
X168463037Y-57238101D01*
X168428397Y-57276410D01*
X168414893Y-57297682D01*
X168400216Y-57328212D01*
X168400151Y-57339651D01*
X168276921Y-57339651D01*
X168276955Y-57338023D01*
X168280230Y-57280452D01*
X168284924Y-57235118D01*
X168287037Y-57222655D01*
X168293140Y-57188784D01*
X168291399Y-57173481D01*
X168279486Y-57170520D01*
X168268046Y-57171855D01*
X168245389Y-57180593D01*
X168227697Y-57201630D01*
X168213894Y-57238054D01*
X168202904Y-57292955D01*
X168193649Y-57369421D01*
X168191564Y-57391353D01*
X168188122Y-57442192D01*
X168185516Y-57507403D01*
X168183723Y-57582969D01*
X168182720Y-57664875D01*
X168182484Y-57749105D01*
X168182992Y-57831643D01*
X168184221Y-57908475D01*
X168186149Y-57975584D01*
X168188752Y-58028955D01*
X168192008Y-58064572D01*
X168195486Y-58078139D01*
X168209326Y-58075690D01*
X168239589Y-58062087D01*
X168281241Y-58039765D01*
X168312012Y-58021749D01*
X168367856Y-57989216D01*
X168424792Y-57958024D01*
X168473449Y-57933244D01*
X168488792Y-57926130D01*
X168559215Y-57897993D01*
X168638786Y-57871135D01*
X168722383Y-57846792D01*
X168804887Y-57826197D01*
X168881175Y-57810585D01*
X168946126Y-57801189D01*
X168994619Y-57799243D01*
X169008557Y-57800886D01*
X169040455Y-57815341D01*
X169052748Y-57838392D01*
X169047223Y-57864942D01*
X169025671Y-57889897D01*
X168989879Y-57908161D01*
X168969231Y-57912896D01*
X168880631Y-57933812D01*
X168779150Y-57970248D01*
X168669668Y-58019565D01*
X168557063Y-58079122D01*
X168446215Y-58146281D01*
X168342001Y-58218400D01*
X168249300Y-58292842D01*
X168222814Y-58316768D01*
X168148519Y-58392901D01*
X168094853Y-58462931D01*
X168062273Y-58525764D01*
X168051237Y-58580307D01*
X168062202Y-58625465D01*
X168083033Y-58650751D01*
X168134779Y-58682051D01*
X168205932Y-58705715D01*
X168291292Y-58720405D01*
X168370900Y-58724834D01*
X168451986Y-58721799D01*
X168515802Y-58710137D01*
X168569677Y-58687544D01*
X168620939Y-58651718D01*
X168631180Y-58643060D01*
X168675060Y-58611116D01*
X168724294Y-58583872D01*
X168748064Y-58574137D01*
X168784180Y-58557862D01*
X168832979Y-58530341D01*
X168887096Y-58495922D01*
X168923350Y-58470668D01*
X169002756Y-58415037D01*
X169068666Y-58373830D01*
X169126284Y-58344278D01*
X169180814Y-58323616D01*
X169219844Y-58312979D01*
X169290221Y-58303152D01*
X169360784Y-58308583D01*
X169438969Y-58330200D01*
X169478289Y-58345321D01*
X169524635Y-58363063D01*
X169557215Y-58370993D01*
X169585080Y-58370462D01*
X169609729Y-58364943D01*
X169653966Y-58347919D01*
X169692069Y-58324636D01*
X169718493Y-58299488D01*
X169727695Y-58276868D01*
X169726708Y-58272260D01*
X169708369Y-58257981D01*
X169666953Y-58247334D01*
X169647276Y-58244590D01*
X169599766Y-58236393D01*
X169556926Y-58224671D01*
X169538582Y-58217179D01*
X169498170Y-58186342D01*
X169478468Y-58149251D01*
X169480464Y-58110784D01*
X169505147Y-58075822D01*
X169509262Y-58072421D01*
X169557286Y-58049855D01*
X169612324Y-58048923D01*
X169668364Y-58069453D01*
X169680903Y-58077289D01*
X169750527Y-58112880D01*
X169824511Y-58130528D01*
X169897074Y-58130111D01*
X169962434Y-58111503D01*
X170004739Y-58084244D01*
X170038556Y-58058182D01*
X170067263Y-58048484D01*
X170099083Y-58054856D01*
X170142238Y-58077005D01*
X170146016Y-58079210D01*
X170178221Y-58096526D01*
X170205967Y-58105471D01*
X170238689Y-58107609D01*
X170285822Y-58104501D01*
X170294080Y-58103740D01*
X170348204Y-58100171D01*
X170382798Y-58103872D01*
X170403392Y-58117977D01*
X170415519Y-58145620D01*
X170422240Y-58176346D01*
X170443244Y-58227052D01*
X170467826Y-58254901D01*
X170491908Y-58279970D01*
X170504122Y-58302086D01*
X170504500Y-58305183D01*
X170493352Y-58327442D01*
X170463997Y-58342418D01*
X170422568Y-58350088D01*
X170375200Y-58350430D01*
X170328023Y-58343420D01*
X170287173Y-58329037D01*
X170258782Y-58307258D01*
X170257884Y-58306089D01*
X170234087Y-58290883D01*
X170191509Y-58278420D01*
X170136676Y-58269240D01*
X170076111Y-58263883D01*
X170016339Y-58262888D01*
X169963884Y-58266795D01*
X169925271Y-58276144D01*
X169920762Y-58278206D01*
X169898567Y-58297231D01*
X169871306Y-58331382D01*
X169846763Y-58370094D01*
X169814797Y-58424547D01*
X169788001Y-58462003D01*
X169760638Y-58488402D01*
X169726967Y-58509684D01*
X169698050Y-58524025D01*
X169624353Y-58548500D01*
X169548798Y-58551956D01*
X169466403Y-58534319D01*
X169427166Y-58520046D01*
X169357786Y-58497302D01*
X169293061Y-58488355D01*
X169229585Y-58494296D01*
X169163954Y-58516217D01*
X169092765Y-58555208D01*
X169012613Y-58612361D01*
X168931552Y-58678898D01*
X168875245Y-58726957D01*
X168827405Y-58766326D01*
X168784512Y-58798520D01*
X168743045Y-58825054D01*
X168699484Y-58847443D01*
X168650310Y-58867203D01*
X168592001Y-58885850D01*
X168521037Y-58904899D01*
X168433899Y-58925864D01*
X168327065Y-58950262D01*
X168272670Y-58962529D01*
X168116479Y-58997571D01*
X167983063Y-59027119D01*
X167870485Y-59051560D01*
X167776811Y-59071277D01*
X167700104Y-59086658D01*
X167638430Y-59098088D01*
X167589852Y-59105952D01*
X167552435Y-59110635D01*
X167524243Y-59112524D01*
X167519252Y-59112603D01*
X167475996Y-59114922D01*
X167446197Y-59124045D01*
X167427111Y-59144003D01*
X167415996Y-59178830D01*
X167410109Y-59232555D01*
X167407916Y-59276262D01*
X167405892Y-59351503D01*
X167407314Y-59404881D01*
X167412904Y-59439787D01*
X167423383Y-59459613D01*
X167439474Y-59467749D01*
X167448836Y-59468500D01*
X167482686Y-59479210D01*
X167503730Y-59510357D01*
X167512010Y-59560466D01*
X167507563Y-59628060D01*
X167490432Y-59711664D01*
X167460654Y-59809802D01*
X167437973Y-59871845D01*
X167384967Y-60031837D01*
X167343880Y-60203177D01*
X167316468Y-60376619D01*
X167304490Y-60542915D01*
X167304100Y-60576309D01*
X167306348Y-60646963D01*
X167312611Y-60705895D01*
X167322167Y-60749241D01*
X167334295Y-60773140D01*
X167341513Y-60776600D01*
X167354942Y-60788263D01*
X167370016Y-60819592D01*
X167384888Y-60865092D01*
X167397713Y-60919269D01*
X167405508Y-60967100D01*
X167410690Y-61021386D01*
X167414850Y-61090489D01*
X167417436Y-61163828D01*
X167418007Y-61207130D01*
X167418400Y-61351910D01*
X167457161Y-61298401D01*
X167489314Y-61262109D01*
X167515341Y-61250103D01*
X167534839Y-61262396D01*
X167546647Y-61295090D01*
X167548422Y-61320065D01*
X167548491Y-61365957D01*
X167546975Y-61428349D01*
X167543994Y-61502826D01*
X167539669Y-61584971D01*
X167537998Y-61612514D01*
X167532902Y-61694378D01*
X167528368Y-61768274D01*
X167524635Y-61830231D01*
X167521941Y-61876274D01*
X167520524Y-61902431D01*
X167520370Y-61906302D01*
X167527933Y-61909764D01*
X167549122Y-61895768D01*
X167567625Y-61879228D01*
X167614459Y-61838293D01*
X167650597Y-61816465D01*
X167679805Y-61811969D01*
X167697650Y-61817919D01*
X167716214Y-61833148D01*
X167727541Y-61857396D01*
X167731933Y-61894282D01*
X167729689Y-61947424D01*
X167721110Y-62020439D01*
X167716897Y-62049795D01*
X167703553Y-62167011D01*
X167701521Y-62268964D01*
X167711239Y-62363344D01*
X167733148Y-62457843D01*
X167741832Y-62486329D01*
X167769476Y-62563064D01*
X167802708Y-62634673D01*
X167844080Y-62704803D01*
X167896144Y-62777104D01*
X167961451Y-62855223D01*
X168042554Y-62942811D01*
X168107352Y-63008961D01*
X168163670Y-63065153D01*
X168204845Y-63105061D01*
X168233397Y-63130648D01*
X168251849Y-63143881D01*
X168262723Y-63146724D01*
X168268539Y-63141144D01*
X168270299Y-63135961D01*
X168273268Y-63114201D01*
X168276747Y-63071788D01*
X168280433Y-63013455D01*
X168284022Y-62943937D01*
X168286739Y-62880337D01*
X168291785Y-62771982D01*
X168297930Y-62686003D01*
X168305690Y-62619382D01*
X168315585Y-62569101D01*
X168328132Y-62532145D01*
X168343847Y-62505494D01*
X168352770Y-62495375D01*
X168379692Y-62473794D01*
X168405078Y-62468533D01*
X168433876Y-62480799D01*
X168471031Y-62511798D01*
X168488006Y-62528377D01*
X168550683Y-62591054D01*
X168567479Y-62550602D01*
X168577641Y-62515630D01*
X168587993Y-62462435D01*
X168597576Y-62398166D01*
X168605430Y-62329975D01*
X168610599Y-62265012D01*
X168612164Y-62217302D01*
X168616243Y-62170658D01*
X168626927Y-62135406D01*
X168631250Y-62128402D01*
X168646670Y-62111535D01*
X168658213Y-62114837D01*
X168667993Y-62126547D01*
X168680676Y-62152847D01*
X168691581Y-62191926D01*
X168694474Y-62207937D01*
X168706188Y-62268289D01*
X168720411Y-62305986D01*
X168738416Y-62323744D01*
X168749847Y-62326000D01*
X168775661Y-62314925D01*
X168812973Y-62282117D01*
X168861229Y-62228199D01*
X168919871Y-62153795D01*
X168988343Y-62059527D01*
X168990664Y-62056227D01*
X169051561Y-61971748D01*
X169101527Y-61907599D01*
X169142200Y-61862037D01*
X169175217Y-61833316D01*
X169202215Y-61819695D01*
X169214318Y-61818000D01*
X169244299Y-61824845D01*
X169264409Y-61847742D01*
X169276911Y-61890233D01*
X169281330Y-61922905D01*
X169280232Y-61999658D01*
X169258942Y-62061519D01*
X169216688Y-62109965D01*
X169168120Y-62139657D01*
X169118010Y-62165765D01*
X169086909Y-62190260D01*
X169069689Y-62219437D01*
X169061220Y-62259588D01*
X169059825Y-62272538D01*
X169059269Y-62314135D01*
X169063867Y-62358866D01*
X169072166Y-62399575D01*
X169082711Y-62429104D01*
X169093890Y-62440300D01*
X169102147Y-62434262D01*
X169114768Y-62414724D01*
X169132801Y-62379546D01*
X169157293Y-62326588D01*
X169189290Y-62253712D01*
X169218161Y-62186300D01*
X169294588Y-62023884D01*
X169383311Y-61865038D01*
X169479205Y-61718601D01*
X169525217Y-61656676D01*
X169587412Y-61576146D01*
X169635730Y-61512245D01*
X169672281Y-61461863D01*
X169699175Y-61421892D01*
X169718521Y-61389221D01*
X169732429Y-61360744D01*
X169741289Y-61338248D01*
X169767077Y-61288795D01*
X169800289Y-61263538D01*
X169840727Y-61262569D01*
X169872612Y-61276038D01*
X169911759Y-61298506D01*
X169968024Y-61243928D01*
X170028885Y-61181697D01*
X170100191Y-61103455D01*
X170179356Y-61012477D01*
X170263795Y-60912036D01*
X170350920Y-60805406D01*
X170438147Y-60695862D01*
X170522889Y-60586675D01*
X170602560Y-60481122D01*
X170674576Y-60382475D01*
X170736349Y-60294009D01*
X170785293Y-60218997D01*
X170808615Y-60179700D01*
X170850912Y-60109322D01*
X170890454Y-60056309D01*
X170932880Y-60014054D01*
X170980750Y-59978023D01*
X171010117Y-59956545D01*
X171025218Y-59937193D01*
X171030783Y-59910312D01*
X171031550Y-59874353D01*
X171031550Y-59805050D01*
X171073429Y-59803780D01*
X171118039Y-59790541D01*
X171162883Y-59755876D01*
X171204131Y-59703432D01*
X171230616Y-59654151D01*
X171242674Y-59624962D01*
X171250810Y-59596724D01*
X171255696Y-59563648D01*
X171258002Y-59519945D01*
X171258402Y-59459828D01*
X171258052Y-59417700D01*
X171256395Y-59358163D01*
X171252846Y-59288396D01*
X171247816Y-59212837D01*
X171241710Y-59135923D01*
X171234937Y-59062094D01*
X171227904Y-58995789D01*
X171221020Y-58941446D01*
X171214692Y-58903502D01*
X171209327Y-58886398D01*
X171209237Y-58886303D01*
X171203856Y-58890719D01*
X171203000Y-58899826D01*
X171195312Y-58923989D01*
X171180775Y-58946319D01*
X171159440Y-58965558D01*
X171143066Y-58964615D01*
X171131000Y-58942230D01*
X171122588Y-58897144D01*
X171117177Y-58828097D01*
X171116939Y-58823287D01*
X171118071Y-58676584D01*
X171135412Y-58532662D01*
X171266500Y-58532662D01*
X171277013Y-58574102D01*
X171304845Y-58602973D01*
X171344432Y-58617730D01*
X171390208Y-58616830D01*
X171436610Y-58598729D01*
X171455547Y-58585123D01*
X171483014Y-58556559D01*
X171514832Y-58515650D01*
X171538363Y-58480348D01*
X171575529Y-58428775D01*
X171628748Y-58367295D01*
X171693280Y-58300587D01*
X171764385Y-58233332D01*
X171837321Y-58170209D01*
X171907351Y-58115900D01*
X171907850Y-58115540D01*
X171990276Y-58055767D01*
X172054230Y-58007944D01*
X172102043Y-57969448D01*
X172136046Y-57937655D01*
X172158571Y-57909944D01*
X172171948Y-57883691D01*
X172178510Y-57856274D01*
X172180588Y-57825069D01*
X172180679Y-57808605D01*
X172173068Y-57713364D01*
X172152267Y-57622641D01*
X172120280Y-57541493D01*
X172079113Y-57474976D01*
X172030772Y-57428148D01*
X172029401Y-57427214D01*
X171989382Y-57406644D01*
X171947567Y-57400389D01*
X171898506Y-57408863D01*
X171836750Y-57432486D01*
X171812346Y-57443825D01*
X171712300Y-57497277D01*
X171634796Y-57552155D01*
X171577038Y-57611619D01*
X171536225Y-57678834D01*
X171509561Y-57756961D01*
X171501706Y-57794943D01*
X171460951Y-57970578D01*
X171400568Y-58137286D01*
X171386355Y-58169375D01*
X171353641Y-58245467D01*
X171323751Y-58322998D01*
X171298431Y-58396680D01*
X171279424Y-58461226D01*
X171268476Y-58511346D01*
X171266500Y-58532662D01*
X171135412Y-58532662D01*
X171136110Y-58526869D01*
X171171839Y-58369856D01*
X171226039Y-58201259D01*
X171234728Y-58177605D01*
X171275425Y-58057236D01*
X171307652Y-57939060D01*
X171329397Y-57830912D01*
X171335425Y-57785750D01*
X171345593Y-57712107D01*
X171360075Y-57655813D01*
X171382038Y-57608842D01*
X171414646Y-57563169D01*
X171430644Y-57544305D01*
X171461999Y-57506123D01*
X171486357Y-57472105D01*
X171498741Y-57449241D01*
X171499020Y-57448279D01*
X171495419Y-57416542D01*
X171472465Y-57385920D01*
X171435812Y-57361999D01*
X171401169Y-57351558D01*
X171369570Y-57347443D01*
X171356946Y-57351682D01*
X171357202Y-57368540D01*
X171359717Y-57380562D01*
X171373487Y-57460352D01*
X171378086Y-57528414D01*
X171373446Y-57580485D01*
X171363246Y-57607447D01*
X171342711Y-57630489D01*
X171324106Y-57639700D01*
X171309136Y-57643046D01*
X171298240Y-57655873D01*
X171290005Y-57682359D01*
X171283015Y-57726687D01*
X171277368Y-57777829D01*
X171263832Y-57876253D01*
X171244906Y-57951242D01*
X171219611Y-58004375D01*
X171186972Y-58037230D01*
X171146013Y-58051388D01*
X171108663Y-58050606D01*
X171075005Y-58047728D01*
X171052388Y-58053751D01*
X171030622Y-58073149D01*
X171014730Y-58091858D01*
X170974313Y-58156326D01*
X170943384Y-58240772D01*
X170921512Y-58346652D01*
X170910615Y-58443163D01*
X170904771Y-58504726D01*
X170898051Y-58559701D01*
X170891351Y-58601497D01*
X170886364Y-58621677D01*
X170863890Y-58656152D01*
X170832835Y-58673582D01*
X170800125Y-58670232D01*
X170798179Y-58669245D01*
X170774219Y-58647978D01*
X170746005Y-58611099D01*
X170718575Y-58566638D01*
X170696966Y-58522622D01*
X170687057Y-58492160D01*
X170678837Y-58451064D01*
X170643660Y-58484766D01*
X170610215Y-58508674D01*
X170583263Y-58510463D01*
X170563861Y-58498197D01*
X170551451Y-58473382D01*
X170544824Y-58431808D01*
X170542773Y-58369315D01*
X170546322Y-58313479D01*
X170558177Y-58279214D01*
X170579691Y-58263660D01*
X170593563Y-58262000D01*
X170618500Y-58272366D01*
X170647462Y-58298693D01*
X170673957Y-58333819D01*
X170691212Y-58369690D01*
X170703293Y-58407531D01*
X170726160Y-58372632D01*
X170740326Y-58338631D01*
X170752674Y-58285163D01*
X170760900Y-58226842D01*
X170769145Y-58152426D01*
X170776120Y-58098828D01*
X170782911Y-58061574D01*
X170790605Y-58036191D01*
X170800286Y-58018205D01*
X170813041Y-58003143D01*
X170815914Y-58000231D01*
X170845714Y-57978997D01*
X170875470Y-57969905D01*
X170876032Y-57969900D01*
X170913023Y-57960054D01*
X170933140Y-57931543D01*
X170936494Y-57907034D01*
X170945017Y-57863159D01*
X170970511Y-57836725D01*
X171013815Y-57827327D01*
X171075768Y-57834561D01*
X171083345Y-57836259D01*
X171123651Y-57844714D01*
X171152755Y-57849103D01*
X171163238Y-57848795D01*
X171163833Y-57834813D01*
X171160973Y-57802232D01*
X171155260Y-57757526D01*
X171153817Y-57747629D01*
X171146552Y-57689850D01*
X171141399Y-57631826D01*
X171139500Y-57587235D01*
X171141773Y-57545504D01*
X171151436Y-57518066D01*
X171172750Y-57494005D01*
X171177600Y-57489675D01*
X171206066Y-57455779D01*
X171214509Y-57418020D01*
X171203843Y-57370200D01*
X171197610Y-57354290D01*
X171175509Y-57320313D01*
X171137924Y-57291113D01*
X171081517Y-57264695D01*
X171006317Y-57240031D01*
X170914645Y-57207898D01*
X170846900Y-57171285D01*
X170803456Y-57130474D01*
X170784691Y-57085745D01*
X170783900Y-57073935D01*
X170781575Y-57046488D01*
X170770657Y-57037731D01*
X170752908Y-57039546D01*
X170719681Y-57035491D01*
X170689408Y-57012962D01*
X170664622Y-56973910D01*
X170656025Y-56927173D01*
X170661329Y-56877454D01*
X170678244Y-56829454D01*
X170704482Y-56787875D01*
X170737753Y-56757417D01*
X170775768Y-56742784D01*
X170816240Y-56748675D01*
X170817749Y-56749345D01*
X170848047Y-56775361D01*
X170870463Y-56817209D01*
X170881172Y-56865647D01*
X170879602Y-56898803D01*
X170875970Y-56927425D01*
X170883518Y-56939000D01*
X170907572Y-56941198D01*
X170909038Y-56941200D01*
X170938188Y-56947567D01*
X170971689Y-56968833D01*
X171008779Y-57002253D01*
X171091327Y-57068860D01*
X171193799Y-57128759D01*
X171311261Y-57180457D01*
X171438777Y-57222459D01*
X171571414Y-57253274D01*
X171704236Y-57271407D01*
X171832309Y-57275365D01*
X171897288Y-57271131D01*
X171980460Y-57265168D01*
X172048926Y-57267706D01*
X172105224Y-57280986D01*
X172151891Y-57307250D01*
X172191463Y-57348739D01*
X172226476Y-57407696D01*
X172259467Y-57486362D01*
X172292972Y-57586979D01*
X172306858Y-57633100D01*
X172353891Y-57792511D01*
X172486470Y-57708720D01*
X172541012Y-57673475D01*
X172590381Y-57640165D01*
X172629012Y-57612634D01*
X172650800Y-57595238D01*
X172674195Y-57577778D01*
X172714526Y-57552099D01*
X172766159Y-57521636D01*
X172823462Y-57489827D01*
X172824288Y-57489383D01*
X172917966Y-57437636D01*
X173023118Y-57377201D01*
X173132427Y-57312452D01*
X173238572Y-57247766D01*
X173334234Y-57187517D01*
X173387400Y-57152759D01*
X173511206Y-57065800D01*
X173630221Y-56972579D01*
X173750758Y-56867903D01*
X173868337Y-56757103D01*
X174033036Y-56587183D01*
X174176832Y-56418450D01*
X174299292Y-56251748D01*
X174399980Y-56087923D01*
X174478465Y-55927822D01*
X174534313Y-55772290D01*
X174567090Y-55622172D01*
X174576363Y-55478316D01*
X174569595Y-55388670D01*
X174546051Y-55278710D01*
X174506627Y-55187327D01*
X174449657Y-55112049D01*
X174373475Y-55050403D01*
X174321840Y-55020933D01*
X174249700Y-54990506D01*
X174158901Y-54961780D01*
X174056183Y-54936535D01*
X173948286Y-54916552D01*
X173901750Y-54909991D01*
X173847851Y-54904625D01*
X173772357Y-54899222D01*
X173679072Y-54893924D01*
X173571800Y-54888869D01*
X173454347Y-54884198D01*
X173330516Y-54880052D01*
X173204111Y-54876570D01*
X173078936Y-54873893D01*
X172958797Y-54872161D01*
X172857953Y-54871526D01*
X172601556Y-54871100D01*
X172594667Y-54925075D01*
X172591816Y-54953308D01*
X172587653Y-55002429D01*
X172582524Y-55067978D01*
X172576771Y-55145496D01*
X172570740Y-55230525D01*
X172567953Y-55271150D01*
X172552483Y-55487445D01*
X172537079Y-55679616D01*
X172521761Y-55847490D01*
X172506549Y-55990893D01*
X172491465Y-56109653D01*
X172476529Y-56203596D01*
X172461761Y-56272549D01*
X172447183Y-56316339D01*
X172441961Y-56325946D01*
X172406773Y-56356836D01*
X172350564Y-56375290D01*
X172274655Y-56380956D01*
X172239486Y-56379591D01*
X172195573Y-56374968D01*
X172153241Y-56366105D01*
X172110355Y-56351576D01*
X172064778Y-56329954D01*
X172014375Y-56299811D01*
X171957012Y-56259722D01*
X171890552Y-56208259D01*
X171812860Y-56143995D01*
X171721800Y-56065504D01*
X171615238Y-55971358D01*
X171575718Y-55936085D01*
X171376297Y-55760174D01*
X171190831Y-55601857D01*
X171016855Y-55459347D01*
X170851902Y-55330861D01*
X170693507Y-55214612D01*
X170539205Y-55108816D01*
X170386530Y-55011687D01*
X170233016Y-54921440D01*
X170076198Y-54836290D01*
X170009200Y-54801842D01*
X169843166Y-54721852D01*
X169669220Y-54645533D01*
X169491946Y-54574525D01*
X169315928Y-54510467D01*
X169201368Y-54473127D01*
X169750157Y-54473127D01*
X170003503Y-54604451D01*
X170196238Y-54706975D01*
X170375929Y-54808421D01*
X170545837Y-54911151D01*
X170709223Y-55017526D01*
X170869347Y-55129908D01*
X171029470Y-55250660D01*
X171192851Y-55382141D01*
X171362751Y-55526716D01*
X171542431Y-55686744D01*
X171707504Y-55838752D01*
X171814786Y-55938141D01*
X171905851Y-56020959D01*
X171982400Y-56088641D01*
X172046131Y-56142619D01*
X172098745Y-56184328D01*
X172141942Y-56215200D01*
X172177422Y-56236670D01*
X172182534Y-56239348D01*
X172225267Y-56259306D01*
X172254831Y-56266711D01*
X172279425Y-56262744D01*
X172294974Y-56255520D01*
X172318027Y-56230075D01*
X172338801Y-56180153D01*
X172357206Y-56106584D01*
X172373149Y-56010196D01*
X172386537Y-55891820D01*
X172397279Y-55752284D01*
X172405282Y-55592417D01*
X172410455Y-55413049D01*
X172412705Y-55215009D01*
X172412764Y-55194950D01*
X172412750Y-55083078D01*
X172412043Y-54992967D01*
X172410472Y-54920983D01*
X172407866Y-54863492D01*
X172404057Y-54816859D01*
X172398874Y-54777452D01*
X172392147Y-54741635D01*
X172391407Y-54738220D01*
X172378709Y-54685825D01*
X172365275Y-54639242D01*
X172353671Y-54607217D01*
X172351926Y-54603580D01*
X172319969Y-54559881D01*
X172274963Y-54520090D01*
X172226132Y-54491479D01*
X172198436Y-54482628D01*
X172145767Y-54477952D01*
X172074868Y-54479084D01*
X171992088Y-54485443D01*
X171903779Y-54496449D01*
X171816295Y-54511520D01*
X171768150Y-54521963D01*
X171631567Y-54553292D01*
X171515468Y-54577576D01*
X171416086Y-54595323D01*
X171329655Y-54607042D01*
X171252407Y-54613241D01*
X171180576Y-54614427D01*
X171110395Y-54611110D01*
X171108481Y-54610962D01*
X170998001Y-54598089D01*
X170893346Y-54576194D01*
X170788986Y-54543415D01*
X170679392Y-54497894D01*
X170559034Y-54437768D01*
X170503358Y-54407387D01*
X170388515Y-54346470D01*
X170289900Y-54301873D01*
X170204310Y-54273556D01*
X170128543Y-54261478D01*
X170059398Y-54265600D01*
X169993670Y-54285883D01*
X169928159Y-54322286D01*
X169859662Y-54374769D01*
X169832053Y-54399039D01*
X169750157Y-54473127D01*
X169201368Y-54473127D01*
X169145750Y-54454999D01*
X168985998Y-54409760D01*
X168841255Y-54376391D01*
X168796350Y-54368053D01*
X168743771Y-54361456D01*
X168668670Y-54355587D01*
X168573914Y-54350454D01*
X168462371Y-54346065D01*
X168336908Y-54342425D01*
X168200394Y-54339543D01*
X168055695Y-54337426D01*
X167905678Y-54336080D01*
X167753213Y-54335512D01*
X167601165Y-54335730D01*
X167452403Y-54336742D01*
X167309794Y-54338553D01*
X167176205Y-54341171D01*
X167054505Y-54344603D01*
X166947561Y-54348857D01*
X166858239Y-54353939D01*
X166789409Y-54359856D01*
X166764350Y-54363016D01*
X166587257Y-54396400D01*
X166391889Y-54447311D01*
X166313431Y-54471071D01*
X166113795Y-54539051D01*
X165936581Y-54611193D01*
X165778946Y-54689015D01*
X165638052Y-54774033D01*
X165511056Y-54867764D01*
X165418969Y-54948705D01*
X165348151Y-55020738D01*
X165297486Y-55086301D01*
X165265013Y-55151167D01*
X165248771Y-55221109D01*
X165246801Y-55301898D01*
X165078402Y-55301898D01*
X165091722Y-55203593D01*
X165134904Y-55072444D01*
X165202958Y-54944840D01*
X165295772Y-54821143D01*
X165382914Y-54729862D01*
X165500702Y-54628173D01*
X165630840Y-54536784D01*
X165774618Y-54455306D01*
X165933332Y-54383346D01*
X166108273Y-54320515D01*
X166300735Y-54266421D01*
X166512010Y-54220673D01*
X166743392Y-54182880D01*
X166996173Y-54152652D01*
X167271646Y-54129597D01*
X167393000Y-54122039D01*
X167500130Y-54117071D01*
X167619699Y-54113397D01*
X167746776Y-54111017D01*
X167876433Y-54109931D01*
X168003739Y-54110139D01*
X168123766Y-54111642D01*
X168231582Y-54114440D01*
X168322259Y-54118533D01*
X168370900Y-54121994D01*
X168573351Y-54145572D01*
X168785417Y-54182247D01*
X169010040Y-54232650D01*
X169250162Y-54297413D01*
X169403943Y-54343752D01*
X169480715Y-54367439D01*
X169537708Y-54383063D01*
X169579422Y-54390025D01*
X169610358Y-54387725D01*
X169635013Y-54375565D01*
X169657890Y-54352945D01*
X169683486Y-54319268D01*
X169693605Y-54305196D01*
X169740881Y-54251351D01*
X169804463Y-54195600D01*
X169876552Y-54144043D01*
X169949347Y-54102781D01*
X169957086Y-54099122D01*
X170007183Y-54079398D01*
X170056704Y-54068240D01*
X170108765Y-54066339D01*
X170166482Y-54074387D01*
G36*
X166681441Y-59404264D02*
G01*
X166694114Y-59424389D01*
X166694500Y-59430281D01*
X166689184Y-59451487D01*
X166672033Y-59478549D01*
X166641237Y-59513356D01*
X166594989Y-59557795D01*
X166531480Y-59613756D01*
X166465900Y-59669029D01*
X166394429Y-59727892D01*
X166339471Y-59771551D01*
X166298497Y-59801611D01*
X166268977Y-59819678D01*
X166248381Y-59827355D01*
X166234180Y-59826249D01*
X166226489Y-59820909D01*
X166213383Y-59799310D01*
X166211900Y-59791207D01*
X166220010Y-59770668D01*
X166242017Y-59736113D01*
X166274435Y-59692048D01*
X166313777Y-59642976D01*
X166356558Y-59593404D01*
X166399291Y-59547835D01*
X166403554Y-59543545D01*
X166456600Y-59496109D01*
X166511567Y-59456567D01*
X166564993Y-59426264D01*
X166613421Y-59406549D01*
X166653390Y-59398767D01*
X166681441Y-59404264D01*
X166681441Y-59404264D01*
G37*
X166681441Y-59404264D02*
X166694114Y-59424389D01*
X166694500Y-59430281D01*
X166689184Y-59451487D01*
X166672033Y-59478549D01*
X166641237Y-59513356D01*
X166594989Y-59557795D01*
X166531480Y-59613756D01*
X166465900Y-59669029D01*
X166394429Y-59727892D01*
X166339471Y-59771551D01*
X166298497Y-59801611D01*
X166268977Y-59819678D01*
X166248381Y-59827355D01*
X166234180Y-59826249D01*
X166226489Y-59820909D01*
X166213383Y-59799310D01*
X166211900Y-59791207D01*
X166220010Y-59770668D01*
X166242017Y-59736113D01*
X166274435Y-59692048D01*
X166313777Y-59642976D01*
X166356558Y-59593404D01*
X166399291Y-59547835D01*
X166403554Y-59543545D01*
X166456600Y-59496109D01*
X166511567Y-59456567D01*
X166564993Y-59426264D01*
X166613421Y-59406549D01*
X166653390Y-59398767D01*
X166681441Y-59404264D01*
G36*
X168583239Y-61719734D02*
G01*
X168594533Y-61755260D01*
X168595444Y-61810959D01*
X168590174Y-61856592D01*
X168572393Y-61934405D01*
X168546411Y-61997676D01*
X168514152Y-62043893D01*
X168477537Y-62070544D01*
X168438491Y-62075116D01*
X168425705Y-62071471D01*
X168393625Y-62047133D01*
X168378467Y-62007995D01*
X168379487Y-61957504D01*
X168395940Y-61899109D01*
X168427084Y-61836260D01*
X168472172Y-61772405D01*
X168496148Y-61744975D01*
X168533138Y-61713512D01*
X168562471Y-61705458D01*
X168583239Y-61719734D01*
X168583239Y-61719734D01*
G37*
X168583239Y-61719734D02*
X168594533Y-61755260D01*
X168595444Y-61810959D01*
X168590174Y-61856592D01*
X168572393Y-61934405D01*
X168546411Y-61997676D01*
X168514152Y-62043893D01*
X168477537Y-62070544D01*
X168438491Y-62075116D01*
X168425705Y-62071471D01*
X168393625Y-62047133D01*
X168378467Y-62007995D01*
X168379487Y-61957504D01*
X168395940Y-61899109D01*
X168427084Y-61836260D01*
X168472172Y-61772405D01*
X168496148Y-61744975D01*
X168533138Y-61713512D01*
X168562471Y-61705458D01*
X168583239Y-61719734D01*
G36*
X167995238Y-60614406D02*
G01*
X168003646Y-60624200D01*
X168008889Y-60645588D01*
X168010885Y-60684207D01*
X168009950Y-60732138D01*
X168006400Y-60781464D01*
X168000553Y-60824266D01*
X167994701Y-60847751D01*
X167990840Y-60863757D01*
X168000011Y-60858933D01*
X168003270Y-60855975D01*
X168031843Y-60841268D01*
X168058141Y-60846118D01*
X168072381Y-60865284D01*
X168073898Y-60887801D01*
X168071745Y-60928977D01*
X168066393Y-60982408D01*
X168060484Y-61027209D01*
X168052430Y-61091475D01*
X168044276Y-61171899D01*
X168036859Y-61259253D01*
X168031018Y-61344312D01*
X168029910Y-61363980D01*
X168025259Y-61442781D01*
X168020613Y-61500169D01*
X168015378Y-61540126D01*
X168008958Y-61566633D01*
X168000760Y-61583670D01*
X167996244Y-61589405D01*
X167964020Y-61611745D01*
X167931933Y-61609279D01*
X167910820Y-61592575D01*
X167891356Y-61560874D01*
X167879068Y-61516475D01*
X167873677Y-61456362D01*
X167874908Y-61377522D01*
X167882154Y-61280426D01*
X167886351Y-61231365D01*
X167886922Y-61202328D01*
X167882938Y-61188084D01*
X167873469Y-61183399D01*
X167864838Y-61183000D01*
X167838665Y-61174094D01*
X167821803Y-61146037D01*
X167813414Y-61096820D01*
X167812100Y-61056299D01*
X167816954Y-60972521D01*
X167830459Y-60887832D01*
X167851025Y-60807026D01*
X167877065Y-60734896D01*
X167906988Y-60676236D01*
X167939206Y-60635842D01*
X167955293Y-60624200D01*
X167981020Y-60612363D01*
X167995238Y-60614406D01*
X167995238Y-60614406D01*
G37*
X167995238Y-60614406D02*
X168003646Y-60624200D01*
X168008889Y-60645588D01*
X168010885Y-60684207D01*
X168009950Y-60732138D01*
X168006400Y-60781464D01*
X168000553Y-60824266D01*
X167994701Y-60847751D01*
X167990840Y-60863757D01*
X168000011Y-60858933D01*
X168003270Y-60855975D01*
X168031843Y-60841268D01*
X168058141Y-60846118D01*
X168072381Y-60865284D01*
X168073898Y-60887801D01*
X168071745Y-60928977D01*
X168066393Y-60982408D01*
X168060484Y-61027209D01*
X168052430Y-61091475D01*
X168044276Y-61171899D01*
X168036859Y-61259253D01*
X168031018Y-61344312D01*
X168029910Y-61363980D01*
X168025259Y-61442781D01*
X168020613Y-61500169D01*
X168015378Y-61540126D01*
X168008958Y-61566633D01*
X168000760Y-61583670D01*
X167996244Y-61589405D01*
X167964020Y-61611745D01*
X167931933Y-61609279D01*
X167910820Y-61592575D01*
X167891356Y-61560874D01*
X167879068Y-61516475D01*
X167873677Y-61456362D01*
X167874908Y-61377522D01*
X167882154Y-61280426D01*
X167886351Y-61231365D01*
X167886922Y-61202328D01*
X167882938Y-61188084D01*
X167873469Y-61183399D01*
X167864838Y-61183000D01*
X167838665Y-61174094D01*
X167821803Y-61146037D01*
X167813414Y-61096820D01*
X167812100Y-61056299D01*
X167816954Y-60972521D01*
X167830459Y-60887832D01*
X167851025Y-60807026D01*
X167877065Y-60734896D01*
X167906988Y-60676236D01*
X167939206Y-60635842D01*
X167955293Y-60624200D01*
X167981020Y-60612363D01*
X167995238Y-60614406D01*
G36*
X169542794Y-60765734D02*
G01*
X169551467Y-60781549D01*
X169556338Y-60816440D01*
X169553565Y-60869906D01*
X169544275Y-60936682D01*
X169529590Y-61011506D01*
X169510637Y-61089111D01*
X169488541Y-61164236D01*
X169464425Y-61231616D01*
X169446679Y-61271900D01*
X169421613Y-61311138D01*
X169395838Y-61332216D01*
X169373085Y-61333714D01*
X169357089Y-61314216D01*
X169354805Y-61306797D01*
X169353177Y-61274558D01*
X169358063Y-61223376D01*
X169368291Y-61158520D01*
X169382690Y-61085257D01*
X169400090Y-61008855D01*
X169419321Y-60934582D01*
X169439211Y-60867706D01*
X169458591Y-60813494D01*
X169470065Y-60788109D01*
X169493562Y-60759515D01*
X169519802Y-60751896D01*
X169542794Y-60765734D01*
X169542794Y-60765734D01*
G37*
X169542794Y-60765734D02*
X169551467Y-60781549D01*
X169556338Y-60816440D01*
X169553565Y-60869906D01*
X169544275Y-60936682D01*
X169529590Y-61011506D01*
X169510637Y-61089111D01*
X169488541Y-61164236D01*
X169464425Y-61231616D01*
X169446679Y-61271900D01*
X169421613Y-61311138D01*
X169395838Y-61332216D01*
X169373085Y-61333714D01*
X169357089Y-61314216D01*
X169354805Y-61306797D01*
X169353177Y-61274558D01*
X169358063Y-61223376D01*
X169368291Y-61158520D01*
X169382690Y-61085257D01*
X169400090Y-61008855D01*
X169419321Y-60934582D01*
X169439211Y-60867706D01*
X169458591Y-60813494D01*
X169470065Y-60788109D01*
X169493562Y-60759515D01*
X169519802Y-60751896D01*
X169542794Y-60765734D01*
G36*
X170730974Y-59229969D02*
G01*
X170738802Y-59241304D01*
X170744484Y-59265746D01*
X170749234Y-59307836D01*
X170752663Y-59350357D01*
X170757000Y-59461763D01*
X170753791Y-59571174D01*
X170743755Y-59675511D01*
X170727609Y-59771693D01*
X170706073Y-59856639D01*
X170679864Y-59927269D01*
X170649701Y-59980502D01*
X170616303Y-60013257D01*
X170596113Y-60021580D01*
X170569238Y-60028582D01*
X170547505Y-60039319D01*
X170527559Y-60057629D01*
X170506044Y-60087350D01*
X170479604Y-60132321D01*
X170447377Y-60191713D01*
X170414136Y-60251588D01*
X170380578Y-60308059D01*
X170350698Y-60354631D01*
X170329157Y-60384021D01*
X170294052Y-60417471D01*
X170262758Y-60432436D01*
X170238992Y-60427794D01*
X170229479Y-60414095D01*
X170225571Y-60382731D01*
X170233225Y-60336648D01*
X170253016Y-60273611D01*
X170285521Y-60191388D01*
X170288968Y-60183256D01*
X170340973Y-60069919D01*
X170394197Y-59970410D01*
X170446923Y-59887420D01*
X170497432Y-59823639D01*
X170544005Y-59781755D01*
X170546492Y-59780092D01*
X170573248Y-59751869D01*
X170598638Y-59706080D01*
X170606258Y-59687411D01*
X170615181Y-59661519D01*
X170623718Y-59631525D01*
X170632533Y-59594094D01*
X170642287Y-59545891D01*
X170653644Y-59483581D01*
X170667265Y-59403829D01*
X170683813Y-59303300D01*
X170689466Y-59268475D01*
X170699684Y-59237397D01*
X170718360Y-59227229D01*
X170719790Y-59227200D01*
X170730974Y-59229969D01*
X170730974Y-59229969D01*
G37*
X170730974Y-59229969D02*
X170738802Y-59241304D01*
X170744484Y-59265746D01*
X170749234Y-59307836D01*
X170752663Y-59350357D01*
X170757000Y-59461763D01*
X170753791Y-59571174D01*
X170743755Y-59675511D01*
X170727609Y-59771693D01*
X170706073Y-59856639D01*
X170679864Y-59927269D01*
X170649701Y-59980502D01*
X170616303Y-60013257D01*
X170596113Y-60021580D01*
X170569238Y-60028582D01*
X170547505Y-60039319D01*
X170527559Y-60057629D01*
X170506044Y-60087350D01*
X170479604Y-60132321D01*
X170447377Y-60191713D01*
X170414136Y-60251588D01*
X170380578Y-60308059D01*
X170350698Y-60354631D01*
X170329157Y-60384021D01*
X170294052Y-60417471D01*
X170262758Y-60432436D01*
X170238992Y-60427794D01*
X170229479Y-60414095D01*
X170225571Y-60382731D01*
X170233225Y-60336648D01*
X170253016Y-60273611D01*
X170285521Y-60191388D01*
X170288968Y-60183256D01*
X170340973Y-60069919D01*
X170394197Y-59970410D01*
X170446923Y-59887420D01*
X170497432Y-59823639D01*
X170544005Y-59781755D01*
X170546492Y-59780092D01*
X170573248Y-59751869D01*
X170598638Y-59706080D01*
X170606258Y-59687411D01*
X170615181Y-59661519D01*
X170623718Y-59631525D01*
X170632533Y-59594094D01*
X170642287Y-59545891D01*
X170653644Y-59483581D01*
X170667265Y-59403829D01*
X170683813Y-59303300D01*
X170689466Y-59268475D01*
X170699684Y-59237397D01*
X170718360Y-59227229D01*
X170719790Y-59227200D01*
X170730974Y-59229969D01*
G36*
X167778071Y-59309984D02*
G01*
X167792898Y-59331549D01*
X167795036Y-59370812D01*
X167786868Y-59423240D01*
X167779504Y-59466593D01*
X167780365Y-59497194D01*
X167790491Y-59526656D01*
X167797431Y-59540841D01*
X167810840Y-59576354D01*
X167812285Y-59611775D01*
X167800392Y-59651767D01*
X167773787Y-59700993D01*
X167732051Y-59762780D01*
X167681249Y-59840107D01*
X167645173Y-59908383D01*
X167625344Y-59964464D01*
X167621878Y-59990819D01*
X167614852Y-60025086D01*
X167597717Y-60042998D01*
X167575358Y-60040790D01*
X167566294Y-60033680D01*
X167542152Y-59992131D01*
X167533691Y-59933203D01*
X167540779Y-59859395D01*
X167563288Y-59773206D01*
X167582571Y-59720487D01*
X167610974Y-59632530D01*
X167630456Y-59537332D01*
X167633337Y-59515198D01*
X167647041Y-59429570D01*
X167666496Y-59367296D01*
X167692567Y-59326804D01*
X167726116Y-59306522D01*
X167749712Y-59303400D01*
X167778071Y-59309984D01*
X167778071Y-59309984D01*
G37*
X167778071Y-59309984D02*
X167792898Y-59331549D01*
X167795036Y-59370812D01*
X167786868Y-59423240D01*
X167779504Y-59466593D01*
X167780365Y-59497194D01*
X167790491Y-59526656D01*
X167797431Y-59540841D01*
X167810840Y-59576354D01*
X167812285Y-59611775D01*
X167800392Y-59651767D01*
X167773787Y-59700993D01*
X167732051Y-59762780D01*
X167681249Y-59840107D01*
X167645173Y-59908383D01*
X167625344Y-59964464D01*
X167621878Y-59990819D01*
X167614852Y-60025086D01*
X167597717Y-60042998D01*
X167575358Y-60040790D01*
X167566294Y-60033680D01*
X167542152Y-59992131D01*
X167533691Y-59933203D01*
X167540779Y-59859395D01*
X167563288Y-59773206D01*
X167582571Y-59720487D01*
X167610974Y-59632530D01*
X167630456Y-59537332D01*
X167633337Y-59515198D01*
X167647041Y-59429570D01*
X167666496Y-59367296D01*
X167692567Y-59326804D01*
X167726116Y-59306522D01*
X167749712Y-59303400D01*
X167778071Y-59309984D01*
G36*
X170956942Y-59145622D02*
G01*
X170957552Y-59145988D01*
X170969856Y-59158194D01*
X170977582Y-59180357D01*
X170982025Y-59218074D01*
X170983994Y-59260288D01*
X170983193Y-59329568D01*
X170974554Y-59379211D01*
X170956567Y-59414180D01*
X170929831Y-59438073D01*
X170904049Y-59448332D01*
X170875865Y-59440524D01*
X170873684Y-59439444D01*
X170846619Y-59415872D01*
X170831553Y-59389376D01*
X170828013Y-59347498D01*
X170837826Y-59294411D01*
X170858377Y-59238660D01*
X170887053Y-59188790D01*
X170896725Y-59176400D01*
X170921973Y-59149531D01*
X170939802Y-59140393D01*
X170956942Y-59145622D01*
X170956942Y-59145622D01*
G37*
X170956942Y-59145622D02*
X170957552Y-59145988D01*
X170969856Y-59158194D01*
X170977582Y-59180357D01*
X170982025Y-59218074D01*
X170983994Y-59260288D01*
X170983193Y-59329568D01*
X170974554Y-59379211D01*
X170956567Y-59414180D01*
X170929831Y-59438073D01*
X170904049Y-59448332D01*
X170875865Y-59440524D01*
X170873684Y-59439444D01*
X170846619Y-59415872D01*
X170831553Y-59389376D01*
X170828013Y-59347498D01*
X170837826Y-59294411D01*
X170858377Y-59238660D01*
X170887053Y-59188790D01*
X170896725Y-59176400D01*
X170921973Y-59149531D01*
X170939802Y-59140393D01*
X170956942Y-59145622D01*
G36*
X168767510Y-59018087D02*
G01*
X168785821Y-59032823D01*
X168810458Y-59062133D01*
X168828068Y-59087451D01*
X168860487Y-59128885D01*
X168896033Y-59160561D01*
X168910265Y-59169016D01*
X168966129Y-59187393D01*
X169045389Y-59201012D01*
X169146463Y-59209726D01*
X169267770Y-59213388D01*
X169379803Y-59212550D01*
X169459256Y-59210708D01*
X169518127Y-59208668D01*
X169561229Y-59205681D01*
X169593375Y-59201000D01*
X169619376Y-59193875D01*
X169644046Y-59183558D01*
X169672195Y-59169302D01*
X169678223Y-59166144D01*
X169723168Y-59144129D01*
X169752009Y-59134506D01*
X169769947Y-59135839D01*
X169775470Y-59139312D01*
X169790724Y-59166956D01*
X169792212Y-59207089D01*
X169781827Y-59252200D01*
X169761463Y-59294782D01*
X169733014Y-59327325D01*
X169726959Y-59331682D01*
X169674510Y-59356537D01*
X169599400Y-59377926D01*
X169504212Y-59395222D01*
X169426829Y-59404577D01*
X169350290Y-59411572D01*
X169290278Y-59415048D01*
X169238164Y-59414987D01*
X169185316Y-59411367D01*
X169123106Y-59404171D01*
X169120969Y-59403895D01*
X169005435Y-59382333D01*
X168907110Y-59350249D01*
X168827885Y-59308599D01*
X168769650Y-59258339D01*
X168738507Y-59210541D01*
X168721862Y-59161000D01*
X168715112Y-59111925D01*
X168717504Y-59068308D01*
X168728286Y-59035138D01*
X168746707Y-59017407D01*
X168767510Y-59018087D01*
X168767510Y-59018087D01*
G37*
X168767510Y-59018087D02*
X168785821Y-59032823D01*
X168810458Y-59062133D01*
X168828068Y-59087451D01*
X168860487Y-59128885D01*
X168896033Y-59160561D01*
X168910265Y-59169016D01*
X168966129Y-59187393D01*
X169045389Y-59201012D01*
X169146463Y-59209726D01*
X169267770Y-59213388D01*
X169379803Y-59212550D01*
X169459256Y-59210708D01*
X169518127Y-59208668D01*
X169561229Y-59205681D01*
X169593375Y-59201000D01*
X169619376Y-59193875D01*
X169644046Y-59183558D01*
X169672195Y-59169302D01*
X169678223Y-59166144D01*
X169723168Y-59144129D01*
X169752009Y-59134506D01*
X169769947Y-59135839D01*
X169775470Y-59139312D01*
X169790724Y-59166956D01*
X169792212Y-59207089D01*
X169781827Y-59252200D01*
X169761463Y-59294782D01*
X169733014Y-59327325D01*
X169726959Y-59331682D01*
X169674510Y-59356537D01*
X169599400Y-59377926D01*
X169504212Y-59395222D01*
X169426829Y-59404577D01*
X169350290Y-59411572D01*
X169290278Y-59415048D01*
X169238164Y-59414987D01*
X169185316Y-59411367D01*
X169123106Y-59404171D01*
X169120969Y-59403895D01*
X169005435Y-59382333D01*
X168907110Y-59350249D01*
X168827885Y-59308599D01*
X168769650Y-59258339D01*
X168738507Y-59210541D01*
X168721862Y-59161000D01*
X168715112Y-59111925D01*
X168717504Y-59068308D01*
X168728286Y-59035138D01*
X168746707Y-59017407D01*
X168767510Y-59018087D01*
G36*
X170463888Y-58619264D02*
G01*
X170545237Y-58624249D01*
X170606207Y-58633644D01*
X170649232Y-58648246D01*
X170676746Y-58668855D01*
X170691180Y-58696269D01*
X170695000Y-58727916D01*
X170688173Y-58764352D01*
X170667226Y-58779883D01*
X170631453Y-58774927D01*
X170621736Y-58771216D01*
X170593787Y-58765746D01*
X170554224Y-58768652D01*
X170500950Y-58780528D01*
X170431870Y-58801969D01*
X170344889Y-58833567D01*
X170237910Y-58875916D01*
X170206050Y-58888972D01*
X170092293Y-58934310D01*
X169994852Y-58969299D01*
X169907685Y-58995651D01*
X169824752Y-59015074D01*
X169740011Y-59029279D01*
X169687083Y-59035865D01*
X169622489Y-59041097D01*
X169540820Y-59044763D01*
X169448404Y-59046865D01*
X169351567Y-59047403D01*
X169256639Y-59046378D01*
X169169946Y-59043791D01*
X169097816Y-59039642D01*
X169059149Y-59035779D01*
X168962783Y-59019352D01*
X168889630Y-58997504D01*
X168837867Y-58969094D01*
X168805672Y-58932983D01*
X168791220Y-58888029D01*
X168790672Y-58878768D01*
X168971447Y-58878768D01*
X168973804Y-58883741D01*
X168992099Y-58893233D01*
X169024207Y-58896624D01*
X169059332Y-58894094D01*
X169086675Y-58885825D01*
X169092260Y-58881759D01*
X169105157Y-58856441D01*
X169105847Y-58826636D01*
X169095337Y-58804969D01*
X169471384Y-58804969D01*
X169471654Y-58821468D01*
X169478630Y-58853763D01*
X169486510Y-58880999D01*
X169499416Y-58919040D01*
X169511304Y-58938733D01*
X169528644Y-58946002D01*
X169557907Y-58946769D01*
X169558350Y-58946763D01*
X169598246Y-58943077D01*
X169649874Y-58934229D01*
X169691639Y-58924708D01*
X169744547Y-58907583D01*
X169772457Y-58889749D01*
X169775771Y-58870610D01*
X169754892Y-58849570D01*
X169746037Y-58844001D01*
X169711430Y-58829032D01*
X169664607Y-58815825D01*
X169611947Y-58805289D01*
X169559828Y-58798328D01*
X169514626Y-58795849D01*
X169482719Y-58798759D01*
X169471384Y-58804969D01*
X169095337Y-58804969D01*
X169094878Y-58804023D01*
X169088421Y-58799981D01*
X169057330Y-58797782D01*
X169023647Y-58809267D01*
X168993813Y-58829730D01*
X168974266Y-58854466D01*
X168971447Y-58878768D01*
X168790672Y-58878768D01*
X168790000Y-58867441D01*
X168802424Y-58818883D01*
X168839392Y-58775098D01*
X168900448Y-58736370D01*
X168985136Y-58702984D01*
X169092999Y-58675224D01*
X169101150Y-58673550D01*
X169135307Y-58668830D01*
X169191653Y-58663662D01*
X169266983Y-58658190D01*
X169358092Y-58652555D01*
X169461776Y-58646899D01*
X169574829Y-58641363D01*
X169694049Y-58636090D01*
X169816229Y-58631220D01*
X169938165Y-58626896D01*
X170056653Y-58623259D01*
X170168488Y-58620451D01*
X170270465Y-58618615D01*
X170359379Y-58617890D01*
X170359729Y-58617890D01*
X170463888Y-58619264D01*
X170463888Y-58619264D01*
G37*
X170463888Y-58619264D02*
X170545237Y-58624249D01*
X170606207Y-58633644D01*
X170649232Y-58648246D01*
X170676746Y-58668855D01*
X170691180Y-58696269D01*
X170695000Y-58727916D01*
X170688173Y-58764352D01*
X170667226Y-58779883D01*
X170631453Y-58774927D01*
X170621736Y-58771216D01*
X170593787Y-58765746D01*
X170554224Y-58768652D01*
X170500950Y-58780528D01*
X170431870Y-58801969D01*
X170344889Y-58833567D01*
X170237910Y-58875916D01*
X170206050Y-58888972D01*
X170092293Y-58934310D01*
X169994852Y-58969299D01*
X169907685Y-58995651D01*
X169824752Y-59015074D01*
X169740011Y-59029279D01*
X169687083Y-59035865D01*
X169622489Y-59041097D01*
X169540820Y-59044763D01*
X169448404Y-59046865D01*
X169351567Y-59047403D01*
X169256639Y-59046378D01*
X169169946Y-59043791D01*
X169097816Y-59039642D01*
X169059149Y-59035779D01*
X168962783Y-59019352D01*
X168889630Y-58997504D01*
X168837867Y-58969094D01*
X168805672Y-58932983D01*
X168791220Y-58888029D01*
X168790672Y-58878768D01*
X168971447Y-58878768D01*
X168973804Y-58883741D01*
X168992099Y-58893233D01*
X169024207Y-58896624D01*
X169059332Y-58894094D01*
X169086675Y-58885825D01*
X169092260Y-58881759D01*
X169105157Y-58856441D01*
X169105847Y-58826636D01*
X169095337Y-58804969D01*
X169471384Y-58804969D01*
X169471654Y-58821468D01*
X169478630Y-58853763D01*
X169486510Y-58880999D01*
X169499416Y-58919040D01*
X169511304Y-58938733D01*
X169528644Y-58946002D01*
X169557907Y-58946769D01*
X169558350Y-58946763D01*
X169598246Y-58943077D01*
X169649874Y-58934229D01*
X169691639Y-58924708D01*
X169744547Y-58907583D01*
X169772457Y-58889749D01*
X169775771Y-58870610D01*
X169754892Y-58849570D01*
X169746037Y-58844001D01*
X169711430Y-58829032D01*
X169664607Y-58815825D01*
X169611947Y-58805289D01*
X169559828Y-58798328D01*
X169514626Y-58795849D01*
X169482719Y-58798759D01*
X169471384Y-58804969D01*
X169095337Y-58804969D01*
X169094878Y-58804023D01*
X169088421Y-58799981D01*
X169057330Y-58797782D01*
X169023647Y-58809267D01*
X168993813Y-58829730D01*
X168974266Y-58854466D01*
X168971447Y-58878768D01*
X168790672Y-58878768D01*
X168790000Y-58867441D01*
X168802424Y-58818883D01*
X168839392Y-58775098D01*
X168900448Y-58736370D01*
X168985136Y-58702984D01*
X169092999Y-58675224D01*
X169101150Y-58673550D01*
X169135307Y-58668830D01*
X169191653Y-58663662D01*
X169266983Y-58658190D01*
X169358092Y-58652555D01*
X169461776Y-58646899D01*
X169574829Y-58641363D01*
X169694049Y-58636090D01*
X169816229Y-58631220D01*
X169938165Y-58626896D01*
X170056653Y-58623259D01*
X170168488Y-58620451D01*
X170270465Y-58618615D01*
X170359379Y-58617890D01*
X170359729Y-58617890D01*
X170463888Y-58619264D01*
G36*
X170436748Y-57777311D02*
G01*
X170460835Y-57792967D01*
X170476322Y-57814198D01*
X170475495Y-57833716D01*
X170465938Y-57853292D01*
X170434619Y-57887812D01*
X170385262Y-57917016D01*
X170325091Y-57938239D01*
X170261330Y-57948814D01*
X170210545Y-57947554D01*
X170175848Y-57934568D01*
X170153816Y-57917515D01*
X170138824Y-57896932D01*
X170139784Y-57877878D01*
X170149776Y-57857907D01*
X170178833Y-57826637D01*
X170224128Y-57800679D01*
X170279113Y-57781401D01*
X170337243Y-57770170D01*
X170391970Y-57768350D01*
X170436748Y-57777311D01*
X170436748Y-57777311D01*
G37*
X170436748Y-57777311D02*
X170460835Y-57792967D01*
X170476322Y-57814198D01*
X170475495Y-57833716D01*
X170465938Y-57853292D01*
X170434619Y-57887812D01*
X170385262Y-57917016D01*
X170325091Y-57938239D01*
X170261330Y-57948814D01*
X170210545Y-57947554D01*
X170175848Y-57934568D01*
X170153816Y-57917515D01*
X170138824Y-57896932D01*
X170139784Y-57877878D01*
X170149776Y-57857907D01*
X170178833Y-57826637D01*
X170224128Y-57800679D01*
X170279113Y-57781401D01*
X170337243Y-57770170D01*
X170391970Y-57768350D01*
X170436748Y-57777311D01*
G36*
X169182454Y-57627488D02*
G01*
X169209935Y-57654297D01*
X169221692Y-57696281D01*
X169221800Y-57701278D01*
X169211881Y-57749386D01*
X169185881Y-57783724D01*
X169149429Y-57801736D01*
X169108156Y-57800863D01*
X169067694Y-57778550D01*
X169062472Y-57773627D01*
X169036779Y-57734078D01*
X169034377Y-57693339D01*
X169055436Y-57656422D01*
X169058416Y-57653526D01*
X169101419Y-57625561D01*
X169144524Y-57617396D01*
X169182454Y-57627488D01*
X169182454Y-57627488D01*
G37*
X169182454Y-57627488D02*
X169209935Y-57654297D01*
X169221692Y-57696281D01*
X169221800Y-57701278D01*
X169211881Y-57749386D01*
X169185881Y-57783724D01*
X169149429Y-57801736D01*
X169108156Y-57800863D01*
X169067694Y-57778550D01*
X169062472Y-57773627D01*
X169036779Y-57734078D01*
X169034377Y-57693339D01*
X169055436Y-57656422D01*
X169058416Y-57653526D01*
X169101419Y-57625561D01*
X169144524Y-57617396D01*
X169182454Y-57627488D01*
G36*
X167166839Y-55508527D02*
G01*
X167193707Y-55524346D01*
X167202500Y-55551279D01*
X167197508Y-55567548D01*
X167180927Y-55589416D01*
X167150347Y-55619288D01*
X167103359Y-55659567D01*
X167053275Y-55700150D01*
X166983975Y-55757056D01*
X166906295Y-55823395D01*
X166829839Y-55890831D01*
X166765512Y-55949807D01*
X166687042Y-56022496D01*
X166623731Y-56077912D01*
X166573425Y-56117366D01*
X166533971Y-56142169D01*
X166503216Y-56153636D01*
X166479006Y-56153077D01*
X166459187Y-56141805D01*
X166455739Y-56138559D01*
X166441715Y-56107632D01*
X166445383Y-56064777D01*
X166465879Y-56015412D01*
X166478652Y-55994973D01*
X166517867Y-55946321D01*
X166574051Y-55887866D01*
X166642712Y-55823390D01*
X166719360Y-55756677D01*
X166799503Y-55691508D01*
X166878650Y-55631669D01*
X166952308Y-55580940D01*
X167013689Y-55544324D01*
X167073206Y-55518382D01*
X167125464Y-55506495D01*
X167166839Y-55508527D01*
X167166839Y-55508527D01*
G37*
X167166839Y-55508527D02*
X167193707Y-55524346D01*
X167202500Y-55551279D01*
X167197508Y-55567548D01*
X167180927Y-55589416D01*
X167150347Y-55619288D01*
X167103359Y-55659567D01*
X167053275Y-55700150D01*
X166983975Y-55757056D01*
X166906295Y-55823395D01*
X166829839Y-55890831D01*
X166765512Y-55949807D01*
X166687042Y-56022496D01*
X166623731Y-56077912D01*
X166573425Y-56117366D01*
X166533971Y-56142169D01*
X166503216Y-56153636D01*
X166479006Y-56153077D01*
X166459187Y-56141805D01*
X166455739Y-56138559D01*
X166441715Y-56107632D01*
X166445383Y-56064777D01*
X166465879Y-56015412D01*
X166478652Y-55994973D01*
X166517867Y-55946321D01*
X166574051Y-55887866D01*
X166642712Y-55823390D01*
X166719360Y-55756677D01*
X166799503Y-55691508D01*
X166878650Y-55631669D01*
X166952308Y-55580940D01*
X167013689Y-55544324D01*
X167073206Y-55518382D01*
X167125464Y-55506495D01*
X167166839Y-55508527D01*
G36*
X166672444Y-55567611D02*
G01*
X166700961Y-55588061D01*
X166715295Y-55619764D01*
X166712798Y-55649454D01*
X166693241Y-55688799D01*
X166657239Y-55738524D01*
X166609075Y-55794322D01*
X166553029Y-55851889D01*
X166493382Y-55906919D01*
X166434414Y-55955106D01*
X166380408Y-55992146D01*
X166361630Y-56002632D01*
X166309462Y-56021548D01*
X166260284Y-56025609D01*
X166221176Y-56014727D01*
X166208402Y-56004551D01*
X166180140Y-55958809D01*
X166163494Y-55902429D01*
X166161100Y-55874020D01*
X166167819Y-55842017D01*
X166189812Y-55822667D01*
X166229830Y-55814820D01*
X166290623Y-55817322D01*
X166295328Y-55817812D01*
X166344671Y-55820564D01*
X166372121Y-55816558D01*
X166376778Y-55806672D01*
X166357746Y-55791785D01*
X166333572Y-55780395D01*
X166292544Y-55755169D01*
X166271152Y-55724019D01*
X166271964Y-55691074D01*
X166274568Y-55685454D01*
X166292626Y-55666654D01*
X166324614Y-55655683D01*
X166374050Y-55651931D01*
X166444449Y-55654788D01*
X166449408Y-55655155D01*
X166496972Y-55658314D01*
X166525407Y-55657813D01*
X166540897Y-55652118D01*
X166549623Y-55639692D01*
X166553861Y-55629219D01*
X166574216Y-55597135D01*
X166597338Y-55576034D01*
X166635863Y-55562305D01*
X166672444Y-55567611D01*
X166672444Y-55567611D01*
G37*
X166672444Y-55567611D02*
X166700961Y-55588061D01*
X166715295Y-55619764D01*
X166712798Y-55649454D01*
X166693241Y-55688799D01*
X166657239Y-55738524D01*
X166609075Y-55794322D01*
X166553029Y-55851889D01*
X166493382Y-55906919D01*
X166434414Y-55955106D01*
X166380408Y-55992146D01*
X166361630Y-56002632D01*
X166309462Y-56021548D01*
X166260284Y-56025609D01*
X166221176Y-56014727D01*
X166208402Y-56004551D01*
X166180140Y-55958809D01*
X166163494Y-55902429D01*
X166161100Y-55874020D01*
X166167819Y-55842017D01*
X166189812Y-55822667D01*
X166229830Y-55814820D01*
X166290623Y-55817322D01*
X166295328Y-55817812D01*
X166344671Y-55820564D01*
X166372121Y-55816558D01*
X166376778Y-55806672D01*
X166357746Y-55791785D01*
X166333572Y-55780395D01*
X166292544Y-55755169D01*
X166271152Y-55724019D01*
X166271964Y-55691074D01*
X166274568Y-55685454D01*
X166292626Y-55666654D01*
X166324614Y-55655683D01*
X166374050Y-55651931D01*
X166444449Y-55654788D01*
X166449408Y-55655155D01*
X166496972Y-55658314D01*
X166525407Y-55657813D01*
X166540897Y-55652118D01*
X166549623Y-55639692D01*
X166553861Y-55629219D01*
X166574216Y-55597135D01*
X166597338Y-55576034D01*
X166635863Y-55562305D01*
X166672444Y-55567611D01*
G36*
X172048013Y-57597254D02*
G01*
X172083450Y-57614912D01*
X172100882Y-57642040D01*
X172100080Y-57669076D01*
X172078665Y-57706219D01*
X172037176Y-57728334D01*
X171976185Y-57735195D01*
X171940050Y-57732993D01*
X171895394Y-57729466D01*
X171867143Y-57731683D01*
X171846621Y-57741355D01*
X171831119Y-57754498D01*
X171803879Y-57790294D01*
X171786790Y-57839065D01*
X171778850Y-57904897D01*
X171778344Y-57969900D01*
X171776999Y-58027427D01*
X171771201Y-58084754D01*
X171762762Y-58127179D01*
X171740757Y-58179773D01*
X171709874Y-58223407D01*
X171674203Y-58255116D01*
X171637837Y-58271939D01*
X171604867Y-58270912D01*
X171584505Y-58256259D01*
X171576679Y-58241982D01*
X171575766Y-58222621D01*
X171582874Y-58193932D01*
X171599112Y-58151672D01*
X171625588Y-58091599D01*
X171630144Y-58081594D01*
X171656853Y-58016845D01*
X171668811Y-57970593D01*
X171666081Y-57940702D01*
X171648724Y-57925036D01*
X171634800Y-57921894D01*
X171571279Y-57909742D01*
X171530421Y-57889426D01*
X171510482Y-57859818D01*
X171507800Y-57839658D01*
X171518159Y-57812507D01*
X171546066Y-57777489D01*
X171586765Y-57738888D01*
X171635497Y-57700988D01*
X171687507Y-57668074D01*
X171712758Y-57655059D01*
X171790218Y-57623632D01*
X171865674Y-57602254D01*
X171935925Y-57590809D01*
X171997772Y-57589181D01*
X172048013Y-57597254D01*
X172048013Y-57597254D01*
G37*
X172048013Y-57597254D02*
X172083450Y-57614912D01*
X172100882Y-57642040D01*
X172100080Y-57669076D01*
X172078665Y-57706219D01*
X172037176Y-57728334D01*
X171976185Y-57735195D01*
X171940050Y-57732993D01*
X171895394Y-57729466D01*
X171867143Y-57731683D01*
X171846621Y-57741355D01*
X171831119Y-57754498D01*
X171803879Y-57790294D01*
X171786790Y-57839065D01*
X171778850Y-57904897D01*
X171778344Y-57969900D01*
X171776999Y-58027427D01*
X171771201Y-58084754D01*
X171762762Y-58127179D01*
X171740757Y-58179773D01*
X171709874Y-58223407D01*
X171674203Y-58255116D01*
X171637837Y-58271939D01*
X171604867Y-58270912D01*
X171584505Y-58256259D01*
X171576679Y-58241982D01*
X171575766Y-58222621D01*
X171582874Y-58193932D01*
X171599112Y-58151672D01*
X171625588Y-58091599D01*
X171630144Y-58081594D01*
X171656853Y-58016845D01*
X171668811Y-57970593D01*
X171666081Y-57940702D01*
X171648724Y-57925036D01*
X171634800Y-57921894D01*
X171571279Y-57909742D01*
X171530421Y-57889426D01*
X171510482Y-57859818D01*
X171507800Y-57839658D01*
X171518159Y-57812507D01*
X171546066Y-57777489D01*
X171586765Y-57738888D01*
X171635497Y-57700988D01*
X171687507Y-57668074D01*
X171712758Y-57655059D01*
X171790218Y-57623632D01*
X171865674Y-57602254D01*
X171935925Y-57590809D01*
X171997772Y-57589181D01*
X172048013Y-57597254D01*
D11*
G36*
X151949504Y-104076204D02*
G01*
X151973773Y-104079804D01*
X151997571Y-104085765D01*
X152020671Y-104094030D01*
X152042849Y-104104520D01*
X152063893Y-104117133D01*
X152083598Y-104131747D01*
X152101777Y-104148223D01*
X152118253Y-104166402D01*
X152132867Y-104186107D01*
X152145480Y-104207151D01*
X152155970Y-104229329D01*
X152164235Y-104252429D01*
X152170196Y-104276227D01*
X152173796Y-104300496D01*
X152175000Y-104325000D01*
X152175000Y-105075000D01*
X152173796Y-105099504D01*
X152170196Y-105123773D01*
X152164235Y-105147571D01*
X152155970Y-105170671D01*
X152145480Y-105192849D01*
X152132867Y-105213893D01*
X152118253Y-105233598D01*
X152101777Y-105251777D01*
X152083598Y-105268253D01*
X152063893Y-105282867D01*
X152042849Y-105295480D01*
X152020671Y-105305970D01*
X151997571Y-105314235D01*
X151973773Y-105320196D01*
X151949504Y-105323796D01*
X151925000Y-105325000D01*
X150675000Y-105325000D01*
X150650496Y-105323796D01*
X150626227Y-105320196D01*
X150602429Y-105314235D01*
X150579329Y-105305970D01*
X150557151Y-105295480D01*
X150536107Y-105282867D01*
X150516402Y-105268253D01*
X150498223Y-105251777D01*
X150481747Y-105233598D01*
X150467133Y-105213893D01*
X150454520Y-105192849D01*
X150444030Y-105170671D01*
X150435765Y-105147571D01*
X150429804Y-105123773D01*
X150426204Y-105099504D01*
X150425000Y-105075000D01*
X150425000Y-104325000D01*
X150426204Y-104300496D01*
X150429804Y-104276227D01*
X150435765Y-104252429D01*
X150444030Y-104229329D01*
X150454520Y-104207151D01*
X150467133Y-104186107D01*
X150481747Y-104166402D01*
X150498223Y-104148223D01*
X150516402Y-104131747D01*
X150536107Y-104117133D01*
X150557151Y-104104520D01*
X150579329Y-104094030D01*
X150602429Y-104085765D01*
X150626227Y-104079804D01*
X150650496Y-104076204D01*
X150675000Y-104075000D01*
X151925000Y-104075000D01*
X151949504Y-104076204D01*
X151949504Y-104076204D01*
G37*
D12*
X151300000Y-104700000D03*
D11*
G36*
X151949504Y-101276204D02*
G01*
X151973773Y-101279804D01*
X151997571Y-101285765D01*
X152020671Y-101294030D01*
X152042849Y-101304520D01*
X152063893Y-101317133D01*
X152083598Y-101331747D01*
X152101777Y-101348223D01*
X152118253Y-101366402D01*
X152132867Y-101386107D01*
X152145480Y-101407151D01*
X152155970Y-101429329D01*
X152164235Y-101452429D01*
X152170196Y-101476227D01*
X152173796Y-101500496D01*
X152175000Y-101525000D01*
X152175000Y-102275000D01*
X152173796Y-102299504D01*
X152170196Y-102323773D01*
X152164235Y-102347571D01*
X152155970Y-102370671D01*
X152145480Y-102392849D01*
X152132867Y-102413893D01*
X152118253Y-102433598D01*
X152101777Y-102451777D01*
X152083598Y-102468253D01*
X152063893Y-102482867D01*
X152042849Y-102495480D01*
X152020671Y-102505970D01*
X151997571Y-102514235D01*
X151973773Y-102520196D01*
X151949504Y-102523796D01*
X151925000Y-102525000D01*
X150675000Y-102525000D01*
X150650496Y-102523796D01*
X150626227Y-102520196D01*
X150602429Y-102514235D01*
X150579329Y-102505970D01*
X150557151Y-102495480D01*
X150536107Y-102482867D01*
X150516402Y-102468253D01*
X150498223Y-102451777D01*
X150481747Y-102433598D01*
X150467133Y-102413893D01*
X150454520Y-102392849D01*
X150444030Y-102370671D01*
X150435765Y-102347571D01*
X150429804Y-102323773D01*
X150426204Y-102299504D01*
X150425000Y-102275000D01*
X150425000Y-101525000D01*
X150426204Y-101500496D01*
X150429804Y-101476227D01*
X150435765Y-101452429D01*
X150444030Y-101429329D01*
X150454520Y-101407151D01*
X150467133Y-101386107D01*
X150481747Y-101366402D01*
X150498223Y-101348223D01*
X150516402Y-101331747D01*
X150536107Y-101317133D01*
X150557151Y-101304520D01*
X150579329Y-101294030D01*
X150602429Y-101285765D01*
X150626227Y-101279804D01*
X150650496Y-101276204D01*
X150675000Y-101275000D01*
X151925000Y-101275000D01*
X151949504Y-101276204D01*
X151949504Y-101276204D01*
G37*
D12*
X151300000Y-101900000D03*
D11*
G36*
X121049504Y-100476204D02*
G01*
X121073773Y-100479804D01*
X121097571Y-100485765D01*
X121120671Y-100494030D01*
X121142849Y-100504520D01*
X121163893Y-100517133D01*
X121183598Y-100531747D01*
X121201777Y-100548223D01*
X121218253Y-100566402D01*
X121232867Y-100586107D01*
X121245480Y-100607151D01*
X121255970Y-100629329D01*
X121264235Y-100652429D01*
X121270196Y-100676227D01*
X121273796Y-100700496D01*
X121275000Y-100725000D01*
X121275000Y-101475000D01*
X121273796Y-101499504D01*
X121270196Y-101523773D01*
X121264235Y-101547571D01*
X121255970Y-101570671D01*
X121245480Y-101592849D01*
X121232867Y-101613893D01*
X121218253Y-101633598D01*
X121201777Y-101651777D01*
X121183598Y-101668253D01*
X121163893Y-101682867D01*
X121142849Y-101695480D01*
X121120671Y-101705970D01*
X121097571Y-101714235D01*
X121073773Y-101720196D01*
X121049504Y-101723796D01*
X121025000Y-101725000D01*
X119775000Y-101725000D01*
X119750496Y-101723796D01*
X119726227Y-101720196D01*
X119702429Y-101714235D01*
X119679329Y-101705970D01*
X119657151Y-101695480D01*
X119636107Y-101682867D01*
X119616402Y-101668253D01*
X119598223Y-101651777D01*
X119581747Y-101633598D01*
X119567133Y-101613893D01*
X119554520Y-101592849D01*
X119544030Y-101570671D01*
X119535765Y-101547571D01*
X119529804Y-101523773D01*
X119526204Y-101499504D01*
X119525000Y-101475000D01*
X119525000Y-100725000D01*
X119526204Y-100700496D01*
X119529804Y-100676227D01*
X119535765Y-100652429D01*
X119544030Y-100629329D01*
X119554520Y-100607151D01*
X119567133Y-100586107D01*
X119581747Y-100566402D01*
X119598223Y-100548223D01*
X119616402Y-100531747D01*
X119636107Y-100517133D01*
X119657151Y-100504520D01*
X119679329Y-100494030D01*
X119702429Y-100485765D01*
X119726227Y-100479804D01*
X119750496Y-100476204D01*
X119775000Y-100475000D01*
X121025000Y-100475000D01*
X121049504Y-100476204D01*
X121049504Y-100476204D01*
G37*
D12*
X120400000Y-101100000D03*
D11*
G36*
X121049504Y-103276204D02*
G01*
X121073773Y-103279804D01*
X121097571Y-103285765D01*
X121120671Y-103294030D01*
X121142849Y-103304520D01*
X121163893Y-103317133D01*
X121183598Y-103331747D01*
X121201777Y-103348223D01*
X121218253Y-103366402D01*
X121232867Y-103386107D01*
X121245480Y-103407151D01*
X121255970Y-103429329D01*
X121264235Y-103452429D01*
X121270196Y-103476227D01*
X121273796Y-103500496D01*
X121275000Y-103525000D01*
X121275000Y-104275000D01*
X121273796Y-104299504D01*
X121270196Y-104323773D01*
X121264235Y-104347571D01*
X121255970Y-104370671D01*
X121245480Y-104392849D01*
X121232867Y-104413893D01*
X121218253Y-104433598D01*
X121201777Y-104451777D01*
X121183598Y-104468253D01*
X121163893Y-104482867D01*
X121142849Y-104495480D01*
X121120671Y-104505970D01*
X121097571Y-104514235D01*
X121073773Y-104520196D01*
X121049504Y-104523796D01*
X121025000Y-104525000D01*
X119775000Y-104525000D01*
X119750496Y-104523796D01*
X119726227Y-104520196D01*
X119702429Y-104514235D01*
X119679329Y-104505970D01*
X119657151Y-104495480D01*
X119636107Y-104482867D01*
X119616402Y-104468253D01*
X119598223Y-104451777D01*
X119581747Y-104433598D01*
X119567133Y-104413893D01*
X119554520Y-104392849D01*
X119544030Y-104370671D01*
X119535765Y-104347571D01*
X119529804Y-104323773D01*
X119526204Y-104299504D01*
X119525000Y-104275000D01*
X119525000Y-103525000D01*
X119526204Y-103500496D01*
X119529804Y-103476227D01*
X119535765Y-103452429D01*
X119544030Y-103429329D01*
X119554520Y-103407151D01*
X119567133Y-103386107D01*
X119581747Y-103366402D01*
X119598223Y-103348223D01*
X119616402Y-103331747D01*
X119636107Y-103317133D01*
X119657151Y-103304520D01*
X119679329Y-103294030D01*
X119702429Y-103285765D01*
X119726227Y-103279804D01*
X119750496Y-103276204D01*
X119775000Y-103275000D01*
X121025000Y-103275000D01*
X121049504Y-103276204D01*
X121049504Y-103276204D01*
G37*
D12*
X120400000Y-103900000D03*
D13*
X117160000Y-128450000D03*
X117160000Y-133500000D03*
X119700000Y-128450000D03*
X119700000Y-133500000D03*
X122240000Y-128450000D03*
X122240000Y-133500000D03*
D11*
G36*
X148992642Y-108801174D02*
G01*
X149016303Y-108804684D01*
X149039507Y-108810496D01*
X149062029Y-108818554D01*
X149083653Y-108828782D01*
X149104170Y-108841079D01*
X149123383Y-108855329D01*
X149141107Y-108871393D01*
X149157171Y-108889117D01*
X149171421Y-108908330D01*
X149183718Y-108928847D01*
X149193946Y-108950471D01*
X149202004Y-108972993D01*
X149207816Y-108996197D01*
X149211326Y-109019858D01*
X149212500Y-109043750D01*
X149212500Y-109956250D01*
X149211326Y-109980142D01*
X149207816Y-110003803D01*
X149202004Y-110027007D01*
X149193946Y-110049529D01*
X149183718Y-110071153D01*
X149171421Y-110091670D01*
X149157171Y-110110883D01*
X149141107Y-110128607D01*
X149123383Y-110144671D01*
X149104170Y-110158921D01*
X149083653Y-110171218D01*
X149062029Y-110181446D01*
X149039507Y-110189504D01*
X149016303Y-110195316D01*
X148992642Y-110198826D01*
X148968750Y-110200000D01*
X148481250Y-110200000D01*
X148457358Y-110198826D01*
X148433697Y-110195316D01*
X148410493Y-110189504D01*
X148387971Y-110181446D01*
X148366347Y-110171218D01*
X148345830Y-110158921D01*
X148326617Y-110144671D01*
X148308893Y-110128607D01*
X148292829Y-110110883D01*
X148278579Y-110091670D01*
X148266282Y-110071153D01*
X148256054Y-110049529D01*
X148247996Y-110027007D01*
X148242184Y-110003803D01*
X148238674Y-109980142D01*
X148237500Y-109956250D01*
X148237500Y-109043750D01*
X148238674Y-109019858D01*
X148242184Y-108996197D01*
X148247996Y-108972993D01*
X148256054Y-108950471D01*
X148266282Y-108928847D01*
X148278579Y-108908330D01*
X148292829Y-108889117D01*
X148308893Y-108871393D01*
X148326617Y-108855329D01*
X148345830Y-108841079D01*
X148366347Y-108828782D01*
X148387971Y-108818554D01*
X148410493Y-108810496D01*
X148433697Y-108804684D01*
X148457358Y-108801174D01*
X148481250Y-108800000D01*
X148968750Y-108800000D01*
X148992642Y-108801174D01*
X148992642Y-108801174D01*
G37*
D14*
X148725000Y-109500000D03*
D11*
G36*
X150867642Y-108801174D02*
G01*
X150891303Y-108804684D01*
X150914507Y-108810496D01*
X150937029Y-108818554D01*
X150958653Y-108828782D01*
X150979170Y-108841079D01*
X150998383Y-108855329D01*
X151016107Y-108871393D01*
X151032171Y-108889117D01*
X151046421Y-108908330D01*
X151058718Y-108928847D01*
X151068946Y-108950471D01*
X151077004Y-108972993D01*
X151082816Y-108996197D01*
X151086326Y-109019858D01*
X151087500Y-109043750D01*
X151087500Y-109956250D01*
X151086326Y-109980142D01*
X151082816Y-110003803D01*
X151077004Y-110027007D01*
X151068946Y-110049529D01*
X151058718Y-110071153D01*
X151046421Y-110091670D01*
X151032171Y-110110883D01*
X151016107Y-110128607D01*
X150998383Y-110144671D01*
X150979170Y-110158921D01*
X150958653Y-110171218D01*
X150937029Y-110181446D01*
X150914507Y-110189504D01*
X150891303Y-110195316D01*
X150867642Y-110198826D01*
X150843750Y-110200000D01*
X150356250Y-110200000D01*
X150332358Y-110198826D01*
X150308697Y-110195316D01*
X150285493Y-110189504D01*
X150262971Y-110181446D01*
X150241347Y-110171218D01*
X150220830Y-110158921D01*
X150201617Y-110144671D01*
X150183893Y-110128607D01*
X150167829Y-110110883D01*
X150153579Y-110091670D01*
X150141282Y-110071153D01*
X150131054Y-110049529D01*
X150122996Y-110027007D01*
X150117184Y-110003803D01*
X150113674Y-109980142D01*
X150112500Y-109956250D01*
X150112500Y-109043750D01*
X150113674Y-109019858D01*
X150117184Y-108996197D01*
X150122996Y-108972993D01*
X150131054Y-108950471D01*
X150141282Y-108928847D01*
X150153579Y-108908330D01*
X150167829Y-108889117D01*
X150183893Y-108871393D01*
X150201617Y-108855329D01*
X150220830Y-108841079D01*
X150241347Y-108828782D01*
X150262971Y-108818554D01*
X150285493Y-108810496D01*
X150308697Y-108804684D01*
X150332358Y-108801174D01*
X150356250Y-108800000D01*
X150843750Y-108800000D01*
X150867642Y-108801174D01*
X150867642Y-108801174D01*
G37*
D14*
X150600000Y-109500000D03*
D11*
G36*
X118167642Y-106701174D02*
G01*
X118191303Y-106704684D01*
X118214507Y-106710496D01*
X118237029Y-106718554D01*
X118258653Y-106728782D01*
X118279170Y-106741079D01*
X118298383Y-106755329D01*
X118316107Y-106771393D01*
X118332171Y-106789117D01*
X118346421Y-106808330D01*
X118358718Y-106828847D01*
X118368946Y-106850471D01*
X118377004Y-106872993D01*
X118382816Y-106896197D01*
X118386326Y-106919858D01*
X118387500Y-106943750D01*
X118387500Y-107856250D01*
X118386326Y-107880142D01*
X118382816Y-107903803D01*
X118377004Y-107927007D01*
X118368946Y-107949529D01*
X118358718Y-107971153D01*
X118346421Y-107991670D01*
X118332171Y-108010883D01*
X118316107Y-108028607D01*
X118298383Y-108044671D01*
X118279170Y-108058921D01*
X118258653Y-108071218D01*
X118237029Y-108081446D01*
X118214507Y-108089504D01*
X118191303Y-108095316D01*
X118167642Y-108098826D01*
X118143750Y-108100000D01*
X117656250Y-108100000D01*
X117632358Y-108098826D01*
X117608697Y-108095316D01*
X117585493Y-108089504D01*
X117562971Y-108081446D01*
X117541347Y-108071218D01*
X117520830Y-108058921D01*
X117501617Y-108044671D01*
X117483893Y-108028607D01*
X117467829Y-108010883D01*
X117453579Y-107991670D01*
X117441282Y-107971153D01*
X117431054Y-107949529D01*
X117422996Y-107927007D01*
X117417184Y-107903803D01*
X117413674Y-107880142D01*
X117412500Y-107856250D01*
X117412500Y-106943750D01*
X117413674Y-106919858D01*
X117417184Y-106896197D01*
X117422996Y-106872993D01*
X117431054Y-106850471D01*
X117441282Y-106828847D01*
X117453579Y-106808330D01*
X117467829Y-106789117D01*
X117483893Y-106771393D01*
X117501617Y-106755329D01*
X117520830Y-106741079D01*
X117541347Y-106728782D01*
X117562971Y-106718554D01*
X117585493Y-106710496D01*
X117608697Y-106704684D01*
X117632358Y-106701174D01*
X117656250Y-106700000D01*
X118143750Y-106700000D01*
X118167642Y-106701174D01*
X118167642Y-106701174D01*
G37*
D14*
X117900000Y-107400000D03*
D11*
G36*
X116292642Y-106701174D02*
G01*
X116316303Y-106704684D01*
X116339507Y-106710496D01*
X116362029Y-106718554D01*
X116383653Y-106728782D01*
X116404170Y-106741079D01*
X116423383Y-106755329D01*
X116441107Y-106771393D01*
X116457171Y-106789117D01*
X116471421Y-106808330D01*
X116483718Y-106828847D01*
X116493946Y-106850471D01*
X116502004Y-106872993D01*
X116507816Y-106896197D01*
X116511326Y-106919858D01*
X116512500Y-106943750D01*
X116512500Y-107856250D01*
X116511326Y-107880142D01*
X116507816Y-107903803D01*
X116502004Y-107927007D01*
X116493946Y-107949529D01*
X116483718Y-107971153D01*
X116471421Y-107991670D01*
X116457171Y-108010883D01*
X116441107Y-108028607D01*
X116423383Y-108044671D01*
X116404170Y-108058921D01*
X116383653Y-108071218D01*
X116362029Y-108081446D01*
X116339507Y-108089504D01*
X116316303Y-108095316D01*
X116292642Y-108098826D01*
X116268750Y-108100000D01*
X115781250Y-108100000D01*
X115757358Y-108098826D01*
X115733697Y-108095316D01*
X115710493Y-108089504D01*
X115687971Y-108081446D01*
X115666347Y-108071218D01*
X115645830Y-108058921D01*
X115626617Y-108044671D01*
X115608893Y-108028607D01*
X115592829Y-108010883D01*
X115578579Y-107991670D01*
X115566282Y-107971153D01*
X115556054Y-107949529D01*
X115547996Y-107927007D01*
X115542184Y-107903803D01*
X115538674Y-107880142D01*
X115537500Y-107856250D01*
X115537500Y-106943750D01*
X115538674Y-106919858D01*
X115542184Y-106896197D01*
X115547996Y-106872993D01*
X115556054Y-106850471D01*
X115566282Y-106828847D01*
X115578579Y-106808330D01*
X115592829Y-106789117D01*
X115608893Y-106771393D01*
X115626617Y-106755329D01*
X115645830Y-106741079D01*
X115666347Y-106728782D01*
X115687971Y-106718554D01*
X115710493Y-106710496D01*
X115733697Y-106704684D01*
X115757358Y-106701174D01*
X115781250Y-106700000D01*
X116268750Y-106700000D01*
X116292642Y-106701174D01*
X116292642Y-106701174D01*
G37*
D14*
X116025000Y-107400000D03*
D15*
X94400000Y-102000000D03*
X94400000Y-109600000D03*
X96700000Y-109610000D03*
X96700000Y-102000000D03*
D16*
X97675000Y-103550000D03*
X97675000Y-105050000D03*
X97675000Y-108050000D03*
D17*
X151300000Y-104700000D02*
X151300000Y-108800000D01*
X151300000Y-108800000D02*
X150500000Y-109600000D01*
X97675000Y-108050000D02*
X101950000Y-108050000D01*
X101950000Y-108050000D02*
X112900000Y-97100000D01*
X112900000Y-97100000D02*
X117900000Y-97100000D01*
X117900000Y-97100000D02*
X120400000Y-99600000D01*
X120400000Y-99600000D02*
X120400000Y-101300000D01*
X120400000Y-99600000D02*
X150200000Y-99600000D01*
X150200000Y-99600000D02*
X151200000Y-100600000D01*
X151200000Y-100600000D02*
X151200000Y-101900000D01*
X120400000Y-103900000D02*
X120400000Y-105800000D01*
X120400000Y-105800000D02*
X120400000Y-106600000D01*
X120400000Y-106600000D02*
X119600000Y-107400000D01*
X119600000Y-107400000D02*
X118100000Y-107400000D01*
X95924999Y-108072003D02*
X97800000Y-106197002D01*
X95924999Y-110270001D02*
X95924999Y-108072003D01*
X117160000Y-128450000D02*
X114104998Y-128450000D01*
X114104998Y-128450000D02*
X95924999Y-110270001D01*
X97800000Y-106197002D02*
X97800000Y-105200000D01*
X97800000Y-105200000D02*
X97700000Y-105100000D01*
X148725000Y-109500000D02*
X122100000Y-109500000D01*
X117985001Y-113614999D02*
X117985001Y-132714999D01*
X122100000Y-109500000D02*
X117985001Y-113614999D01*
X117985001Y-132714999D02*
X117100000Y-133600000D01*
X116025000Y-111654998D02*
X117985001Y-113614999D01*
X116025000Y-107400000D02*
X116025000Y-111654998D01*
M02*
