G04 #@! TF.GenerationSoftware,KiCad,Pcbnew,5.1.2*
G04 #@! TF.CreationDate,2019-07-03T09:18:27-05:00*
G04 #@! TF.ProjectId,matrix-pills,6d617472-6978-42d7-9069-6c6c732e6b69,rev?*
G04 #@! TF.SameCoordinates,Original*
G04 #@! TF.FileFunction,Profile,NP*
%FSLAX46Y46*%
G04 Gerber Fmt 4.6, Leading zero omitted, Abs format (unit mm)*
G04 Created by KiCad (PCBNEW 5.1.2) date 2019-07-03 09:18:27*
%MOMM*%
%LPD*%
G04 APERTURE LIST*
%ADD10C,0.100000*%
G04 APERTURE END LIST*
D10*
X119686701Y-144958613D02*
X119452219Y-144832577D01*
X119452219Y-144832577D02*
X119218215Y-144689282D01*
X119218215Y-144689282D02*
X118753935Y-144353455D01*
X118753935Y-144353455D02*
X118298443Y-143956201D01*
X118298443Y-143956201D02*
X117856323Y-143502591D01*
X117856323Y-143502591D02*
X117432157Y-142997697D01*
X117432157Y-142997697D02*
X117030527Y-142446588D01*
X117030527Y-142446588D02*
X116656016Y-141854334D01*
X116656016Y-141854334D02*
X116313208Y-141226008D01*
X116313208Y-141226008D02*
X116034863Y-140708329D01*
X116034863Y-140708329D02*
X115936943Y-140550849D01*
X115936943Y-140550849D02*
X115885253Y-140493009D01*
X115885253Y-140493009D02*
X115843613Y-140530529D01*
X115843613Y-140530529D02*
X115773073Y-140632690D01*
X115773073Y-140632690D02*
X115584723Y-140968521D01*
X115584723Y-140968521D02*
X115444885Y-141206197D01*
X115444885Y-141206197D02*
X115269846Y-141441981D01*
X115269846Y-141441981D02*
X115062332Y-141673480D01*
X115062332Y-141673480D02*
X114825068Y-141898298D01*
X114825068Y-141898298D02*
X114560780Y-142114042D01*
X114560780Y-142114042D02*
X114272194Y-142318318D01*
X114272194Y-142318318D02*
X113962035Y-142508730D01*
X113962035Y-142508730D02*
X113633030Y-142682885D01*
X113633030Y-142682885D02*
X113201450Y-142873897D01*
X113201450Y-142873897D02*
X113001807Y-142939667D01*
X113001807Y-142939667D02*
X112792815Y-142989567D01*
X112792815Y-142989567D02*
X112559392Y-143026557D01*
X112559392Y-143026557D02*
X112286453Y-143053597D01*
X112286453Y-143053597D02*
X111561689Y-143089697D01*
X111561689Y-143089697D02*
X111053800Y-143094497D01*
X111053800Y-143094497D02*
X110569207Y-143073097D01*
X110569207Y-143073097D02*
X110107632Y-143025337D01*
X110107632Y-143025337D02*
X109668798Y-142951047D01*
X109668798Y-142951047D02*
X109252417Y-142850086D01*
X109252417Y-142850086D02*
X108858231Y-142722271D01*
X108858231Y-142722271D02*
X108485952Y-142567453D01*
X108485952Y-142567453D02*
X108135303Y-142385472D01*
X108135303Y-142385472D02*
X107806006Y-142176168D01*
X107806006Y-142176168D02*
X107497783Y-141939382D01*
X107497783Y-141939382D02*
X107210357Y-141674954D01*
X107210357Y-141674954D02*
X106943450Y-141382725D01*
X106943450Y-141382725D02*
X106696784Y-141062533D01*
X106696784Y-141062533D02*
X106470082Y-140714220D01*
X106470082Y-140714220D02*
X106263065Y-140337625D01*
X106263065Y-140337625D02*
X106075457Y-139932590D01*
X106075457Y-139932590D02*
X105679080Y-138908024D01*
X105679080Y-138908024D02*
X105025200Y-137120292D01*
X105025200Y-137120292D02*
X104204208Y-134819944D01*
X104204208Y-134819944D02*
X103306498Y-132257533D01*
X103306498Y-132257533D02*
X103128408Y-131781599D01*
X103128408Y-131781599D02*
X102911321Y-131258191D01*
X102911321Y-131258191D02*
X102427160Y-130205717D01*
X102427160Y-130205717D02*
X102193589Y-129745035D01*
X102193589Y-129745035D02*
X101988025Y-129373644D01*
X101988025Y-129373644D02*
X101827222Y-129125735D01*
X101827222Y-129125735D02*
X101768842Y-129058775D01*
X101768842Y-129058775D02*
X101727932Y-129035505D01*
X101727932Y-129035505D02*
X101638442Y-129061765D01*
X101638442Y-129061765D02*
X101499596Y-129133275D01*
X101499596Y-129133275D02*
X101149734Y-129368359D01*
X101149734Y-129368359D02*
X100915831Y-129533663D01*
X100915831Y-129533663D02*
X100680713Y-129672021D01*
X100680713Y-129672021D02*
X100438984Y-129785039D01*
X100438984Y-129785039D02*
X100185250Y-129874329D01*
X100185250Y-129874329D02*
X99914115Y-129941499D01*
X99914115Y-129941499D02*
X99620184Y-129988149D01*
X99620184Y-129988149D02*
X99298063Y-130015889D01*
X99298063Y-130015889D02*
X98942356Y-130026339D01*
X98942356Y-130026339D02*
X98382800Y-130006009D01*
X98382800Y-130006009D02*
X97842950Y-129939729D01*
X97842950Y-129939729D02*
X97330027Y-129830179D01*
X97330027Y-129830179D02*
X96851257Y-129680019D01*
X96851257Y-129680019D02*
X96413863Y-129491916D01*
X96413863Y-129491916D02*
X96025068Y-129268537D01*
X96025068Y-129268537D02*
X95851153Y-129144452D01*
X95851153Y-129144452D02*
X95692096Y-129012547D01*
X95692096Y-129012547D02*
X95548801Y-128873156D01*
X95548801Y-128873156D02*
X95422171Y-128726612D01*
X95422171Y-128726612D02*
X95266548Y-128479958D01*
X95266548Y-128479958D02*
X95133923Y-128157516D01*
X95133923Y-128157516D02*
X95022291Y-127745641D01*
X95022291Y-127745641D02*
X94929651Y-127230687D01*
X94929651Y-127230687D02*
X94854001Y-126599008D01*
X94854001Y-126599008D02*
X94793331Y-125836959D01*
X94793331Y-125836959D02*
X94745651Y-124930894D01*
X94745651Y-124930894D02*
X94708951Y-123867168D01*
X94708951Y-123867168D02*
X94668001Y-122640592D01*
X94668001Y-122640592D02*
X94615791Y-121619321D01*
X94615791Y-121619321D02*
X94546471Y-120766274D01*
X94546471Y-120766274D02*
X94454171Y-120044371D01*
X94454171Y-120044371D02*
X94333022Y-119416533D01*
X94333022Y-119416533D02*
X94177174Y-118845679D01*
X94177174Y-118845679D02*
X93980756Y-118294728D01*
X93980756Y-118294728D02*
X93737904Y-117726600D01*
X93737904Y-117726600D02*
X93301790Y-116727695D01*
X93301790Y-116727695D02*
X93024553Y-116021265D01*
X93024553Y-116021265D02*
X92967464Y-115753404D01*
X92967464Y-115753404D02*
X92921535Y-115356085D01*
X92921535Y-115356085D02*
X92887812Y-114871146D01*
X92887812Y-114871146D02*
X92867342Y-114340425D01*
X92867342Y-114340425D02*
X92861172Y-113805759D01*
X92861172Y-113805759D02*
X92870342Y-113308985D01*
X92870342Y-113308985D02*
X92895907Y-112891942D01*
X92895907Y-112891942D02*
X92938910Y-112596466D01*
X92938910Y-112596466D02*
X93210197Y-111413352D01*
X93210197Y-111413352D02*
X93590027Y-109773998D01*
X93590027Y-109773998D02*
X93921837Y-108486707D01*
X93921837Y-108486707D02*
X93992596Y-108188676D01*
X93992596Y-108188676D02*
X94053874Y-107863343D01*
X94053874Y-107863343D02*
X94147994Y-107142865D01*
X94147994Y-107142865D02*
X94204215Y-106349462D01*
X94204215Y-106349462D02*
X94222554Y-105507326D01*
X94222554Y-105507326D02*
X94203031Y-104640648D01*
X94203031Y-104640648D02*
X94145658Y-103773617D01*
X94145658Y-103773617D02*
X94050455Y-102930424D01*
X94050455Y-102930424D02*
X93917440Y-102135260D01*
X93917440Y-102135260D02*
X93794557Y-101414057D01*
X93794557Y-101414057D02*
X93693788Y-100615242D01*
X93693788Y-100615242D02*
X93616858Y-99776480D01*
X93616858Y-99776480D02*
X93565494Y-98935438D01*
X93565494Y-98935438D02*
X93541421Y-98129781D01*
X93541421Y-98129781D02*
X93546362Y-97397176D01*
X93546362Y-97397176D02*
X93582048Y-96775288D01*
X93582048Y-96775288D02*
X93650200Y-96301784D01*
X93650200Y-96301784D02*
X93790852Y-95794236D01*
X93790852Y-95794236D02*
X94006251Y-95221486D01*
X94006251Y-95221486D02*
X94301706Y-94573829D01*
X94301706Y-94573829D02*
X94682521Y-93841557D01*
X94682521Y-93841557D02*
X95154005Y-93014964D01*
X95154005Y-93014964D02*
X95721464Y-92084345D01*
X95721464Y-92084345D02*
X96390205Y-91039993D01*
X96390205Y-91039993D02*
X97165535Y-89872202D01*
X97165535Y-89872202D02*
X99412434Y-86526786D01*
X99412434Y-86526786D02*
X99565738Y-86252595D01*
X99565738Y-86252595D02*
X99767491Y-85846022D01*
X99767491Y-85846022D02*
X100272693Y-84735429D01*
X100272693Y-84735429D02*
X100840751Y-83394405D01*
X100840751Y-83394405D02*
X101384373Y-82022349D01*
X101384373Y-82022349D02*
X101563633Y-81579445D01*
X101563633Y-81579445D02*
X101774831Y-81104126D01*
X101774831Y-81104126D02*
X102246724Y-80144783D01*
X102246724Y-80144783D02*
X102484262Y-79705026D01*
X102484262Y-79705026D02*
X102707422Y-79321392D01*
X102707422Y-79321392D02*
X102904626Y-79016013D01*
X102904626Y-79016013D02*
X103064294Y-78811025D01*
X103064294Y-78811025D02*
X103386827Y-78464080D01*
X103386827Y-78464080D02*
X103071662Y-77627913D01*
X103071662Y-77627913D02*
X102662763Y-76452041D01*
X102662763Y-76452041D02*
X102122255Y-74799136D01*
X102122255Y-74799136D02*
X101413058Y-72629100D01*
X101413058Y-72629100D02*
X101085585Y-71682290D01*
X101085585Y-71682290D02*
X100769286Y-70814287D01*
X100769286Y-70814287D02*
X100458982Y-70015093D01*
X100458982Y-70015093D02*
X100149491Y-69274708D01*
X100149491Y-69274708D02*
X99835632Y-68583136D01*
X99835632Y-68583136D02*
X99512226Y-67930376D01*
X99512226Y-67930376D02*
X99174089Y-67306431D01*
X99174089Y-67306431D02*
X98816043Y-66701301D01*
X98816043Y-66701301D02*
X98432906Y-66104989D01*
X98432906Y-66104989D02*
X98019497Y-65507496D01*
X98019497Y-65507496D02*
X97570635Y-64898823D01*
X97570635Y-64898823D02*
X97081140Y-64268973D01*
X97081140Y-64268973D02*
X95959524Y-62905742D01*
X95959524Y-62905742D02*
X94753460Y-61461901D01*
X94753460Y-61461901D02*
X93774617Y-60255447D01*
X93774617Y-60255447D02*
X93050504Y-59320961D01*
X93050504Y-59320961D02*
X92608627Y-58693025D01*
X92608627Y-58693025D02*
X92403922Y-58340427D01*
X92403922Y-58340427D02*
X92208609Y-57951146D01*
X92208609Y-57951146D02*
X92026805Y-57536702D01*
X92026805Y-57536702D02*
X91862623Y-57108612D01*
X91862623Y-57108612D02*
X91720181Y-56678397D01*
X91720181Y-56678397D02*
X91603591Y-56257575D01*
X91603591Y-56257575D02*
X91516970Y-55857665D01*
X91516970Y-55857665D02*
X91464433Y-55490187D01*
X91464433Y-55490187D02*
X91421793Y-55141687D01*
X91421793Y-55141687D02*
X91368582Y-54833148D01*
X91368582Y-54833148D02*
X91311589Y-54598049D01*
X91311589Y-54598049D02*
X91257602Y-54469868D01*
X91257602Y-54469868D02*
X91202886Y-54379163D01*
X91202886Y-54379163D02*
X91180336Y-54288938D01*
X91180336Y-54288938D02*
X91188516Y-54201404D01*
X91188516Y-54201404D02*
X91225986Y-54118774D01*
X91225986Y-54118774D02*
X91291309Y-54043259D01*
X91291309Y-54043259D02*
X91383048Y-53977071D01*
X91383048Y-53977071D02*
X91499766Y-53922422D01*
X91499766Y-53922422D02*
X91640024Y-53881524D01*
X91640024Y-53881524D02*
X91828766Y-53821158D01*
X91828766Y-53821158D02*
X92070186Y-53716639D01*
X92070186Y-53716639D02*
X92333219Y-53582656D01*
X92333219Y-53582656D02*
X92586799Y-53433897D01*
X92586799Y-53433897D02*
X93012910Y-53174937D01*
X93012910Y-53174937D02*
X93225481Y-53067228D01*
X93225481Y-53067228D02*
X93354763Y-53022050D01*
X93354763Y-53022050D02*
X93627458Y-52901162D01*
X93627458Y-52901162D02*
X94424254Y-52520128D01*
X94424254Y-52520128D02*
X95258201Y-52099871D01*
X95258201Y-52099871D02*
X95771628Y-51816139D01*
X95771628Y-51816139D02*
X96122450Y-51626243D01*
X96122450Y-51626243D02*
X96528707Y-51462885D01*
X96528707Y-51462885D02*
X96765385Y-51365243D01*
X96765385Y-51365243D02*
X97080306Y-51206162D01*
X97080306Y-51206162D02*
X97432393Y-51007663D01*
X97432393Y-51007663D02*
X97780570Y-50791773D01*
X97780570Y-50791773D02*
X98439453Y-50375388D01*
X98439453Y-50375388D02*
X98891562Y-50113847D01*
X98891562Y-50113847D02*
X99319474Y-49934138D01*
X99319474Y-49934138D02*
X99928040Y-49712910D01*
X99928040Y-49712910D02*
X100546033Y-49509449D01*
X100546033Y-49509449D02*
X101002230Y-49383042D01*
X101002230Y-49383042D02*
X101211561Y-49319258D01*
X101211561Y-49319258D02*
X101551365Y-49194848D01*
X101551365Y-49194848D02*
X102434419Y-48835961D01*
X102434419Y-48835961D02*
X103318526Y-48469485D01*
X103318526Y-48469485D02*
X103685970Y-48336656D01*
X103685970Y-48336656D02*
X104058426Y-48222023D01*
X104058426Y-48222023D02*
X104476957Y-48114028D01*
X104476957Y-48114028D02*
X104982628Y-48001113D01*
X104982628Y-48001113D02*
X106419639Y-47714294D01*
X106419639Y-47714294D02*
X108028128Y-47386539D01*
X108028128Y-47386539D02*
X109097209Y-47142652D01*
X109097209Y-47142652D02*
X110056300Y-46898073D01*
X110056300Y-46898073D02*
X110516918Y-46750106D01*
X110516918Y-46750106D02*
X111239412Y-46479200D01*
X111239412Y-46479200D02*
X111677250Y-46336104D01*
X111677250Y-46336104D02*
X112221916Y-46205069D01*
X112221916Y-46205069D02*
X112845956Y-46089507D01*
X112845956Y-46089507D02*
X113521916Y-45992830D01*
X113521916Y-45992830D02*
X114222343Y-45918450D01*
X114222343Y-45918450D02*
X114919782Y-45869779D01*
X114919782Y-45869779D02*
X115586780Y-45850228D01*
X115586780Y-45850228D02*
X116195884Y-45863210D01*
X116195884Y-45863210D02*
X116624794Y-45894119D01*
X116624794Y-45894119D02*
X116870076Y-45941845D01*
X116870076Y-45941845D02*
X116939486Y-45977730D01*
X116939486Y-45977730D02*
X116981746Y-46024678D01*
X116981746Y-46024678D02*
X117003106Y-46084977D01*
X117003106Y-46084977D02*
X117009806Y-46160911D01*
X117009806Y-46160911D02*
X117032226Y-46288821D01*
X117032226Y-46288821D02*
X117089916Y-46448861D01*
X117089916Y-46448861D02*
X117174146Y-46620598D01*
X117174146Y-46620598D02*
X117276198Y-46783603D01*
X117276198Y-46783603D02*
X117429131Y-47015119D01*
X117429131Y-47015119D02*
X117597921Y-47301542D01*
X117597921Y-47301542D02*
X117976896Y-48026548D01*
X117976896Y-48026548D02*
X118400767Y-48933505D01*
X118400767Y-48933505D02*
X118857180Y-49997298D01*
X118857180Y-49997298D02*
X119103880Y-50569384D01*
X119103880Y-50569384D02*
X119367442Y-51139408D01*
X119367442Y-51139408D02*
X119616309Y-51641353D01*
X119616309Y-51641353D02*
X119818924Y-52009204D01*
X119818924Y-52009204D02*
X120275564Y-52701273D01*
X120275564Y-52701273D02*
X120944559Y-53654774D01*
X120944559Y-53654774D02*
X121624087Y-54587423D01*
X121624087Y-54587423D02*
X122112325Y-55216936D01*
X122112325Y-55216936D02*
X122243631Y-55388464D01*
X122243631Y-55388464D02*
X122298241Y-55492822D01*
X122298241Y-55492822D02*
X122404629Y-55700493D01*
X122404629Y-55700493D02*
X122660411Y-56120426D01*
X122660411Y-56120426D02*
X122835861Y-56420171D01*
X122835861Y-56420171D02*
X123017157Y-56777467D01*
X123017157Y-56777467D02*
X123207592Y-57200742D01*
X123207592Y-57200742D02*
X123410463Y-57698425D01*
X123410463Y-57698425D02*
X123866686Y-58950723D01*
X123866686Y-58950723D02*
X124412182Y-60601787D01*
X124412182Y-60601787D02*
X124712778Y-61483576D01*
X124712778Y-61483576D02*
X125060197Y-62411483D01*
X125060197Y-62411483D02*
X125411414Y-63275174D01*
X125411414Y-63275174D02*
X125723407Y-63964318D01*
X125723407Y-63964318D02*
X126080980Y-64665899D01*
X126080980Y-64665899D02*
X126430652Y-65284324D01*
X126430652Y-65284324D02*
X126804356Y-65859326D01*
X126804356Y-65859326D02*
X127234023Y-66430642D01*
X127234023Y-66430642D02*
X127751587Y-67038005D01*
X127751587Y-67038005D02*
X128388979Y-67721151D01*
X128388979Y-67721151D02*
X129178133Y-68519815D01*
X129178133Y-68519815D02*
X130150980Y-69473732D01*
X130150980Y-69473732D02*
X130625511Y-69949408D01*
X130625511Y-69949408D02*
X131031105Y-70389745D01*
X131031105Y-70389745D02*
X131374417Y-70804787D01*
X131374417Y-70804787D02*
X131662105Y-71204579D01*
X131662105Y-71204579D02*
X131900824Y-71599165D01*
X131900824Y-71599165D02*
X132097231Y-71998590D01*
X132097231Y-71998590D02*
X132257981Y-72412898D01*
X132257981Y-72412898D02*
X132389731Y-72852134D01*
X132389731Y-72852134D02*
X132582807Y-73488830D01*
X132582807Y-73488830D02*
X132819546Y-74085151D01*
X132819546Y-74085151D02*
X133108736Y-74660675D01*
X133108736Y-74660675D02*
X133459164Y-75234984D01*
X133459164Y-75234984D02*
X133585305Y-75440555D01*
X133585305Y-75440555D02*
X133707373Y-75669773D01*
X133707373Y-75669773D02*
X133939019Y-76198090D01*
X133939019Y-76198090D02*
X134153572Y-76817806D01*
X134153572Y-76817806D02*
X134350498Y-77526792D01*
X134350498Y-77526792D02*
X134529269Y-78322918D01*
X134529269Y-78322918D02*
X134689350Y-79204056D01*
X134689350Y-79204056D02*
X134830212Y-80168077D01*
X134830212Y-80168077D02*
X134951322Y-81212852D01*
X134951322Y-81212852D02*
X135129809Y-82874226D01*
X135129809Y-82874226D02*
X135192419Y-83345428D01*
X135192419Y-83345428D02*
X135242389Y-83592847D01*
X135242389Y-83592847D02*
X135263829Y-83636357D01*
X135263829Y-83636357D02*
X135283549Y-83628357D01*
X135283549Y-83628357D02*
X135319729Y-83463921D01*
X135319729Y-83463921D02*
X135392489Y-82582742D01*
X135392489Y-82582742D02*
X135447509Y-81910391D01*
X135447509Y-81910391D02*
X135524839Y-81202530D01*
X135524839Y-81202530D02*
X135620679Y-80481883D01*
X135620679Y-80481883D02*
X135731233Y-79771174D01*
X135731233Y-79771174D02*
X135852704Y-79093126D01*
X135852704Y-79093126D02*
X135981296Y-78470464D01*
X135981296Y-78470464D02*
X136113213Y-77925911D01*
X136113213Y-77925911D02*
X136244657Y-77482191D01*
X136244657Y-77482191D02*
X136375822Y-77138840D01*
X136375822Y-77138840D02*
X136545869Y-76759332D01*
X136545869Y-76759332D02*
X136732812Y-76389796D01*
X136732812Y-76389796D02*
X136914667Y-76076362D01*
X136914667Y-76076362D02*
X137171814Y-75651921D01*
X137171814Y-75651921D02*
X137366824Y-75237384D01*
X137366824Y-75237384D02*
X137574335Y-74646274D01*
X137574335Y-74646274D02*
X137868986Y-73692115D01*
X137868986Y-73692115D02*
X138016103Y-73254800D01*
X138016103Y-73254800D02*
X138189798Y-72845903D01*
X138189798Y-72845903D02*
X138405985Y-72443035D01*
X138405985Y-72443035D02*
X138680579Y-72023805D01*
X138680579Y-72023805D02*
X139029496Y-71565825D01*
X139029496Y-71565825D02*
X139468648Y-71046703D01*
X139468648Y-71046703D02*
X140013951Y-70444049D01*
X140013951Y-70444049D02*
X140681319Y-69735475D01*
X140681319Y-69735475D02*
X141542877Y-68799551D01*
X141542877Y-68799551D02*
X141922067Y-68357646D01*
X141922067Y-68357646D02*
X142270673Y-67926171D01*
X142270673Y-67926171D02*
X142591553Y-67499918D01*
X142591553Y-67499918D02*
X142887564Y-67073680D01*
X142887564Y-67073680D02*
X143161561Y-66642251D01*
X143161561Y-66642251D02*
X143416401Y-66200423D01*
X143416401Y-66200423D02*
X143654943Y-65742990D01*
X143654943Y-65742990D02*
X143880042Y-65264744D01*
X143880042Y-65264744D02*
X144094555Y-64760479D01*
X144094555Y-64760479D02*
X144301339Y-64224987D01*
X144301339Y-64224987D02*
X144503252Y-63653062D01*
X144503252Y-63653062D02*
X144703149Y-63039497D01*
X144703149Y-63039497D02*
X145108324Y-61666617D01*
X145108324Y-61666617D02*
X145537493Y-60203915D01*
X145537493Y-60203915D02*
X145856918Y-59231839D01*
X145856918Y-59231839D02*
X146191792Y-58464040D01*
X146191792Y-58464040D02*
X146631011Y-57578345D01*
X146631011Y-57578345D02*
X147079965Y-56756629D01*
X147079965Y-56756629D02*
X147278528Y-56426599D01*
X147278528Y-56426599D02*
X147444047Y-56180766D01*
X147444047Y-56180766D02*
X147929281Y-55531321D01*
X147929281Y-55531321D02*
X148447050Y-54880263D01*
X148447050Y-54880263D02*
X148693061Y-54546553D01*
X148693061Y-54546553D02*
X148951987Y-54144930D01*
X148951987Y-54144930D02*
X149217993Y-53686842D01*
X149217993Y-53686842D02*
X149485247Y-53183734D01*
X149485247Y-53183734D02*
X149747913Y-52647055D01*
X149747913Y-52647055D02*
X150000159Y-52088250D01*
X150000159Y-52088250D02*
X150236150Y-51518767D01*
X150236150Y-51518767D02*
X150450052Y-50950052D01*
X150450052Y-50950052D02*
X150663154Y-50392403D01*
X150663154Y-50392403D02*
X150932103Y-49748648D01*
X150932103Y-49748648D02*
X151222454Y-49098471D01*
X151222454Y-49098471D02*
X151499762Y-48521558D01*
X151499762Y-48521558D02*
X151746377Y-48042501D01*
X151746377Y-48042501D02*
X151951349Y-47685808D01*
X151951349Y-47685808D02*
X152135824Y-47440830D01*
X152135824Y-47440830D02*
X152226984Y-47356907D01*
X152226984Y-47356907D02*
X152320954Y-47296920D01*
X152320954Y-47296920D02*
X152420374Y-47259538D01*
X152420374Y-47259538D02*
X152527881Y-47243430D01*
X152527881Y-47243430D02*
X152646125Y-47247260D01*
X152646125Y-47247260D02*
X152777748Y-47269707D01*
X152777748Y-47269707D02*
X153091705Y-47365114D01*
X153091705Y-47365114D02*
X153490899Y-47518998D01*
X153490899Y-47518998D02*
X154131699Y-47766773D01*
X154131699Y-47766773D02*
X154743268Y-47984769D01*
X154743268Y-47984769D02*
X155335873Y-48175725D01*
X155335873Y-48175725D02*
X155919780Y-48342377D01*
X155919780Y-48342377D02*
X156505254Y-48487462D01*
X156505254Y-48487462D02*
X157102562Y-48613716D01*
X157102562Y-48613716D02*
X157721971Y-48723877D01*
X157721971Y-48723877D02*
X158373746Y-48820681D01*
X158373746Y-48820681D02*
X159562268Y-49005988D01*
X159562268Y-49005988D02*
X160070111Y-49106060D01*
X160070111Y-49106060D02*
X160527987Y-49213028D01*
X160527987Y-49213028D02*
X160941630Y-49328354D01*
X160941630Y-49328354D02*
X161316775Y-49453502D01*
X161316775Y-49453502D02*
X161659156Y-49589933D01*
X161659156Y-49589933D02*
X161974507Y-49739111D01*
X161974507Y-49739111D02*
X162217768Y-49848128D01*
X162217768Y-49848128D02*
X162511176Y-49952511D01*
X162511176Y-49952511D02*
X162846973Y-50050543D01*
X162846973Y-50050543D02*
X163217402Y-50140505D01*
X163217402Y-50140505D02*
X164031126Y-50289341D01*
X164031126Y-50289341D02*
X164458906Y-50344777D01*
X164458906Y-50344777D02*
X164890289Y-50385267D01*
X164890289Y-50385267D02*
X165375018Y-50435215D01*
X165375018Y-50435215D02*
X165912284Y-50512261D01*
X165912284Y-50512261D02*
X166436707Y-50605892D01*
X166436707Y-50605892D02*
X166882904Y-50705596D01*
X166882904Y-50705596D02*
X168016756Y-50984305D01*
X168016756Y-50984305D02*
X169075508Y-51221453D01*
X169075508Y-51221453D02*
X169913580Y-51386195D01*
X169913580Y-51386195D02*
X170204366Y-51431775D01*
X170204366Y-51431775D02*
X170385389Y-51447687D01*
X170385389Y-51447687D02*
X170589954Y-51461549D01*
X170589954Y-51461549D02*
X170879728Y-51501652D01*
X170879728Y-51501652D02*
X171665799Y-51648320D01*
X171665799Y-51648320D02*
X172645385Y-51863164D01*
X172645385Y-51863164D02*
X173720270Y-52121657D01*
X173720270Y-52121657D02*
X174792238Y-52399271D01*
X174792238Y-52399271D02*
X175763073Y-52671478D01*
X175763073Y-52671478D02*
X176534559Y-52913752D01*
X176534559Y-52913752D02*
X176814853Y-53016000D01*
X176814853Y-53016000D02*
X177008479Y-53101566D01*
X177008479Y-53101566D02*
X177200875Y-53210440D01*
X177200875Y-53210440D02*
X177353690Y-53322938D01*
X177353690Y-53322938D02*
X177473034Y-53452842D01*
X177473034Y-53452842D02*
X177565014Y-53613936D01*
X177565014Y-53613936D02*
X177635734Y-53820005D01*
X177635734Y-53820005D02*
X177691314Y-54084831D01*
X177691314Y-54084831D02*
X177781464Y-54845891D01*
X177781464Y-54845891D02*
X177817194Y-55340702D01*
X177817194Y-55340702D02*
X177812594Y-55701986D01*
X177812594Y-55701986D02*
X177763124Y-55984284D01*
X177763124Y-55984284D02*
X177664234Y-56242142D01*
X177664234Y-56242142D02*
X177574394Y-56411689D01*
X177574394Y-56411689D02*
X177483014Y-56550533D01*
X177483014Y-56550533D02*
X177400764Y-56644343D01*
X177400764Y-56644343D02*
X177338334Y-56678803D01*
X177338334Y-56678803D02*
X177292114Y-56691093D01*
X177292114Y-56691093D02*
X177254034Y-56724543D01*
X177254034Y-56724543D02*
X177228064Y-56774043D01*
X177228064Y-56774043D02*
X177218164Y-56834483D01*
X177218164Y-56834483D02*
X177178034Y-57029616D01*
X177178034Y-57029616D02*
X177068593Y-57332946D01*
X177068593Y-57332946D02*
X176902906Y-57717980D01*
X176902906Y-57717980D02*
X176694037Y-58158225D01*
X176694037Y-58158225D02*
X176199007Y-59098375D01*
X176199007Y-59098375D02*
X175938972Y-59545295D01*
X175938972Y-59545295D02*
X175688008Y-59941454D01*
X175688008Y-59941454D02*
X175285573Y-60509963D01*
X175285573Y-60509963D02*
X174701004Y-61293574D01*
X174701004Y-61293574D02*
X174012690Y-62188892D01*
X174012690Y-62188892D02*
X173299018Y-63092524D01*
X173299018Y-63092524D02*
X171916734Y-64862134D01*
X171916734Y-64862134D02*
X171353484Y-65613985D01*
X171353484Y-65613985D02*
X170977078Y-66143710D01*
X170977078Y-66143710D02*
X170505149Y-66894971D01*
X170505149Y-66894971D02*
X170058205Y-67704112D01*
X170058205Y-67704112D02*
X169629320Y-68588317D01*
X169629320Y-68588317D02*
X169211566Y-69564774D01*
X169211566Y-69564774D02*
X168798017Y-70650669D01*
X168798017Y-70650669D02*
X168381744Y-71863188D01*
X168381744Y-71863188D02*
X167955822Y-73219516D01*
X167955822Y-73219516D02*
X167513322Y-74736841D01*
X167513322Y-74736841D02*
X166707550Y-77523549D01*
X166707550Y-77523549D02*
X166525037Y-78154814D01*
X166525037Y-78154814D02*
X166475447Y-78364053D01*
X166475447Y-78364053D02*
X166452077Y-78522678D01*
X166452077Y-78522678D02*
X166453777Y-78645923D01*
X166453777Y-78645923D02*
X166479307Y-78749025D01*
X166479307Y-78749025D02*
X166527527Y-78847215D01*
X166527527Y-78847215D02*
X166597267Y-78955736D01*
X166597267Y-78955736D02*
X166943757Y-79491318D01*
X166943757Y-79491318D02*
X167521095Y-80468526D01*
X167521095Y-80468526D02*
X167994299Y-81326818D01*
X167994299Y-81326818D02*
X168439948Y-82211457D01*
X168439948Y-82211457D02*
X168934622Y-83267710D01*
X168934622Y-83267710D02*
X169721672Y-84933856D01*
X169721672Y-84933856D02*
X170071788Y-85622253D01*
X170071788Y-85622253D02*
X170413039Y-86249787D01*
X170413039Y-86249787D02*
X170760481Y-86843149D01*
X170760481Y-86843149D02*
X171129170Y-87429030D01*
X171129170Y-87429030D02*
X171534162Y-88034121D01*
X171534162Y-88034121D02*
X171990514Y-88685113D01*
X171990514Y-88685113D02*
X173508136Y-90849216D01*
X173508136Y-90849216D02*
X174722385Y-92656277D01*
X174722385Y-92656277D02*
X175199641Y-93401235D01*
X175199641Y-93401235D02*
X175581729Y-94027316D01*
X175581729Y-94027316D02*
X175862207Y-94524647D01*
X175862207Y-94524647D02*
X176034634Y-94883355D01*
X176034634Y-94883355D02*
X176144163Y-95173264D01*
X176144163Y-95173264D02*
X176240823Y-95473126D01*
X176240823Y-95473126D02*
X176324663Y-95784441D01*
X176324663Y-95784441D02*
X176395743Y-96108711D01*
X176395743Y-96108711D02*
X176499834Y-96802115D01*
X176499834Y-96802115D02*
X176553514Y-97565343D01*
X176553514Y-97565343D02*
X176557214Y-98410400D01*
X176557214Y-98410400D02*
X176511374Y-99349290D01*
X176511374Y-99349290D02*
X176416414Y-100394018D01*
X176416414Y-100394018D02*
X176272756Y-101556589D01*
X176272756Y-101556589D02*
X176149747Y-102618224D01*
X176149747Y-102618224D02*
X176081897Y-103619583D01*
X176081897Y-103619583D02*
X176070367Y-104574910D01*
X176070367Y-104574910D02*
X176116337Y-105498448D01*
X176116337Y-105498448D02*
X176161247Y-105952747D01*
X176161247Y-105952747D02*
X176220977Y-106404440D01*
X176220977Y-106404440D02*
X176385460Y-107307131D01*
X176385460Y-107307131D02*
X176610958Y-108220764D01*
X176610958Y-108220764D02*
X176898643Y-109159582D01*
X176898643Y-109159582D02*
X177086554Y-109753396D01*
X177086554Y-109753396D02*
X177244742Y-110322565D01*
X177244742Y-110322565D02*
X177374491Y-110874855D01*
X177374491Y-110874855D02*
X177477084Y-111418035D01*
X177477084Y-111418035D02*
X177553804Y-111959872D01*
X177553804Y-111959872D02*
X177605944Y-112508136D01*
X177605944Y-112508136D02*
X177634774Y-113070593D01*
X177634774Y-113070593D02*
X177641574Y-113655011D01*
X177641574Y-113655011D02*
X177634974Y-114193971D01*
X177634974Y-114193971D02*
X177615314Y-114636591D01*
X177615314Y-114636591D02*
X177571324Y-115026323D01*
X177571324Y-115026323D02*
X177491744Y-115406620D01*
X177491744Y-115406620D02*
X177365281Y-115820935D01*
X177365281Y-115820935D02*
X177180661Y-116312718D01*
X177180661Y-116312718D02*
X176591833Y-117702502D01*
X176591833Y-117702502D02*
X176186823Y-118636538D01*
X176186823Y-118636538D02*
X176092423Y-122559490D01*
X176092423Y-122559490D02*
X176014523Y-125014595D01*
X176014523Y-125014595D02*
X175965833Y-125882409D01*
X175965833Y-125882409D02*
X175905833Y-126552307D01*
X175905833Y-126552307D02*
X175830903Y-127055717D01*
X175830903Y-127055717D02*
X175737433Y-127424072D01*
X175737433Y-127424072D02*
X175621801Y-127688802D01*
X175621801Y-127688802D02*
X175480390Y-127881338D01*
X175480390Y-127881338D02*
X175348791Y-128010698D01*
X175348791Y-128010698D02*
X175198964Y-128136636D01*
X175198964Y-128136636D02*
X174851660Y-128375530D01*
X174851660Y-128375530D02*
X174452542Y-128592585D01*
X174452542Y-128592585D02*
X174015675Y-128782363D01*
X174015675Y-128782363D02*
X173555123Y-128939431D01*
X173555123Y-128939431D02*
X173084950Y-129058352D01*
X173084950Y-129058352D02*
X172619221Y-129133692D01*
X172619221Y-129133692D02*
X172172000Y-129160012D01*
X172172000Y-129160012D02*
X171842330Y-129148812D01*
X171842330Y-129148812D02*
X171524748Y-129115292D01*
X171524748Y-129115292D02*
X171219591Y-129059562D01*
X171219591Y-129059562D02*
X170927194Y-128981712D01*
X170927194Y-128981712D02*
X170647893Y-128881862D01*
X170647893Y-128881862D02*
X170382025Y-128760103D01*
X170382025Y-128760103D02*
X170129925Y-128616545D01*
X170129925Y-128616545D02*
X169891930Y-128451293D01*
X169891930Y-128451293D02*
X169458990Y-128121077D01*
X169458990Y-128121077D02*
X169166220Y-128484871D01*
X169166220Y-128484871D02*
X169006237Y-128718819D01*
X169006237Y-128718819D02*
X168835691Y-129038711D01*
X168835691Y-129038711D02*
X168652025Y-129451483D01*
X168652025Y-129451483D02*
X168452688Y-129964068D01*
X168452688Y-129964068D02*
X168235124Y-130583402D01*
X168235124Y-130583402D02*
X167996779Y-131316420D01*
X167996779Y-131316420D02*
X167447530Y-133151247D01*
X167447530Y-133151247D02*
X166839076Y-135179727D01*
X166839076Y-135179727D02*
X166551188Y-136072886D01*
X166551188Y-136072886D02*
X166274403Y-136884725D01*
X166274403Y-136884725D02*
X166008878Y-137614793D01*
X166008878Y-137614793D02*
X165754773Y-138262640D01*
X165754773Y-138262640D02*
X165512244Y-138827816D01*
X165512244Y-138827816D02*
X165281449Y-139309871D01*
X165281449Y-139309871D02*
X165047624Y-139717787D01*
X165047624Y-139717787D02*
X164764201Y-140130419D01*
X164764201Y-140130419D02*
X164443487Y-140534947D01*
X164443487Y-140534947D02*
X164097790Y-140918549D01*
X164097790Y-140918549D02*
X163739417Y-141268404D01*
X163739417Y-141268404D02*
X163380676Y-141571691D01*
X163380676Y-141571691D02*
X163033875Y-141815589D01*
X163033875Y-141815589D02*
X162711320Y-141987277D01*
X162711320Y-141987277D02*
X162247681Y-142160913D01*
X162247681Y-142160913D02*
X161772145Y-142291349D01*
X161772145Y-142291349D02*
X161288796Y-142379699D01*
X161288796Y-142379699D02*
X160801716Y-142427069D01*
X160801716Y-142427069D02*
X160314989Y-142434569D01*
X160314989Y-142434569D02*
X159832697Y-142403309D01*
X159832697Y-142403309D02*
X159358923Y-142334399D01*
X159358923Y-142334399D02*
X158897751Y-142228955D01*
X158897751Y-142228955D02*
X158453263Y-142088084D01*
X158453263Y-142088084D02*
X158029542Y-141912896D01*
X158029542Y-141912896D02*
X157630671Y-141704503D01*
X157630671Y-141704503D02*
X157260734Y-141464014D01*
X157260734Y-141464014D02*
X156923812Y-141192540D01*
X156923812Y-141192540D02*
X156623989Y-140891191D01*
X156623989Y-140891191D02*
X156365349Y-140561078D01*
X156365349Y-140561078D02*
X156151973Y-140203312D01*
X156151973Y-140203312D02*
X155900872Y-139711121D01*
X155900872Y-139711121D02*
X155273891Y-140880418D01*
X155273891Y-140880418D02*
X154722661Y-141870235D01*
X154722661Y-141870235D02*
X154486662Y-142256498D01*
X154486662Y-142256498D02*
X154265071Y-142587297D01*
X154265071Y-142587297D02*
X154048885Y-142875359D01*
X154048885Y-142875359D02*
X153829101Y-143133411D01*
X153829101Y-143133411D02*
X153596717Y-143374177D01*
X153596717Y-143374177D02*
X153342731Y-143610385D01*
X153342731Y-143610385D02*
X152994741Y-143900119D01*
X152994741Y-143900119D02*
X152650242Y-144144729D01*
X152650242Y-144144729D02*
X152301761Y-144347150D01*
X152301761Y-144347150D02*
X151941823Y-144510316D01*
X151941823Y-144510316D02*
X151562955Y-144637160D01*
X151562955Y-144637160D02*
X151157682Y-144730620D01*
X151157682Y-144730620D02*
X150718529Y-144793620D01*
X150718529Y-144793620D02*
X150238024Y-144829100D01*
X150238024Y-144829100D02*
X149600874Y-144848240D01*
X149600874Y-144848240D02*
X149371426Y-144841840D01*
X149371426Y-144841840D02*
X149180594Y-144821450D01*
X149180594Y-144821450D02*
X149012776Y-144784590D01*
X149012776Y-144784590D02*
X148852369Y-144728770D01*
X148852369Y-144728770D02*
X148491382Y-144550280D01*
X148491382Y-144550280D02*
X148220452Y-144389674D01*
X148220452Y-144389674D02*
X147931273Y-144196488D01*
X147931273Y-144196488D02*
X147658455Y-143995025D01*
X147658455Y-143995025D02*
X147436608Y-143809588D01*
X147436608Y-143809588D02*
X146988549Y-143399112D01*
X146988549Y-143399112D02*
X146381147Y-143720663D01*
X146381147Y-143720663D02*
X146025780Y-143888133D01*
X146025780Y-143888133D02*
X145859074Y-143944313D01*
X145859074Y-143944313D02*
X145683605Y-143985073D01*
X145683605Y-143985073D02*
X145258141Y-144029203D01*
X145258141Y-144029203D02*
X144652904Y-144038303D01*
X144652904Y-144038303D02*
X144043101Y-144023643D01*
X144043101Y-144023643D02*
X143804077Y-144003523D01*
X143804077Y-144003523D02*
X143591628Y-143971573D01*
X143591628Y-143971573D02*
X143392745Y-143925323D01*
X143392745Y-143925323D02*
X143194420Y-143862303D01*
X143194420Y-143862303D02*
X142747410Y-143676058D01*
X142747410Y-143676058D02*
X142500172Y-143552489D01*
X142500172Y-143552489D02*
X142261426Y-143411693D01*
X142261426Y-143411693D02*
X142031564Y-143254206D01*
X142031564Y-143254206D02*
X141810975Y-143080566D01*
X141810975Y-143080566D02*
X141600050Y-142891310D01*
X141600050Y-142891310D02*
X141399179Y-142686977D01*
X141399179Y-142686977D02*
X141208752Y-142468104D01*
X141208752Y-142468104D02*
X141029159Y-142235227D01*
X141029159Y-142235227D02*
X140860792Y-141988886D01*
X140860792Y-141988886D02*
X140704040Y-141729617D01*
X140704040Y-141729617D02*
X140559293Y-141457957D01*
X140559293Y-141457957D02*
X140426943Y-141174446D01*
X140426943Y-141174446D02*
X140307378Y-140879619D01*
X140307378Y-140879619D02*
X140200990Y-140574015D01*
X140200990Y-140574015D02*
X140108170Y-140258170D01*
X140108170Y-140258170D02*
X140029310Y-139932624D01*
X140029310Y-139932624D02*
X139972820Y-139633083D01*
X139972820Y-139633083D02*
X139928050Y-139311211D01*
X139928050Y-139311211D02*
X139872810Y-138613489D01*
X139872810Y-138613489D02*
X139861840Y-137865473D01*
X139861840Y-137865473D02*
X139893390Y-137093183D01*
X139893390Y-137093183D02*
X139965710Y-136322634D01*
X139965710Y-136322634D02*
X140077046Y-135579845D01*
X140077046Y-135579845D02*
X140225647Y-134890833D01*
X140225647Y-134890833D02*
X140313377Y-134574624D01*
X140313377Y-134574624D02*
X140409767Y-134281615D01*
X140409767Y-134281615D02*
X140551706Y-133867440D01*
X140551706Y-133867440D02*
X140579716Y-133740281D01*
X140579716Y-133740281D02*
X140575216Y-133654311D01*
X140575216Y-133654311D02*
X140535406Y-133600461D01*
X140535406Y-133600461D02*
X140457376Y-133569651D01*
X140457376Y-133569651D02*
X140175181Y-133540851D01*
X140175181Y-133540851D02*
X139922159Y-133515611D01*
X139922159Y-133515611D02*
X139678271Y-133474541D01*
X139678271Y-133474541D02*
X139443479Y-133417541D01*
X139443479Y-133417541D02*
X139217746Y-133344531D01*
X139217746Y-133344531D02*
X139001034Y-133255411D01*
X139001034Y-133255411D02*
X138793307Y-133150090D01*
X138793307Y-133150090D02*
X138594526Y-133028479D01*
X138594526Y-133028479D02*
X138404654Y-132890488D01*
X138404654Y-132890488D02*
X138223653Y-132736024D01*
X138223653Y-132736024D02*
X138051487Y-132564996D01*
X138051487Y-132564996D02*
X137888117Y-132377315D01*
X137888117Y-132377315D02*
X137733506Y-132172888D01*
X137733506Y-132172888D02*
X137587617Y-131951625D01*
X137587617Y-131951625D02*
X137450412Y-131713434D01*
X137450412Y-131713434D02*
X137321853Y-131458225D01*
X137321853Y-131458225D02*
X137201903Y-131185907D01*
X137201903Y-131185907D02*
X136987682Y-130589577D01*
X136987682Y-130589577D02*
X136807447Y-129923717D01*
X136807447Y-129923717D02*
X136660899Y-129187598D01*
X136660899Y-129187598D02*
X136547738Y-128380491D01*
X136547738Y-128380491D02*
X136467668Y-127501669D01*
X136467668Y-127501669D02*
X136420378Y-126550404D01*
X136420378Y-126550404D02*
X136405578Y-125525966D01*
X136405578Y-125525966D02*
X136422968Y-124427627D01*
X136422968Y-124427627D02*
X136506398Y-121687787D01*
X136506398Y-121687787D02*
X136486418Y-121473542D01*
X136486418Y-121473542D02*
X136423138Y-121120360D01*
X136423138Y-121120360D02*
X136206088Y-120193329D01*
X136206088Y-120193329D02*
X135958370Y-119211424D01*
X135958370Y-119211424D02*
X135801412Y-118512064D01*
X135801412Y-118512064D02*
X135744792Y-118257861D01*
X135744792Y-118257861D02*
X135718912Y-118219331D01*
X135718912Y-118219331D02*
X135690282Y-118249161D01*
X135690282Y-118249161D02*
X135611672Y-118541882D01*
X135611672Y-118541882D02*
X135482769Y-119191932D01*
X135482769Y-119191932D02*
X135269900Y-120156458D01*
X135269900Y-120156458D02*
X135163870Y-120553023D01*
X135163870Y-120553023D02*
X135075910Y-120821177D01*
X135075910Y-120821177D02*
X134987170Y-121101328D01*
X134987170Y-121101328D02*
X134965260Y-121248503D01*
X134965260Y-121248503D02*
X134958360Y-121417560D01*
X134958360Y-121417560D02*
X134989890Y-121872756D01*
X134989890Y-121872756D02*
X135082100Y-122569800D01*
X135082100Y-122569800D02*
X135168900Y-123400683D01*
X135168900Y-123400683D02*
X135220410Y-124392902D01*
X135220410Y-124392902D02*
X135238250Y-125484653D01*
X135238250Y-125484653D02*
X135224050Y-126614132D01*
X135224050Y-126614132D02*
X135179440Y-127719535D01*
X135179440Y-127719535D02*
X135106050Y-128739059D01*
X135106050Y-128739059D02*
X135005496Y-129610899D01*
X135005496Y-129610899D02*
X134945546Y-129972124D01*
X134945546Y-129972124D02*
X134879416Y-130273252D01*
X134879416Y-130273252D02*
X134652735Y-131060399D01*
X134652735Y-131060399D02*
X134537342Y-131385214D01*
X134537342Y-131385214D02*
X134416918Y-131672171D01*
X134416918Y-131672171D02*
X134288720Y-131927257D01*
X134288720Y-131927257D02*
X134150000Y-132156458D01*
X134150000Y-132156458D02*
X133998014Y-132365760D01*
X133998014Y-132365760D02*
X133830015Y-132561148D01*
X133830015Y-132561148D02*
X133661629Y-132718925D01*
X133661629Y-132718925D02*
X133458487Y-132869591D01*
X133458487Y-132869591D02*
X133226429Y-133010470D01*
X133226429Y-133010470D02*
X132971295Y-133138886D01*
X132971295Y-133138886D02*
X132698925Y-133252163D01*
X132698925Y-133252163D02*
X132415160Y-133347623D01*
X132415160Y-133347623D02*
X132125839Y-133422593D01*
X132125839Y-133422593D02*
X131836804Y-133474403D01*
X131836804Y-133474403D02*
X131608231Y-133517343D01*
X131608231Y-133517343D02*
X131427178Y-133574373D01*
X131427178Y-133574373D02*
X131308011Y-133639653D01*
X131308011Y-133639653D02*
X131276121Y-133673553D01*
X131276121Y-133673553D02*
X131265091Y-133707323D01*
X131265091Y-133707323D02*
X131296491Y-133864353D01*
X131296491Y-133864353D02*
X131381991Y-134177664D01*
X131381991Y-134177664D02*
X131663048Y-135091449D01*
X131663048Y-135091449D02*
X131882828Y-135815538D01*
X131882828Y-135815538D02*
X131953428Y-136116363D01*
X131953428Y-136116363D02*
X132002978Y-136415735D01*
X132002978Y-136415735D02*
X132035328Y-136743173D01*
X132035328Y-136743173D02*
X132054348Y-137128198D01*
X132054348Y-137128198D02*
X132067798Y-138189085D01*
X132067798Y-138189085D02*
X132064298Y-138859732D01*
X132064298Y-138859732D02*
X132046578Y-139432408D01*
X132046578Y-139432408D02*
X132011798Y-139924542D01*
X132011798Y-139924542D02*
X131957138Y-140353564D01*
X131957138Y-140353564D02*
X131879768Y-140736903D01*
X131879768Y-140736903D02*
X131776861Y-141091987D01*
X131776861Y-141091987D02*
X131645585Y-141436246D01*
X131645585Y-141436246D02*
X131483108Y-141787109D01*
X131483108Y-141787109D02*
X131314819Y-142116158D01*
X131314819Y-142116158D02*
X131162085Y-142362771D01*
X131162085Y-142362771D02*
X130942896Y-142643150D01*
X130942896Y-142643150D02*
X130575244Y-143073499D01*
X130575244Y-143073499D02*
X130400897Y-143258605D01*
X130400897Y-143258605D02*
X130207862Y-143432234D01*
X130207862Y-143432234D02*
X129997835Y-143593853D01*
X129997835Y-143593853D02*
X129772514Y-143742926D01*
X129772514Y-143742926D02*
X129533598Y-143878919D01*
X129533598Y-143878919D02*
X129282783Y-144001297D01*
X129282783Y-144001297D02*
X129021768Y-144109526D01*
X129021768Y-144109526D02*
X128752251Y-144203076D01*
X128752251Y-144203076D02*
X128475928Y-144281406D01*
X128475928Y-144281406D02*
X128194498Y-144343976D01*
X128194498Y-144343976D02*
X127909659Y-144390266D01*
X127909659Y-144390266D02*
X127623108Y-144419726D01*
X127623108Y-144419726D02*
X127336543Y-144431836D01*
X127336543Y-144431836D02*
X127051662Y-144426036D01*
X127051662Y-144426036D02*
X126770163Y-144401826D01*
X126770163Y-144401826D02*
X126493742Y-144358656D01*
X126493742Y-144358656D02*
X126172769Y-144286856D01*
X126172769Y-144286856D02*
X125868483Y-144201456D01*
X125868483Y-144201456D02*
X125615221Y-144113156D01*
X125615221Y-144113156D02*
X125447317Y-144032646D01*
X125447317Y-144032646D02*
X125223787Y-143907979D01*
X125223787Y-143907979D02*
X125073702Y-143856899D01*
X125073702Y-143856899D02*
X124986602Y-143902929D01*
X124986602Y-143902929D02*
X124821728Y-144027271D01*
X124821728Y-144027271D02*
X124353228Y-144435014D01*
X124353228Y-144435014D02*
X124052078Y-144702672D01*
X124052078Y-144702672D02*
X123779983Y-144913507D01*
X123779983Y-144913507D02*
X123518051Y-145074031D01*
X123518051Y-145074031D02*
X123247388Y-145190761D01*
X123247388Y-145190761D02*
X122949099Y-145270211D01*
X122949099Y-145270211D02*
X122604292Y-145318891D01*
X122604292Y-145318891D02*
X122194074Y-145343321D01*
X122194074Y-145343321D02*
X121699549Y-145350021D01*
X121699549Y-145350021D02*
X121009794Y-145339421D01*
X121009794Y-145339421D02*
X120756116Y-145320971D01*
X120756116Y-145320971D02*
X120539474Y-145289141D01*
X120539474Y-145289141D02*
X120342046Y-145240451D01*
X120342046Y-145240451D02*
X120146011Y-145171451D01*
X120146011Y-145171451D02*
X119686826Y-144958634D01*
X119686826Y-144958634D02*
X119686713Y-144958634D01*
X119686713Y-144958634D02*
X119686701Y-144958613D01*
M02*
