G04 #@! TF.GenerationSoftware,KiCad,Pcbnew,5.1.2*
G04 #@! TF.CreationDate,2019-07-03T09:18:27-05:00*
G04 #@! TF.ProjectId,matrix-pills,6d617472-6978-42d7-9069-6c6c732e6b69,rev?*
G04 #@! TF.SameCoordinates,Original*
G04 #@! TF.FileFunction,Soldermask,Top*
G04 #@! TF.FilePolarity,Negative*
%FSLAX46Y46*%
G04 Gerber Fmt 4.6, Leading zero omitted, Abs format (unit mm)*
G04 Created by KiCad (PCBNEW 5.1.2) date 2019-07-03 09:18:27*
%MOMM*%
%LPD*%
G04 APERTURE LIST*
%ADD10C,0.010000*%
%ADD11C,1.300000*%
G04 APERTURE END LIST*
D10*
G36*
X155574817Y-99152851D02*
G01*
X155739240Y-99170400D01*
X155910375Y-99201623D01*
X156083927Y-99245691D01*
X156255602Y-99301775D01*
X156421107Y-99369045D01*
X156468649Y-99391157D01*
X156701607Y-99516236D01*
X156920352Y-99660780D01*
X157122955Y-99823308D01*
X157307485Y-100002336D01*
X157399317Y-100105802D01*
X157559032Y-100314484D01*
X157695283Y-100532184D01*
X157807987Y-100757998D01*
X157897059Y-100991021D01*
X157962418Y-101230346D01*
X158003978Y-101475070D01*
X158021659Y-101724286D01*
X158015375Y-101977090D01*
X157985044Y-102232576D01*
X157930582Y-102489840D01*
X157851907Y-102747976D01*
X157748935Y-103006079D01*
X157679533Y-103152448D01*
X157617915Y-103267673D01*
X157552310Y-103374297D01*
X157480999Y-103473603D01*
X157402266Y-103566875D01*
X157314394Y-103655397D01*
X157215665Y-103740452D01*
X157104363Y-103823324D01*
X156978770Y-103905297D01*
X156837170Y-103987654D01*
X156677845Y-104071679D01*
X156499078Y-104158656D01*
X156299153Y-104249868D01*
X156090000Y-104340786D01*
X155978895Y-104387564D01*
X155858572Y-104437035D01*
X155728002Y-104489581D01*
X155586159Y-104545585D01*
X155432017Y-104605430D01*
X155264547Y-104669498D01*
X155082722Y-104738172D01*
X154885517Y-104811835D01*
X154671904Y-104890870D01*
X154440855Y-104975660D01*
X154191344Y-105066587D01*
X153922344Y-105164034D01*
X153632828Y-105268384D01*
X153321769Y-105380020D01*
X152988139Y-105499325D01*
X152838800Y-105552610D01*
X152682392Y-105608384D01*
X152524647Y-105664639D01*
X152368473Y-105720336D01*
X152216782Y-105774439D01*
X152072484Y-105825907D01*
X151938488Y-105873704D01*
X151817705Y-105916792D01*
X151713045Y-105954132D01*
X151627418Y-105984687D01*
X151581500Y-106001075D01*
X151317506Y-106095546D01*
X151040905Y-106194965D01*
X150757341Y-106297287D01*
X150472455Y-106400466D01*
X150191892Y-106502457D01*
X149921295Y-106601215D01*
X149666305Y-106694693D01*
X149549500Y-106737680D01*
X149360859Y-106806901D01*
X149193451Y-106867603D01*
X149044862Y-106920541D01*
X148912678Y-106966473D01*
X148794486Y-107006155D01*
X148687873Y-107040343D01*
X148590424Y-107069793D01*
X148499728Y-107095263D01*
X148413369Y-107117508D01*
X148328936Y-107137285D01*
X148244014Y-107155350D01*
X148171550Y-107169564D01*
X147990979Y-107198639D01*
X147804755Y-107219006D01*
X147619515Y-107230316D01*
X147441899Y-107232222D01*
X147278545Y-107224375D01*
X147225400Y-107219195D01*
X146985905Y-107180027D01*
X146750457Y-107117529D01*
X146521423Y-107033012D01*
X146301170Y-106927788D01*
X146092065Y-106803170D01*
X145896477Y-106660469D01*
X145716771Y-106500998D01*
X145555316Y-106326069D01*
X145508250Y-106267503D01*
X145365768Y-106063639D01*
X145244920Y-105848233D01*
X145145741Y-105623114D01*
X145068270Y-105390110D01*
X145012542Y-105151047D01*
X144978594Y-104907755D01*
X144966806Y-104668997D01*
X145212770Y-104668997D01*
X145213577Y-104758010D01*
X145218672Y-104837827D01*
X145228056Y-104902382D01*
X145235903Y-104931719D01*
X145263829Y-104993802D01*
X145299244Y-105045531D01*
X145337521Y-105080629D01*
X145351114Y-105087986D01*
X145389441Y-105096122D01*
X145438299Y-105095799D01*
X145487352Y-105088191D01*
X145526266Y-105074472D01*
X145537491Y-105066821D01*
X145570549Y-105026072D01*
X145606258Y-104961921D01*
X145643939Y-104876147D01*
X145682913Y-104770526D01*
X145722503Y-104646838D01*
X145762029Y-104506862D01*
X145784645Y-104418965D01*
X145824462Y-104263949D01*
X145862412Y-104129951D01*
X145900709Y-104013290D01*
X145941570Y-103910282D01*
X145987211Y-103817244D01*
X146039849Y-103730495D01*
X146101699Y-103646351D01*
X146174978Y-103561130D01*
X146261901Y-103471149D01*
X146364685Y-103372726D01*
X146475080Y-103271627D01*
X146538696Y-103212385D01*
X146584516Y-103164910D01*
X146615061Y-103125730D01*
X146632853Y-103091369D01*
X146640415Y-103058354D01*
X146641152Y-103042823D01*
X146638243Y-103017373D01*
X146626941Y-102993009D01*
X146603476Y-102963846D01*
X146566540Y-102926392D01*
X146514450Y-102880390D01*
X146852102Y-102880390D01*
X146853846Y-102917104D01*
X146858813Y-102940182D01*
X146868166Y-102955497D01*
X146880731Y-102967041D01*
X146921478Y-102985620D01*
X146977902Y-102991031D01*
X147043741Y-102982909D01*
X147064373Y-102977784D01*
X147116064Y-102953606D01*
X147168547Y-102912920D01*
X147213726Y-102863008D01*
X147239806Y-102819950D01*
X147255714Y-102765517D01*
X147262601Y-102698981D01*
X147260236Y-102631498D01*
X147248386Y-102574220D01*
X147245094Y-102565532D01*
X147210122Y-102508839D01*
X147163647Y-102472537D01*
X147109567Y-102456819D01*
X147051779Y-102461879D01*
X146994182Y-102487909D01*
X146940673Y-102535103D01*
X146928670Y-102549865D01*
X146892271Y-102608311D01*
X146868540Y-102674179D01*
X146855782Y-102753565D01*
X146852416Y-102824166D01*
X146852102Y-102880390D01*
X146514450Y-102880390D01*
X146500136Y-102867749D01*
X146438049Y-102827353D01*
X146376960Y-102805258D01*
X146313554Y-102801517D01*
X146244514Y-102816183D01*
X146166523Y-102849307D01*
X146076264Y-102900944D01*
X146023498Y-102935050D01*
X145910743Y-103023327D01*
X145801732Y-103134670D01*
X145697644Y-103266875D01*
X145599658Y-103417739D01*
X145508953Y-103585057D01*
X145426706Y-103766626D01*
X145354097Y-103960242D01*
X145292304Y-104163701D01*
X145242505Y-104374799D01*
X145236054Y-104407450D01*
X145224010Y-104487651D01*
X145216248Y-104576856D01*
X145212770Y-104668997D01*
X144966806Y-104668997D01*
X144966463Y-104662061D01*
X144976186Y-104415793D01*
X145007799Y-104170779D01*
X145061338Y-103928847D01*
X145136841Y-103691825D01*
X145234345Y-103461540D01*
X145353885Y-103239821D01*
X145444676Y-103099350D01*
X145534021Y-102979299D01*
X145637299Y-102855643D01*
X145748516Y-102734857D01*
X145861677Y-102623416D01*
X145970788Y-102527795D01*
X145982590Y-102518277D01*
X146040649Y-102477604D01*
X146121382Y-102429851D01*
X146223272Y-102375679D01*
X146344802Y-102315750D01*
X146484454Y-102250727D01*
X146640711Y-102181270D01*
X146812055Y-102108042D01*
X146996971Y-102031706D01*
X147193940Y-101952922D01*
X147401445Y-101872353D01*
X147617970Y-101790660D01*
X147822300Y-101715636D01*
X147913637Y-101682561D01*
X148024129Y-101642593D01*
X148149032Y-101597447D01*
X148283602Y-101548835D01*
X148423097Y-101498472D01*
X148562773Y-101448070D01*
X148697885Y-101399343D01*
X148755750Y-101378485D01*
X148847346Y-101345422D01*
X148960330Y-101304555D01*
X149092228Y-101256782D01*
X149240565Y-101203002D01*
X149402867Y-101144112D01*
X149576659Y-101081013D01*
X149759468Y-101014601D01*
X149948818Y-100945777D01*
X150142236Y-100875437D01*
X150337247Y-100804482D01*
X150531377Y-100733810D01*
X150679800Y-100679749D01*
X150999710Y-100563299D01*
X151297207Y-100455228D01*
X151573681Y-100355046D01*
X151830521Y-100262266D01*
X152069115Y-100176398D01*
X152290853Y-100096954D01*
X152497124Y-100023446D01*
X152689318Y-99955385D01*
X152868823Y-99892282D01*
X153037029Y-99833649D01*
X153195325Y-99778998D01*
X153345101Y-99727838D01*
X153487744Y-99679683D01*
X153624646Y-99634044D01*
X153757194Y-99590432D01*
X153886778Y-99548358D01*
X154000850Y-99511775D01*
X154229510Y-99439713D01*
X154435905Y-99376504D01*
X154621430Y-99321768D01*
X154787481Y-99275123D01*
X154935455Y-99236189D01*
X155066747Y-99204586D01*
X155182755Y-99179933D01*
X155283278Y-99162098D01*
X155421398Y-99149807D01*
X155574817Y-99152851D01*
X155574817Y-99152851D01*
G37*
X155574817Y-99152851D02*
X155739240Y-99170400D01*
X155910375Y-99201623D01*
X156083927Y-99245691D01*
X156255602Y-99301775D01*
X156421107Y-99369045D01*
X156468649Y-99391157D01*
X156701607Y-99516236D01*
X156920352Y-99660780D01*
X157122955Y-99823308D01*
X157307485Y-100002336D01*
X157399317Y-100105802D01*
X157559032Y-100314484D01*
X157695283Y-100532184D01*
X157807987Y-100757998D01*
X157897059Y-100991021D01*
X157962418Y-101230346D01*
X158003978Y-101475070D01*
X158021659Y-101724286D01*
X158015375Y-101977090D01*
X157985044Y-102232576D01*
X157930582Y-102489840D01*
X157851907Y-102747976D01*
X157748935Y-103006079D01*
X157679533Y-103152448D01*
X157617915Y-103267673D01*
X157552310Y-103374297D01*
X157480999Y-103473603D01*
X157402266Y-103566875D01*
X157314394Y-103655397D01*
X157215665Y-103740452D01*
X157104363Y-103823324D01*
X156978770Y-103905297D01*
X156837170Y-103987654D01*
X156677845Y-104071679D01*
X156499078Y-104158656D01*
X156299153Y-104249868D01*
X156090000Y-104340786D01*
X155978895Y-104387564D01*
X155858572Y-104437035D01*
X155728002Y-104489581D01*
X155586159Y-104545585D01*
X155432017Y-104605430D01*
X155264547Y-104669498D01*
X155082722Y-104738172D01*
X154885517Y-104811835D01*
X154671904Y-104890870D01*
X154440855Y-104975660D01*
X154191344Y-105066587D01*
X153922344Y-105164034D01*
X153632828Y-105268384D01*
X153321769Y-105380020D01*
X152988139Y-105499325D01*
X152838800Y-105552610D01*
X152682392Y-105608384D01*
X152524647Y-105664639D01*
X152368473Y-105720336D01*
X152216782Y-105774439D01*
X152072484Y-105825907D01*
X151938488Y-105873704D01*
X151817705Y-105916792D01*
X151713045Y-105954132D01*
X151627418Y-105984687D01*
X151581500Y-106001075D01*
X151317506Y-106095546D01*
X151040905Y-106194965D01*
X150757341Y-106297287D01*
X150472455Y-106400466D01*
X150191892Y-106502457D01*
X149921295Y-106601215D01*
X149666305Y-106694693D01*
X149549500Y-106737680D01*
X149360859Y-106806901D01*
X149193451Y-106867603D01*
X149044862Y-106920541D01*
X148912678Y-106966473D01*
X148794486Y-107006155D01*
X148687873Y-107040343D01*
X148590424Y-107069793D01*
X148499728Y-107095263D01*
X148413369Y-107117508D01*
X148328936Y-107137285D01*
X148244014Y-107155350D01*
X148171550Y-107169564D01*
X147990979Y-107198639D01*
X147804755Y-107219006D01*
X147619515Y-107230316D01*
X147441899Y-107232222D01*
X147278545Y-107224375D01*
X147225400Y-107219195D01*
X146985905Y-107180027D01*
X146750457Y-107117529D01*
X146521423Y-107033012D01*
X146301170Y-106927788D01*
X146092065Y-106803170D01*
X145896477Y-106660469D01*
X145716771Y-106500998D01*
X145555316Y-106326069D01*
X145508250Y-106267503D01*
X145365768Y-106063639D01*
X145244920Y-105848233D01*
X145145741Y-105623114D01*
X145068270Y-105390110D01*
X145012542Y-105151047D01*
X144978594Y-104907755D01*
X144966806Y-104668997D01*
X145212770Y-104668997D01*
X145213577Y-104758010D01*
X145218672Y-104837827D01*
X145228056Y-104902382D01*
X145235903Y-104931719D01*
X145263829Y-104993802D01*
X145299244Y-105045531D01*
X145337521Y-105080629D01*
X145351114Y-105087986D01*
X145389441Y-105096122D01*
X145438299Y-105095799D01*
X145487352Y-105088191D01*
X145526266Y-105074472D01*
X145537491Y-105066821D01*
X145570549Y-105026072D01*
X145606258Y-104961921D01*
X145643939Y-104876147D01*
X145682913Y-104770526D01*
X145722503Y-104646838D01*
X145762029Y-104506862D01*
X145784645Y-104418965D01*
X145824462Y-104263949D01*
X145862412Y-104129951D01*
X145900709Y-104013290D01*
X145941570Y-103910282D01*
X145987211Y-103817244D01*
X146039849Y-103730495D01*
X146101699Y-103646351D01*
X146174978Y-103561130D01*
X146261901Y-103471149D01*
X146364685Y-103372726D01*
X146475080Y-103271627D01*
X146538696Y-103212385D01*
X146584516Y-103164910D01*
X146615061Y-103125730D01*
X146632853Y-103091369D01*
X146640415Y-103058354D01*
X146641152Y-103042823D01*
X146638243Y-103017373D01*
X146626941Y-102993009D01*
X146603476Y-102963846D01*
X146566540Y-102926392D01*
X146514450Y-102880390D01*
X146852102Y-102880390D01*
X146853846Y-102917104D01*
X146858813Y-102940182D01*
X146868166Y-102955497D01*
X146880731Y-102967041D01*
X146921478Y-102985620D01*
X146977902Y-102991031D01*
X147043741Y-102982909D01*
X147064373Y-102977784D01*
X147116064Y-102953606D01*
X147168547Y-102912920D01*
X147213726Y-102863008D01*
X147239806Y-102819950D01*
X147255714Y-102765517D01*
X147262601Y-102698981D01*
X147260236Y-102631498D01*
X147248386Y-102574220D01*
X147245094Y-102565532D01*
X147210122Y-102508839D01*
X147163647Y-102472537D01*
X147109567Y-102456819D01*
X147051779Y-102461879D01*
X146994182Y-102487909D01*
X146940673Y-102535103D01*
X146928670Y-102549865D01*
X146892271Y-102608311D01*
X146868540Y-102674179D01*
X146855782Y-102753565D01*
X146852416Y-102824166D01*
X146852102Y-102880390D01*
X146514450Y-102880390D01*
X146500136Y-102867749D01*
X146438049Y-102827353D01*
X146376960Y-102805258D01*
X146313554Y-102801517D01*
X146244514Y-102816183D01*
X146166523Y-102849307D01*
X146076264Y-102900944D01*
X146023498Y-102935050D01*
X145910743Y-103023327D01*
X145801732Y-103134670D01*
X145697644Y-103266875D01*
X145599658Y-103417739D01*
X145508953Y-103585057D01*
X145426706Y-103766626D01*
X145354097Y-103960242D01*
X145292304Y-104163701D01*
X145242505Y-104374799D01*
X145236054Y-104407450D01*
X145224010Y-104487651D01*
X145216248Y-104576856D01*
X145212770Y-104668997D01*
X144966806Y-104668997D01*
X144966463Y-104662061D01*
X144976186Y-104415793D01*
X145007799Y-104170779D01*
X145061338Y-103928847D01*
X145136841Y-103691825D01*
X145234345Y-103461540D01*
X145353885Y-103239821D01*
X145444676Y-103099350D01*
X145534021Y-102979299D01*
X145637299Y-102855643D01*
X145748516Y-102734857D01*
X145861677Y-102623416D01*
X145970788Y-102527795D01*
X145982590Y-102518277D01*
X146040649Y-102477604D01*
X146121382Y-102429851D01*
X146223272Y-102375679D01*
X146344802Y-102315750D01*
X146484454Y-102250727D01*
X146640711Y-102181270D01*
X146812055Y-102108042D01*
X146996971Y-102031706D01*
X147193940Y-101952922D01*
X147401445Y-101872353D01*
X147617970Y-101790660D01*
X147822300Y-101715636D01*
X147913637Y-101682561D01*
X148024129Y-101642593D01*
X148149032Y-101597447D01*
X148283602Y-101548835D01*
X148423097Y-101498472D01*
X148562773Y-101448070D01*
X148697885Y-101399343D01*
X148755750Y-101378485D01*
X148847346Y-101345422D01*
X148960330Y-101304555D01*
X149092228Y-101256782D01*
X149240565Y-101203002D01*
X149402867Y-101144112D01*
X149576659Y-101081013D01*
X149759468Y-101014601D01*
X149948818Y-100945777D01*
X150142236Y-100875437D01*
X150337247Y-100804482D01*
X150531377Y-100733810D01*
X150679800Y-100679749D01*
X150999710Y-100563299D01*
X151297207Y-100455228D01*
X151573681Y-100355046D01*
X151830521Y-100262266D01*
X152069115Y-100176398D01*
X152290853Y-100096954D01*
X152497124Y-100023446D01*
X152689318Y-99955385D01*
X152868823Y-99892282D01*
X153037029Y-99833649D01*
X153195325Y-99778998D01*
X153345101Y-99727838D01*
X153487744Y-99679683D01*
X153624646Y-99634044D01*
X153757194Y-99590432D01*
X153886778Y-99548358D01*
X154000850Y-99511775D01*
X154229510Y-99439713D01*
X154435905Y-99376504D01*
X154621430Y-99321768D01*
X154787481Y-99275123D01*
X154935455Y-99236189D01*
X155066747Y-99204586D01*
X155182755Y-99179933D01*
X155283278Y-99162098D01*
X155421398Y-99149807D01*
X155574817Y-99152851D01*
G36*
X116328216Y-98727626D02*
G01*
X116529074Y-98732237D01*
X116714473Y-98740176D01*
X116887677Y-98751627D01*
X117051948Y-98766775D01*
X117210549Y-98785803D01*
X117366744Y-98808897D01*
X117399450Y-98814264D01*
X117493634Y-98830756D01*
X117589291Y-98849187D01*
X117688611Y-98870128D01*
X117793789Y-98894150D01*
X117907016Y-98921826D01*
X118030486Y-98953726D01*
X118166392Y-98990421D01*
X118316927Y-99032483D01*
X118484282Y-99080483D01*
X118670652Y-99134993D01*
X118878229Y-99196583D01*
X118955200Y-99219589D01*
X119185344Y-99288402D01*
X119402153Y-99353023D01*
X119608042Y-99414144D01*
X119805426Y-99472454D01*
X119996719Y-99528647D01*
X120184337Y-99583412D01*
X120370694Y-99637441D01*
X120558205Y-99691425D01*
X120749284Y-99746056D01*
X120946347Y-99802024D01*
X121151809Y-99860020D01*
X121368083Y-99920737D01*
X121597586Y-99984865D01*
X121842731Y-100053094D01*
X122105934Y-100126117D01*
X122389610Y-100204625D01*
X122593750Y-100261031D01*
X122912979Y-100349491D01*
X123208716Y-100432138D01*
X123482096Y-100509381D01*
X123734252Y-100581634D01*
X123966318Y-100649308D01*
X124179426Y-100712816D01*
X124374711Y-100772570D01*
X124553306Y-100828981D01*
X124716344Y-100882463D01*
X124864960Y-100933426D01*
X125000287Y-100982283D01*
X125123458Y-101029447D01*
X125235608Y-101075328D01*
X125337868Y-101120340D01*
X125431375Y-101164894D01*
X125517259Y-101209403D01*
X125596657Y-101254278D01*
X125670700Y-101299932D01*
X125740522Y-101346777D01*
X125807258Y-101395224D01*
X125872040Y-101445687D01*
X125887935Y-101458561D01*
X125940506Y-101503483D01*
X126000782Y-101558111D01*
X126059120Y-101613601D01*
X126084441Y-101638795D01*
X126231749Y-101806000D01*
X126362746Y-101990973D01*
X126476864Y-102191551D01*
X126573536Y-102405568D01*
X126652194Y-102630860D01*
X126712269Y-102865263D01*
X126753193Y-103106612D01*
X126774399Y-103352743D01*
X126775319Y-103601491D01*
X126755385Y-103850691D01*
X126720962Y-104064550D01*
X126677539Y-104242710D01*
X126618975Y-104423131D01*
X126548063Y-104598834D01*
X126467595Y-104762839D01*
X126388178Y-104896400D01*
X126318793Y-104995460D01*
X126236511Y-105102484D01*
X126148020Y-105209262D01*
X126060010Y-105307584D01*
X126015455Y-105353853D01*
X125842512Y-105513988D01*
X125663504Y-105651537D01*
X125475867Y-105767816D01*
X125277039Y-105864141D01*
X125064457Y-105941829D01*
X124835556Y-106002197D01*
X124701950Y-106028463D01*
X124622877Y-106039235D01*
X124524079Y-106047887D01*
X124411152Y-106054308D01*
X124289691Y-106058389D01*
X124165292Y-106060019D01*
X124043551Y-106059089D01*
X123930062Y-106055486D01*
X123830422Y-106049103D01*
X123800250Y-106046232D01*
X123653885Y-106029216D01*
X123509234Y-106008910D01*
X123363338Y-105984649D01*
X123213236Y-105955771D01*
X123055969Y-105921611D01*
X122888576Y-105881505D01*
X122708097Y-105834791D01*
X122511573Y-105780803D01*
X122296043Y-105718878D01*
X122155564Y-105677396D01*
X121839320Y-105584042D01*
X121503857Y-105486583D01*
X121154716Y-105386592D01*
X120797434Y-105285639D01*
X120437552Y-105185298D01*
X120080608Y-105087139D01*
X119958500Y-105053890D01*
X119678345Y-104977780D01*
X119420762Y-104907740D01*
X119183796Y-104843232D01*
X118965492Y-104783718D01*
X118763896Y-104728662D01*
X118577054Y-104677526D01*
X118403010Y-104629773D01*
X118239811Y-104584865D01*
X118085502Y-104542265D01*
X117938129Y-104501436D01*
X117795737Y-104461841D01*
X117656371Y-104422941D01*
X117518078Y-104384201D01*
X117378902Y-104345082D01*
X117323553Y-104329491D01*
X117107913Y-104268760D01*
X116914234Y-104214315D01*
X116740052Y-104165472D01*
X116582901Y-104121550D01*
X116440317Y-104081867D01*
X116309836Y-104045740D01*
X116188992Y-104012489D01*
X116075322Y-103981431D01*
X115966359Y-103951884D01*
X115859640Y-103923166D01*
X115752700Y-103894595D01*
X115729400Y-103888395D01*
X115580004Y-103847825D01*
X115451555Y-103810991D01*
X115340099Y-103776610D01*
X115241684Y-103743398D01*
X115152357Y-103710072D01*
X115068164Y-103675350D01*
X115054072Y-103669214D01*
X114876996Y-103582304D01*
X114709212Y-103480391D01*
X114548242Y-103361460D01*
X114391610Y-103223499D01*
X114236840Y-103064493D01*
X114081454Y-102882429D01*
X114072106Y-102870789D01*
X113983796Y-102758853D01*
X113910841Y-102662092D01*
X113851374Y-102577008D01*
X113803530Y-102500105D01*
X113765441Y-102427887D01*
X113735243Y-102356858D01*
X113711067Y-102283521D01*
X113691049Y-102204379D01*
X113675509Y-102127800D01*
X113670449Y-102098177D01*
X113666195Y-102066568D01*
X113662679Y-102030581D01*
X113659834Y-101987820D01*
X113657592Y-101935894D01*
X113655884Y-101872409D01*
X113654642Y-101794972D01*
X113653800Y-101701188D01*
X113653288Y-101588666D01*
X113653039Y-101455012D01*
X113652984Y-101334050D01*
X113653130Y-101168238D01*
X113653686Y-101025183D01*
X113654799Y-100902244D01*
X113656616Y-100796779D01*
X113659284Y-100706147D01*
X113662950Y-100627707D01*
X113667763Y-100558817D01*
X113673868Y-100496835D01*
X113681414Y-100439121D01*
X113690548Y-100383032D01*
X113701416Y-100325927D01*
X113712025Y-100275095D01*
X113719093Y-100247287D01*
X114117095Y-100247287D01*
X114124328Y-100318925D01*
X114142834Y-100379110D01*
X114172391Y-100422848D01*
X114183884Y-100432371D01*
X114206881Y-100446183D01*
X114227696Y-100449480D01*
X114255163Y-100441856D01*
X114287950Y-100427579D01*
X114319972Y-100410893D01*
X114355457Y-100387967D01*
X114396892Y-100356748D01*
X114446766Y-100315181D01*
X114507565Y-100261213D01*
X114581777Y-100192789D01*
X114649900Y-100128700D01*
X114781959Y-100007309D01*
X114902793Y-99904673D01*
X115015906Y-99818854D01*
X115124801Y-99747915D01*
X115232985Y-99689917D01*
X115343960Y-99642922D01*
X115461231Y-99604994D01*
X115588302Y-99574193D01*
X115686250Y-99555613D01*
X115828982Y-99527703D01*
X115949088Y-99496583D01*
X116049254Y-99461166D01*
X116116817Y-99427917D01*
X116600434Y-99427917D01*
X116606206Y-99456258D01*
X116632950Y-99515213D01*
X116675686Y-99570460D01*
X116726542Y-99612336D01*
X116739050Y-99619308D01*
X116798679Y-99636638D01*
X116866165Y-99636369D01*
X116931608Y-99619061D01*
X116955789Y-99607029D01*
X117006330Y-99563508D01*
X117041977Y-99504141D01*
X117061475Y-99434511D01*
X117063569Y-99360200D01*
X117047002Y-99286792D01*
X117034325Y-99257859D01*
X116997528Y-99201289D01*
X116954299Y-99167086D01*
X116899998Y-99152280D01*
X116867714Y-99151211D01*
X116791731Y-99163499D01*
X116724145Y-99194192D01*
X116668089Y-99239635D01*
X116626696Y-99296174D01*
X116603100Y-99360153D01*
X116600434Y-99427917D01*
X116116817Y-99427917D01*
X116132165Y-99420364D01*
X116200505Y-99373092D01*
X116248065Y-99328186D01*
X116292451Y-99268191D01*
X116311866Y-99210492D01*
X116306410Y-99153318D01*
X116276184Y-99094895D01*
X116262305Y-99076865D01*
X116202476Y-99022947D01*
X116123650Y-98980769D01*
X116029916Y-98951480D01*
X115925363Y-98936228D01*
X115814080Y-98936161D01*
X115774557Y-98939907D01*
X115613911Y-98968607D01*
X115447988Y-99015772D01*
X115279700Y-99079457D01*
X115111961Y-99157720D01*
X114947685Y-99248615D01*
X114789785Y-99350200D01*
X114641174Y-99460530D01*
X114504766Y-99577662D01*
X114383473Y-99699651D01*
X114280211Y-99824555D01*
X114197891Y-99950429D01*
X114165257Y-100013630D01*
X114137337Y-100089644D01*
X114121357Y-100169195D01*
X114117095Y-100247287D01*
X113719093Y-100247287D01*
X113742739Y-100154262D01*
X113782301Y-100040189D01*
X113832341Y-99930654D01*
X113894483Y-99823435D01*
X113970357Y-99716309D01*
X114061588Y-99607055D01*
X114169803Y-99493451D01*
X114296631Y-99373275D01*
X114443696Y-99244304D01*
X114503850Y-99193674D01*
X114623749Y-99095324D01*
X114728533Y-99013217D01*
X114821050Y-98945635D01*
X114904145Y-98890860D01*
X114980666Y-98847177D01*
X115053458Y-98812866D01*
X115125369Y-98786211D01*
X115199244Y-98765494D01*
X115222421Y-98760134D01*
X115254508Y-98753468D01*
X115286841Y-98747938D01*
X115322279Y-98743400D01*
X115363686Y-98739710D01*
X115413920Y-98736724D01*
X115475844Y-98734297D01*
X115552318Y-98732285D01*
X115646203Y-98730545D01*
X115760361Y-98728932D01*
X115867071Y-98727649D01*
X116108636Y-98726158D01*
X116328216Y-98727626D01*
X116328216Y-98727626D01*
G37*
X116328216Y-98727626D02*
X116529074Y-98732237D01*
X116714473Y-98740176D01*
X116887677Y-98751627D01*
X117051948Y-98766775D01*
X117210549Y-98785803D01*
X117366744Y-98808897D01*
X117399450Y-98814264D01*
X117493634Y-98830756D01*
X117589291Y-98849187D01*
X117688611Y-98870128D01*
X117793789Y-98894150D01*
X117907016Y-98921826D01*
X118030486Y-98953726D01*
X118166392Y-98990421D01*
X118316927Y-99032483D01*
X118484282Y-99080483D01*
X118670652Y-99134993D01*
X118878229Y-99196583D01*
X118955200Y-99219589D01*
X119185344Y-99288402D01*
X119402153Y-99353023D01*
X119608042Y-99414144D01*
X119805426Y-99472454D01*
X119996719Y-99528647D01*
X120184337Y-99583412D01*
X120370694Y-99637441D01*
X120558205Y-99691425D01*
X120749284Y-99746056D01*
X120946347Y-99802024D01*
X121151809Y-99860020D01*
X121368083Y-99920737D01*
X121597586Y-99984865D01*
X121842731Y-100053094D01*
X122105934Y-100126117D01*
X122389610Y-100204625D01*
X122593750Y-100261031D01*
X122912979Y-100349491D01*
X123208716Y-100432138D01*
X123482096Y-100509381D01*
X123734252Y-100581634D01*
X123966318Y-100649308D01*
X124179426Y-100712816D01*
X124374711Y-100772570D01*
X124553306Y-100828981D01*
X124716344Y-100882463D01*
X124864960Y-100933426D01*
X125000287Y-100982283D01*
X125123458Y-101029447D01*
X125235608Y-101075328D01*
X125337868Y-101120340D01*
X125431375Y-101164894D01*
X125517259Y-101209403D01*
X125596657Y-101254278D01*
X125670700Y-101299932D01*
X125740522Y-101346777D01*
X125807258Y-101395224D01*
X125872040Y-101445687D01*
X125887935Y-101458561D01*
X125940506Y-101503483D01*
X126000782Y-101558111D01*
X126059120Y-101613601D01*
X126084441Y-101638795D01*
X126231749Y-101806000D01*
X126362746Y-101990973D01*
X126476864Y-102191551D01*
X126573536Y-102405568D01*
X126652194Y-102630860D01*
X126712269Y-102865263D01*
X126753193Y-103106612D01*
X126774399Y-103352743D01*
X126775319Y-103601491D01*
X126755385Y-103850691D01*
X126720962Y-104064550D01*
X126677539Y-104242710D01*
X126618975Y-104423131D01*
X126548063Y-104598834D01*
X126467595Y-104762839D01*
X126388178Y-104896400D01*
X126318793Y-104995460D01*
X126236511Y-105102484D01*
X126148020Y-105209262D01*
X126060010Y-105307584D01*
X126015455Y-105353853D01*
X125842512Y-105513988D01*
X125663504Y-105651537D01*
X125475867Y-105767816D01*
X125277039Y-105864141D01*
X125064457Y-105941829D01*
X124835556Y-106002197D01*
X124701950Y-106028463D01*
X124622877Y-106039235D01*
X124524079Y-106047887D01*
X124411152Y-106054308D01*
X124289691Y-106058389D01*
X124165292Y-106060019D01*
X124043551Y-106059089D01*
X123930062Y-106055486D01*
X123830422Y-106049103D01*
X123800250Y-106046232D01*
X123653885Y-106029216D01*
X123509234Y-106008910D01*
X123363338Y-105984649D01*
X123213236Y-105955771D01*
X123055969Y-105921611D01*
X122888576Y-105881505D01*
X122708097Y-105834791D01*
X122511573Y-105780803D01*
X122296043Y-105718878D01*
X122155564Y-105677396D01*
X121839320Y-105584042D01*
X121503857Y-105486583D01*
X121154716Y-105386592D01*
X120797434Y-105285639D01*
X120437552Y-105185298D01*
X120080608Y-105087139D01*
X119958500Y-105053890D01*
X119678345Y-104977780D01*
X119420762Y-104907740D01*
X119183796Y-104843232D01*
X118965492Y-104783718D01*
X118763896Y-104728662D01*
X118577054Y-104677526D01*
X118403010Y-104629773D01*
X118239811Y-104584865D01*
X118085502Y-104542265D01*
X117938129Y-104501436D01*
X117795737Y-104461841D01*
X117656371Y-104422941D01*
X117518078Y-104384201D01*
X117378902Y-104345082D01*
X117323553Y-104329491D01*
X117107913Y-104268760D01*
X116914234Y-104214315D01*
X116740052Y-104165472D01*
X116582901Y-104121550D01*
X116440317Y-104081867D01*
X116309836Y-104045740D01*
X116188992Y-104012489D01*
X116075322Y-103981431D01*
X115966359Y-103951884D01*
X115859640Y-103923166D01*
X115752700Y-103894595D01*
X115729400Y-103888395D01*
X115580004Y-103847825D01*
X115451555Y-103810991D01*
X115340099Y-103776610D01*
X115241684Y-103743398D01*
X115152357Y-103710072D01*
X115068164Y-103675350D01*
X115054072Y-103669214D01*
X114876996Y-103582304D01*
X114709212Y-103480391D01*
X114548242Y-103361460D01*
X114391610Y-103223499D01*
X114236840Y-103064493D01*
X114081454Y-102882429D01*
X114072106Y-102870789D01*
X113983796Y-102758853D01*
X113910841Y-102662092D01*
X113851374Y-102577008D01*
X113803530Y-102500105D01*
X113765441Y-102427887D01*
X113735243Y-102356858D01*
X113711067Y-102283521D01*
X113691049Y-102204379D01*
X113675509Y-102127800D01*
X113670449Y-102098177D01*
X113666195Y-102066568D01*
X113662679Y-102030581D01*
X113659834Y-101987820D01*
X113657592Y-101935894D01*
X113655884Y-101872409D01*
X113654642Y-101794972D01*
X113653800Y-101701188D01*
X113653288Y-101588666D01*
X113653039Y-101455012D01*
X113652984Y-101334050D01*
X113653130Y-101168238D01*
X113653686Y-101025183D01*
X113654799Y-100902244D01*
X113656616Y-100796779D01*
X113659284Y-100706147D01*
X113662950Y-100627707D01*
X113667763Y-100558817D01*
X113673868Y-100496835D01*
X113681414Y-100439121D01*
X113690548Y-100383032D01*
X113701416Y-100325927D01*
X113712025Y-100275095D01*
X113719093Y-100247287D01*
X114117095Y-100247287D01*
X114124328Y-100318925D01*
X114142834Y-100379110D01*
X114172391Y-100422848D01*
X114183884Y-100432371D01*
X114206881Y-100446183D01*
X114227696Y-100449480D01*
X114255163Y-100441856D01*
X114287950Y-100427579D01*
X114319972Y-100410893D01*
X114355457Y-100387967D01*
X114396892Y-100356748D01*
X114446766Y-100315181D01*
X114507565Y-100261213D01*
X114581777Y-100192789D01*
X114649900Y-100128700D01*
X114781959Y-100007309D01*
X114902793Y-99904673D01*
X115015906Y-99818854D01*
X115124801Y-99747915D01*
X115232985Y-99689917D01*
X115343960Y-99642922D01*
X115461231Y-99604994D01*
X115588302Y-99574193D01*
X115686250Y-99555613D01*
X115828982Y-99527703D01*
X115949088Y-99496583D01*
X116049254Y-99461166D01*
X116116817Y-99427917D01*
X116600434Y-99427917D01*
X116606206Y-99456258D01*
X116632950Y-99515213D01*
X116675686Y-99570460D01*
X116726542Y-99612336D01*
X116739050Y-99619308D01*
X116798679Y-99636638D01*
X116866165Y-99636369D01*
X116931608Y-99619061D01*
X116955789Y-99607029D01*
X117006330Y-99563508D01*
X117041977Y-99504141D01*
X117061475Y-99434511D01*
X117063569Y-99360200D01*
X117047002Y-99286792D01*
X117034325Y-99257859D01*
X116997528Y-99201289D01*
X116954299Y-99167086D01*
X116899998Y-99152280D01*
X116867714Y-99151211D01*
X116791731Y-99163499D01*
X116724145Y-99194192D01*
X116668089Y-99239635D01*
X116626696Y-99296174D01*
X116603100Y-99360153D01*
X116600434Y-99427917D01*
X116116817Y-99427917D01*
X116132165Y-99420364D01*
X116200505Y-99373092D01*
X116248065Y-99328186D01*
X116292451Y-99268191D01*
X116311866Y-99210492D01*
X116306410Y-99153318D01*
X116276184Y-99094895D01*
X116262305Y-99076865D01*
X116202476Y-99022947D01*
X116123650Y-98980769D01*
X116029916Y-98951480D01*
X115925363Y-98936228D01*
X115814080Y-98936161D01*
X115774557Y-98939907D01*
X115613911Y-98968607D01*
X115447988Y-99015772D01*
X115279700Y-99079457D01*
X115111961Y-99157720D01*
X114947685Y-99248615D01*
X114789785Y-99350200D01*
X114641174Y-99460530D01*
X114504766Y-99577662D01*
X114383473Y-99699651D01*
X114280211Y-99824555D01*
X114197891Y-99950429D01*
X114165257Y-100013630D01*
X114137337Y-100089644D01*
X114121357Y-100169195D01*
X114117095Y-100247287D01*
X113719093Y-100247287D01*
X113742739Y-100154262D01*
X113782301Y-100040189D01*
X113832341Y-99930654D01*
X113894483Y-99823435D01*
X113970357Y-99716309D01*
X114061588Y-99607055D01*
X114169803Y-99493451D01*
X114296631Y-99373275D01*
X114443696Y-99244304D01*
X114503850Y-99193674D01*
X114623749Y-99095324D01*
X114728533Y-99013217D01*
X114821050Y-98945635D01*
X114904145Y-98890860D01*
X114980666Y-98847177D01*
X115053458Y-98812866D01*
X115125369Y-98786211D01*
X115199244Y-98765494D01*
X115222421Y-98760134D01*
X115254508Y-98753468D01*
X115286841Y-98747938D01*
X115322279Y-98743400D01*
X115363686Y-98739710D01*
X115413920Y-98736724D01*
X115475844Y-98734297D01*
X115552318Y-98732285D01*
X115646203Y-98730545D01*
X115760361Y-98728932D01*
X115867071Y-98727649D01*
X116108636Y-98726158D01*
X116328216Y-98727626D01*
D11*
X95550000Y-107300000D03*
X95550000Y-104300000D03*
M02*
